M48
; DRILL file {KiCad 7.0.7-7.0.7~ubuntu22.04.1} date Sat 16 Sep 2023 05:49:38 PM CDT
; FORMAT={-:-/ absolute / inch / decimal}
; #@! TF.CreationDate,2023-09-16T17:49:38-05:00
; #@! TF.GenerationSoftware,Kicad,Pcbnew,7.0.7-7.0.7~ubuntu22.04.1
; #@! TF.FileFunction,Plated,1,2,PTH
FMAT,2
INCH
; #@! TA.AperFunction,Plated,PTH,ViaDrill
T1C0.0118
; #@! TA.AperFunction,Plated,PTH,ComponentDrill
T2C0.0339
%
G90
G05
T1
X1.9245Y-1.1289
X1.9245Y-1.2333
X1.9245Y-1.4222
X1.9245Y-1.5266
X1.9245Y-1.7156
X1.9245Y-1.8199
X1.9245Y-2.0089
X1.9245Y-2.1132
X1.9245Y-2.3022
X1.9245Y-2.4065
X1.9245Y-2.5955
X1.9245Y-2.6998
X2.3193Y-1.1817
X2.3193Y-1.475
X2.3193Y-1.7683
X2.3193Y-2.0616
X2.3193Y-2.3549
X2.3193Y-2.6482
X2.5661Y-1.1813
X2.5661Y-1.4746
X2.5661Y-1.7679
X2.5661Y-2.0612
X2.5661Y-2.3545
X2.5661Y-2.6478
X2.813Y-1.1813
X2.813Y-1.4746
X2.813Y-1.7679
X2.813Y-2.0612
X2.813Y-2.3545
X2.813Y-2.6478
X2.8799Y-1.1289
X2.8799Y-1.2222
X2.8799Y-1.4222
X2.8799Y-1.5156
X2.8799Y-1.7156
X2.8799Y-1.8089
X2.8799Y-2.0089
X2.8799Y-2.1022
X2.8799Y-2.3022
X2.8799Y-2.3955
X2.8799Y-2.5955
X2.8799Y-2.6888
X3.1181Y-1.1484
X3.1181Y-1.2039
X3.1181Y-1.4417
X3.1181Y-1.4972
X3.1181Y-1.735
X3.1181Y-1.7906
X3.1181Y-2.0283
X3.1181Y-2.0839
X3.1181Y-2.3217
X3.1181Y-2.3772
X3.1181Y-2.615
X3.1181Y-2.6705
X3.1813Y-1.1896
X3.1813Y-1.4829
X3.1813Y-1.7762
X3.1813Y-2.0695
X3.1813Y-2.3628
X3.1813Y-2.6561
X3.3396Y-1.1501
X3.3396Y-1.4434
X3.3396Y-1.7367
X3.3396Y-2.03
X3.3396Y-2.3233
X3.3396Y-2.6167
X3.3768Y-1.1567
X3.3768Y-1.45
X3.3768Y-1.7433
X3.3768Y-2.0366
X3.3768Y-2.3299
X3.3768Y-2.6232
X3.4669Y-1.1941
X3.4669Y-1.4874
X3.4669Y-1.7807
X3.4669Y-2.074
X3.4669Y-2.3673
X3.4669Y-2.6606
X3.4705Y-1.1437
X3.4705Y-1.437
X3.4705Y-1.7303
X3.4705Y-2.0236
X3.4705Y-2.3169
X3.4705Y-2.6102
X3.5272Y-1.1697
X3.5272Y-1.463
X3.5272Y-1.7563
X3.5272Y-2.0496
X3.5272Y-2.3429
X3.5272Y-2.6362
X3.55Y-1.1941
X3.55Y-1.4874
X3.55Y-1.7807
X3.55Y-2.074
X3.55Y-2.3673
X3.55Y-2.6606
X3.6008Y-1.2185
X3.6008Y-1.5118
X3.6008Y-1.8051
X3.6008Y-2.0984
X3.6008Y-2.3917
X3.6008Y-2.685
X3.7866Y-1.1441
X3.7866Y-1.4374
X3.7866Y-1.7307
X3.7866Y-2.024
X3.7866Y-2.3173
X3.7866Y-2.6106
X3.8392Y-1.2297
X3.8392Y-1.523
X3.8392Y-1.8163
X3.8392Y-2.1096
X3.8392Y-2.403
X3.8392Y-2.6963
X3.8589Y-1.1352
X3.8589Y-1.4285
X3.8589Y-1.7219
X3.8589Y-2.0152
X3.8589Y-2.3085
X3.8589Y-2.6018
X3.8785Y-1.2317
X3.8785Y-1.525
X3.8785Y-1.8183
X3.8785Y-2.1116
X3.8785Y-2.4049
X3.8785Y-2.6982
X3.8982Y-1.1352
X3.8982Y-1.4285
X3.8982Y-1.7219
X3.8982Y-2.0152
X3.8982Y-2.3085
X3.8982Y-2.6018
X3.9179Y-1.2317
X3.9179Y-1.525
X3.9179Y-1.8183
X3.9179Y-2.1116
X3.9179Y-2.4049
X3.9179Y-2.6982
X3.9376Y-1.1352
X3.9376Y-1.4285
X3.9376Y-1.7219
X3.9376Y-2.0152
X3.9376Y-2.3085
X3.9376Y-2.6018
X4.1272Y-1.1289
X4.1272Y-1.2333
X4.1272Y-1.4222
X4.1272Y-1.5266
X4.1272Y-1.7156
X4.1272Y-1.8199
X4.1272Y-2.0089
X4.1272Y-2.1132
X4.1272Y-2.3022
X4.1272Y-2.4065
X4.1272Y-2.5955
X4.1272Y-2.6998
T2
X2.1344Y-1.2043
X2.1344Y-1.4976
X2.1344Y-1.7909
X2.1344Y-2.0843
X2.1344Y-2.3776
X2.1344Y-2.6709
X2.2132Y-1.2043
X2.2132Y-1.4976
X2.2132Y-1.7909
X2.2132Y-2.0843
X2.2132Y-2.3776
X2.2132Y-2.6709
T0
M30
