%TF.GenerationSoftware,KiCad,Pcbnew,7.0.7-7.0.7~ubuntu22.04.1*%
%TF.CreationDate,2023-09-16T17:49:40-05:00*%
%TF.ProjectId,TOF_PANELIZED,544f465f-5041-44e4-954c-495a45442e6b,000*%
%TF.SameCoordinates,Original*%
%TF.FileFunction,Legend,Bot*%
%TF.FilePolarity,Positive*%
%FSLAX46Y46*%
G04 Gerber Fmt 4.6, Leading zero omitted, Abs format (unit mm)*
G04 Created by KiCad (PCBNEW 7.0.7-7.0.7~ubuntu22.04.1) date 2023-09-16 17:49:40*
%MOMM*%
%LPD*%
G01*
G04 APERTURE LIST*
%ADD10C,0.150000*%
%ADD11C,0.120000*%
%ADD12C,0.100000*%
G04 APERTURE END LIST*
D10*
X81319523Y-51832295D02*
X81319523Y-52479914D01*
X81319523Y-52479914D02*
X81281428Y-52556104D01*
X81281428Y-52556104D02*
X81243333Y-52594200D01*
X81243333Y-52594200D02*
X81167142Y-52632295D01*
X81167142Y-52632295D02*
X81014761Y-52632295D01*
X81014761Y-52632295D02*
X80938571Y-52594200D01*
X80938571Y-52594200D02*
X80900476Y-52556104D01*
X80900476Y-52556104D02*
X80862380Y-52479914D01*
X80862380Y-52479914D02*
X80862380Y-51832295D01*
X80519524Y-51908485D02*
X80481428Y-51870390D01*
X80481428Y-51870390D02*
X80405238Y-51832295D01*
X80405238Y-51832295D02*
X80214762Y-51832295D01*
X80214762Y-51832295D02*
X80138571Y-51870390D01*
X80138571Y-51870390D02*
X80100476Y-51908485D01*
X80100476Y-51908485D02*
X80062381Y-51984676D01*
X80062381Y-51984676D02*
X80062381Y-52060866D01*
X80062381Y-52060866D02*
X80100476Y-52175152D01*
X80100476Y-52175152D02*
X80557619Y-52632295D01*
X80557619Y-52632295D02*
X80062381Y-52632295D01*
X81319523Y-29482295D02*
X81319523Y-30129914D01*
X81319523Y-30129914D02*
X81281428Y-30206104D01*
X81281428Y-30206104D02*
X81243333Y-30244200D01*
X81243333Y-30244200D02*
X81167142Y-30282295D01*
X81167142Y-30282295D02*
X81014761Y-30282295D01*
X81014761Y-30282295D02*
X80938571Y-30244200D01*
X80938571Y-30244200D02*
X80900476Y-30206104D01*
X80900476Y-30206104D02*
X80862380Y-30129914D01*
X80862380Y-30129914D02*
X80862380Y-29482295D01*
X80519524Y-29558485D02*
X80481428Y-29520390D01*
X80481428Y-29520390D02*
X80405238Y-29482295D01*
X80405238Y-29482295D02*
X80214762Y-29482295D01*
X80214762Y-29482295D02*
X80138571Y-29520390D01*
X80138571Y-29520390D02*
X80100476Y-29558485D01*
X80100476Y-29558485D02*
X80062381Y-29634676D01*
X80062381Y-29634676D02*
X80062381Y-29710866D01*
X80062381Y-29710866D02*
X80100476Y-29825152D01*
X80100476Y-29825152D02*
X80557619Y-30282295D01*
X80557619Y-30282295D02*
X80062381Y-30282295D01*
X81319523Y-36932295D02*
X81319523Y-37579914D01*
X81319523Y-37579914D02*
X81281428Y-37656104D01*
X81281428Y-37656104D02*
X81243333Y-37694200D01*
X81243333Y-37694200D02*
X81167142Y-37732295D01*
X81167142Y-37732295D02*
X81014761Y-37732295D01*
X81014761Y-37732295D02*
X80938571Y-37694200D01*
X80938571Y-37694200D02*
X80900476Y-37656104D01*
X80900476Y-37656104D02*
X80862380Y-37579914D01*
X80862380Y-37579914D02*
X80862380Y-36932295D01*
X80519524Y-37008485D02*
X80481428Y-36970390D01*
X80481428Y-36970390D02*
X80405238Y-36932295D01*
X80405238Y-36932295D02*
X80214762Y-36932295D01*
X80214762Y-36932295D02*
X80138571Y-36970390D01*
X80138571Y-36970390D02*
X80100476Y-37008485D01*
X80100476Y-37008485D02*
X80062381Y-37084676D01*
X80062381Y-37084676D02*
X80062381Y-37160866D01*
X80062381Y-37160866D02*
X80100476Y-37275152D01*
X80100476Y-37275152D02*
X80557619Y-37732295D01*
X80557619Y-37732295D02*
X80062381Y-37732295D01*
X81319523Y-66732295D02*
X81319523Y-67379914D01*
X81319523Y-67379914D02*
X81281428Y-67456104D01*
X81281428Y-67456104D02*
X81243333Y-67494200D01*
X81243333Y-67494200D02*
X81167142Y-67532295D01*
X81167142Y-67532295D02*
X81014761Y-67532295D01*
X81014761Y-67532295D02*
X80938571Y-67494200D01*
X80938571Y-67494200D02*
X80900476Y-67456104D01*
X80900476Y-67456104D02*
X80862380Y-67379914D01*
X80862380Y-67379914D02*
X80862380Y-66732295D01*
X80519524Y-66808485D02*
X80481428Y-66770390D01*
X80481428Y-66770390D02*
X80405238Y-66732295D01*
X80405238Y-66732295D02*
X80214762Y-66732295D01*
X80214762Y-66732295D02*
X80138571Y-66770390D01*
X80138571Y-66770390D02*
X80100476Y-66808485D01*
X80100476Y-66808485D02*
X80062381Y-66884676D01*
X80062381Y-66884676D02*
X80062381Y-66960866D01*
X80062381Y-66960866D02*
X80100476Y-67075152D01*
X80100476Y-67075152D02*
X80557619Y-67532295D01*
X80557619Y-67532295D02*
X80062381Y-67532295D01*
X81319523Y-44382295D02*
X81319523Y-45029914D01*
X81319523Y-45029914D02*
X81281428Y-45106104D01*
X81281428Y-45106104D02*
X81243333Y-45144200D01*
X81243333Y-45144200D02*
X81167142Y-45182295D01*
X81167142Y-45182295D02*
X81014761Y-45182295D01*
X81014761Y-45182295D02*
X80938571Y-45144200D01*
X80938571Y-45144200D02*
X80900476Y-45106104D01*
X80900476Y-45106104D02*
X80862380Y-45029914D01*
X80862380Y-45029914D02*
X80862380Y-44382295D01*
X80519524Y-44458485D02*
X80481428Y-44420390D01*
X80481428Y-44420390D02*
X80405238Y-44382295D01*
X80405238Y-44382295D02*
X80214762Y-44382295D01*
X80214762Y-44382295D02*
X80138571Y-44420390D01*
X80138571Y-44420390D02*
X80100476Y-44458485D01*
X80100476Y-44458485D02*
X80062381Y-44534676D01*
X80062381Y-44534676D02*
X80062381Y-44610866D01*
X80062381Y-44610866D02*
X80100476Y-44725152D01*
X80100476Y-44725152D02*
X80557619Y-45182295D01*
X80557619Y-45182295D02*
X80062381Y-45182295D01*
X81319523Y-59282295D02*
X81319523Y-59929914D01*
X81319523Y-59929914D02*
X81281428Y-60006104D01*
X81281428Y-60006104D02*
X81243333Y-60044200D01*
X81243333Y-60044200D02*
X81167142Y-60082295D01*
X81167142Y-60082295D02*
X81014761Y-60082295D01*
X81014761Y-60082295D02*
X80938571Y-60044200D01*
X80938571Y-60044200D02*
X80900476Y-60006104D01*
X80900476Y-60006104D02*
X80862380Y-59929914D01*
X80862380Y-59929914D02*
X80862380Y-59282295D01*
X80519524Y-59358485D02*
X80481428Y-59320390D01*
X80481428Y-59320390D02*
X80405238Y-59282295D01*
X80405238Y-59282295D02*
X80214762Y-59282295D01*
X80214762Y-59282295D02*
X80138571Y-59320390D01*
X80138571Y-59320390D02*
X80100476Y-59358485D01*
X80100476Y-59358485D02*
X80062381Y-59434676D01*
X80062381Y-59434676D02*
X80062381Y-59510866D01*
X80062381Y-59510866D02*
X80100476Y-59625152D01*
X80100476Y-59625152D02*
X80557619Y-60082295D01*
X80557619Y-60082295D02*
X80062381Y-60082295D01*
D11*
%TO.C,U2*%
X79089500Y-50878800D02*
X78753553Y-50878800D01*
X74726447Y-50878800D02*
X74390500Y-50878800D01*
X74390500Y-50878800D02*
X74390500Y-53571200D01*
X79089500Y-53571200D02*
X79089500Y-50878800D01*
X78753553Y-53571200D02*
X79089500Y-53571200D01*
X74390500Y-53571200D02*
X74726447Y-53571200D01*
D12*
X78340000Y-50775000D02*
G75*
G03*
X78340000Y-50775000I0J0D01*
G01*
X78410711Y-50775000D02*
G75*
G03*
X78410711Y-50775000I-70711J0D01*
G01*
D11*
X79089500Y-28528800D02*
X78753553Y-28528800D01*
X74726447Y-28528800D02*
X74390500Y-28528800D01*
X74390500Y-28528800D02*
X74390500Y-31221200D01*
X79089500Y-31221200D02*
X79089500Y-28528800D01*
X78753553Y-31221200D02*
X79089500Y-31221200D01*
X74390500Y-31221200D02*
X74726447Y-31221200D01*
D12*
X78340000Y-28425000D02*
G75*
G03*
X78340000Y-28425000I0J0D01*
G01*
X78410711Y-28425000D02*
G75*
G03*
X78410711Y-28425000I-70711J0D01*
G01*
D11*
X79089500Y-35978800D02*
X78753553Y-35978800D01*
X74726447Y-35978800D02*
X74390500Y-35978800D01*
X74390500Y-35978800D02*
X74390500Y-38671200D01*
X79089500Y-38671200D02*
X79089500Y-35978800D01*
X78753553Y-38671200D02*
X79089500Y-38671200D01*
X74390500Y-38671200D02*
X74726447Y-38671200D01*
D12*
X78340000Y-35875000D02*
G75*
G03*
X78340000Y-35875000I0J0D01*
G01*
X78410711Y-35875000D02*
G75*
G03*
X78410711Y-35875000I-70711J0D01*
G01*
D11*
X79089500Y-65778800D02*
X78753553Y-65778800D01*
X74726447Y-65778800D02*
X74390500Y-65778800D01*
X74390500Y-65778800D02*
X74390500Y-68471200D01*
X79089500Y-68471200D02*
X79089500Y-65778800D01*
X78753553Y-68471200D02*
X79089500Y-68471200D01*
X74390500Y-68471200D02*
X74726447Y-68471200D01*
D12*
X78340000Y-65675000D02*
G75*
G03*
X78340000Y-65675000I0J0D01*
G01*
X78410711Y-65675000D02*
G75*
G03*
X78410711Y-65675000I-70711J0D01*
G01*
D11*
X79089500Y-43428800D02*
X78753553Y-43428800D01*
X74726447Y-43428800D02*
X74390500Y-43428800D01*
X74390500Y-43428800D02*
X74390500Y-46121200D01*
X79089500Y-46121200D02*
X79089500Y-43428800D01*
X78753553Y-46121200D02*
X79089500Y-46121200D01*
X74390500Y-46121200D02*
X74726447Y-46121200D01*
D12*
X78340000Y-43325000D02*
G75*
G03*
X78340000Y-43325000I0J0D01*
G01*
X78410711Y-43325000D02*
G75*
G03*
X78410711Y-43325000I-70711J0D01*
G01*
D11*
X79089500Y-58328800D02*
X78753553Y-58328800D01*
X74726447Y-58328800D02*
X74390500Y-58328800D01*
X74390500Y-58328800D02*
X74390500Y-61021200D01*
X79089500Y-61021200D02*
X79089500Y-58328800D01*
X78753553Y-61021200D02*
X79089500Y-61021200D01*
X74390500Y-61021200D02*
X74726447Y-61021200D01*
D12*
X78340000Y-58225000D02*
G75*
G03*
X78340000Y-58225000I0J0D01*
G01*
X78410711Y-58225000D02*
G75*
G03*
X78410711Y-58225000I-70711J0D01*
G01*
%TD*%
M02*
