%TF.GenerationSoftware,KiCad,Pcbnew,7.0.7-7.0.7~ubuntu22.04.1*%
%TF.CreationDate,2023-09-16T17:49:39-05:00*%
%TF.ProjectId,TOF_PANELIZED,544f465f-5041-44e4-954c-495a45442e6b,000*%
%TF.SameCoordinates,Original*%
%TF.FileFunction,Paste,Top*%
%TF.FilePolarity,Positive*%
%FSLAX46Y46*%
G04 Gerber Fmt 4.6, Leading zero omitted, Abs format (unit mm)*
G04 Created by KiCad (PCBNEW 7.0.7-7.0.7~ubuntu22.04.1) date 2023-09-16 17:49:39*
%MOMM*%
%LPD*%
G01*
G04 APERTURE LIST*
%ADD10C,2.000000*%
%ADD11R,0.600000X0.490000*%
%ADD12R,0.400000X1.600000*%
%ADD13R,1.400000X2.900000*%
%ADD14R,0.550000X0.500000*%
G04 APERTURE END LIST*
D10*
%TO.C,REF\u002A\u002A*%
X109740000Y-23785000D03*
%TD*%
%TO.C,REF\u002A\u002A*%
X43740000Y-73610000D03*
%TD*%
D11*
%TO.C,R1*%
X82770000Y-59937000D03*
X82770000Y-59023000D03*
%TD*%
D12*
%TO.C,J1*%
X96515000Y-31235000D03*
X97015000Y-28835000D03*
X97515000Y-31235000D03*
X98015000Y-28835000D03*
X98515000Y-31235000D03*
X99015000Y-28835000D03*
X99515000Y-31235000D03*
X100015000Y-28835000D03*
D13*
X94815000Y-30035000D03*
X101715000Y-30035000D03*
%TD*%
D11*
%TO.C,R2*%
X83980000Y-44113000D03*
X83980000Y-45027000D03*
%TD*%
%TO.C,R2*%
X83980000Y-29213000D03*
X83980000Y-30127000D03*
%TD*%
%TO.C,R2*%
X83980000Y-51563000D03*
X83980000Y-52477000D03*
%TD*%
%TO.C,R1*%
X82770000Y-52487000D03*
X82770000Y-51573000D03*
%TD*%
D14*
%TO.C,C2*%
X81560000Y-36685000D03*
X81560000Y-37665000D03*
%TD*%
%TO.C,C2*%
X81560000Y-66485000D03*
X81560000Y-67465000D03*
%TD*%
%TO.C,C2*%
X81560000Y-59035000D03*
X81560000Y-60015000D03*
%TD*%
%TO.C,C1*%
X80070000Y-51585000D03*
X80070000Y-52565000D03*
%TD*%
D11*
%TO.C,R2*%
X83980000Y-59013000D03*
X83980000Y-59927000D03*
%TD*%
%TO.C,R1*%
X82770000Y-45037000D03*
X82770000Y-44123000D03*
%TD*%
D14*
%TO.C,C2*%
X81560000Y-44135000D03*
X81560000Y-45115000D03*
%TD*%
D12*
%TO.C,J1*%
X96515000Y-53585000D03*
X97015000Y-51185000D03*
X97515000Y-53585000D03*
X98015000Y-51185000D03*
X98515000Y-53585000D03*
X99015000Y-51185000D03*
X99515000Y-53585000D03*
X100015000Y-51185000D03*
D13*
X94815000Y-52385000D03*
X101715000Y-52385000D03*
%TD*%
D12*
%TO.C,J1*%
X96515000Y-68485000D03*
X97015000Y-66085000D03*
X97515000Y-68485000D03*
X98015000Y-66085000D03*
X98515000Y-68485000D03*
X99015000Y-66085000D03*
X99515000Y-68485000D03*
X100015000Y-66085000D03*
D13*
X94815000Y-67285000D03*
X101715000Y-67285000D03*
%TD*%
D12*
%TO.C,J1*%
X96515000Y-61035000D03*
X97015000Y-58635000D03*
X97515000Y-61035000D03*
X98015000Y-58635000D03*
X98515000Y-61035000D03*
X99015000Y-58635000D03*
X99515000Y-61035000D03*
X100015000Y-58635000D03*
D13*
X94815000Y-59835000D03*
X101715000Y-59835000D03*
%TD*%
D14*
%TO.C,C1*%
X80070000Y-59035000D03*
X80070000Y-60015000D03*
%TD*%
D11*
%TO.C,R1*%
X82770000Y-67387000D03*
X82770000Y-66473000D03*
%TD*%
D14*
%TO.C,C2*%
X81560000Y-29235000D03*
X81560000Y-30215000D03*
%TD*%
D12*
%TO.C,J1*%
X96515000Y-38685000D03*
X97015000Y-36285000D03*
X97515000Y-38685000D03*
X98015000Y-36285000D03*
X98515000Y-38685000D03*
X99015000Y-36285000D03*
X99515000Y-38685000D03*
X100015000Y-36285000D03*
D13*
X94815000Y-37485000D03*
X101715000Y-37485000D03*
%TD*%
D11*
%TO.C,R2*%
X83980000Y-66463000D03*
X83980000Y-67377000D03*
%TD*%
D14*
%TO.C,C1*%
X80070000Y-44135000D03*
X80070000Y-45115000D03*
%TD*%
D12*
%TO.C,J1*%
X96515000Y-46135000D03*
X97015000Y-43735000D03*
X97515000Y-46135000D03*
X98015000Y-43735000D03*
X98515000Y-46135000D03*
X99015000Y-43735000D03*
X99515000Y-46135000D03*
X100015000Y-43735000D03*
D13*
X94815000Y-44935000D03*
X101715000Y-44935000D03*
%TD*%
D11*
%TO.C,R2*%
X83980000Y-36663000D03*
X83980000Y-37577000D03*
%TD*%
%TO.C,R1*%
X82770000Y-30137000D03*
X82770000Y-29223000D03*
%TD*%
D14*
%TO.C,C1*%
X80070000Y-36685000D03*
X80070000Y-37665000D03*
%TD*%
D11*
%TO.C,R1*%
X82770000Y-37587000D03*
X82770000Y-36673000D03*
%TD*%
D14*
%TO.C,C1*%
X80070000Y-29235000D03*
X80070000Y-30215000D03*
%TD*%
%TO.C,C2*%
X81560000Y-51585000D03*
X81560000Y-52565000D03*
%TD*%
%TO.C,C1*%
X80070000Y-66485000D03*
X80070000Y-67465000D03*
%TD*%
M02*
