M48
; DRILL file {KiCad 7.0.7-7.0.7~ubuntu22.04.1} date Sat 16 Sep 2023 05:49:38 PM CDT
; FORMAT={-:-/ absolute / inch / decimal}
; #@! TF.CreationDate,2023-09-16T17:49:38-05:00
; #@! TF.GenerationSoftware,Kicad,Pcbnew,7.0.7-7.0.7~ubuntu22.04.1
; #@! TF.FileFunction,NonPlated,1,2,NPTH
FMAT,2
INCH
; #@! TA.AperFunction,NonPlated,NPTH,ComponentDrill
T1C0.0197
; #@! TA.AperFunction,NonPlated,NPTH,ComponentDrill
T2C0.0787
%
G90
G05
T1
X1.6323Y-1.1222
X1.6335Y-2.7179
X1.674Y-1.1222
X1.6752Y-2.7179
X1.7049Y-1.1222
X1.7061Y-2.7179
X1.7357Y-1.1222
X1.7369Y-2.7179
X1.7666Y-1.1222
X1.7678Y-2.7179
X1.7975Y-1.1222
X1.7987Y-2.7179
X1.8283Y-1.1222
X1.8295Y-2.7179
X1.8661Y-0.8498
X1.8661Y-0.8923
X1.8661Y-0.923
X1.8661Y-0.9537
X1.8661Y-2.886
X1.8661Y-2.9167
X1.8661Y-2.9474
X1.8661Y-2.99
X1.8705Y-1.1219
X1.8705Y-1.1525
X1.8705Y-1.1831
X1.8705Y-1.2137
X1.8705Y-1.2444
X1.8705Y-1.4152
X1.8705Y-1.4458
X1.8705Y-1.4764
X1.8705Y-1.507
X1.8705Y-1.5377
X1.8705Y-1.7085
X1.8705Y-1.7391
X1.8705Y-1.7697
X1.8705Y-1.8004
X1.8705Y-1.831
X1.8705Y-2.0018
X1.8705Y-2.0324
X1.8705Y-2.063
X1.8705Y-2.0937
X1.8705Y-2.1243
X1.8705Y-2.2951
X1.8705Y-2.3257
X1.8705Y-2.3563
X1.8705Y-2.387
X1.8705Y-2.4176
X1.8705Y-2.5884
X1.8705Y-2.619
X1.8705Y-2.6496
X1.8705Y-2.6803
X1.8705Y-2.7109
X4.1654Y-0.8482
X4.1654Y-0.8907
X4.1654Y-0.9215
X4.1654Y-0.9522
X4.1654Y-2.8844
X4.1654Y-2.9152
X4.1654Y-2.9459
X4.1654Y-2.9884
X4.1724Y-1.1237
X4.1724Y-1.1544
X4.1724Y-1.185
X4.1724Y-1.2156
X4.1724Y-1.2463
X4.1724Y-1.417
X4.1724Y-1.4477
X4.1724Y-1.4783
X4.1724Y-1.5089
X4.1724Y-1.5396
X4.1724Y-1.7104
X4.1724Y-1.741
X4.1724Y-1.7716
X4.1724Y-1.8022
X4.1724Y-1.8329
X4.1724Y-2.0037
X4.1724Y-2.0343
X4.1724Y-2.0649
X4.1724Y-2.0956
X4.1724Y-2.1262
X4.1724Y-2.297
X4.1724Y-2.3276
X4.1724Y-2.3582
X4.1724Y-2.3889
X4.1724Y-2.4195
X4.1724Y-2.5903
X4.1724Y-2.6209
X4.1724Y-2.6515
X4.1724Y-2.6822
X4.1724Y-2.7128
X4.2154Y-1.1238
X4.2154Y-2.7187
X4.2462Y-1.1238
X4.2462Y-2.7187
X4.2771Y-1.1238
X4.2771Y-2.7187
X4.308Y-1.1238
X4.308Y-2.7187
X4.3388Y-1.1238
X4.3388Y-2.7187
X4.3697Y-1.1238
X4.3697Y-2.7187
X4.4114Y-1.1238
X4.4114Y-2.7187
T2
X1.722Y-2.898
X4.3205Y-0.9364
T0
M30
