%TF.GenerationSoftware,KiCad,Pcbnew,7.0.7-7.0.7~ubuntu22.04.1*%
%TF.CreationDate,2023-09-16T17:49:39-05:00*%
%TF.ProjectId,TOF_PANELIZED,544f465f-5041-44e4-954c-495a45442e6b,000*%
%TF.SameCoordinates,Original*%
%TF.FileFunction,Copper,L2,Bot*%
%TF.FilePolarity,Positive*%
%FSLAX46Y46*%
G04 Gerber Fmt 4.6, Leading zero omitted, Abs format (unit mm)*
G04 Created by KiCad (PCBNEW 7.0.7-7.0.7~ubuntu22.04.1) date 2023-09-16 17:49:39*
%MOMM*%
%LPD*%
G01*
G04 APERTURE LIST*
%TA.AperFunction,ComponentPad*%
%ADD10R,1.368000X1.368000*%
%TD*%
%TA.AperFunction,ComponentPad*%
%ADD11C,1.368000*%
%TD*%
%TA.AperFunction,SMDPad,CuDef*%
%ADD12R,0.508000X0.508000*%
%TD*%
%TA.AperFunction,ViaPad*%
%ADD13C,0.600000*%
%TD*%
%TA.AperFunction,Conductor*%
%ADD14C,0.300000*%
%TD*%
%TA.AperFunction,Conductor*%
%ADD15C,0.150000*%
%TD*%
G04 APERTURE END LIST*
D10*
%TO.P,J2,1,1*%
%TO.N,VBATT*%
X56215000Y-67840000D03*
D11*
%TO.P,J2,2,2*%
%TO.N,GND*%
X54215000Y-67840000D03*
%TD*%
D10*
%TO.P,J2,1,1*%
%TO.N,VBATT*%
X56215000Y-60390000D03*
D11*
%TO.P,J2,2,2*%
%TO.N,GND*%
X54215000Y-60390000D03*
%TD*%
D10*
%TO.P,J2,1,1*%
%TO.N,VBATT*%
X56215000Y-38040000D03*
D11*
%TO.P,J2,2,2*%
%TO.N,GND*%
X54215000Y-38040000D03*
%TD*%
D10*
%TO.P,J2,1,1*%
%TO.N,VBATT*%
X56215000Y-30590000D03*
D11*
%TO.P,J2,2,2*%
%TO.N,GND*%
X54215000Y-30590000D03*
%TD*%
D10*
%TO.P,J2,1,1*%
%TO.N,VBATT*%
X56215000Y-52940000D03*
D11*
%TO.P,J2,2,2*%
%TO.N,GND*%
X54215000Y-52940000D03*
%TD*%
D10*
%TO.P,J2,1,1*%
%TO.N,VBATT*%
X56215000Y-45490000D03*
D11*
%TO.P,J2,2,2*%
%TO.N,GND*%
X54215000Y-45490000D03*
%TD*%
D12*
%TO.P,U2,1,AVDDVCSEL*%
%TO.N,V2.8*%
X78340200Y-51424900D03*
%TO.P,U2,2,AVSSVCSEL*%
%TO.N,GND*%
X77540100Y-51424900D03*
%TO.P,U2,3,GND*%
X76740000Y-51424900D03*
%TO.P,U2,4,GN2*%
X75939900Y-51424900D03*
%TO.P,U2,5,XSHUT*%
%TO.N,XSHUT2*%
X75139800Y-51424900D03*
%TO.P,U2,6,GND3*%
%TO.N,GND*%
X75139800Y-52225000D03*
%TO.P,U2,7,GPIO1*%
%TO.N,unconnected-(U2-GPIO1-Pad7)*%
X75139800Y-53025100D03*
%TO.P,U2,8,DNC*%
%TO.N,unconnected-(U2-DNC-Pad8)*%
X75939900Y-53025100D03*
%TO.P,U2,9,SDA*%
%TO.N,SDA*%
X76740000Y-53025100D03*
%TO.P,U2,10,SCL*%
%TO.N,SCL*%
X77540100Y-53025100D03*
%TO.P,U2,11,AVDD*%
%TO.N,V2.8*%
X78340200Y-53025100D03*
%TO.P,U2,12,GND4*%
%TO.N,GND*%
X78340200Y-52225000D03*
%TD*%
%TO.P,U2,1,AVDDVCSEL*%
%TO.N,V2.8*%
X78340200Y-29074900D03*
%TO.P,U2,2,AVSSVCSEL*%
%TO.N,GND*%
X77540100Y-29074900D03*
%TO.P,U2,3,GND*%
X76740000Y-29074900D03*
%TO.P,U2,4,GN2*%
X75939900Y-29074900D03*
%TO.P,U2,5,XSHUT*%
%TO.N,XSHUT2*%
X75139800Y-29074900D03*
%TO.P,U2,6,GND3*%
%TO.N,GND*%
X75139800Y-29875000D03*
%TO.P,U2,7,GPIO1*%
%TO.N,unconnected-(U2-GPIO1-Pad7)*%
X75139800Y-30675100D03*
%TO.P,U2,8,DNC*%
%TO.N,unconnected-(U2-DNC-Pad8)*%
X75939900Y-30675100D03*
%TO.P,U2,9,SDA*%
%TO.N,SDA*%
X76740000Y-30675100D03*
%TO.P,U2,10,SCL*%
%TO.N,SCL*%
X77540100Y-30675100D03*
%TO.P,U2,11,AVDD*%
%TO.N,V2.8*%
X78340200Y-30675100D03*
%TO.P,U2,12,GND4*%
%TO.N,GND*%
X78340200Y-29875000D03*
%TD*%
%TO.P,U2,1,AVDDVCSEL*%
%TO.N,V2.8*%
X78340200Y-36524900D03*
%TO.P,U2,2,AVSSVCSEL*%
%TO.N,GND*%
X77540100Y-36524900D03*
%TO.P,U2,3,GND*%
X76740000Y-36524900D03*
%TO.P,U2,4,GN2*%
X75939900Y-36524900D03*
%TO.P,U2,5,XSHUT*%
%TO.N,XSHUT2*%
X75139800Y-36524900D03*
%TO.P,U2,6,GND3*%
%TO.N,GND*%
X75139800Y-37325000D03*
%TO.P,U2,7,GPIO1*%
%TO.N,unconnected-(U2-GPIO1-Pad7)*%
X75139800Y-38125100D03*
%TO.P,U2,8,DNC*%
%TO.N,unconnected-(U2-DNC-Pad8)*%
X75939900Y-38125100D03*
%TO.P,U2,9,SDA*%
%TO.N,SDA*%
X76740000Y-38125100D03*
%TO.P,U2,10,SCL*%
%TO.N,SCL*%
X77540100Y-38125100D03*
%TO.P,U2,11,AVDD*%
%TO.N,V2.8*%
X78340200Y-38125100D03*
%TO.P,U2,12,GND4*%
%TO.N,GND*%
X78340200Y-37325000D03*
%TD*%
%TO.P,U2,1,AVDDVCSEL*%
%TO.N,V2.8*%
X78340200Y-66324900D03*
%TO.P,U2,2,AVSSVCSEL*%
%TO.N,GND*%
X77540100Y-66324900D03*
%TO.P,U2,3,GND*%
X76740000Y-66324900D03*
%TO.P,U2,4,GN2*%
X75939900Y-66324900D03*
%TO.P,U2,5,XSHUT*%
%TO.N,XSHUT2*%
X75139800Y-66324900D03*
%TO.P,U2,6,GND3*%
%TO.N,GND*%
X75139800Y-67125000D03*
%TO.P,U2,7,GPIO1*%
%TO.N,unconnected-(U2-GPIO1-Pad7)*%
X75139800Y-67925100D03*
%TO.P,U2,8,DNC*%
%TO.N,unconnected-(U2-DNC-Pad8)*%
X75939900Y-67925100D03*
%TO.P,U2,9,SDA*%
%TO.N,SDA*%
X76740000Y-67925100D03*
%TO.P,U2,10,SCL*%
%TO.N,SCL*%
X77540100Y-67925100D03*
%TO.P,U2,11,AVDD*%
%TO.N,V2.8*%
X78340200Y-67925100D03*
%TO.P,U2,12,GND4*%
%TO.N,GND*%
X78340200Y-67125000D03*
%TD*%
%TO.P,U2,1,AVDDVCSEL*%
%TO.N,V2.8*%
X78340200Y-43974900D03*
%TO.P,U2,2,AVSSVCSEL*%
%TO.N,GND*%
X77540100Y-43974900D03*
%TO.P,U2,3,GND*%
X76740000Y-43974900D03*
%TO.P,U2,4,GN2*%
X75939900Y-43974900D03*
%TO.P,U2,5,XSHUT*%
%TO.N,XSHUT2*%
X75139800Y-43974900D03*
%TO.P,U2,6,GND3*%
%TO.N,GND*%
X75139800Y-44775000D03*
%TO.P,U2,7,GPIO1*%
%TO.N,unconnected-(U2-GPIO1-Pad7)*%
X75139800Y-45575100D03*
%TO.P,U2,8,DNC*%
%TO.N,unconnected-(U2-DNC-Pad8)*%
X75939900Y-45575100D03*
%TO.P,U2,9,SDA*%
%TO.N,SDA*%
X76740000Y-45575100D03*
%TO.P,U2,10,SCL*%
%TO.N,SCL*%
X77540100Y-45575100D03*
%TO.P,U2,11,AVDD*%
%TO.N,V2.8*%
X78340200Y-45575100D03*
%TO.P,U2,12,GND4*%
%TO.N,GND*%
X78340200Y-44775000D03*
%TD*%
%TO.P,U2,1,AVDDVCSEL*%
%TO.N,V2.8*%
X78340200Y-58874900D03*
%TO.P,U2,2,AVSSVCSEL*%
%TO.N,GND*%
X77540100Y-58874900D03*
%TO.P,U2,3,GND*%
X76740000Y-58874900D03*
%TO.P,U2,4,GN2*%
X75939900Y-58874900D03*
%TO.P,U2,5,XSHUT*%
%TO.N,XSHUT2*%
X75139800Y-58874900D03*
%TO.P,U2,6,GND3*%
%TO.N,GND*%
X75139800Y-59675000D03*
%TO.P,U2,7,GPIO1*%
%TO.N,unconnected-(U2-GPIO1-Pad7)*%
X75139800Y-60475100D03*
%TO.P,U2,8,DNC*%
%TO.N,unconnected-(U2-DNC-Pad8)*%
X75939900Y-60475100D03*
%TO.P,U2,9,SDA*%
%TO.N,SDA*%
X76740000Y-60475100D03*
%TO.P,U2,10,SCL*%
%TO.N,SCL*%
X77540100Y-60475100D03*
%TO.P,U2,11,AVDD*%
%TO.N,V2.8*%
X78340200Y-60475100D03*
%TO.P,U2,12,GND4*%
%TO.N,GND*%
X78340200Y-59675000D03*
%TD*%
D13*
%TO.N,GND*%
X48882533Y-53675000D03*
X71450000Y-59805000D03*
X73150000Y-28675000D03*
X104830000Y-58475000D03*
X58910000Y-37465000D03*
X48882533Y-58475000D03*
X48882533Y-61125000D03*
X48882533Y-31325000D03*
X104830000Y-31325000D03*
X71450000Y-67255000D03*
X58910000Y-30015000D03*
X104830000Y-68575000D03*
X48882533Y-65925000D03*
X98515000Y-38735000D03*
X104830000Y-43575000D03*
X73150000Y-58475000D03*
X73150000Y-53395000D03*
X96180000Y-36510000D03*
X96180000Y-51410000D03*
X73150000Y-43575000D03*
X48882533Y-51025000D03*
X80804992Y-60015008D03*
X100015000Y-36285000D03*
X71450000Y-52355000D03*
X58910000Y-44915000D03*
X71450000Y-30005000D03*
X58910000Y-59815000D03*
X96180000Y-29060000D03*
X104830000Y-38775000D03*
X100015000Y-58635000D03*
X73150000Y-65925000D03*
X48882533Y-38775000D03*
X73150000Y-45945000D03*
X100015000Y-43735000D03*
X104830000Y-61125000D03*
X104830000Y-53675000D03*
X98515000Y-53635000D03*
X73150000Y-38495000D03*
X98515000Y-68535000D03*
X73150000Y-68295000D03*
X73150000Y-60845000D03*
X65180000Y-67255000D03*
X98515000Y-46185000D03*
X48882533Y-36125000D03*
X65180000Y-52355000D03*
X65180000Y-37455000D03*
X73150000Y-51025000D03*
X58910000Y-67265000D03*
X58910000Y-52365000D03*
X104830000Y-36125000D03*
X80804992Y-67465008D03*
X104830000Y-65925000D03*
X80804992Y-37665008D03*
X48882533Y-28675000D03*
X48882533Y-43575000D03*
X100015000Y-66085000D03*
X98515000Y-31285000D03*
X96180000Y-43960000D03*
X104830000Y-28675000D03*
X80804992Y-30215008D03*
X80804992Y-52565008D03*
X48882533Y-68575000D03*
X65180000Y-59805000D03*
X48882533Y-46225000D03*
X100015000Y-51185000D03*
X104830000Y-46225000D03*
X98515000Y-61085000D03*
X65180000Y-30005000D03*
X65180000Y-44905000D03*
X104830000Y-51025000D03*
X71450000Y-44905000D03*
X96180000Y-66310000D03*
X100015000Y-28835000D03*
X96180000Y-58860000D03*
X73150000Y-31045000D03*
X71450000Y-37455000D03*
X80804992Y-45115008D03*
X73150000Y-36125000D03*
%TO.N,V2.8*%
X79200000Y-60380000D03*
X88149998Y-51400002D03*
X88149998Y-43950002D03*
X79200000Y-66420000D03*
X88149998Y-66300002D03*
X79200000Y-36620000D03*
X88149998Y-29050002D03*
X85770000Y-51730000D03*
X88149998Y-36500002D03*
X79200000Y-52930000D03*
X79200000Y-51520000D03*
X79200000Y-44070000D03*
X85770000Y-36830000D03*
X79200000Y-38030000D03*
X79200000Y-29170000D03*
X79200000Y-67830000D03*
X85770000Y-44280000D03*
X85770000Y-29380000D03*
X79200000Y-30580000D03*
X88149998Y-58850002D03*
X85770000Y-59180000D03*
X79200000Y-45480000D03*
X79200000Y-58970000D03*
X85770000Y-66630000D03*
%TO.N,XSHUT2*%
X84826984Y-59013000D03*
X98015000Y-43735000D03*
X98015000Y-51185000D03*
X98015000Y-66085000D03*
X98015000Y-28835000D03*
X98015000Y-36285000D03*
X84826984Y-51563000D03*
X84826984Y-29213000D03*
X84826984Y-36663000D03*
X98015000Y-58635000D03*
X84826984Y-44113000D03*
X84826984Y-66463000D03*
%TO.N,XSHUT1*%
X97515000Y-38685000D03*
X91460000Y-30950000D03*
X91460000Y-60750000D03*
X97515000Y-31235000D03*
X91460000Y-38400000D03*
X97515000Y-53585000D03*
X97515000Y-68485000D03*
X97515000Y-61035000D03*
X91460000Y-68200000D03*
X91460000Y-45850000D03*
X91460000Y-53300000D03*
X97515000Y-46135000D03*
%TO.N,SDA*%
X99015000Y-51185000D03*
X99015000Y-66085000D03*
X89590000Y-44610000D03*
X89590000Y-29710000D03*
X99015000Y-28835000D03*
X89590000Y-37160000D03*
X89590000Y-52060000D03*
X89590000Y-59510000D03*
X89590000Y-66960000D03*
X99015000Y-36285000D03*
X99015000Y-43735000D03*
X99015000Y-58635000D03*
%TO.N,SCL*%
X90170000Y-60130002D03*
X88060002Y-30330002D03*
X88060002Y-52680002D03*
X88060002Y-60130002D03*
X88060002Y-67580002D03*
X90170000Y-30330002D03*
X99515000Y-31285000D03*
X99515000Y-38735000D03*
X99515000Y-61085000D03*
X90170000Y-52680002D03*
X90170000Y-45230002D03*
X88060002Y-37780002D03*
X99515000Y-68535000D03*
X88060002Y-45230002D03*
X90170000Y-37780002D03*
X99515000Y-46185000D03*
X90170000Y-67580002D03*
X99515000Y-53635000D03*
%TD*%
D14*
%TO.N,GND*%
X78339946Y-52225000D02*
X75140054Y-52225000D01*
X78339946Y-59675000D02*
X80464984Y-59675000D01*
X77540001Y-58875027D02*
X77540001Y-59675000D01*
X78339946Y-44775000D02*
X75140054Y-44775000D01*
X75939999Y-43975027D02*
X75939999Y-44775000D01*
X77540001Y-51425027D02*
X77540001Y-52225000D01*
X76740000Y-36525027D02*
X76740000Y-37325000D01*
X77540001Y-29075027D02*
X77540001Y-29875000D01*
X76740000Y-58875027D02*
X76740000Y-59675000D01*
X75939999Y-36525027D02*
X75939999Y-37325000D01*
X80464984Y-29875000D02*
X80804992Y-30215008D01*
X78339946Y-67125000D02*
X75140054Y-67125000D01*
X76740000Y-29075027D02*
X76740000Y-29875000D01*
X78339946Y-67125000D02*
X80464984Y-67125000D01*
X77540001Y-66325027D02*
X77540001Y-67125000D01*
X76740000Y-43975027D02*
X76740000Y-44775000D01*
X80464984Y-44775000D02*
X80804992Y-45115008D01*
X80464984Y-37325000D02*
X80804992Y-37665008D01*
X78339946Y-37325000D02*
X80464984Y-37325000D01*
X75939999Y-29075027D02*
X75939999Y-29875000D01*
X80464984Y-52225000D02*
X80804992Y-52565008D01*
X78339946Y-44775000D02*
X80464984Y-44775000D01*
X78339946Y-29875000D02*
X75140054Y-29875000D01*
X78339946Y-52225000D02*
X80464984Y-52225000D01*
X78339946Y-29875000D02*
X80464984Y-29875000D01*
X78339946Y-37325000D02*
X75140054Y-37325000D01*
X75939999Y-51425027D02*
X75939999Y-52225000D01*
X76740000Y-51425027D02*
X76740000Y-52225000D01*
X80464984Y-67125000D02*
X80804992Y-67465008D01*
X77540001Y-36525027D02*
X77540001Y-37325000D01*
X76740000Y-66325027D02*
X76740000Y-67125000D01*
X78339946Y-59675000D02*
X75140054Y-59675000D01*
X75939999Y-58875027D02*
X75939999Y-59675000D01*
X80464984Y-59675000D02*
X80804992Y-60015008D01*
X77540001Y-43975027D02*
X77540001Y-44775000D01*
X75939999Y-66325027D02*
X75939999Y-67125000D01*
%TO.N,V2.8*%
X86099998Y-36500002D02*
X85770000Y-36830000D01*
X79200000Y-66420000D02*
X78339999Y-66420000D01*
X79200000Y-52930000D02*
X78339999Y-52930000D01*
X79200000Y-45480000D02*
X78339999Y-45480000D01*
X86099998Y-43950002D02*
X85770000Y-44280000D01*
X79200000Y-51520000D02*
X78339999Y-51520000D01*
X88149998Y-58850002D02*
X86099998Y-58850002D01*
X86099998Y-51400002D02*
X85770000Y-51730000D01*
X88149998Y-36500002D02*
X86099998Y-36500002D01*
X79200000Y-29170000D02*
X78339999Y-29170000D01*
X86099998Y-66300002D02*
X85770000Y-66630000D01*
X88149998Y-43950002D02*
X86099998Y-43950002D01*
X79200000Y-44070000D02*
X78339999Y-44070000D01*
X88149998Y-66300002D02*
X86099998Y-66300002D01*
X86099998Y-29050002D02*
X85770000Y-29380000D01*
X79200000Y-30580000D02*
X78339999Y-30580000D01*
X79200000Y-38030000D02*
X78339999Y-38030000D01*
X79200000Y-58970000D02*
X78339999Y-58970000D01*
X88149998Y-29050002D02*
X86099998Y-29050002D01*
X79200000Y-67830000D02*
X78339999Y-67830000D01*
X79200000Y-36620000D02*
X78339999Y-36620000D01*
X86099998Y-58850002D02*
X85770000Y-59180000D01*
X88149998Y-51400002D02*
X86099998Y-51400002D01*
X79200000Y-60380000D02*
X78339999Y-60380000D01*
D15*
%TO.N,XSHUT2*%
X75140001Y-51425027D02*
X75140001Y-51319999D01*
X75570000Y-43440000D02*
X84153984Y-43440000D01*
X75140001Y-36525027D02*
X75140001Y-36419999D01*
X97640000Y-28460000D02*
X85579984Y-28460000D01*
X97640000Y-65710000D02*
X85579984Y-65710000D01*
X98015000Y-51185000D02*
X97640000Y-50810000D01*
X85579984Y-43360000D02*
X84826984Y-44113000D01*
X97640000Y-58260000D02*
X85579984Y-58260000D01*
X85579984Y-58260000D02*
X84826984Y-59013000D01*
X84153984Y-50890000D02*
X84826984Y-51563000D01*
X75140001Y-43975027D02*
X75140001Y-43869999D01*
X84153984Y-65790000D02*
X84826984Y-66463000D01*
X75140001Y-66219999D02*
X75570000Y-65790000D01*
X97640000Y-50810000D02*
X85579984Y-50810000D01*
X75140001Y-51319999D02*
X75570000Y-50890000D01*
X85579984Y-50810000D02*
X84826984Y-51563000D01*
X75570000Y-50890000D02*
X84153984Y-50890000D01*
X97640000Y-43360000D02*
X85579984Y-43360000D01*
X85579984Y-65710000D02*
X84826984Y-66463000D01*
X75140001Y-58769999D02*
X75570000Y-58340000D01*
X84153984Y-58340000D02*
X84826984Y-59013000D01*
X75570000Y-35990000D02*
X84153984Y-35990000D01*
X97640000Y-35910000D02*
X85579984Y-35910000D01*
X75570000Y-65790000D02*
X84153984Y-65790000D01*
X75140001Y-28969999D02*
X75570000Y-28540000D01*
X75140001Y-58875027D02*
X75140001Y-58769999D01*
X98015000Y-43735000D02*
X97640000Y-43360000D01*
X85579984Y-35910000D02*
X84826984Y-36663000D01*
X75140001Y-36419999D02*
X75570000Y-35990000D01*
X98015000Y-58635000D02*
X97640000Y-58260000D01*
X84153984Y-43440000D02*
X84826984Y-44113000D01*
X75140001Y-29075027D02*
X75140001Y-28969999D01*
X85579984Y-28460000D02*
X84826984Y-29213000D01*
X98015000Y-28835000D02*
X97640000Y-28460000D01*
X75570000Y-28540000D02*
X84153984Y-28540000D01*
X84153984Y-28540000D02*
X84826984Y-29213000D01*
X75570000Y-58340000D02*
X84153984Y-58340000D01*
X84153984Y-35990000D02*
X84826984Y-36663000D01*
X98015000Y-36285000D02*
X97640000Y-35910000D01*
X98015000Y-66085000D02*
X97640000Y-65710000D01*
X75140001Y-43869999D02*
X75570000Y-43440000D01*
X75140001Y-66325027D02*
X75140001Y-66219999D01*
%TO.N,XSHUT1*%
X91460000Y-30950000D02*
X97230000Y-30950000D01*
X97230000Y-68200000D02*
X97515000Y-68485000D01*
X91460000Y-53300000D02*
X97230000Y-53300000D01*
X97230000Y-45850000D02*
X97515000Y-46135000D01*
X91460000Y-45850000D02*
X97230000Y-45850000D01*
X97230000Y-30950000D02*
X97515000Y-31235000D01*
X91460000Y-60750000D02*
X97230000Y-60750000D01*
X91460000Y-68200000D02*
X97230000Y-68200000D01*
X97230000Y-53300000D02*
X97515000Y-53585000D01*
X97230000Y-60750000D02*
X97515000Y-61035000D01*
X91460000Y-38400000D02*
X97230000Y-38400000D01*
X97230000Y-38400000D02*
X97515000Y-38685000D01*
%TO.N,SDA*%
X76740000Y-38124973D02*
X76740000Y-38230000D01*
X76740000Y-53024973D02*
X76740000Y-53130000D01*
X99015000Y-28835000D02*
X98140000Y-29710000D01*
X76740000Y-30674973D02*
X76740000Y-30780000D01*
X76740000Y-60580000D02*
X77513984Y-61353984D01*
X77513984Y-53903984D02*
X87746016Y-53903984D01*
X98140000Y-66960000D02*
X89590000Y-66960000D01*
X87746016Y-31553984D02*
X89590000Y-29710000D01*
X98140000Y-29710000D02*
X89590000Y-29710000D01*
X77513984Y-61353984D02*
X87746016Y-61353984D01*
X77513984Y-46453984D02*
X87746016Y-46453984D01*
X76740000Y-45574973D02*
X76740000Y-45680000D01*
X76740000Y-45680000D02*
X77513984Y-46453984D01*
X98140000Y-44610000D02*
X89590000Y-44610000D01*
X98140000Y-37160000D02*
X89590000Y-37160000D01*
X76740000Y-60474973D02*
X76740000Y-60580000D01*
X77513984Y-68803984D02*
X87746016Y-68803984D01*
X99015000Y-36285000D02*
X98140000Y-37160000D01*
X76740000Y-53130000D02*
X77513984Y-53903984D01*
X99015000Y-43735000D02*
X98140000Y-44610000D01*
X98140000Y-59510000D02*
X89590000Y-59510000D01*
X76740000Y-67924973D02*
X76740000Y-68030000D01*
X87746016Y-46453984D02*
X89590000Y-44610000D01*
X76740000Y-38230000D02*
X77513984Y-39003984D01*
X87746016Y-53903984D02*
X89590000Y-52060000D01*
X87746016Y-39003984D02*
X89590000Y-37160000D01*
X98140000Y-52060000D02*
X89590000Y-52060000D01*
X76740000Y-30780000D02*
X77513984Y-31553984D01*
X99015000Y-66085000D02*
X98140000Y-66960000D01*
X77513984Y-39003984D02*
X87746016Y-39003984D01*
X99015000Y-51185000D02*
X98140000Y-52060000D01*
X87746016Y-68803984D02*
X89590000Y-66960000D01*
X76740000Y-68030000D02*
X77513984Y-68803984D01*
X77513984Y-31553984D02*
X87746016Y-31553984D01*
X99015000Y-58635000D02*
X98140000Y-59510000D01*
X87746016Y-61353984D02*
X89590000Y-59510000D01*
%TO.N,SCL*%
X77540001Y-60474973D02*
X77540001Y-60580001D01*
X77540001Y-68030001D02*
X77963974Y-68453974D01*
X87186030Y-46103974D02*
X88060002Y-45230002D01*
X77540001Y-45574973D02*
X77540001Y-45680001D01*
X99515000Y-31285000D02*
X98560002Y-30330002D01*
X77963974Y-31203974D02*
X87186030Y-31203974D01*
X77540001Y-30780001D02*
X77963974Y-31203974D01*
X98560002Y-37780002D02*
X90170000Y-37780002D01*
X77963974Y-61003974D02*
X87186030Y-61003974D01*
X87186030Y-31203974D02*
X88060002Y-30330002D01*
X99515000Y-53635000D02*
X98560002Y-52680002D01*
X77540001Y-30674973D02*
X77540001Y-30780001D01*
X77963974Y-68453974D02*
X87186030Y-68453974D01*
X87186030Y-61003974D02*
X88060002Y-60130002D01*
X87186030Y-68453974D02*
X88060002Y-67580002D01*
X98560002Y-30330002D02*
X90170000Y-30330002D01*
X99515000Y-68535000D02*
X98560002Y-67580002D01*
X77540001Y-53024973D02*
X77540001Y-53130001D01*
X98560002Y-52680002D02*
X90170000Y-52680002D01*
X77540001Y-67924973D02*
X77540001Y-68030001D01*
X98560002Y-60130002D02*
X90170000Y-60130002D01*
X98560002Y-67580002D02*
X90170000Y-67580002D01*
X77540001Y-60580001D02*
X77963974Y-61003974D01*
X99515000Y-38735000D02*
X98560002Y-37780002D01*
X99515000Y-61085000D02*
X98560002Y-60130002D01*
X87186030Y-38653974D02*
X88060002Y-37780002D01*
X77540001Y-38124973D02*
X77540001Y-38230001D01*
X77540001Y-38230001D02*
X77963974Y-38653974D01*
X98560002Y-45230002D02*
X90170000Y-45230002D01*
X77963974Y-38653974D02*
X87186030Y-38653974D01*
X77540001Y-53130001D02*
X77963974Y-53553974D01*
X77540001Y-45680001D02*
X77963974Y-46103974D01*
X99515000Y-46185000D02*
X98560002Y-45230002D01*
X77963974Y-53553974D02*
X87186030Y-53553974D01*
X87186030Y-53553974D02*
X88060002Y-52680002D01*
X77963974Y-46103974D02*
X87186030Y-46103974D01*
%TD*%
%TA.AperFunction,Conductor*%
%TO.N,GND*%
G36*
X105653566Y-35327813D02*
G01*
X105678876Y-35371650D01*
X105680000Y-35384500D01*
X105680000Y-39631000D01*
X105662687Y-39678566D01*
X105618850Y-39703876D01*
X105606000Y-39705000D01*
X47914000Y-39705000D01*
X47866434Y-39687687D01*
X47841124Y-39643850D01*
X47840000Y-39631000D01*
X47840000Y-38040003D01*
X53025928Y-38040003D01*
X53046172Y-38258479D01*
X53046174Y-38258492D01*
X53106221Y-38469536D01*
X53106223Y-38469541D01*
X53204031Y-38665967D01*
X53204033Y-38665970D01*
X53217561Y-38683883D01*
X53703696Y-38197749D01*
X53749572Y-38176357D01*
X53798467Y-38189458D01*
X53824906Y-38223039D01*
X53838403Y-38257428D01*
X53881228Y-38311129D01*
X53919222Y-38358773D01*
X54026323Y-38431793D01*
X54031317Y-38434198D01*
X54030452Y-38435994D01*
X54064281Y-38461606D01*
X54075557Y-38510954D01*
X54054455Y-38554096D01*
X53573293Y-39035258D01*
X53684980Y-39104410D01*
X53684990Y-39104415D01*
X53889591Y-39183678D01*
X54105282Y-39223999D01*
X54105286Y-39224000D01*
X54324714Y-39224000D01*
X54324717Y-39223999D01*
X54540408Y-39183678D01*
X54745009Y-39104415D01*
X54745019Y-39104410D01*
X54856704Y-39035257D01*
X54372246Y-38550799D01*
X54350854Y-38504923D01*
X54363955Y-38456028D01*
X54392465Y-38431801D01*
X54459964Y-38399296D01*
X54554985Y-38311129D01*
X54610973Y-38214154D01*
X54649747Y-38181619D01*
X54700366Y-38181619D01*
X54727383Y-38198830D01*
X55212437Y-38683883D01*
X55225970Y-38665963D01*
X55323776Y-38469541D01*
X55335324Y-38428954D01*
X55364992Y-38387940D01*
X55414082Y-38375592D01*
X55459624Y-38397688D01*
X55480309Y-38443888D01*
X55480500Y-38449203D01*
X55480500Y-38728970D01*
X55483430Y-38743703D01*
X55483430Y-38743704D01*
X55494592Y-38760408D01*
X55511296Y-38771570D01*
X55511295Y-38771570D01*
X55513739Y-38772055D01*
X55526027Y-38774500D01*
X56903972Y-38774499D01*
X56918704Y-38771570D01*
X56935408Y-38760408D01*
X56946570Y-38743704D01*
X56949500Y-38728973D01*
X56949499Y-37575000D01*
X74385800Y-37575000D01*
X74385800Y-37626828D01*
X74392202Y-37686375D01*
X74392203Y-37686380D01*
X74442445Y-37821087D01*
X74442446Y-37821088D01*
X74528611Y-37936188D01*
X74643711Y-38022353D01*
X74643712Y-38022354D01*
X74782761Y-38074216D01*
X74782378Y-38075242D01*
X74820623Y-38100354D01*
X74835300Y-38144589D01*
X74835300Y-38384070D01*
X74838230Y-38398804D01*
X74846798Y-38411627D01*
X74849392Y-38415508D01*
X74866096Y-38426670D01*
X74866095Y-38426670D01*
X74868539Y-38427155D01*
X74880827Y-38429600D01*
X75398772Y-38429599D01*
X75413504Y-38426670D01*
X75430208Y-38415508D01*
X75441370Y-38398804D01*
X75444300Y-38384073D01*
X75444299Y-38144587D01*
X75461612Y-38097023D01*
X75497171Y-38075109D01*
X75496838Y-38074216D01*
X75535539Y-38059781D01*
X75586157Y-38059379D01*
X75625190Y-38091607D01*
X75635400Y-38129115D01*
X75635400Y-38384070D01*
X75638330Y-38398804D01*
X75646898Y-38411627D01*
X75649492Y-38415508D01*
X75666196Y-38426670D01*
X75666195Y-38426670D01*
X75668639Y-38427155D01*
X75680927Y-38429600D01*
X76198872Y-38429599D01*
X76213604Y-38426670D01*
X76230308Y-38415508D01*
X76241470Y-38398804D01*
X76244400Y-38384073D01*
X76244399Y-37866128D01*
X76241470Y-37851396D01*
X76230308Y-37834692D01*
X76213604Y-37823530D01*
X76213603Y-37823529D01*
X76198873Y-37820600D01*
X75943915Y-37820600D01*
X75896349Y-37803287D01*
X75871039Y-37759450D01*
X75874581Y-37720739D01*
X75887397Y-37686377D01*
X75887397Y-37686375D01*
X75893800Y-37626828D01*
X75893800Y-37575000D01*
X74385800Y-37575000D01*
X56949499Y-37575000D01*
X56949499Y-37351028D01*
X56946570Y-37336296D01*
X56935408Y-37319592D01*
X56918704Y-37308430D01*
X56918701Y-37308429D01*
X56918704Y-37308429D01*
X56906416Y-37305985D01*
X56903973Y-37305500D01*
X56903972Y-37305500D01*
X55526029Y-37305500D01*
X55511295Y-37308430D01*
X55494592Y-37319591D01*
X55483429Y-37336296D01*
X55480499Y-37351027D01*
X55480500Y-37630794D01*
X55463187Y-37678360D01*
X55419350Y-37703670D01*
X55369500Y-37694880D01*
X55336963Y-37656103D01*
X55335325Y-37651045D01*
X55323778Y-37610462D01*
X55323776Y-37610458D01*
X55225968Y-37414032D01*
X55225966Y-37414030D01*
X55212437Y-37396114D01*
X54726303Y-37882248D01*
X54680426Y-37903640D01*
X54631532Y-37890539D01*
X54605092Y-37856957D01*
X54591597Y-37822572D01*
X54510778Y-37721227D01*
X54510066Y-37720741D01*
X54403676Y-37648206D01*
X54398683Y-37645802D01*
X54399545Y-37644011D01*
X54365699Y-37618365D01*
X54354445Y-37569013D01*
X54375543Y-37525902D01*
X54826445Y-37075000D01*
X74385800Y-37075000D01*
X75689900Y-37075000D01*
X75689900Y-36774900D01*
X76189900Y-36774900D01*
X76189900Y-37278900D01*
X76241729Y-37278900D01*
X76301275Y-37272497D01*
X76314086Y-37267719D01*
X76364703Y-37267315D01*
X76365814Y-37267719D01*
X76378624Y-37272497D01*
X76438171Y-37278900D01*
X76490000Y-37278900D01*
X76490000Y-36774900D01*
X76990000Y-36774900D01*
X76990000Y-37278900D01*
X77041829Y-37278900D01*
X77101375Y-37272497D01*
X77114186Y-37267719D01*
X77164803Y-37267315D01*
X77165914Y-37267719D01*
X77178724Y-37272497D01*
X77238271Y-37278900D01*
X77290100Y-37278900D01*
X77290100Y-36774900D01*
X76990000Y-36774900D01*
X76490000Y-36774900D01*
X76189900Y-36774900D01*
X75689900Y-36774900D01*
X75689900Y-36348900D01*
X75707213Y-36301334D01*
X75751050Y-36276024D01*
X75763900Y-36274900D01*
X77716100Y-36274900D01*
X77763666Y-36292213D01*
X77788976Y-36336050D01*
X77790100Y-36348900D01*
X77790099Y-37074999D01*
X77790100Y-37075000D01*
X78963005Y-37075000D01*
X78984511Y-37079678D01*
X78984869Y-37078462D01*
X79128035Y-37120499D01*
X79128037Y-37120500D01*
X79128039Y-37120500D01*
X79271963Y-37120500D01*
X79271964Y-37120499D01*
X79410053Y-37079953D01*
X79531128Y-37002143D01*
X79625377Y-36893373D01*
X79685165Y-36762457D01*
X79705647Y-36620000D01*
X79685165Y-36477543D01*
X79636160Y-36370240D01*
X79632150Y-36319781D01*
X79661511Y-36278548D01*
X79703474Y-36265500D01*
X84009216Y-36265500D01*
X84056782Y-36282813D01*
X84061542Y-36287174D01*
X84309729Y-36535361D01*
X84331121Y-36581237D01*
X84330650Y-36598217D01*
X84321337Y-36662999D01*
X84341818Y-36805454D01*
X84341818Y-36805455D01*
X84341819Y-36805457D01*
X84370297Y-36867815D01*
X84401607Y-36936373D01*
X84495852Y-37045139D01*
X84495853Y-37045140D01*
X84495856Y-37045143D01*
X84616931Y-37122953D01*
X84723387Y-37154211D01*
X84755019Y-37163499D01*
X84755021Y-37163500D01*
X84755023Y-37163500D01*
X84898947Y-37163500D01*
X84898948Y-37163499D01*
X85037037Y-37122953D01*
X85158112Y-37045143D01*
X85187431Y-37011306D01*
X85231663Y-36986696D01*
X85281367Y-36996275D01*
X85310668Y-37029025D01*
X85344621Y-37103371D01*
X85438868Y-37212139D01*
X85438869Y-37212140D01*
X85438872Y-37212143D01*
X85559947Y-37289953D01*
X85622875Y-37308430D01*
X85698035Y-37330499D01*
X85698037Y-37330500D01*
X85698039Y-37330500D01*
X85841963Y-37330500D01*
X85841964Y-37330499D01*
X85980053Y-37289953D01*
X86101128Y-37212143D01*
X86195377Y-37103373D01*
X86255165Y-36972457D01*
X86263573Y-36913971D01*
X86287480Y-36869353D01*
X86334473Y-36850539D01*
X86336821Y-36850502D01*
X87757657Y-36850502D01*
X87805223Y-36867815D01*
X87813579Y-36876039D01*
X87818870Y-36882145D01*
X87939945Y-36959955D01*
X88031018Y-36986696D01*
X88078033Y-37000501D01*
X88078035Y-37000502D01*
X88078037Y-37000502D01*
X88221961Y-37000502D01*
X88221962Y-37000501D01*
X88360051Y-36959955D01*
X88481126Y-36882145D01*
X88575375Y-36773375D01*
X88635163Y-36642459D01*
X88655645Y-36500002D01*
X88636988Y-36370241D01*
X88635163Y-36357544D01*
X88604426Y-36290241D01*
X88600413Y-36239782D01*
X88629775Y-36198548D01*
X88671738Y-36185500D01*
X97438258Y-36185500D01*
X97485824Y-36202813D01*
X97511134Y-36246650D01*
X97511505Y-36270030D01*
X97509667Y-36282813D01*
X97509353Y-36285000D01*
X97514354Y-36319781D01*
X97529834Y-36427454D01*
X97529834Y-36427455D01*
X97529835Y-36427457D01*
X97579114Y-36535361D01*
X97589623Y-36558373D01*
X97683868Y-36667139D01*
X97683869Y-36667140D01*
X97683872Y-36667143D01*
X97804947Y-36744953D01*
X97809399Y-36747814D01*
X97807997Y-36749994D01*
X97837158Y-36778699D01*
X97841967Y-36829089D01*
X97813261Y-36870781D01*
X97770340Y-36884500D01*
X90047329Y-36884500D01*
X89999763Y-36867187D01*
X89991407Y-36858964D01*
X89921128Y-36777857D01*
X89864182Y-36741260D01*
X89800054Y-36700047D01*
X89800050Y-36700046D01*
X89661964Y-36659500D01*
X89661961Y-36659500D01*
X89518039Y-36659500D01*
X89518036Y-36659500D01*
X89379949Y-36700046D01*
X89379945Y-36700047D01*
X89258875Y-36777855D01*
X89258868Y-36777860D01*
X89164623Y-36886626D01*
X89104834Y-37017545D01*
X89084353Y-37160000D01*
X89093666Y-37224781D01*
X89083298Y-37274327D01*
X89072745Y-37287637D01*
X88672035Y-37688347D01*
X88626159Y-37709739D01*
X88577264Y-37696638D01*
X88548230Y-37655174D01*
X88546462Y-37646551D01*
X88545167Y-37637547D01*
X88545167Y-37637545D01*
X88485379Y-37506629D01*
X88430550Y-37443352D01*
X88391133Y-37397862D01*
X88391131Y-37397861D01*
X88391130Y-37397859D01*
X88318261Y-37351029D01*
X88270056Y-37320049D01*
X88270052Y-37320048D01*
X88131966Y-37279502D01*
X88131963Y-37279502D01*
X87988041Y-37279502D01*
X87988038Y-37279502D01*
X87849951Y-37320048D01*
X87849947Y-37320049D01*
X87728877Y-37397857D01*
X87728870Y-37397862D01*
X87634625Y-37506628D01*
X87574836Y-37637547D01*
X87554355Y-37780002D01*
X87563668Y-37844783D01*
X87553300Y-37894329D01*
X87542747Y-37907639D01*
X87093588Y-38356800D01*
X87047712Y-38378192D01*
X87041262Y-38378474D01*
X79706226Y-38378474D01*
X79658660Y-38361161D01*
X79633350Y-38317324D01*
X79638913Y-38273733D01*
X79685165Y-38172457D01*
X79705647Y-38030000D01*
X79685165Y-37887543D01*
X79625377Y-37756627D01*
X79601814Y-37729434D01*
X79531131Y-37647860D01*
X79531129Y-37647859D01*
X79531128Y-37647857D01*
X79427688Y-37581380D01*
X79410054Y-37570047D01*
X79410050Y-37570046D01*
X79271964Y-37529500D01*
X79271961Y-37529500D01*
X79128039Y-37529500D01*
X79128036Y-37529500D01*
X78984869Y-37571538D01*
X78984511Y-37570321D01*
X78963005Y-37575000D01*
X77586200Y-37575000D01*
X77586200Y-37626828D01*
X77592602Y-37686375D01*
X77592602Y-37686376D01*
X77605419Y-37720741D01*
X77605819Y-37771358D01*
X77573590Y-37810391D01*
X77536084Y-37820600D01*
X77281129Y-37820600D01*
X77266395Y-37823530D01*
X77249692Y-37834691D01*
X77238529Y-37851396D01*
X77235600Y-37866127D01*
X77235600Y-38157332D01*
X77218287Y-38204898D01*
X77174450Y-38230208D01*
X77124600Y-38221418D01*
X77109274Y-38209658D01*
X77066173Y-38166557D01*
X77044781Y-38120681D01*
X77044499Y-38114231D01*
X77044499Y-37866129D01*
X77044499Y-37866127D01*
X77041570Y-37851396D01*
X77030408Y-37834692D01*
X77013704Y-37823530D01*
X77013701Y-37823529D01*
X77013704Y-37823529D01*
X77001416Y-37821085D01*
X76998973Y-37820600D01*
X76998972Y-37820600D01*
X76481029Y-37820600D01*
X76466295Y-37823530D01*
X76449592Y-37834691D01*
X76438429Y-37851396D01*
X76435500Y-37866127D01*
X76435500Y-38384070D01*
X76438430Y-38398804D01*
X76446998Y-38411627D01*
X76449592Y-38415508D01*
X76466296Y-38426670D01*
X76466295Y-38426670D01*
X76469225Y-38427252D01*
X76481027Y-38429600D01*
X76519330Y-38429599D01*
X76566896Y-38446911D01*
X76571657Y-38451273D01*
X77294838Y-39174454D01*
X77304040Y-39185667D01*
X77315359Y-39202607D01*
X77315360Y-39202608D01*
X77335339Y-39215958D01*
X77335340Y-39215958D01*
X77338360Y-39217976D01*
X77338362Y-39217978D01*
X77364518Y-39235455D01*
X77406489Y-39263499D01*
X77486851Y-39279484D01*
X77486852Y-39279484D01*
X77513983Y-39284881D01*
X77513984Y-39284881D01*
X77533968Y-39280905D01*
X77548404Y-39279484D01*
X87711596Y-39279484D01*
X87726032Y-39280905D01*
X87746016Y-39284881D01*
X87746017Y-39284881D01*
X87750638Y-39283961D01*
X87773148Y-39279484D01*
X87773149Y-39279484D01*
X87853511Y-39263499D01*
X87895481Y-39235455D01*
X87921638Y-39217978D01*
X87921638Y-39217977D01*
X87929652Y-39212623D01*
X87929655Y-39212620D01*
X87944640Y-39202608D01*
X87955964Y-39185658D01*
X87965157Y-39174457D01*
X89457816Y-37681798D01*
X89503691Y-37660407D01*
X89512746Y-37660659D01*
X89512746Y-37660500D01*
X89596134Y-37660500D01*
X89643700Y-37677813D01*
X89669010Y-37721650D01*
X89669381Y-37745031D01*
X89664353Y-37780002D01*
X89684834Y-37922456D01*
X89744623Y-38053375D01*
X89838868Y-38162141D01*
X89838869Y-38162142D01*
X89838872Y-38162145D01*
X89959947Y-38239955D01*
X90066403Y-38271213D01*
X90098035Y-38280501D01*
X90098037Y-38280502D01*
X90098039Y-38280502D01*
X90241963Y-38280502D01*
X90241964Y-38280501D01*
X90380053Y-38239955D01*
X90501128Y-38162145D01*
X90571404Y-38081041D01*
X90615637Y-38056432D01*
X90627329Y-38055502D01*
X90951958Y-38055502D01*
X90999524Y-38072815D01*
X91024834Y-38116652D01*
X91019271Y-38160243D01*
X90974834Y-38257545D01*
X90954353Y-38400000D01*
X90974834Y-38542454D01*
X90974834Y-38542455D01*
X90974835Y-38542457D01*
X90997709Y-38592543D01*
X91034623Y-38673373D01*
X91128868Y-38782139D01*
X91128869Y-38782140D01*
X91128872Y-38782143D01*
X91249947Y-38859953D01*
X91356403Y-38891211D01*
X91388035Y-38900499D01*
X91388037Y-38900500D01*
X91388039Y-38900500D01*
X91531963Y-38900500D01*
X91531964Y-38900499D01*
X91670053Y-38859953D01*
X91791128Y-38782143D01*
X91861404Y-38701039D01*
X91905637Y-38676430D01*
X91917329Y-38675500D01*
X96943866Y-38675500D01*
X96991432Y-38692813D01*
X97016742Y-38736650D01*
X97017107Y-38738937D01*
X97020195Y-38760407D01*
X97029834Y-38827454D01*
X97029834Y-38827455D01*
X97029835Y-38827457D01*
X97063193Y-38900499D01*
X97089623Y-38958373D01*
X97183868Y-39067139D01*
X97183869Y-39067140D01*
X97183872Y-39067143D01*
X97304947Y-39144953D01*
X97405413Y-39174452D01*
X97443035Y-39185499D01*
X97443037Y-39185500D01*
X97443039Y-39185500D01*
X97586963Y-39185500D01*
X97586964Y-39185499D01*
X97593166Y-39183678D01*
X97725053Y-39144953D01*
X97846128Y-39067143D01*
X97940377Y-38958373D01*
X98000165Y-38827457D01*
X98020647Y-38685000D01*
X98000165Y-38542543D01*
X97940377Y-38411627D01*
X97874919Y-38336084D01*
X97846131Y-38302860D01*
X97846129Y-38302859D01*
X97846128Y-38302857D01*
X97777095Y-38258492D01*
X97725054Y-38225047D01*
X97725050Y-38225046D01*
X97641468Y-38200504D01*
X97600706Y-38170492D01*
X97588772Y-38121300D01*
X97611250Y-38075946D01*
X97657623Y-38055651D01*
X97662316Y-38055502D01*
X98415234Y-38055502D01*
X98462800Y-38072815D01*
X98467560Y-38077176D01*
X98997745Y-38607361D01*
X99019137Y-38653237D01*
X99018666Y-38670217D01*
X99009353Y-38734999D01*
X99009353Y-38735000D01*
X99013006Y-38760407D01*
X99029834Y-38877454D01*
X99089623Y-39008373D01*
X99183868Y-39117139D01*
X99183869Y-39117140D01*
X99183872Y-39117143D01*
X99273047Y-39174452D01*
X99290497Y-39185667D01*
X99304947Y-39194953D01*
X99383364Y-39217978D01*
X99443035Y-39235499D01*
X99443037Y-39235500D01*
X99443039Y-39235500D01*
X99586963Y-39235500D01*
X99586964Y-39235499D01*
X99587114Y-39235455D01*
X99725053Y-39194953D01*
X99846128Y-39117143D01*
X99940377Y-39008373D01*
X100000165Y-38877457D01*
X100020647Y-38735000D01*
X100000165Y-38592543D01*
X99940377Y-38461627D01*
X99884974Y-38397688D01*
X99846131Y-38352860D01*
X99846129Y-38352859D01*
X99846128Y-38352857D01*
X99781198Y-38311129D01*
X99725054Y-38275047D01*
X99725050Y-38275046D01*
X99586964Y-38234500D01*
X99586961Y-38234500D01*
X99443039Y-38234500D01*
X99437747Y-38234500D01*
X99437747Y-38232466D01*
X99396114Y-38223746D01*
X99382816Y-38213200D01*
X98779147Y-37609531D01*
X98769944Y-37598316D01*
X98758628Y-37581380D01*
X98758626Y-37581378D01*
X98738646Y-37568027D01*
X98738643Y-37568025D01*
X98729703Y-37562051D01*
X98699184Y-37541660D01*
X98675601Y-37525902D01*
X98667498Y-37520487D01*
X98667499Y-37520487D01*
X98627316Y-37512494D01*
X98587135Y-37504502D01*
X98587134Y-37504502D01*
X98587132Y-37504501D01*
X98560003Y-37499105D01*
X98560002Y-37499105D01*
X98540019Y-37503080D01*
X98525582Y-37504502D01*
X98364248Y-37504502D01*
X98316682Y-37487189D01*
X98291372Y-37443352D01*
X98299453Y-37397520D01*
X98298560Y-37397074D01*
X98298561Y-37397072D01*
X98299775Y-37395695D01*
X98300162Y-37393502D01*
X98323143Y-37368968D01*
X98323380Y-37368809D01*
X98338624Y-37358624D01*
X98349944Y-37341681D01*
X98359141Y-37330474D01*
X98882816Y-36806798D01*
X98928691Y-36785407D01*
X98937746Y-36785659D01*
X98937746Y-36785500D01*
X99086963Y-36785500D01*
X99086964Y-36785499D01*
X99225053Y-36744953D01*
X99346128Y-36667143D01*
X99440377Y-36558373D01*
X99500165Y-36427457D01*
X99520647Y-36285000D01*
X99500165Y-36142543D01*
X99440377Y-36011627D01*
X99346128Y-35902857D01*
X99289182Y-35866260D01*
X99225054Y-35825047D01*
X99225050Y-35825046D01*
X99086964Y-35784500D01*
X99086961Y-35784500D01*
X98943039Y-35784500D01*
X98943036Y-35784500D01*
X98804949Y-35825046D01*
X98804945Y-35825047D01*
X98683875Y-35902855D01*
X98683868Y-35902860D01*
X98589622Y-36011627D01*
X98582312Y-36027635D01*
X98546804Y-36063710D01*
X98496414Y-36068521D01*
X98454721Y-36039816D01*
X98447688Y-36027635D01*
X98440377Y-36011627D01*
X98346131Y-35902860D01*
X98346129Y-35902859D01*
X98346128Y-35902857D01*
X98289182Y-35866260D01*
X98225054Y-35825047D01*
X98225050Y-35825046D01*
X98086964Y-35784500D01*
X98086961Y-35784500D01*
X97943039Y-35784500D01*
X97937747Y-35784500D01*
X97937747Y-35782466D01*
X97896114Y-35773746D01*
X97882816Y-35763200D01*
X97859145Y-35739529D01*
X97849942Y-35728314D01*
X97838626Y-35711378D01*
X97838624Y-35711376D01*
X97835222Y-35709103D01*
X97818644Y-35698026D01*
X97818639Y-35698021D01*
X97789465Y-35678528D01*
X97747495Y-35650485D01*
X97747495Y-35650484D01*
X97667133Y-35634500D01*
X97667132Y-35634500D01*
X97667130Y-35634499D01*
X97640001Y-35629103D01*
X97640000Y-35629103D01*
X97620017Y-35633078D01*
X97605580Y-35634500D01*
X85614404Y-35634500D01*
X85599968Y-35633078D01*
X85579984Y-35629103D01*
X85579983Y-35629103D01*
X85552852Y-35634500D01*
X85552851Y-35634500D01*
X85536867Y-35637679D01*
X85472490Y-35650484D01*
X85472488Y-35650485D01*
X85430517Y-35678528D01*
X85404362Y-35696005D01*
X85381359Y-35711376D01*
X85381358Y-35711377D01*
X85370037Y-35728319D01*
X85360837Y-35739529D01*
X84959166Y-36141200D01*
X84913290Y-36162592D01*
X84904237Y-36162341D01*
X84904237Y-36162500D01*
X84749731Y-36162500D01*
X84749731Y-36160466D01*
X84708098Y-36151746D01*
X84694800Y-36141200D01*
X84373129Y-35819529D01*
X84363926Y-35808314D01*
X84352610Y-35791378D01*
X84352608Y-35791376D01*
X84339273Y-35782466D01*
X84332628Y-35778026D01*
X84332623Y-35778021D01*
X84303449Y-35758528D01*
X84261479Y-35730485D01*
X84250590Y-35728319D01*
X84181117Y-35714500D01*
X84181116Y-35714500D01*
X84181114Y-35714499D01*
X84153985Y-35709103D01*
X84153984Y-35709103D01*
X84134001Y-35713078D01*
X84119564Y-35714500D01*
X75604416Y-35714500D01*
X75589980Y-35713078D01*
X75570001Y-35709104D01*
X75569997Y-35709104D01*
X75545306Y-35714015D01*
X75545300Y-35714016D01*
X75462504Y-35730485D01*
X75396305Y-35774718D01*
X75371376Y-35791375D01*
X75371374Y-35791377D01*
X75360053Y-35808319D01*
X75350853Y-35819529D01*
X74971656Y-36198726D01*
X74925780Y-36220118D01*
X74919332Y-36220400D01*
X74880830Y-36220400D01*
X74866095Y-36223330D01*
X74849392Y-36234491D01*
X74838229Y-36251196D01*
X74835300Y-36265927D01*
X74835300Y-36505410D01*
X74817987Y-36552976D01*
X74782429Y-36574895D01*
X74782761Y-36575784D01*
X74643712Y-36627645D01*
X74643711Y-36627646D01*
X74528611Y-36713811D01*
X74442446Y-36828911D01*
X74442445Y-36828912D01*
X74392203Y-36963619D01*
X74392202Y-36963624D01*
X74385800Y-37023171D01*
X74385800Y-37075000D01*
X54826445Y-37075000D01*
X54856705Y-37044740D01*
X54745019Y-36975589D01*
X54745009Y-36975584D01*
X54540408Y-36896321D01*
X54324717Y-36856000D01*
X54105282Y-36856000D01*
X53889591Y-36896321D01*
X53684990Y-36975584D01*
X53684974Y-36975591D01*
X53573293Y-37044740D01*
X54057753Y-37529200D01*
X54079145Y-37575076D01*
X54066044Y-37623971D01*
X54037535Y-37648198D01*
X53970035Y-37680704D01*
X53875014Y-37768871D01*
X53819026Y-37865844D01*
X53780250Y-37898381D01*
X53729631Y-37898380D01*
X53702615Y-37881169D01*
X53217561Y-37396115D01*
X53204031Y-37414033D01*
X53204030Y-37414035D01*
X53106223Y-37610458D01*
X53106221Y-37610463D01*
X53046174Y-37821507D01*
X53046172Y-37821520D01*
X53025928Y-38039996D01*
X53025928Y-38040003D01*
X47840000Y-38040003D01*
X47840000Y-35384500D01*
X47857313Y-35336934D01*
X47901150Y-35311624D01*
X47914000Y-35310500D01*
X105606000Y-35310500D01*
X105653566Y-35327813D01*
G37*
%TD.AperFunction*%
%TD*%
%TA.AperFunction,Conductor*%
%TO.N,GND*%
G36*
X105653566Y-27877813D02*
G01*
X105678876Y-27921650D01*
X105680000Y-27934500D01*
X105680000Y-32181000D01*
X105662687Y-32228566D01*
X105618850Y-32253876D01*
X105606000Y-32255000D01*
X47914000Y-32255000D01*
X47866434Y-32237687D01*
X47841124Y-32193850D01*
X47840000Y-32181000D01*
X47840000Y-30590003D01*
X53025928Y-30590003D01*
X53046172Y-30808479D01*
X53046174Y-30808492D01*
X53106221Y-31019536D01*
X53106223Y-31019541D01*
X53204031Y-31215967D01*
X53204033Y-31215970D01*
X53217561Y-31233883D01*
X53703696Y-30747749D01*
X53749572Y-30726357D01*
X53798467Y-30739458D01*
X53824906Y-30773039D01*
X53838403Y-30807428D01*
X53881228Y-30861129D01*
X53919222Y-30908773D01*
X54026323Y-30981793D01*
X54031317Y-30984198D01*
X54030452Y-30985994D01*
X54064281Y-31011606D01*
X54075557Y-31060954D01*
X54054455Y-31104096D01*
X53573293Y-31585258D01*
X53684980Y-31654410D01*
X53684990Y-31654415D01*
X53889591Y-31733678D01*
X54105282Y-31773999D01*
X54105286Y-31774000D01*
X54324714Y-31774000D01*
X54324717Y-31773999D01*
X54540408Y-31733678D01*
X54745009Y-31654415D01*
X54745019Y-31654410D01*
X54856704Y-31585257D01*
X54372246Y-31100799D01*
X54350854Y-31054923D01*
X54363955Y-31006028D01*
X54392465Y-30981801D01*
X54459964Y-30949296D01*
X54554985Y-30861129D01*
X54610973Y-30764154D01*
X54649747Y-30731619D01*
X54700366Y-30731619D01*
X54727383Y-30748830D01*
X55212437Y-31233883D01*
X55225970Y-31215963D01*
X55323776Y-31019541D01*
X55335324Y-30978954D01*
X55364992Y-30937940D01*
X55414082Y-30925592D01*
X55459624Y-30947688D01*
X55480309Y-30993888D01*
X55480500Y-30999203D01*
X55480500Y-31278970D01*
X55483430Y-31293703D01*
X55483430Y-31293704D01*
X55494592Y-31310408D01*
X55511296Y-31321570D01*
X55511295Y-31321570D01*
X55513739Y-31322055D01*
X55526027Y-31324500D01*
X56903972Y-31324499D01*
X56918704Y-31321570D01*
X56935408Y-31310408D01*
X56946570Y-31293704D01*
X56949500Y-31278973D01*
X56949499Y-30125000D01*
X74385800Y-30125000D01*
X74385800Y-30176828D01*
X74392202Y-30236375D01*
X74392203Y-30236380D01*
X74442445Y-30371087D01*
X74442446Y-30371088D01*
X74528611Y-30486188D01*
X74643711Y-30572353D01*
X74643712Y-30572354D01*
X74782761Y-30624216D01*
X74782378Y-30625242D01*
X74820623Y-30650354D01*
X74835300Y-30694589D01*
X74835300Y-30934070D01*
X74838230Y-30948804D01*
X74846798Y-30961627D01*
X74849392Y-30965508D01*
X74866096Y-30976670D01*
X74866095Y-30976670D01*
X74868539Y-30977155D01*
X74880827Y-30979600D01*
X75398772Y-30979599D01*
X75413504Y-30976670D01*
X75430208Y-30965508D01*
X75441370Y-30948804D01*
X75444300Y-30934073D01*
X75444299Y-30694587D01*
X75461612Y-30647023D01*
X75497171Y-30625109D01*
X75496838Y-30624216D01*
X75535539Y-30609781D01*
X75586157Y-30609379D01*
X75625190Y-30641607D01*
X75635400Y-30679115D01*
X75635400Y-30934070D01*
X75638330Y-30948804D01*
X75646898Y-30961627D01*
X75649492Y-30965508D01*
X75666196Y-30976670D01*
X75666195Y-30976670D01*
X75668639Y-30977155D01*
X75680927Y-30979600D01*
X76198872Y-30979599D01*
X76213604Y-30976670D01*
X76230308Y-30965508D01*
X76241470Y-30948804D01*
X76244400Y-30934073D01*
X76244399Y-30416128D01*
X76241470Y-30401396D01*
X76230308Y-30384692D01*
X76213604Y-30373530D01*
X76213603Y-30373529D01*
X76198873Y-30370600D01*
X75943915Y-30370600D01*
X75896349Y-30353287D01*
X75871039Y-30309450D01*
X75874581Y-30270739D01*
X75887397Y-30236377D01*
X75887397Y-30236375D01*
X75893800Y-30176828D01*
X75893800Y-30125000D01*
X74385800Y-30125000D01*
X56949499Y-30125000D01*
X56949499Y-29901028D01*
X56946570Y-29886296D01*
X56935408Y-29869592D01*
X56918704Y-29858430D01*
X56918701Y-29858429D01*
X56918704Y-29858429D01*
X56906416Y-29855985D01*
X56903973Y-29855500D01*
X56903972Y-29855500D01*
X55526029Y-29855500D01*
X55511295Y-29858430D01*
X55494592Y-29869591D01*
X55483429Y-29886296D01*
X55480499Y-29901027D01*
X55480500Y-30180794D01*
X55463187Y-30228360D01*
X55419350Y-30253670D01*
X55369500Y-30244880D01*
X55336963Y-30206103D01*
X55335325Y-30201045D01*
X55323778Y-30160462D01*
X55323776Y-30160458D01*
X55225968Y-29964032D01*
X55225966Y-29964030D01*
X55212437Y-29946114D01*
X54726303Y-30432248D01*
X54680426Y-30453640D01*
X54631532Y-30440539D01*
X54605092Y-30406957D01*
X54591597Y-30372572D01*
X54510778Y-30271227D01*
X54510066Y-30270741D01*
X54403676Y-30198206D01*
X54398683Y-30195802D01*
X54399545Y-30194011D01*
X54365699Y-30168365D01*
X54354445Y-30119013D01*
X54375543Y-30075902D01*
X54826445Y-29625000D01*
X74385800Y-29625000D01*
X75689900Y-29625000D01*
X75689900Y-29324900D01*
X76189900Y-29324900D01*
X76189900Y-29828900D01*
X76241729Y-29828900D01*
X76301275Y-29822497D01*
X76314086Y-29817719D01*
X76364703Y-29817315D01*
X76365814Y-29817719D01*
X76378624Y-29822497D01*
X76438171Y-29828900D01*
X76490000Y-29828900D01*
X76490000Y-29324900D01*
X76990000Y-29324900D01*
X76990000Y-29828900D01*
X77041829Y-29828900D01*
X77101375Y-29822497D01*
X77114186Y-29817719D01*
X77164803Y-29817315D01*
X77165914Y-29817719D01*
X77178724Y-29822497D01*
X77238271Y-29828900D01*
X77290100Y-29828900D01*
X77290100Y-29324900D01*
X76990000Y-29324900D01*
X76490000Y-29324900D01*
X76189900Y-29324900D01*
X75689900Y-29324900D01*
X75689900Y-28898900D01*
X75707213Y-28851334D01*
X75751050Y-28826024D01*
X75763900Y-28824900D01*
X77716100Y-28824900D01*
X77763666Y-28842213D01*
X77788976Y-28886050D01*
X77790100Y-28898900D01*
X77790099Y-29624999D01*
X77790100Y-29625000D01*
X78963005Y-29625000D01*
X78984511Y-29629678D01*
X78984869Y-29628462D01*
X79128035Y-29670499D01*
X79128037Y-29670500D01*
X79128039Y-29670500D01*
X79271963Y-29670500D01*
X79271964Y-29670499D01*
X79410053Y-29629953D01*
X79531128Y-29552143D01*
X79625377Y-29443373D01*
X79685165Y-29312457D01*
X79705647Y-29170000D01*
X79685165Y-29027543D01*
X79636160Y-28920240D01*
X79632150Y-28869781D01*
X79661511Y-28828548D01*
X79703474Y-28815500D01*
X84009216Y-28815500D01*
X84056782Y-28832813D01*
X84061542Y-28837174D01*
X84309729Y-29085361D01*
X84331121Y-29131237D01*
X84330650Y-29148217D01*
X84321337Y-29212999D01*
X84341818Y-29355454D01*
X84341818Y-29355455D01*
X84341819Y-29355457D01*
X84370297Y-29417815D01*
X84401607Y-29486373D01*
X84495852Y-29595139D01*
X84495853Y-29595140D01*
X84495856Y-29595143D01*
X84616931Y-29672953D01*
X84723387Y-29704211D01*
X84755019Y-29713499D01*
X84755021Y-29713500D01*
X84755023Y-29713500D01*
X84898947Y-29713500D01*
X84898948Y-29713499D01*
X85037037Y-29672953D01*
X85158112Y-29595143D01*
X85187431Y-29561306D01*
X85231663Y-29536696D01*
X85281367Y-29546275D01*
X85310668Y-29579025D01*
X85344621Y-29653371D01*
X85438868Y-29762139D01*
X85438869Y-29762140D01*
X85438872Y-29762143D01*
X85559947Y-29839953D01*
X85622875Y-29858430D01*
X85698035Y-29880499D01*
X85698037Y-29880500D01*
X85698039Y-29880500D01*
X85841963Y-29880500D01*
X85841964Y-29880499D01*
X85980053Y-29839953D01*
X86101128Y-29762143D01*
X86195377Y-29653373D01*
X86255165Y-29522457D01*
X86263573Y-29463971D01*
X86287480Y-29419353D01*
X86334473Y-29400539D01*
X86336821Y-29400502D01*
X87757657Y-29400502D01*
X87805223Y-29417815D01*
X87813579Y-29426039D01*
X87818870Y-29432145D01*
X87939945Y-29509955D01*
X88031018Y-29536696D01*
X88078033Y-29550501D01*
X88078035Y-29550502D01*
X88078037Y-29550502D01*
X88221961Y-29550502D01*
X88221962Y-29550501D01*
X88360051Y-29509955D01*
X88481126Y-29432145D01*
X88575375Y-29323375D01*
X88635163Y-29192459D01*
X88655645Y-29050002D01*
X88636988Y-28920241D01*
X88635163Y-28907544D01*
X88604426Y-28840241D01*
X88600413Y-28789782D01*
X88629775Y-28748548D01*
X88671738Y-28735500D01*
X97438258Y-28735500D01*
X97485824Y-28752813D01*
X97511134Y-28796650D01*
X97511505Y-28820030D01*
X97509667Y-28832813D01*
X97509353Y-28835000D01*
X97514354Y-28869781D01*
X97529834Y-28977454D01*
X97529834Y-28977455D01*
X97529835Y-28977457D01*
X97579114Y-29085361D01*
X97589623Y-29108373D01*
X97683868Y-29217139D01*
X97683869Y-29217140D01*
X97683872Y-29217143D01*
X97804947Y-29294953D01*
X97809399Y-29297814D01*
X97807997Y-29299994D01*
X97837158Y-29328699D01*
X97841967Y-29379089D01*
X97813261Y-29420781D01*
X97770340Y-29434500D01*
X90047329Y-29434500D01*
X89999763Y-29417187D01*
X89991407Y-29408964D01*
X89921128Y-29327857D01*
X89864182Y-29291260D01*
X89800054Y-29250047D01*
X89800050Y-29250046D01*
X89661964Y-29209500D01*
X89661961Y-29209500D01*
X89518039Y-29209500D01*
X89518036Y-29209500D01*
X89379949Y-29250046D01*
X89379945Y-29250047D01*
X89258875Y-29327855D01*
X89258868Y-29327860D01*
X89164623Y-29436626D01*
X89104834Y-29567545D01*
X89084353Y-29710000D01*
X89093666Y-29774781D01*
X89083298Y-29824327D01*
X89072745Y-29837637D01*
X88672035Y-30238347D01*
X88626159Y-30259739D01*
X88577264Y-30246638D01*
X88548230Y-30205174D01*
X88546462Y-30196551D01*
X88545167Y-30187547D01*
X88545167Y-30187545D01*
X88485379Y-30056629D01*
X88430550Y-29993352D01*
X88391133Y-29947862D01*
X88391131Y-29947861D01*
X88391130Y-29947859D01*
X88318261Y-29901029D01*
X88270056Y-29870049D01*
X88270052Y-29870048D01*
X88131966Y-29829502D01*
X88131963Y-29829502D01*
X87988041Y-29829502D01*
X87988038Y-29829502D01*
X87849951Y-29870048D01*
X87849947Y-29870049D01*
X87728877Y-29947857D01*
X87728870Y-29947862D01*
X87634625Y-30056628D01*
X87574836Y-30187547D01*
X87554355Y-30330002D01*
X87563668Y-30394783D01*
X87553300Y-30444329D01*
X87542747Y-30457639D01*
X87093588Y-30906800D01*
X87047712Y-30928192D01*
X87041262Y-30928474D01*
X79706226Y-30928474D01*
X79658660Y-30911161D01*
X79633350Y-30867324D01*
X79638913Y-30823733D01*
X79685165Y-30722457D01*
X79705647Y-30580000D01*
X79685165Y-30437543D01*
X79625377Y-30306627D01*
X79601814Y-30279434D01*
X79531131Y-30197860D01*
X79531129Y-30197859D01*
X79531128Y-30197857D01*
X79427688Y-30131380D01*
X79410054Y-30120047D01*
X79410050Y-30120046D01*
X79271964Y-30079500D01*
X79271961Y-30079500D01*
X79128039Y-30079500D01*
X79128036Y-30079500D01*
X78984869Y-30121538D01*
X78984511Y-30120321D01*
X78963005Y-30125000D01*
X77586200Y-30125000D01*
X77586200Y-30176828D01*
X77592602Y-30236375D01*
X77592602Y-30236376D01*
X77605419Y-30270741D01*
X77605819Y-30321358D01*
X77573590Y-30360391D01*
X77536084Y-30370600D01*
X77281129Y-30370600D01*
X77266395Y-30373530D01*
X77249692Y-30384691D01*
X77238529Y-30401396D01*
X77235600Y-30416127D01*
X77235600Y-30707332D01*
X77218287Y-30754898D01*
X77174450Y-30780208D01*
X77124600Y-30771418D01*
X77109274Y-30759658D01*
X77066173Y-30716557D01*
X77044781Y-30670681D01*
X77044499Y-30664231D01*
X77044499Y-30416129D01*
X77044499Y-30416127D01*
X77041570Y-30401396D01*
X77030408Y-30384692D01*
X77013704Y-30373530D01*
X77013701Y-30373529D01*
X77013704Y-30373529D01*
X77001416Y-30371085D01*
X76998973Y-30370600D01*
X76998972Y-30370600D01*
X76481029Y-30370600D01*
X76466295Y-30373530D01*
X76449592Y-30384691D01*
X76438429Y-30401396D01*
X76435500Y-30416127D01*
X76435500Y-30934070D01*
X76438430Y-30948804D01*
X76446998Y-30961627D01*
X76449592Y-30965508D01*
X76466296Y-30976670D01*
X76466295Y-30976670D01*
X76469225Y-30977252D01*
X76481027Y-30979600D01*
X76519330Y-30979599D01*
X76566896Y-30996911D01*
X76571657Y-31001273D01*
X77294838Y-31724454D01*
X77304040Y-31735667D01*
X77315359Y-31752607D01*
X77315360Y-31752608D01*
X77335339Y-31765958D01*
X77335340Y-31765958D01*
X77338360Y-31767976D01*
X77338362Y-31767978D01*
X77364518Y-31785455D01*
X77406489Y-31813499D01*
X77486851Y-31829484D01*
X77486852Y-31829484D01*
X77513983Y-31834881D01*
X77513984Y-31834881D01*
X77533968Y-31830905D01*
X77548404Y-31829484D01*
X87711596Y-31829484D01*
X87726032Y-31830905D01*
X87746016Y-31834881D01*
X87746017Y-31834881D01*
X87750638Y-31833961D01*
X87773148Y-31829484D01*
X87773149Y-31829484D01*
X87853511Y-31813499D01*
X87895481Y-31785455D01*
X87921638Y-31767978D01*
X87921638Y-31767977D01*
X87929652Y-31762623D01*
X87929655Y-31762620D01*
X87944640Y-31752608D01*
X87955964Y-31735658D01*
X87965157Y-31724457D01*
X89457816Y-30231798D01*
X89503691Y-30210407D01*
X89512746Y-30210659D01*
X89512746Y-30210500D01*
X89596134Y-30210500D01*
X89643700Y-30227813D01*
X89669010Y-30271650D01*
X89669381Y-30295031D01*
X89664353Y-30330002D01*
X89684834Y-30472456D01*
X89744623Y-30603375D01*
X89838868Y-30712141D01*
X89838869Y-30712142D01*
X89838872Y-30712145D01*
X89959947Y-30789955D01*
X90066403Y-30821213D01*
X90098035Y-30830501D01*
X90098037Y-30830502D01*
X90098039Y-30830502D01*
X90241963Y-30830502D01*
X90241964Y-30830501D01*
X90380053Y-30789955D01*
X90501128Y-30712145D01*
X90571404Y-30631041D01*
X90615637Y-30606432D01*
X90627329Y-30605502D01*
X90951958Y-30605502D01*
X90999524Y-30622815D01*
X91024834Y-30666652D01*
X91019271Y-30710243D01*
X90974834Y-30807545D01*
X90954353Y-30950000D01*
X90974834Y-31092454D01*
X90974834Y-31092455D01*
X90974835Y-31092457D01*
X90997709Y-31142543D01*
X91034623Y-31223373D01*
X91128868Y-31332139D01*
X91128869Y-31332140D01*
X91128872Y-31332143D01*
X91249947Y-31409953D01*
X91356403Y-31441211D01*
X91388035Y-31450499D01*
X91388037Y-31450500D01*
X91388039Y-31450500D01*
X91531963Y-31450500D01*
X91531964Y-31450499D01*
X91670053Y-31409953D01*
X91791128Y-31332143D01*
X91861404Y-31251039D01*
X91905637Y-31226430D01*
X91917329Y-31225500D01*
X96943866Y-31225500D01*
X96991432Y-31242813D01*
X97016742Y-31286650D01*
X97017107Y-31288937D01*
X97020195Y-31310407D01*
X97029834Y-31377454D01*
X97029834Y-31377455D01*
X97029835Y-31377457D01*
X97063193Y-31450499D01*
X97089623Y-31508373D01*
X97183868Y-31617139D01*
X97183869Y-31617140D01*
X97183872Y-31617143D01*
X97304947Y-31694953D01*
X97405413Y-31724452D01*
X97443035Y-31735499D01*
X97443037Y-31735500D01*
X97443039Y-31735500D01*
X97586963Y-31735500D01*
X97586964Y-31735499D01*
X97593166Y-31733678D01*
X97725053Y-31694953D01*
X97846128Y-31617143D01*
X97940377Y-31508373D01*
X98000165Y-31377457D01*
X98020647Y-31235000D01*
X98000165Y-31092543D01*
X97940377Y-30961627D01*
X97874919Y-30886084D01*
X97846131Y-30852860D01*
X97846129Y-30852859D01*
X97846128Y-30852857D01*
X97777095Y-30808492D01*
X97725054Y-30775047D01*
X97725050Y-30775046D01*
X97641468Y-30750504D01*
X97600706Y-30720492D01*
X97588772Y-30671300D01*
X97611250Y-30625946D01*
X97657623Y-30605651D01*
X97662316Y-30605502D01*
X98415234Y-30605502D01*
X98462800Y-30622815D01*
X98467560Y-30627176D01*
X98997745Y-31157361D01*
X99019137Y-31203237D01*
X99018666Y-31220217D01*
X99009353Y-31284999D01*
X99009353Y-31285000D01*
X99013006Y-31310407D01*
X99029834Y-31427454D01*
X99089623Y-31558373D01*
X99183868Y-31667139D01*
X99183869Y-31667140D01*
X99183872Y-31667143D01*
X99273047Y-31724452D01*
X99290497Y-31735667D01*
X99304947Y-31744953D01*
X99383364Y-31767978D01*
X99443035Y-31785499D01*
X99443037Y-31785500D01*
X99443039Y-31785500D01*
X99586963Y-31785500D01*
X99586964Y-31785499D01*
X99587114Y-31785455D01*
X99725053Y-31744953D01*
X99846128Y-31667143D01*
X99940377Y-31558373D01*
X100000165Y-31427457D01*
X100020647Y-31285000D01*
X100000165Y-31142543D01*
X99940377Y-31011627D01*
X99884974Y-30947688D01*
X99846131Y-30902860D01*
X99846129Y-30902859D01*
X99846128Y-30902857D01*
X99781198Y-30861129D01*
X99725054Y-30825047D01*
X99725050Y-30825046D01*
X99586964Y-30784500D01*
X99586961Y-30784500D01*
X99443039Y-30784500D01*
X99437747Y-30784500D01*
X99437747Y-30782466D01*
X99396114Y-30773746D01*
X99382816Y-30763200D01*
X98779147Y-30159531D01*
X98769944Y-30148316D01*
X98758628Y-30131380D01*
X98758626Y-30131378D01*
X98738646Y-30118027D01*
X98738643Y-30118025D01*
X98729703Y-30112051D01*
X98699184Y-30091660D01*
X98675601Y-30075902D01*
X98667498Y-30070487D01*
X98667499Y-30070487D01*
X98627316Y-30062494D01*
X98587135Y-30054502D01*
X98587134Y-30054502D01*
X98587132Y-30054501D01*
X98560003Y-30049105D01*
X98560002Y-30049105D01*
X98540019Y-30053080D01*
X98525582Y-30054502D01*
X98364248Y-30054502D01*
X98316682Y-30037189D01*
X98291372Y-29993352D01*
X98299453Y-29947520D01*
X98298560Y-29947074D01*
X98298561Y-29947072D01*
X98299775Y-29945695D01*
X98300162Y-29943502D01*
X98323143Y-29918968D01*
X98323380Y-29918809D01*
X98338624Y-29908624D01*
X98349944Y-29891681D01*
X98359141Y-29880474D01*
X98882816Y-29356798D01*
X98928691Y-29335407D01*
X98937746Y-29335659D01*
X98937746Y-29335500D01*
X99086963Y-29335500D01*
X99086964Y-29335499D01*
X99225053Y-29294953D01*
X99346128Y-29217143D01*
X99440377Y-29108373D01*
X99500165Y-28977457D01*
X99520647Y-28835000D01*
X99500165Y-28692543D01*
X99440377Y-28561627D01*
X99346128Y-28452857D01*
X99289182Y-28416260D01*
X99225054Y-28375047D01*
X99225050Y-28375046D01*
X99086964Y-28334500D01*
X99086961Y-28334500D01*
X98943039Y-28334500D01*
X98943036Y-28334500D01*
X98804949Y-28375046D01*
X98804945Y-28375047D01*
X98683875Y-28452855D01*
X98683868Y-28452860D01*
X98589622Y-28561627D01*
X98582312Y-28577635D01*
X98546804Y-28613710D01*
X98496414Y-28618521D01*
X98454721Y-28589816D01*
X98447688Y-28577635D01*
X98440377Y-28561627D01*
X98346131Y-28452860D01*
X98346129Y-28452859D01*
X98346128Y-28452857D01*
X98289182Y-28416260D01*
X98225054Y-28375047D01*
X98225050Y-28375046D01*
X98086964Y-28334500D01*
X98086961Y-28334500D01*
X97943039Y-28334500D01*
X97937747Y-28334500D01*
X97937747Y-28332466D01*
X97896114Y-28323746D01*
X97882816Y-28313200D01*
X97859145Y-28289529D01*
X97849942Y-28278314D01*
X97838626Y-28261378D01*
X97838624Y-28261376D01*
X97835222Y-28259103D01*
X97818644Y-28248026D01*
X97818639Y-28248021D01*
X97789465Y-28228528D01*
X97747495Y-28200485D01*
X97747495Y-28200484D01*
X97667133Y-28184500D01*
X97667132Y-28184500D01*
X97667130Y-28184499D01*
X97640001Y-28179103D01*
X97640000Y-28179103D01*
X97620017Y-28183078D01*
X97605580Y-28184500D01*
X85614404Y-28184500D01*
X85599968Y-28183078D01*
X85579984Y-28179103D01*
X85579983Y-28179103D01*
X85552852Y-28184500D01*
X85552851Y-28184500D01*
X85536867Y-28187679D01*
X85472490Y-28200484D01*
X85472488Y-28200485D01*
X85430517Y-28228528D01*
X85404362Y-28246005D01*
X85381359Y-28261376D01*
X85381358Y-28261377D01*
X85370037Y-28278319D01*
X85360837Y-28289529D01*
X84959166Y-28691200D01*
X84913290Y-28712592D01*
X84904237Y-28712341D01*
X84904237Y-28712500D01*
X84749731Y-28712500D01*
X84749731Y-28710466D01*
X84708098Y-28701746D01*
X84694800Y-28691200D01*
X84373129Y-28369529D01*
X84363926Y-28358314D01*
X84352610Y-28341378D01*
X84352608Y-28341376D01*
X84339273Y-28332466D01*
X84332628Y-28328026D01*
X84332623Y-28328021D01*
X84303449Y-28308528D01*
X84261479Y-28280485D01*
X84250590Y-28278319D01*
X84181117Y-28264500D01*
X84181116Y-28264500D01*
X84181114Y-28264499D01*
X84153985Y-28259103D01*
X84153984Y-28259103D01*
X84134001Y-28263078D01*
X84119564Y-28264500D01*
X75604416Y-28264500D01*
X75589980Y-28263078D01*
X75570001Y-28259104D01*
X75569997Y-28259104D01*
X75545306Y-28264015D01*
X75545300Y-28264016D01*
X75462504Y-28280485D01*
X75396305Y-28324718D01*
X75371376Y-28341375D01*
X75371374Y-28341377D01*
X75360053Y-28358319D01*
X75350853Y-28369529D01*
X74971656Y-28748726D01*
X74925780Y-28770118D01*
X74919332Y-28770400D01*
X74880830Y-28770400D01*
X74866095Y-28773330D01*
X74849392Y-28784491D01*
X74838229Y-28801196D01*
X74835300Y-28815927D01*
X74835300Y-29055410D01*
X74817987Y-29102976D01*
X74782429Y-29124895D01*
X74782761Y-29125784D01*
X74643712Y-29177645D01*
X74643711Y-29177646D01*
X74528611Y-29263811D01*
X74442446Y-29378911D01*
X74442445Y-29378912D01*
X74392203Y-29513619D01*
X74392202Y-29513624D01*
X74385800Y-29573171D01*
X74385800Y-29625000D01*
X54826445Y-29625000D01*
X54856705Y-29594740D01*
X54745019Y-29525589D01*
X54745009Y-29525584D01*
X54540408Y-29446321D01*
X54324717Y-29406000D01*
X54105282Y-29406000D01*
X53889591Y-29446321D01*
X53684990Y-29525584D01*
X53684974Y-29525591D01*
X53573293Y-29594740D01*
X54057753Y-30079200D01*
X54079145Y-30125076D01*
X54066044Y-30173971D01*
X54037535Y-30198198D01*
X53970035Y-30230704D01*
X53875014Y-30318871D01*
X53819026Y-30415844D01*
X53780250Y-30448381D01*
X53729631Y-30448380D01*
X53702615Y-30431169D01*
X53217561Y-29946115D01*
X53204031Y-29964033D01*
X53204030Y-29964035D01*
X53106223Y-30160458D01*
X53106221Y-30160463D01*
X53046174Y-30371507D01*
X53046172Y-30371520D01*
X53025928Y-30589996D01*
X53025928Y-30590003D01*
X47840000Y-30590003D01*
X47840000Y-27934500D01*
X47857313Y-27886934D01*
X47901150Y-27861624D01*
X47914000Y-27860500D01*
X105606000Y-27860500D01*
X105653566Y-27877813D01*
G37*
%TD.AperFunction*%
%TD*%
%TA.AperFunction,Conductor*%
%TO.N,GND*%
G36*
X105653566Y-50227813D02*
G01*
X105678876Y-50271650D01*
X105680000Y-50284500D01*
X105680000Y-54531000D01*
X105662687Y-54578566D01*
X105618850Y-54603876D01*
X105606000Y-54605000D01*
X47914000Y-54605000D01*
X47866434Y-54587687D01*
X47841124Y-54543850D01*
X47840000Y-54531000D01*
X47840000Y-52940003D01*
X53025928Y-52940003D01*
X53046172Y-53158479D01*
X53046174Y-53158492D01*
X53106221Y-53369536D01*
X53106223Y-53369541D01*
X53204031Y-53565967D01*
X53204033Y-53565970D01*
X53217561Y-53583883D01*
X53703696Y-53097749D01*
X53749572Y-53076357D01*
X53798467Y-53089458D01*
X53824906Y-53123039D01*
X53838403Y-53157428D01*
X53881228Y-53211129D01*
X53919222Y-53258773D01*
X54026323Y-53331793D01*
X54031317Y-53334198D01*
X54030452Y-53335994D01*
X54064281Y-53361606D01*
X54075557Y-53410954D01*
X54054455Y-53454096D01*
X53573293Y-53935258D01*
X53684980Y-54004410D01*
X53684990Y-54004415D01*
X53889591Y-54083678D01*
X54105282Y-54123999D01*
X54105286Y-54124000D01*
X54324714Y-54124000D01*
X54324717Y-54123999D01*
X54540408Y-54083678D01*
X54745009Y-54004415D01*
X54745019Y-54004410D01*
X54856704Y-53935257D01*
X54372246Y-53450799D01*
X54350854Y-53404923D01*
X54363955Y-53356028D01*
X54392465Y-53331801D01*
X54459964Y-53299296D01*
X54554985Y-53211129D01*
X54610973Y-53114154D01*
X54649747Y-53081619D01*
X54700366Y-53081619D01*
X54727383Y-53098830D01*
X55212437Y-53583883D01*
X55225970Y-53565963D01*
X55323776Y-53369541D01*
X55335324Y-53328954D01*
X55364992Y-53287940D01*
X55414082Y-53275592D01*
X55459624Y-53297688D01*
X55480309Y-53343888D01*
X55480500Y-53349203D01*
X55480500Y-53628970D01*
X55483430Y-53643703D01*
X55483430Y-53643704D01*
X55494592Y-53660408D01*
X55511296Y-53671570D01*
X55511295Y-53671570D01*
X55513739Y-53672055D01*
X55526027Y-53674500D01*
X56903972Y-53674499D01*
X56918704Y-53671570D01*
X56935408Y-53660408D01*
X56946570Y-53643704D01*
X56949500Y-53628973D01*
X56949499Y-52475000D01*
X74385800Y-52475000D01*
X74385800Y-52526828D01*
X74392202Y-52586375D01*
X74392203Y-52586380D01*
X74442445Y-52721087D01*
X74442446Y-52721088D01*
X74528611Y-52836188D01*
X74643711Y-52922353D01*
X74643712Y-52922354D01*
X74782761Y-52974216D01*
X74782378Y-52975242D01*
X74820623Y-53000354D01*
X74835300Y-53044589D01*
X74835300Y-53284070D01*
X74838230Y-53298804D01*
X74846798Y-53311627D01*
X74849392Y-53315508D01*
X74866096Y-53326670D01*
X74866095Y-53326670D01*
X74868539Y-53327155D01*
X74880827Y-53329600D01*
X75398772Y-53329599D01*
X75413504Y-53326670D01*
X75430208Y-53315508D01*
X75441370Y-53298804D01*
X75444300Y-53284073D01*
X75444299Y-53044587D01*
X75461612Y-52997023D01*
X75497171Y-52975109D01*
X75496838Y-52974216D01*
X75535539Y-52959781D01*
X75586157Y-52959379D01*
X75625190Y-52991607D01*
X75635400Y-53029115D01*
X75635400Y-53284070D01*
X75638330Y-53298804D01*
X75646898Y-53311627D01*
X75649492Y-53315508D01*
X75666196Y-53326670D01*
X75666195Y-53326670D01*
X75668639Y-53327155D01*
X75680927Y-53329600D01*
X76198872Y-53329599D01*
X76213604Y-53326670D01*
X76230308Y-53315508D01*
X76241470Y-53298804D01*
X76244400Y-53284073D01*
X76244399Y-52766128D01*
X76241470Y-52751396D01*
X76230308Y-52734692D01*
X76213604Y-52723530D01*
X76213603Y-52723529D01*
X76198873Y-52720600D01*
X75943915Y-52720600D01*
X75896349Y-52703287D01*
X75871039Y-52659450D01*
X75874581Y-52620739D01*
X75887397Y-52586377D01*
X75887397Y-52586375D01*
X75893800Y-52526828D01*
X75893800Y-52475000D01*
X74385800Y-52475000D01*
X56949499Y-52475000D01*
X56949499Y-52251028D01*
X56946570Y-52236296D01*
X56935408Y-52219592D01*
X56918704Y-52208430D01*
X56918701Y-52208429D01*
X56918704Y-52208429D01*
X56906416Y-52205985D01*
X56903973Y-52205500D01*
X56903972Y-52205500D01*
X55526029Y-52205500D01*
X55511295Y-52208430D01*
X55494592Y-52219591D01*
X55483429Y-52236296D01*
X55480499Y-52251027D01*
X55480500Y-52530794D01*
X55463187Y-52578360D01*
X55419350Y-52603670D01*
X55369500Y-52594880D01*
X55336963Y-52556103D01*
X55335325Y-52551045D01*
X55323778Y-52510462D01*
X55323776Y-52510458D01*
X55225968Y-52314032D01*
X55225966Y-52314030D01*
X55212437Y-52296114D01*
X54726303Y-52782248D01*
X54680426Y-52803640D01*
X54631532Y-52790539D01*
X54605092Y-52756957D01*
X54591597Y-52722572D01*
X54510778Y-52621227D01*
X54510066Y-52620741D01*
X54403676Y-52548206D01*
X54398683Y-52545802D01*
X54399545Y-52544011D01*
X54365699Y-52518365D01*
X54354445Y-52469013D01*
X54375543Y-52425902D01*
X54826445Y-51975000D01*
X74385800Y-51975000D01*
X75689900Y-51975000D01*
X75689900Y-51674900D01*
X76189900Y-51674900D01*
X76189900Y-52178900D01*
X76241729Y-52178900D01*
X76301275Y-52172497D01*
X76314086Y-52167719D01*
X76364703Y-52167315D01*
X76365814Y-52167719D01*
X76378624Y-52172497D01*
X76438171Y-52178900D01*
X76490000Y-52178900D01*
X76490000Y-51674900D01*
X76990000Y-51674900D01*
X76990000Y-52178900D01*
X77041829Y-52178900D01*
X77101375Y-52172497D01*
X77114186Y-52167719D01*
X77164803Y-52167315D01*
X77165914Y-52167719D01*
X77178724Y-52172497D01*
X77238271Y-52178900D01*
X77290100Y-52178900D01*
X77290100Y-51674900D01*
X76990000Y-51674900D01*
X76490000Y-51674900D01*
X76189900Y-51674900D01*
X75689900Y-51674900D01*
X75689900Y-51248900D01*
X75707213Y-51201334D01*
X75751050Y-51176024D01*
X75763900Y-51174900D01*
X77716100Y-51174900D01*
X77763666Y-51192213D01*
X77788976Y-51236050D01*
X77790100Y-51248900D01*
X77790099Y-51974999D01*
X77790100Y-51975000D01*
X78963005Y-51975000D01*
X78984511Y-51979678D01*
X78984869Y-51978462D01*
X79128035Y-52020499D01*
X79128037Y-52020500D01*
X79128039Y-52020500D01*
X79271963Y-52020500D01*
X79271964Y-52020499D01*
X79410053Y-51979953D01*
X79531128Y-51902143D01*
X79625377Y-51793373D01*
X79685165Y-51662457D01*
X79705647Y-51520000D01*
X79685165Y-51377543D01*
X79636160Y-51270240D01*
X79632150Y-51219781D01*
X79661511Y-51178548D01*
X79703474Y-51165500D01*
X84009216Y-51165500D01*
X84056782Y-51182813D01*
X84061542Y-51187174D01*
X84309729Y-51435361D01*
X84331121Y-51481237D01*
X84330650Y-51498217D01*
X84321337Y-51562999D01*
X84341818Y-51705454D01*
X84341818Y-51705455D01*
X84341819Y-51705457D01*
X84370297Y-51767815D01*
X84401607Y-51836373D01*
X84495852Y-51945139D01*
X84495853Y-51945140D01*
X84495856Y-51945143D01*
X84616931Y-52022953D01*
X84723387Y-52054211D01*
X84755019Y-52063499D01*
X84755021Y-52063500D01*
X84755023Y-52063500D01*
X84898947Y-52063500D01*
X84898948Y-52063499D01*
X85037037Y-52022953D01*
X85158112Y-51945143D01*
X85187431Y-51911306D01*
X85231663Y-51886696D01*
X85281367Y-51896275D01*
X85310668Y-51929025D01*
X85344621Y-52003371D01*
X85438868Y-52112139D01*
X85438869Y-52112140D01*
X85438872Y-52112143D01*
X85559947Y-52189953D01*
X85622875Y-52208430D01*
X85698035Y-52230499D01*
X85698037Y-52230500D01*
X85698039Y-52230500D01*
X85841963Y-52230500D01*
X85841964Y-52230499D01*
X85980053Y-52189953D01*
X86101128Y-52112143D01*
X86195377Y-52003373D01*
X86255165Y-51872457D01*
X86263573Y-51813971D01*
X86287480Y-51769353D01*
X86334473Y-51750539D01*
X86336821Y-51750502D01*
X87757657Y-51750502D01*
X87805223Y-51767815D01*
X87813579Y-51776039D01*
X87818870Y-51782145D01*
X87939945Y-51859955D01*
X88031018Y-51886696D01*
X88078033Y-51900501D01*
X88078035Y-51900502D01*
X88078037Y-51900502D01*
X88221961Y-51900502D01*
X88221962Y-51900501D01*
X88360051Y-51859955D01*
X88481126Y-51782145D01*
X88575375Y-51673375D01*
X88635163Y-51542459D01*
X88655645Y-51400002D01*
X88636988Y-51270241D01*
X88635163Y-51257544D01*
X88604426Y-51190241D01*
X88600413Y-51139782D01*
X88629775Y-51098548D01*
X88671738Y-51085500D01*
X97438258Y-51085500D01*
X97485824Y-51102813D01*
X97511134Y-51146650D01*
X97511505Y-51170030D01*
X97509667Y-51182813D01*
X97509353Y-51185000D01*
X97514354Y-51219781D01*
X97529834Y-51327454D01*
X97529834Y-51327455D01*
X97529835Y-51327457D01*
X97579114Y-51435361D01*
X97589623Y-51458373D01*
X97683868Y-51567139D01*
X97683869Y-51567140D01*
X97683872Y-51567143D01*
X97804947Y-51644953D01*
X97809399Y-51647814D01*
X97807997Y-51649994D01*
X97837158Y-51678699D01*
X97841967Y-51729089D01*
X97813261Y-51770781D01*
X97770340Y-51784500D01*
X90047329Y-51784500D01*
X89999763Y-51767187D01*
X89991407Y-51758964D01*
X89921128Y-51677857D01*
X89864182Y-51641260D01*
X89800054Y-51600047D01*
X89800050Y-51600046D01*
X89661964Y-51559500D01*
X89661961Y-51559500D01*
X89518039Y-51559500D01*
X89518036Y-51559500D01*
X89379949Y-51600046D01*
X89379945Y-51600047D01*
X89258875Y-51677855D01*
X89258868Y-51677860D01*
X89164623Y-51786626D01*
X89104834Y-51917545D01*
X89084353Y-52060000D01*
X89093666Y-52124781D01*
X89083298Y-52174327D01*
X89072745Y-52187637D01*
X88672035Y-52588347D01*
X88626159Y-52609739D01*
X88577264Y-52596638D01*
X88548230Y-52555174D01*
X88546462Y-52546551D01*
X88545167Y-52537547D01*
X88545167Y-52537545D01*
X88485379Y-52406629D01*
X88430550Y-52343352D01*
X88391133Y-52297862D01*
X88391131Y-52297861D01*
X88391130Y-52297859D01*
X88318261Y-52251029D01*
X88270056Y-52220049D01*
X88270052Y-52220048D01*
X88131966Y-52179502D01*
X88131963Y-52179502D01*
X87988041Y-52179502D01*
X87988038Y-52179502D01*
X87849951Y-52220048D01*
X87849947Y-52220049D01*
X87728877Y-52297857D01*
X87728870Y-52297862D01*
X87634625Y-52406628D01*
X87574836Y-52537547D01*
X87554355Y-52680002D01*
X87563668Y-52744783D01*
X87553300Y-52794329D01*
X87542747Y-52807639D01*
X87093588Y-53256800D01*
X87047712Y-53278192D01*
X87041262Y-53278474D01*
X79706226Y-53278474D01*
X79658660Y-53261161D01*
X79633350Y-53217324D01*
X79638913Y-53173733D01*
X79685165Y-53072457D01*
X79705647Y-52930000D01*
X79685165Y-52787543D01*
X79625377Y-52656627D01*
X79601814Y-52629434D01*
X79531131Y-52547860D01*
X79531129Y-52547859D01*
X79531128Y-52547857D01*
X79427688Y-52481380D01*
X79410054Y-52470047D01*
X79410050Y-52470046D01*
X79271964Y-52429500D01*
X79271961Y-52429500D01*
X79128039Y-52429500D01*
X79128036Y-52429500D01*
X78984869Y-52471538D01*
X78984511Y-52470321D01*
X78963005Y-52475000D01*
X77586200Y-52475000D01*
X77586200Y-52526828D01*
X77592602Y-52586375D01*
X77592602Y-52586376D01*
X77605419Y-52620741D01*
X77605819Y-52671358D01*
X77573590Y-52710391D01*
X77536084Y-52720600D01*
X77281129Y-52720600D01*
X77266395Y-52723530D01*
X77249692Y-52734691D01*
X77238529Y-52751396D01*
X77235600Y-52766127D01*
X77235600Y-53057332D01*
X77218287Y-53104898D01*
X77174450Y-53130208D01*
X77124600Y-53121418D01*
X77109274Y-53109658D01*
X77066173Y-53066557D01*
X77044781Y-53020681D01*
X77044499Y-53014231D01*
X77044499Y-52766129D01*
X77044499Y-52766127D01*
X77041570Y-52751396D01*
X77030408Y-52734692D01*
X77013704Y-52723530D01*
X77013701Y-52723529D01*
X77013704Y-52723529D01*
X77001416Y-52721085D01*
X76998973Y-52720600D01*
X76998972Y-52720600D01*
X76481029Y-52720600D01*
X76466295Y-52723530D01*
X76449592Y-52734691D01*
X76438429Y-52751396D01*
X76435500Y-52766127D01*
X76435500Y-53284070D01*
X76438430Y-53298804D01*
X76446998Y-53311627D01*
X76449592Y-53315508D01*
X76466296Y-53326670D01*
X76466295Y-53326670D01*
X76469225Y-53327252D01*
X76481027Y-53329600D01*
X76519330Y-53329599D01*
X76566896Y-53346911D01*
X76571657Y-53351273D01*
X77294838Y-54074454D01*
X77304040Y-54085667D01*
X77315359Y-54102607D01*
X77315360Y-54102608D01*
X77335339Y-54115958D01*
X77335340Y-54115958D01*
X77338360Y-54117976D01*
X77338362Y-54117978D01*
X77364518Y-54135455D01*
X77406489Y-54163499D01*
X77486851Y-54179484D01*
X77486852Y-54179484D01*
X77513983Y-54184881D01*
X77513984Y-54184881D01*
X77533968Y-54180905D01*
X77548404Y-54179484D01*
X87711596Y-54179484D01*
X87726032Y-54180905D01*
X87746016Y-54184881D01*
X87746017Y-54184881D01*
X87750638Y-54183961D01*
X87773148Y-54179484D01*
X87773149Y-54179484D01*
X87853511Y-54163499D01*
X87895481Y-54135455D01*
X87921638Y-54117978D01*
X87921638Y-54117977D01*
X87929652Y-54112623D01*
X87929655Y-54112620D01*
X87944640Y-54102608D01*
X87955964Y-54085658D01*
X87965157Y-54074457D01*
X89457816Y-52581798D01*
X89503691Y-52560407D01*
X89512746Y-52560659D01*
X89512746Y-52560500D01*
X89596134Y-52560500D01*
X89643700Y-52577813D01*
X89669010Y-52621650D01*
X89669381Y-52645031D01*
X89664353Y-52680002D01*
X89684834Y-52822456D01*
X89744623Y-52953375D01*
X89838868Y-53062141D01*
X89838869Y-53062142D01*
X89838872Y-53062145D01*
X89959947Y-53139955D01*
X90066403Y-53171213D01*
X90098035Y-53180501D01*
X90098037Y-53180502D01*
X90098039Y-53180502D01*
X90241963Y-53180502D01*
X90241964Y-53180501D01*
X90380053Y-53139955D01*
X90501128Y-53062145D01*
X90571404Y-52981041D01*
X90615637Y-52956432D01*
X90627329Y-52955502D01*
X90951958Y-52955502D01*
X90999524Y-52972815D01*
X91024834Y-53016652D01*
X91019271Y-53060243D01*
X90974834Y-53157545D01*
X90954353Y-53300000D01*
X90974834Y-53442454D01*
X90974834Y-53442455D01*
X90974835Y-53442457D01*
X90997709Y-53492543D01*
X91034623Y-53573373D01*
X91128868Y-53682139D01*
X91128869Y-53682140D01*
X91128872Y-53682143D01*
X91249947Y-53759953D01*
X91356403Y-53791211D01*
X91388035Y-53800499D01*
X91388037Y-53800500D01*
X91388039Y-53800500D01*
X91531963Y-53800500D01*
X91531964Y-53800499D01*
X91670053Y-53759953D01*
X91791128Y-53682143D01*
X91861404Y-53601039D01*
X91905637Y-53576430D01*
X91917329Y-53575500D01*
X96943866Y-53575500D01*
X96991432Y-53592813D01*
X97016742Y-53636650D01*
X97017107Y-53638937D01*
X97020195Y-53660407D01*
X97029834Y-53727454D01*
X97029834Y-53727455D01*
X97029835Y-53727457D01*
X97063193Y-53800499D01*
X97089623Y-53858373D01*
X97183868Y-53967139D01*
X97183869Y-53967140D01*
X97183872Y-53967143D01*
X97304947Y-54044953D01*
X97405413Y-54074452D01*
X97443035Y-54085499D01*
X97443037Y-54085500D01*
X97443039Y-54085500D01*
X97586963Y-54085500D01*
X97586964Y-54085499D01*
X97593166Y-54083678D01*
X97725053Y-54044953D01*
X97846128Y-53967143D01*
X97940377Y-53858373D01*
X98000165Y-53727457D01*
X98020647Y-53585000D01*
X98000165Y-53442543D01*
X97940377Y-53311627D01*
X97874919Y-53236084D01*
X97846131Y-53202860D01*
X97846129Y-53202859D01*
X97846128Y-53202857D01*
X97777095Y-53158492D01*
X97725054Y-53125047D01*
X97725050Y-53125046D01*
X97641468Y-53100504D01*
X97600706Y-53070492D01*
X97588772Y-53021300D01*
X97611250Y-52975946D01*
X97657623Y-52955651D01*
X97662316Y-52955502D01*
X98415234Y-52955502D01*
X98462800Y-52972815D01*
X98467560Y-52977176D01*
X98997745Y-53507361D01*
X99019137Y-53553237D01*
X99018666Y-53570217D01*
X99009353Y-53634999D01*
X99009353Y-53635000D01*
X99013006Y-53660407D01*
X99029834Y-53777454D01*
X99089623Y-53908373D01*
X99183868Y-54017139D01*
X99183869Y-54017140D01*
X99183872Y-54017143D01*
X99273047Y-54074452D01*
X99290497Y-54085667D01*
X99304947Y-54094953D01*
X99383364Y-54117978D01*
X99443035Y-54135499D01*
X99443037Y-54135500D01*
X99443039Y-54135500D01*
X99586963Y-54135500D01*
X99586964Y-54135499D01*
X99587114Y-54135455D01*
X99725053Y-54094953D01*
X99846128Y-54017143D01*
X99940377Y-53908373D01*
X100000165Y-53777457D01*
X100020647Y-53635000D01*
X100000165Y-53492543D01*
X99940377Y-53361627D01*
X99884974Y-53297688D01*
X99846131Y-53252860D01*
X99846129Y-53252859D01*
X99846128Y-53252857D01*
X99781198Y-53211129D01*
X99725054Y-53175047D01*
X99725050Y-53175046D01*
X99586964Y-53134500D01*
X99586961Y-53134500D01*
X99443039Y-53134500D01*
X99437747Y-53134500D01*
X99437747Y-53132466D01*
X99396114Y-53123746D01*
X99382816Y-53113200D01*
X98779147Y-52509531D01*
X98769944Y-52498316D01*
X98758628Y-52481380D01*
X98758626Y-52481378D01*
X98738646Y-52468027D01*
X98738643Y-52468025D01*
X98729703Y-52462051D01*
X98699184Y-52441660D01*
X98675601Y-52425902D01*
X98667498Y-52420487D01*
X98667499Y-52420487D01*
X98627316Y-52412494D01*
X98587135Y-52404502D01*
X98587134Y-52404502D01*
X98587132Y-52404501D01*
X98560003Y-52399105D01*
X98560002Y-52399105D01*
X98540019Y-52403080D01*
X98525582Y-52404502D01*
X98364248Y-52404502D01*
X98316682Y-52387189D01*
X98291372Y-52343352D01*
X98299453Y-52297520D01*
X98298560Y-52297074D01*
X98298561Y-52297072D01*
X98299775Y-52295695D01*
X98300162Y-52293502D01*
X98323143Y-52268968D01*
X98323380Y-52268809D01*
X98338624Y-52258624D01*
X98349944Y-52241681D01*
X98359141Y-52230474D01*
X98882816Y-51706798D01*
X98928691Y-51685407D01*
X98937746Y-51685659D01*
X98937746Y-51685500D01*
X99086963Y-51685500D01*
X99086964Y-51685499D01*
X99225053Y-51644953D01*
X99346128Y-51567143D01*
X99440377Y-51458373D01*
X99500165Y-51327457D01*
X99520647Y-51185000D01*
X99500165Y-51042543D01*
X99440377Y-50911627D01*
X99346128Y-50802857D01*
X99289182Y-50766260D01*
X99225054Y-50725047D01*
X99225050Y-50725046D01*
X99086964Y-50684500D01*
X99086961Y-50684500D01*
X98943039Y-50684500D01*
X98943036Y-50684500D01*
X98804949Y-50725046D01*
X98804945Y-50725047D01*
X98683875Y-50802855D01*
X98683868Y-50802860D01*
X98589622Y-50911627D01*
X98582312Y-50927635D01*
X98546804Y-50963710D01*
X98496414Y-50968521D01*
X98454721Y-50939816D01*
X98447688Y-50927635D01*
X98440377Y-50911627D01*
X98346131Y-50802860D01*
X98346129Y-50802859D01*
X98346128Y-50802857D01*
X98289182Y-50766260D01*
X98225054Y-50725047D01*
X98225050Y-50725046D01*
X98086964Y-50684500D01*
X98086961Y-50684500D01*
X97943039Y-50684500D01*
X97937747Y-50684500D01*
X97937747Y-50682466D01*
X97896114Y-50673746D01*
X97882816Y-50663200D01*
X97859145Y-50639529D01*
X97849942Y-50628314D01*
X97838626Y-50611378D01*
X97838624Y-50611376D01*
X97835222Y-50609103D01*
X97818644Y-50598026D01*
X97818639Y-50598021D01*
X97789465Y-50578528D01*
X97747495Y-50550485D01*
X97747495Y-50550484D01*
X97667133Y-50534500D01*
X97667132Y-50534500D01*
X97667130Y-50534499D01*
X97640001Y-50529103D01*
X97640000Y-50529103D01*
X97620017Y-50533078D01*
X97605580Y-50534500D01*
X85614404Y-50534500D01*
X85599968Y-50533078D01*
X85579984Y-50529103D01*
X85579983Y-50529103D01*
X85552852Y-50534500D01*
X85552851Y-50534500D01*
X85536867Y-50537679D01*
X85472490Y-50550484D01*
X85472488Y-50550485D01*
X85430517Y-50578528D01*
X85404362Y-50596005D01*
X85381359Y-50611376D01*
X85381358Y-50611377D01*
X85370037Y-50628319D01*
X85360837Y-50639529D01*
X84959166Y-51041200D01*
X84913290Y-51062592D01*
X84904237Y-51062341D01*
X84904237Y-51062500D01*
X84749731Y-51062500D01*
X84749731Y-51060466D01*
X84708098Y-51051746D01*
X84694800Y-51041200D01*
X84373129Y-50719529D01*
X84363926Y-50708314D01*
X84352610Y-50691378D01*
X84352608Y-50691376D01*
X84339273Y-50682466D01*
X84332628Y-50678026D01*
X84332623Y-50678021D01*
X84303449Y-50658528D01*
X84261479Y-50630485D01*
X84250590Y-50628319D01*
X84181117Y-50614500D01*
X84181116Y-50614500D01*
X84181114Y-50614499D01*
X84153985Y-50609103D01*
X84153984Y-50609103D01*
X84134001Y-50613078D01*
X84119564Y-50614500D01*
X75604416Y-50614500D01*
X75589980Y-50613078D01*
X75570001Y-50609104D01*
X75569997Y-50609104D01*
X75545306Y-50614015D01*
X75545300Y-50614016D01*
X75462504Y-50630485D01*
X75396305Y-50674718D01*
X75371376Y-50691375D01*
X75371374Y-50691377D01*
X75360053Y-50708319D01*
X75350853Y-50719529D01*
X74971656Y-51098726D01*
X74925780Y-51120118D01*
X74919332Y-51120400D01*
X74880830Y-51120400D01*
X74866095Y-51123330D01*
X74849392Y-51134491D01*
X74838229Y-51151196D01*
X74835300Y-51165927D01*
X74835300Y-51405410D01*
X74817987Y-51452976D01*
X74782429Y-51474895D01*
X74782761Y-51475784D01*
X74643712Y-51527645D01*
X74643711Y-51527646D01*
X74528611Y-51613811D01*
X74442446Y-51728911D01*
X74442445Y-51728912D01*
X74392203Y-51863619D01*
X74392202Y-51863624D01*
X74385800Y-51923171D01*
X74385800Y-51975000D01*
X54826445Y-51975000D01*
X54856705Y-51944740D01*
X54745019Y-51875589D01*
X54745009Y-51875584D01*
X54540408Y-51796321D01*
X54324717Y-51756000D01*
X54105282Y-51756000D01*
X53889591Y-51796321D01*
X53684990Y-51875584D01*
X53684974Y-51875591D01*
X53573293Y-51944740D01*
X54057753Y-52429200D01*
X54079145Y-52475076D01*
X54066044Y-52523971D01*
X54037535Y-52548198D01*
X53970035Y-52580704D01*
X53875014Y-52668871D01*
X53819026Y-52765844D01*
X53780250Y-52798381D01*
X53729631Y-52798380D01*
X53702615Y-52781169D01*
X53217561Y-52296115D01*
X53204031Y-52314033D01*
X53204030Y-52314035D01*
X53106223Y-52510458D01*
X53106221Y-52510463D01*
X53046174Y-52721507D01*
X53046172Y-52721520D01*
X53025928Y-52939996D01*
X53025928Y-52940003D01*
X47840000Y-52940003D01*
X47840000Y-50284500D01*
X47857313Y-50236934D01*
X47901150Y-50211624D01*
X47914000Y-50210500D01*
X105606000Y-50210500D01*
X105653566Y-50227813D01*
G37*
%TD.AperFunction*%
%TD*%
%TA.AperFunction,Conductor*%
%TO.N,GND*%
G36*
X105653566Y-65127813D02*
G01*
X105678876Y-65171650D01*
X105680000Y-65184500D01*
X105680000Y-69431000D01*
X105662687Y-69478566D01*
X105618850Y-69503876D01*
X105606000Y-69505000D01*
X47914000Y-69505000D01*
X47866434Y-69487687D01*
X47841124Y-69443850D01*
X47840000Y-69431000D01*
X47840000Y-67840003D01*
X53025928Y-67840003D01*
X53046172Y-68058479D01*
X53046174Y-68058492D01*
X53106221Y-68269536D01*
X53106223Y-68269541D01*
X53204031Y-68465967D01*
X53204033Y-68465970D01*
X53217561Y-68483883D01*
X53703696Y-67997749D01*
X53749572Y-67976357D01*
X53798467Y-67989458D01*
X53824906Y-68023039D01*
X53838403Y-68057428D01*
X53881228Y-68111129D01*
X53919222Y-68158773D01*
X54026323Y-68231793D01*
X54031317Y-68234198D01*
X54030452Y-68235994D01*
X54064281Y-68261606D01*
X54075557Y-68310954D01*
X54054455Y-68354096D01*
X53573293Y-68835258D01*
X53684980Y-68904410D01*
X53684990Y-68904415D01*
X53889591Y-68983678D01*
X54105282Y-69023999D01*
X54105286Y-69024000D01*
X54324714Y-69024000D01*
X54324717Y-69023999D01*
X54540408Y-68983678D01*
X54745009Y-68904415D01*
X54745019Y-68904410D01*
X54856704Y-68835257D01*
X54372246Y-68350799D01*
X54350854Y-68304923D01*
X54363955Y-68256028D01*
X54392465Y-68231801D01*
X54459964Y-68199296D01*
X54554985Y-68111129D01*
X54610973Y-68014154D01*
X54649747Y-67981619D01*
X54700366Y-67981619D01*
X54727383Y-67998830D01*
X55212437Y-68483883D01*
X55225970Y-68465963D01*
X55323776Y-68269541D01*
X55335324Y-68228954D01*
X55364992Y-68187940D01*
X55414082Y-68175592D01*
X55459624Y-68197688D01*
X55480309Y-68243888D01*
X55480500Y-68249203D01*
X55480500Y-68528970D01*
X55483430Y-68543703D01*
X55483430Y-68543704D01*
X55494592Y-68560408D01*
X55511296Y-68571570D01*
X55511295Y-68571570D01*
X55513739Y-68572055D01*
X55526027Y-68574500D01*
X56903972Y-68574499D01*
X56918704Y-68571570D01*
X56935408Y-68560408D01*
X56946570Y-68543704D01*
X56949500Y-68528973D01*
X56949499Y-67375000D01*
X74385800Y-67375000D01*
X74385800Y-67426828D01*
X74392202Y-67486375D01*
X74392203Y-67486380D01*
X74442445Y-67621087D01*
X74442446Y-67621088D01*
X74528611Y-67736188D01*
X74643711Y-67822353D01*
X74643712Y-67822354D01*
X74782761Y-67874216D01*
X74782378Y-67875242D01*
X74820623Y-67900354D01*
X74835300Y-67944589D01*
X74835300Y-68184070D01*
X74838230Y-68198804D01*
X74846798Y-68211627D01*
X74849392Y-68215508D01*
X74866096Y-68226670D01*
X74866095Y-68226670D01*
X74868539Y-68227155D01*
X74880827Y-68229600D01*
X75398772Y-68229599D01*
X75413504Y-68226670D01*
X75430208Y-68215508D01*
X75441370Y-68198804D01*
X75444300Y-68184073D01*
X75444299Y-67944587D01*
X75461612Y-67897023D01*
X75497171Y-67875109D01*
X75496838Y-67874216D01*
X75535539Y-67859781D01*
X75586157Y-67859379D01*
X75625190Y-67891607D01*
X75635400Y-67929115D01*
X75635400Y-68184070D01*
X75638330Y-68198804D01*
X75646898Y-68211627D01*
X75649492Y-68215508D01*
X75666196Y-68226670D01*
X75666195Y-68226670D01*
X75668639Y-68227155D01*
X75680927Y-68229600D01*
X76198872Y-68229599D01*
X76213604Y-68226670D01*
X76230308Y-68215508D01*
X76241470Y-68198804D01*
X76244400Y-68184073D01*
X76244399Y-67666128D01*
X76241470Y-67651396D01*
X76230308Y-67634692D01*
X76213604Y-67623530D01*
X76213603Y-67623529D01*
X76198873Y-67620600D01*
X75943915Y-67620600D01*
X75896349Y-67603287D01*
X75871039Y-67559450D01*
X75874581Y-67520739D01*
X75887397Y-67486377D01*
X75887397Y-67486375D01*
X75893800Y-67426828D01*
X75893800Y-67375000D01*
X74385800Y-67375000D01*
X56949499Y-67375000D01*
X56949499Y-67151028D01*
X56946570Y-67136296D01*
X56935408Y-67119592D01*
X56918704Y-67108430D01*
X56918701Y-67108429D01*
X56918704Y-67108429D01*
X56906416Y-67105985D01*
X56903973Y-67105500D01*
X56903972Y-67105500D01*
X55526029Y-67105500D01*
X55511295Y-67108430D01*
X55494592Y-67119591D01*
X55483429Y-67136296D01*
X55480499Y-67151027D01*
X55480500Y-67430794D01*
X55463187Y-67478360D01*
X55419350Y-67503670D01*
X55369500Y-67494880D01*
X55336963Y-67456103D01*
X55335325Y-67451045D01*
X55323778Y-67410462D01*
X55323776Y-67410458D01*
X55225968Y-67214032D01*
X55225966Y-67214030D01*
X55212437Y-67196114D01*
X54726303Y-67682248D01*
X54680426Y-67703640D01*
X54631532Y-67690539D01*
X54605092Y-67656957D01*
X54591597Y-67622572D01*
X54510778Y-67521227D01*
X54510066Y-67520741D01*
X54403676Y-67448206D01*
X54398683Y-67445802D01*
X54399545Y-67444011D01*
X54365699Y-67418365D01*
X54354445Y-67369013D01*
X54375543Y-67325902D01*
X54826445Y-66875000D01*
X74385800Y-66875000D01*
X75689900Y-66875000D01*
X75689900Y-66574900D01*
X76189900Y-66574900D01*
X76189900Y-67078900D01*
X76241729Y-67078900D01*
X76301275Y-67072497D01*
X76314086Y-67067719D01*
X76364703Y-67067315D01*
X76365814Y-67067719D01*
X76378624Y-67072497D01*
X76438171Y-67078900D01*
X76490000Y-67078900D01*
X76490000Y-66574900D01*
X76990000Y-66574900D01*
X76990000Y-67078900D01*
X77041829Y-67078900D01*
X77101375Y-67072497D01*
X77114186Y-67067719D01*
X77164803Y-67067315D01*
X77165914Y-67067719D01*
X77178724Y-67072497D01*
X77238271Y-67078900D01*
X77290100Y-67078900D01*
X77290100Y-66574900D01*
X76990000Y-66574900D01*
X76490000Y-66574900D01*
X76189900Y-66574900D01*
X75689900Y-66574900D01*
X75689900Y-66148900D01*
X75707213Y-66101334D01*
X75751050Y-66076024D01*
X75763900Y-66074900D01*
X77716100Y-66074900D01*
X77763666Y-66092213D01*
X77788976Y-66136050D01*
X77790100Y-66148900D01*
X77790099Y-66874999D01*
X77790100Y-66875000D01*
X78963005Y-66875000D01*
X78984511Y-66879678D01*
X78984869Y-66878462D01*
X79128035Y-66920499D01*
X79128037Y-66920500D01*
X79128039Y-66920500D01*
X79271963Y-66920500D01*
X79271964Y-66920499D01*
X79410053Y-66879953D01*
X79531128Y-66802143D01*
X79625377Y-66693373D01*
X79685165Y-66562457D01*
X79705647Y-66420000D01*
X79685165Y-66277543D01*
X79636160Y-66170240D01*
X79632150Y-66119781D01*
X79661511Y-66078548D01*
X79703474Y-66065500D01*
X84009216Y-66065500D01*
X84056782Y-66082813D01*
X84061542Y-66087174D01*
X84309729Y-66335361D01*
X84331121Y-66381237D01*
X84330650Y-66398217D01*
X84321337Y-66462999D01*
X84341818Y-66605454D01*
X84341818Y-66605455D01*
X84341819Y-66605457D01*
X84370297Y-66667815D01*
X84401607Y-66736373D01*
X84495852Y-66845139D01*
X84495853Y-66845140D01*
X84495856Y-66845143D01*
X84616931Y-66922953D01*
X84723387Y-66954211D01*
X84755019Y-66963499D01*
X84755021Y-66963500D01*
X84755023Y-66963500D01*
X84898947Y-66963500D01*
X84898948Y-66963499D01*
X85037037Y-66922953D01*
X85158112Y-66845143D01*
X85187431Y-66811306D01*
X85231663Y-66786696D01*
X85281367Y-66796275D01*
X85310668Y-66829025D01*
X85344621Y-66903371D01*
X85438868Y-67012139D01*
X85438869Y-67012140D01*
X85438872Y-67012143D01*
X85559947Y-67089953D01*
X85622875Y-67108430D01*
X85698035Y-67130499D01*
X85698037Y-67130500D01*
X85698039Y-67130500D01*
X85841963Y-67130500D01*
X85841964Y-67130499D01*
X85980053Y-67089953D01*
X86101128Y-67012143D01*
X86195377Y-66903373D01*
X86255165Y-66772457D01*
X86263573Y-66713971D01*
X86287480Y-66669353D01*
X86334473Y-66650539D01*
X86336821Y-66650502D01*
X87757657Y-66650502D01*
X87805223Y-66667815D01*
X87813579Y-66676039D01*
X87818870Y-66682145D01*
X87939945Y-66759955D01*
X88031018Y-66786696D01*
X88078033Y-66800501D01*
X88078035Y-66800502D01*
X88078037Y-66800502D01*
X88221961Y-66800502D01*
X88221962Y-66800501D01*
X88360051Y-66759955D01*
X88481126Y-66682145D01*
X88575375Y-66573375D01*
X88635163Y-66442459D01*
X88655645Y-66300002D01*
X88636988Y-66170241D01*
X88635163Y-66157544D01*
X88604426Y-66090241D01*
X88600413Y-66039782D01*
X88629775Y-65998548D01*
X88671738Y-65985500D01*
X97438258Y-65985500D01*
X97485824Y-66002813D01*
X97511134Y-66046650D01*
X97511505Y-66070030D01*
X97509667Y-66082813D01*
X97509353Y-66085000D01*
X97514354Y-66119781D01*
X97529834Y-66227454D01*
X97529834Y-66227455D01*
X97529835Y-66227457D01*
X97579114Y-66335361D01*
X97589623Y-66358373D01*
X97683868Y-66467139D01*
X97683869Y-66467140D01*
X97683872Y-66467143D01*
X97804947Y-66544953D01*
X97809399Y-66547814D01*
X97807997Y-66549994D01*
X97837158Y-66578699D01*
X97841967Y-66629089D01*
X97813261Y-66670781D01*
X97770340Y-66684500D01*
X90047329Y-66684500D01*
X89999763Y-66667187D01*
X89991407Y-66658964D01*
X89921128Y-66577857D01*
X89864182Y-66541260D01*
X89800054Y-66500047D01*
X89800050Y-66500046D01*
X89661964Y-66459500D01*
X89661961Y-66459500D01*
X89518039Y-66459500D01*
X89518036Y-66459500D01*
X89379949Y-66500046D01*
X89379945Y-66500047D01*
X89258875Y-66577855D01*
X89258868Y-66577860D01*
X89164623Y-66686626D01*
X89104834Y-66817545D01*
X89084353Y-66960000D01*
X89093666Y-67024781D01*
X89083298Y-67074327D01*
X89072745Y-67087637D01*
X88672035Y-67488347D01*
X88626159Y-67509739D01*
X88577264Y-67496638D01*
X88548230Y-67455174D01*
X88546462Y-67446551D01*
X88545167Y-67437547D01*
X88545167Y-67437545D01*
X88485379Y-67306629D01*
X88430550Y-67243352D01*
X88391133Y-67197862D01*
X88391131Y-67197861D01*
X88391130Y-67197859D01*
X88318261Y-67151029D01*
X88270056Y-67120049D01*
X88270052Y-67120048D01*
X88131966Y-67079502D01*
X88131963Y-67079502D01*
X87988041Y-67079502D01*
X87988038Y-67079502D01*
X87849951Y-67120048D01*
X87849947Y-67120049D01*
X87728877Y-67197857D01*
X87728870Y-67197862D01*
X87634625Y-67306628D01*
X87574836Y-67437547D01*
X87554355Y-67580002D01*
X87563668Y-67644783D01*
X87553300Y-67694329D01*
X87542747Y-67707639D01*
X87093588Y-68156800D01*
X87047712Y-68178192D01*
X87041262Y-68178474D01*
X79706226Y-68178474D01*
X79658660Y-68161161D01*
X79633350Y-68117324D01*
X79638913Y-68073733D01*
X79685165Y-67972457D01*
X79705647Y-67830000D01*
X79685165Y-67687543D01*
X79625377Y-67556627D01*
X79601814Y-67529434D01*
X79531131Y-67447860D01*
X79531129Y-67447859D01*
X79531128Y-67447857D01*
X79427688Y-67381380D01*
X79410054Y-67370047D01*
X79410050Y-67370046D01*
X79271964Y-67329500D01*
X79271961Y-67329500D01*
X79128039Y-67329500D01*
X79128036Y-67329500D01*
X78984869Y-67371538D01*
X78984511Y-67370321D01*
X78963005Y-67375000D01*
X77586200Y-67375000D01*
X77586200Y-67426828D01*
X77592602Y-67486375D01*
X77592602Y-67486376D01*
X77605419Y-67520741D01*
X77605819Y-67571358D01*
X77573590Y-67610391D01*
X77536084Y-67620600D01*
X77281129Y-67620600D01*
X77266395Y-67623530D01*
X77249692Y-67634691D01*
X77238529Y-67651396D01*
X77235600Y-67666127D01*
X77235600Y-67957332D01*
X77218287Y-68004898D01*
X77174450Y-68030208D01*
X77124600Y-68021418D01*
X77109274Y-68009658D01*
X77066173Y-67966557D01*
X77044781Y-67920681D01*
X77044499Y-67914231D01*
X77044499Y-67666129D01*
X77044499Y-67666127D01*
X77041570Y-67651396D01*
X77030408Y-67634692D01*
X77013704Y-67623530D01*
X77013701Y-67623529D01*
X77013704Y-67623529D01*
X77001416Y-67621085D01*
X76998973Y-67620600D01*
X76998972Y-67620600D01*
X76481029Y-67620600D01*
X76466295Y-67623530D01*
X76449592Y-67634691D01*
X76438429Y-67651396D01*
X76435500Y-67666127D01*
X76435500Y-68184070D01*
X76438430Y-68198804D01*
X76446998Y-68211627D01*
X76449592Y-68215508D01*
X76466296Y-68226670D01*
X76466295Y-68226670D01*
X76469225Y-68227252D01*
X76481027Y-68229600D01*
X76519330Y-68229599D01*
X76566896Y-68246911D01*
X76571657Y-68251273D01*
X77294838Y-68974454D01*
X77304040Y-68985667D01*
X77315359Y-69002607D01*
X77315360Y-69002608D01*
X77335339Y-69015958D01*
X77335340Y-69015958D01*
X77338360Y-69017976D01*
X77338362Y-69017978D01*
X77364518Y-69035455D01*
X77406489Y-69063499D01*
X77486851Y-69079484D01*
X77486852Y-69079484D01*
X77513983Y-69084881D01*
X77513984Y-69084881D01*
X77533968Y-69080905D01*
X77548404Y-69079484D01*
X87711596Y-69079484D01*
X87726032Y-69080905D01*
X87746016Y-69084881D01*
X87746017Y-69084881D01*
X87750638Y-69083961D01*
X87773148Y-69079484D01*
X87773149Y-69079484D01*
X87853511Y-69063499D01*
X87895481Y-69035455D01*
X87921638Y-69017978D01*
X87921638Y-69017977D01*
X87929652Y-69012623D01*
X87929655Y-69012620D01*
X87944640Y-69002608D01*
X87955964Y-68985658D01*
X87965157Y-68974457D01*
X89457816Y-67481798D01*
X89503691Y-67460407D01*
X89512746Y-67460659D01*
X89512746Y-67460500D01*
X89596134Y-67460500D01*
X89643700Y-67477813D01*
X89669010Y-67521650D01*
X89669381Y-67545031D01*
X89664353Y-67580002D01*
X89684834Y-67722456D01*
X89744623Y-67853375D01*
X89838868Y-67962141D01*
X89838869Y-67962142D01*
X89838872Y-67962145D01*
X89959947Y-68039955D01*
X90066403Y-68071213D01*
X90098035Y-68080501D01*
X90098037Y-68080502D01*
X90098039Y-68080502D01*
X90241963Y-68080502D01*
X90241964Y-68080501D01*
X90380053Y-68039955D01*
X90501128Y-67962145D01*
X90571404Y-67881041D01*
X90615637Y-67856432D01*
X90627329Y-67855502D01*
X90951958Y-67855502D01*
X90999524Y-67872815D01*
X91024834Y-67916652D01*
X91019271Y-67960243D01*
X90974834Y-68057545D01*
X90954353Y-68200000D01*
X90974834Y-68342454D01*
X90974834Y-68342455D01*
X90974835Y-68342457D01*
X90997709Y-68392543D01*
X91034623Y-68473373D01*
X91128868Y-68582139D01*
X91128869Y-68582140D01*
X91128872Y-68582143D01*
X91249947Y-68659953D01*
X91356403Y-68691211D01*
X91388035Y-68700499D01*
X91388037Y-68700500D01*
X91388039Y-68700500D01*
X91531963Y-68700500D01*
X91531964Y-68700499D01*
X91670053Y-68659953D01*
X91791128Y-68582143D01*
X91861404Y-68501039D01*
X91905637Y-68476430D01*
X91917329Y-68475500D01*
X96943866Y-68475500D01*
X96991432Y-68492813D01*
X97016742Y-68536650D01*
X97017107Y-68538937D01*
X97020195Y-68560407D01*
X97029834Y-68627454D01*
X97029834Y-68627455D01*
X97029835Y-68627457D01*
X97063193Y-68700499D01*
X97089623Y-68758373D01*
X97183868Y-68867139D01*
X97183869Y-68867140D01*
X97183872Y-68867143D01*
X97304947Y-68944953D01*
X97405413Y-68974452D01*
X97443035Y-68985499D01*
X97443037Y-68985500D01*
X97443039Y-68985500D01*
X97586963Y-68985500D01*
X97586964Y-68985499D01*
X97593166Y-68983678D01*
X97725053Y-68944953D01*
X97846128Y-68867143D01*
X97940377Y-68758373D01*
X98000165Y-68627457D01*
X98020647Y-68485000D01*
X98000165Y-68342543D01*
X97940377Y-68211627D01*
X97874919Y-68136084D01*
X97846131Y-68102860D01*
X97846129Y-68102859D01*
X97846128Y-68102857D01*
X97777095Y-68058492D01*
X97725054Y-68025047D01*
X97725050Y-68025046D01*
X97641468Y-68000504D01*
X97600706Y-67970492D01*
X97588772Y-67921300D01*
X97611250Y-67875946D01*
X97657623Y-67855651D01*
X97662316Y-67855502D01*
X98415234Y-67855502D01*
X98462800Y-67872815D01*
X98467560Y-67877176D01*
X98997745Y-68407361D01*
X99019137Y-68453237D01*
X99018666Y-68470217D01*
X99009353Y-68534999D01*
X99009353Y-68535000D01*
X99013006Y-68560407D01*
X99029834Y-68677454D01*
X99089623Y-68808373D01*
X99183868Y-68917139D01*
X99183869Y-68917140D01*
X99183872Y-68917143D01*
X99273047Y-68974452D01*
X99290497Y-68985667D01*
X99304947Y-68994953D01*
X99383364Y-69017978D01*
X99443035Y-69035499D01*
X99443037Y-69035500D01*
X99443039Y-69035500D01*
X99586963Y-69035500D01*
X99586964Y-69035499D01*
X99587114Y-69035455D01*
X99725053Y-68994953D01*
X99846128Y-68917143D01*
X99940377Y-68808373D01*
X100000165Y-68677457D01*
X100020647Y-68535000D01*
X100000165Y-68392543D01*
X99940377Y-68261627D01*
X99884974Y-68197688D01*
X99846131Y-68152860D01*
X99846129Y-68152859D01*
X99846128Y-68152857D01*
X99781198Y-68111129D01*
X99725054Y-68075047D01*
X99725050Y-68075046D01*
X99586964Y-68034500D01*
X99586961Y-68034500D01*
X99443039Y-68034500D01*
X99437747Y-68034500D01*
X99437747Y-68032466D01*
X99396114Y-68023746D01*
X99382816Y-68013200D01*
X98779147Y-67409531D01*
X98769944Y-67398316D01*
X98758628Y-67381380D01*
X98758626Y-67381378D01*
X98738646Y-67368027D01*
X98738643Y-67368025D01*
X98729703Y-67362051D01*
X98699184Y-67341660D01*
X98675601Y-67325902D01*
X98667498Y-67320487D01*
X98667499Y-67320487D01*
X98627316Y-67312494D01*
X98587135Y-67304502D01*
X98587134Y-67304502D01*
X98587132Y-67304501D01*
X98560003Y-67299105D01*
X98560002Y-67299105D01*
X98540019Y-67303080D01*
X98525582Y-67304502D01*
X98364248Y-67304502D01*
X98316682Y-67287189D01*
X98291372Y-67243352D01*
X98299453Y-67197520D01*
X98298560Y-67197074D01*
X98298561Y-67197072D01*
X98299775Y-67195695D01*
X98300162Y-67193502D01*
X98323143Y-67168968D01*
X98323380Y-67168809D01*
X98338624Y-67158624D01*
X98349944Y-67141681D01*
X98359141Y-67130474D01*
X98882816Y-66606798D01*
X98928691Y-66585407D01*
X98937746Y-66585659D01*
X98937746Y-66585500D01*
X99086963Y-66585500D01*
X99086964Y-66585499D01*
X99225053Y-66544953D01*
X99346128Y-66467143D01*
X99440377Y-66358373D01*
X99500165Y-66227457D01*
X99520647Y-66085000D01*
X99500165Y-65942543D01*
X99440377Y-65811627D01*
X99346128Y-65702857D01*
X99289182Y-65666260D01*
X99225054Y-65625047D01*
X99225050Y-65625046D01*
X99086964Y-65584500D01*
X99086961Y-65584500D01*
X98943039Y-65584500D01*
X98943036Y-65584500D01*
X98804949Y-65625046D01*
X98804945Y-65625047D01*
X98683875Y-65702855D01*
X98683868Y-65702860D01*
X98589622Y-65811627D01*
X98582312Y-65827635D01*
X98546804Y-65863710D01*
X98496414Y-65868521D01*
X98454721Y-65839816D01*
X98447688Y-65827635D01*
X98440377Y-65811627D01*
X98346131Y-65702860D01*
X98346129Y-65702859D01*
X98346128Y-65702857D01*
X98289182Y-65666260D01*
X98225054Y-65625047D01*
X98225050Y-65625046D01*
X98086964Y-65584500D01*
X98086961Y-65584500D01*
X97943039Y-65584500D01*
X97937747Y-65584500D01*
X97937747Y-65582466D01*
X97896114Y-65573746D01*
X97882816Y-65563200D01*
X97859145Y-65539529D01*
X97849942Y-65528314D01*
X97838626Y-65511378D01*
X97838624Y-65511376D01*
X97835222Y-65509103D01*
X97818644Y-65498026D01*
X97818639Y-65498021D01*
X97789465Y-65478528D01*
X97747495Y-65450485D01*
X97747495Y-65450484D01*
X97667133Y-65434500D01*
X97667132Y-65434500D01*
X97667130Y-65434499D01*
X97640001Y-65429103D01*
X97640000Y-65429103D01*
X97620017Y-65433078D01*
X97605580Y-65434500D01*
X85614404Y-65434500D01*
X85599968Y-65433078D01*
X85579984Y-65429103D01*
X85579983Y-65429103D01*
X85552852Y-65434500D01*
X85552851Y-65434500D01*
X85536867Y-65437679D01*
X85472490Y-65450484D01*
X85472488Y-65450485D01*
X85430517Y-65478528D01*
X85404362Y-65496005D01*
X85381359Y-65511376D01*
X85381358Y-65511377D01*
X85370037Y-65528319D01*
X85360837Y-65539529D01*
X84959166Y-65941200D01*
X84913290Y-65962592D01*
X84904237Y-65962341D01*
X84904237Y-65962500D01*
X84749731Y-65962500D01*
X84749731Y-65960466D01*
X84708098Y-65951746D01*
X84694800Y-65941200D01*
X84373129Y-65619529D01*
X84363926Y-65608314D01*
X84352610Y-65591378D01*
X84352608Y-65591376D01*
X84339273Y-65582466D01*
X84332628Y-65578026D01*
X84332623Y-65578021D01*
X84303449Y-65558528D01*
X84261479Y-65530485D01*
X84250590Y-65528319D01*
X84181117Y-65514500D01*
X84181116Y-65514500D01*
X84181114Y-65514499D01*
X84153985Y-65509103D01*
X84153984Y-65509103D01*
X84134001Y-65513078D01*
X84119564Y-65514500D01*
X75604416Y-65514500D01*
X75589980Y-65513078D01*
X75570001Y-65509104D01*
X75569997Y-65509104D01*
X75545306Y-65514015D01*
X75545300Y-65514016D01*
X75462504Y-65530485D01*
X75396305Y-65574718D01*
X75371376Y-65591375D01*
X75371374Y-65591377D01*
X75360053Y-65608319D01*
X75350853Y-65619529D01*
X74971656Y-65998726D01*
X74925780Y-66020118D01*
X74919332Y-66020400D01*
X74880830Y-66020400D01*
X74866095Y-66023330D01*
X74849392Y-66034491D01*
X74838229Y-66051196D01*
X74835300Y-66065927D01*
X74835300Y-66305410D01*
X74817987Y-66352976D01*
X74782429Y-66374895D01*
X74782761Y-66375784D01*
X74643712Y-66427645D01*
X74643711Y-66427646D01*
X74528611Y-66513811D01*
X74442446Y-66628911D01*
X74442445Y-66628912D01*
X74392203Y-66763619D01*
X74392202Y-66763624D01*
X74385800Y-66823171D01*
X74385800Y-66875000D01*
X54826445Y-66875000D01*
X54856705Y-66844740D01*
X54745019Y-66775589D01*
X54745009Y-66775584D01*
X54540408Y-66696321D01*
X54324717Y-66656000D01*
X54105282Y-66656000D01*
X53889591Y-66696321D01*
X53684990Y-66775584D01*
X53684974Y-66775591D01*
X53573293Y-66844740D01*
X54057753Y-67329200D01*
X54079145Y-67375076D01*
X54066044Y-67423971D01*
X54037535Y-67448198D01*
X53970035Y-67480704D01*
X53875014Y-67568871D01*
X53819026Y-67665844D01*
X53780250Y-67698381D01*
X53729631Y-67698380D01*
X53702615Y-67681169D01*
X53217561Y-67196115D01*
X53204031Y-67214033D01*
X53204030Y-67214035D01*
X53106223Y-67410458D01*
X53106221Y-67410463D01*
X53046174Y-67621507D01*
X53046172Y-67621520D01*
X53025928Y-67839996D01*
X53025928Y-67840003D01*
X47840000Y-67840003D01*
X47840000Y-65184500D01*
X47857313Y-65136934D01*
X47901150Y-65111624D01*
X47914000Y-65110500D01*
X105606000Y-65110500D01*
X105653566Y-65127813D01*
G37*
%TD.AperFunction*%
%TD*%
%TA.AperFunction,Conductor*%
%TO.N,GND*%
G36*
X105653566Y-57677813D02*
G01*
X105678876Y-57721650D01*
X105680000Y-57734500D01*
X105680000Y-61981000D01*
X105662687Y-62028566D01*
X105618850Y-62053876D01*
X105606000Y-62055000D01*
X47914000Y-62055000D01*
X47866434Y-62037687D01*
X47841124Y-61993850D01*
X47840000Y-61981000D01*
X47840000Y-60390003D01*
X53025928Y-60390003D01*
X53046172Y-60608479D01*
X53046174Y-60608492D01*
X53106221Y-60819536D01*
X53106223Y-60819541D01*
X53204031Y-61015967D01*
X53204033Y-61015970D01*
X53217561Y-61033883D01*
X53703696Y-60547749D01*
X53749572Y-60526357D01*
X53798467Y-60539458D01*
X53824906Y-60573039D01*
X53838403Y-60607428D01*
X53881228Y-60661129D01*
X53919222Y-60708773D01*
X54026323Y-60781793D01*
X54031317Y-60784198D01*
X54030452Y-60785994D01*
X54064281Y-60811606D01*
X54075557Y-60860954D01*
X54054455Y-60904096D01*
X53573293Y-61385258D01*
X53684980Y-61454410D01*
X53684990Y-61454415D01*
X53889591Y-61533678D01*
X54105282Y-61573999D01*
X54105286Y-61574000D01*
X54324714Y-61574000D01*
X54324717Y-61573999D01*
X54540408Y-61533678D01*
X54745009Y-61454415D01*
X54745019Y-61454410D01*
X54856704Y-61385257D01*
X54372246Y-60900799D01*
X54350854Y-60854923D01*
X54363955Y-60806028D01*
X54392465Y-60781801D01*
X54459964Y-60749296D01*
X54554985Y-60661129D01*
X54610973Y-60564154D01*
X54649747Y-60531619D01*
X54700366Y-60531619D01*
X54727383Y-60548830D01*
X55212437Y-61033883D01*
X55225970Y-61015963D01*
X55323776Y-60819541D01*
X55335324Y-60778954D01*
X55364992Y-60737940D01*
X55414082Y-60725592D01*
X55459624Y-60747688D01*
X55480309Y-60793888D01*
X55480500Y-60799203D01*
X55480500Y-61078970D01*
X55483430Y-61093703D01*
X55483430Y-61093704D01*
X55494592Y-61110408D01*
X55511296Y-61121570D01*
X55511295Y-61121570D01*
X55513739Y-61122055D01*
X55526027Y-61124500D01*
X56903972Y-61124499D01*
X56918704Y-61121570D01*
X56935408Y-61110408D01*
X56946570Y-61093704D01*
X56949500Y-61078973D01*
X56949499Y-59925000D01*
X74385800Y-59925000D01*
X74385800Y-59976828D01*
X74392202Y-60036375D01*
X74392203Y-60036380D01*
X74442445Y-60171087D01*
X74442446Y-60171088D01*
X74528611Y-60286188D01*
X74643711Y-60372353D01*
X74643712Y-60372354D01*
X74782761Y-60424216D01*
X74782378Y-60425242D01*
X74820623Y-60450354D01*
X74835300Y-60494589D01*
X74835300Y-60734070D01*
X74838230Y-60748804D01*
X74846798Y-60761627D01*
X74849392Y-60765508D01*
X74866096Y-60776670D01*
X74866095Y-60776670D01*
X74868539Y-60777155D01*
X74880827Y-60779600D01*
X75398772Y-60779599D01*
X75413504Y-60776670D01*
X75430208Y-60765508D01*
X75441370Y-60748804D01*
X75444300Y-60734073D01*
X75444299Y-60494587D01*
X75461612Y-60447023D01*
X75497171Y-60425109D01*
X75496838Y-60424216D01*
X75535539Y-60409781D01*
X75586157Y-60409379D01*
X75625190Y-60441607D01*
X75635400Y-60479115D01*
X75635400Y-60734070D01*
X75638330Y-60748804D01*
X75646898Y-60761627D01*
X75649492Y-60765508D01*
X75666196Y-60776670D01*
X75666195Y-60776670D01*
X75668639Y-60777155D01*
X75680927Y-60779600D01*
X76198872Y-60779599D01*
X76213604Y-60776670D01*
X76230308Y-60765508D01*
X76241470Y-60748804D01*
X76244400Y-60734073D01*
X76244399Y-60216128D01*
X76241470Y-60201396D01*
X76230308Y-60184692D01*
X76213604Y-60173530D01*
X76213603Y-60173529D01*
X76198873Y-60170600D01*
X75943915Y-60170600D01*
X75896349Y-60153287D01*
X75871039Y-60109450D01*
X75874581Y-60070739D01*
X75887397Y-60036377D01*
X75887397Y-60036375D01*
X75893800Y-59976828D01*
X75893800Y-59925000D01*
X74385800Y-59925000D01*
X56949499Y-59925000D01*
X56949499Y-59701028D01*
X56946570Y-59686296D01*
X56935408Y-59669592D01*
X56918704Y-59658430D01*
X56918701Y-59658429D01*
X56918704Y-59658429D01*
X56906416Y-59655985D01*
X56903973Y-59655500D01*
X56903972Y-59655500D01*
X55526029Y-59655500D01*
X55511295Y-59658430D01*
X55494592Y-59669591D01*
X55483429Y-59686296D01*
X55480499Y-59701027D01*
X55480500Y-59980794D01*
X55463187Y-60028360D01*
X55419350Y-60053670D01*
X55369500Y-60044880D01*
X55336963Y-60006103D01*
X55335325Y-60001045D01*
X55323778Y-59960462D01*
X55323776Y-59960458D01*
X55225968Y-59764032D01*
X55225966Y-59764030D01*
X55212437Y-59746114D01*
X54726303Y-60232248D01*
X54680426Y-60253640D01*
X54631532Y-60240539D01*
X54605092Y-60206957D01*
X54591597Y-60172572D01*
X54510778Y-60071227D01*
X54510066Y-60070741D01*
X54403676Y-59998206D01*
X54398683Y-59995802D01*
X54399545Y-59994011D01*
X54365699Y-59968365D01*
X54354445Y-59919013D01*
X54375543Y-59875902D01*
X54826445Y-59425000D01*
X74385800Y-59425000D01*
X75689900Y-59425000D01*
X75689900Y-59124900D01*
X76189900Y-59124900D01*
X76189900Y-59628900D01*
X76241729Y-59628900D01*
X76301275Y-59622497D01*
X76314086Y-59617719D01*
X76364703Y-59617315D01*
X76365814Y-59617719D01*
X76378624Y-59622497D01*
X76438171Y-59628900D01*
X76490000Y-59628900D01*
X76490000Y-59124900D01*
X76990000Y-59124900D01*
X76990000Y-59628900D01*
X77041829Y-59628900D01*
X77101375Y-59622497D01*
X77114186Y-59617719D01*
X77164803Y-59617315D01*
X77165914Y-59617719D01*
X77178724Y-59622497D01*
X77238271Y-59628900D01*
X77290100Y-59628900D01*
X77290100Y-59124900D01*
X76990000Y-59124900D01*
X76490000Y-59124900D01*
X76189900Y-59124900D01*
X75689900Y-59124900D01*
X75689900Y-58698900D01*
X75707213Y-58651334D01*
X75751050Y-58626024D01*
X75763900Y-58624900D01*
X77716100Y-58624900D01*
X77763666Y-58642213D01*
X77788976Y-58686050D01*
X77790100Y-58698900D01*
X77790099Y-59424999D01*
X77790100Y-59425000D01*
X78963005Y-59425000D01*
X78984511Y-59429678D01*
X78984869Y-59428462D01*
X79128035Y-59470499D01*
X79128037Y-59470500D01*
X79128039Y-59470500D01*
X79271963Y-59470500D01*
X79271964Y-59470499D01*
X79410053Y-59429953D01*
X79531128Y-59352143D01*
X79625377Y-59243373D01*
X79685165Y-59112457D01*
X79705647Y-58970000D01*
X79685165Y-58827543D01*
X79636160Y-58720240D01*
X79632150Y-58669781D01*
X79661511Y-58628548D01*
X79703474Y-58615500D01*
X84009216Y-58615500D01*
X84056782Y-58632813D01*
X84061542Y-58637174D01*
X84309729Y-58885361D01*
X84331121Y-58931237D01*
X84330650Y-58948217D01*
X84321337Y-59012999D01*
X84341818Y-59155454D01*
X84341818Y-59155455D01*
X84341819Y-59155457D01*
X84370297Y-59217815D01*
X84401607Y-59286373D01*
X84495852Y-59395139D01*
X84495853Y-59395140D01*
X84495856Y-59395143D01*
X84616931Y-59472953D01*
X84723387Y-59504211D01*
X84755019Y-59513499D01*
X84755021Y-59513500D01*
X84755023Y-59513500D01*
X84898947Y-59513500D01*
X84898948Y-59513499D01*
X85037037Y-59472953D01*
X85158112Y-59395143D01*
X85187431Y-59361306D01*
X85231663Y-59336696D01*
X85281367Y-59346275D01*
X85310668Y-59379025D01*
X85344621Y-59453371D01*
X85438868Y-59562139D01*
X85438869Y-59562140D01*
X85438872Y-59562143D01*
X85559947Y-59639953D01*
X85622875Y-59658430D01*
X85698035Y-59680499D01*
X85698037Y-59680500D01*
X85698039Y-59680500D01*
X85841963Y-59680500D01*
X85841964Y-59680499D01*
X85980053Y-59639953D01*
X86101128Y-59562143D01*
X86195377Y-59453373D01*
X86255165Y-59322457D01*
X86263573Y-59263971D01*
X86287480Y-59219353D01*
X86334473Y-59200539D01*
X86336821Y-59200502D01*
X87757657Y-59200502D01*
X87805223Y-59217815D01*
X87813579Y-59226039D01*
X87818870Y-59232145D01*
X87939945Y-59309955D01*
X88031018Y-59336696D01*
X88078033Y-59350501D01*
X88078035Y-59350502D01*
X88078037Y-59350502D01*
X88221961Y-59350502D01*
X88221962Y-59350501D01*
X88360051Y-59309955D01*
X88481126Y-59232145D01*
X88575375Y-59123375D01*
X88635163Y-58992459D01*
X88655645Y-58850002D01*
X88636988Y-58720241D01*
X88635163Y-58707544D01*
X88604426Y-58640241D01*
X88600413Y-58589782D01*
X88629775Y-58548548D01*
X88671738Y-58535500D01*
X97438258Y-58535500D01*
X97485824Y-58552813D01*
X97511134Y-58596650D01*
X97511505Y-58620030D01*
X97509667Y-58632813D01*
X97509353Y-58635000D01*
X97514354Y-58669781D01*
X97529834Y-58777454D01*
X97529834Y-58777455D01*
X97529835Y-58777457D01*
X97579114Y-58885361D01*
X97589623Y-58908373D01*
X97683868Y-59017139D01*
X97683869Y-59017140D01*
X97683872Y-59017143D01*
X97804947Y-59094953D01*
X97809399Y-59097814D01*
X97807997Y-59099994D01*
X97837158Y-59128699D01*
X97841967Y-59179089D01*
X97813261Y-59220781D01*
X97770340Y-59234500D01*
X90047329Y-59234500D01*
X89999763Y-59217187D01*
X89991407Y-59208964D01*
X89921128Y-59127857D01*
X89864182Y-59091260D01*
X89800054Y-59050047D01*
X89800050Y-59050046D01*
X89661964Y-59009500D01*
X89661961Y-59009500D01*
X89518039Y-59009500D01*
X89518036Y-59009500D01*
X89379949Y-59050046D01*
X89379945Y-59050047D01*
X89258875Y-59127855D01*
X89258868Y-59127860D01*
X89164623Y-59236626D01*
X89104834Y-59367545D01*
X89084353Y-59510000D01*
X89093666Y-59574781D01*
X89083298Y-59624327D01*
X89072745Y-59637637D01*
X88672035Y-60038347D01*
X88626159Y-60059739D01*
X88577264Y-60046638D01*
X88548230Y-60005174D01*
X88546462Y-59996551D01*
X88545167Y-59987547D01*
X88545167Y-59987545D01*
X88485379Y-59856629D01*
X88430550Y-59793352D01*
X88391133Y-59747862D01*
X88391131Y-59747861D01*
X88391130Y-59747859D01*
X88318261Y-59701029D01*
X88270056Y-59670049D01*
X88270052Y-59670048D01*
X88131966Y-59629502D01*
X88131963Y-59629502D01*
X87988041Y-59629502D01*
X87988038Y-59629502D01*
X87849951Y-59670048D01*
X87849947Y-59670049D01*
X87728877Y-59747857D01*
X87728870Y-59747862D01*
X87634625Y-59856628D01*
X87574836Y-59987547D01*
X87554355Y-60130002D01*
X87563668Y-60194783D01*
X87553300Y-60244329D01*
X87542747Y-60257639D01*
X87093588Y-60706800D01*
X87047712Y-60728192D01*
X87041262Y-60728474D01*
X79706226Y-60728474D01*
X79658660Y-60711161D01*
X79633350Y-60667324D01*
X79638913Y-60623733D01*
X79685165Y-60522457D01*
X79705647Y-60380000D01*
X79685165Y-60237543D01*
X79625377Y-60106627D01*
X79601814Y-60079434D01*
X79531131Y-59997860D01*
X79531129Y-59997859D01*
X79531128Y-59997857D01*
X79427688Y-59931380D01*
X79410054Y-59920047D01*
X79410050Y-59920046D01*
X79271964Y-59879500D01*
X79271961Y-59879500D01*
X79128039Y-59879500D01*
X79128036Y-59879500D01*
X78984869Y-59921538D01*
X78984511Y-59920321D01*
X78963005Y-59925000D01*
X77586200Y-59925000D01*
X77586200Y-59976828D01*
X77592602Y-60036375D01*
X77592602Y-60036376D01*
X77605419Y-60070741D01*
X77605819Y-60121358D01*
X77573590Y-60160391D01*
X77536084Y-60170600D01*
X77281129Y-60170600D01*
X77266395Y-60173530D01*
X77249692Y-60184691D01*
X77238529Y-60201396D01*
X77235600Y-60216127D01*
X77235600Y-60507332D01*
X77218287Y-60554898D01*
X77174450Y-60580208D01*
X77124600Y-60571418D01*
X77109274Y-60559658D01*
X77066173Y-60516557D01*
X77044781Y-60470681D01*
X77044499Y-60464231D01*
X77044499Y-60216129D01*
X77044499Y-60216127D01*
X77041570Y-60201396D01*
X77030408Y-60184692D01*
X77013704Y-60173530D01*
X77013701Y-60173529D01*
X77013704Y-60173529D01*
X77001416Y-60171085D01*
X76998973Y-60170600D01*
X76998972Y-60170600D01*
X76481029Y-60170600D01*
X76466295Y-60173530D01*
X76449592Y-60184691D01*
X76438429Y-60201396D01*
X76435500Y-60216127D01*
X76435500Y-60734070D01*
X76438430Y-60748804D01*
X76446998Y-60761627D01*
X76449592Y-60765508D01*
X76466296Y-60776670D01*
X76466295Y-60776670D01*
X76469225Y-60777252D01*
X76481027Y-60779600D01*
X76519330Y-60779599D01*
X76566896Y-60796911D01*
X76571657Y-60801273D01*
X77294838Y-61524454D01*
X77304040Y-61535667D01*
X77315359Y-61552607D01*
X77315360Y-61552608D01*
X77335339Y-61565958D01*
X77335340Y-61565958D01*
X77338360Y-61567976D01*
X77338362Y-61567978D01*
X77364518Y-61585455D01*
X77406489Y-61613499D01*
X77486851Y-61629484D01*
X77486852Y-61629484D01*
X77513983Y-61634881D01*
X77513984Y-61634881D01*
X77533968Y-61630905D01*
X77548404Y-61629484D01*
X87711596Y-61629484D01*
X87726032Y-61630905D01*
X87746016Y-61634881D01*
X87746017Y-61634881D01*
X87750638Y-61633961D01*
X87773148Y-61629484D01*
X87773149Y-61629484D01*
X87853511Y-61613499D01*
X87895481Y-61585455D01*
X87921638Y-61567978D01*
X87921638Y-61567977D01*
X87929652Y-61562623D01*
X87929655Y-61562620D01*
X87944640Y-61552608D01*
X87955964Y-61535658D01*
X87965157Y-61524457D01*
X89457816Y-60031798D01*
X89503691Y-60010407D01*
X89512746Y-60010659D01*
X89512746Y-60010500D01*
X89596134Y-60010500D01*
X89643700Y-60027813D01*
X89669010Y-60071650D01*
X89669381Y-60095031D01*
X89664353Y-60130002D01*
X89684834Y-60272456D01*
X89744623Y-60403375D01*
X89838868Y-60512141D01*
X89838869Y-60512142D01*
X89838872Y-60512145D01*
X89959947Y-60589955D01*
X90066403Y-60621213D01*
X90098035Y-60630501D01*
X90098037Y-60630502D01*
X90098039Y-60630502D01*
X90241963Y-60630502D01*
X90241964Y-60630501D01*
X90380053Y-60589955D01*
X90501128Y-60512145D01*
X90571404Y-60431041D01*
X90615637Y-60406432D01*
X90627329Y-60405502D01*
X90951958Y-60405502D01*
X90999524Y-60422815D01*
X91024834Y-60466652D01*
X91019271Y-60510243D01*
X90974834Y-60607545D01*
X90954353Y-60750000D01*
X90974834Y-60892454D01*
X90974834Y-60892455D01*
X90974835Y-60892457D01*
X90997709Y-60942543D01*
X91034623Y-61023373D01*
X91128868Y-61132139D01*
X91128869Y-61132140D01*
X91128872Y-61132143D01*
X91249947Y-61209953D01*
X91356403Y-61241211D01*
X91388035Y-61250499D01*
X91388037Y-61250500D01*
X91388039Y-61250500D01*
X91531963Y-61250500D01*
X91531964Y-61250499D01*
X91670053Y-61209953D01*
X91791128Y-61132143D01*
X91861404Y-61051039D01*
X91905637Y-61026430D01*
X91917329Y-61025500D01*
X96943866Y-61025500D01*
X96991432Y-61042813D01*
X97016742Y-61086650D01*
X97017107Y-61088937D01*
X97020195Y-61110407D01*
X97029834Y-61177454D01*
X97029834Y-61177455D01*
X97029835Y-61177457D01*
X97063193Y-61250499D01*
X97089623Y-61308373D01*
X97183868Y-61417139D01*
X97183869Y-61417140D01*
X97183872Y-61417143D01*
X97304947Y-61494953D01*
X97405413Y-61524452D01*
X97443035Y-61535499D01*
X97443037Y-61535500D01*
X97443039Y-61535500D01*
X97586963Y-61535500D01*
X97586964Y-61535499D01*
X97593166Y-61533678D01*
X97725053Y-61494953D01*
X97846128Y-61417143D01*
X97940377Y-61308373D01*
X98000165Y-61177457D01*
X98020647Y-61035000D01*
X98000165Y-60892543D01*
X97940377Y-60761627D01*
X97874919Y-60686084D01*
X97846131Y-60652860D01*
X97846129Y-60652859D01*
X97846128Y-60652857D01*
X97777095Y-60608492D01*
X97725054Y-60575047D01*
X97725050Y-60575046D01*
X97641468Y-60550504D01*
X97600706Y-60520492D01*
X97588772Y-60471300D01*
X97611250Y-60425946D01*
X97657623Y-60405651D01*
X97662316Y-60405502D01*
X98415234Y-60405502D01*
X98462800Y-60422815D01*
X98467560Y-60427176D01*
X98997745Y-60957361D01*
X99019137Y-61003237D01*
X99018666Y-61020217D01*
X99009353Y-61084999D01*
X99009353Y-61085000D01*
X99013006Y-61110407D01*
X99029834Y-61227454D01*
X99089623Y-61358373D01*
X99183868Y-61467139D01*
X99183869Y-61467140D01*
X99183872Y-61467143D01*
X99273047Y-61524452D01*
X99290497Y-61535667D01*
X99304947Y-61544953D01*
X99383364Y-61567978D01*
X99443035Y-61585499D01*
X99443037Y-61585500D01*
X99443039Y-61585500D01*
X99586963Y-61585500D01*
X99586964Y-61585499D01*
X99587114Y-61585455D01*
X99725053Y-61544953D01*
X99846128Y-61467143D01*
X99940377Y-61358373D01*
X100000165Y-61227457D01*
X100020647Y-61085000D01*
X100000165Y-60942543D01*
X99940377Y-60811627D01*
X99884974Y-60747688D01*
X99846131Y-60702860D01*
X99846129Y-60702859D01*
X99846128Y-60702857D01*
X99781198Y-60661129D01*
X99725054Y-60625047D01*
X99725050Y-60625046D01*
X99586964Y-60584500D01*
X99586961Y-60584500D01*
X99443039Y-60584500D01*
X99437747Y-60584500D01*
X99437747Y-60582466D01*
X99396114Y-60573746D01*
X99382816Y-60563200D01*
X98779147Y-59959531D01*
X98769944Y-59948316D01*
X98758628Y-59931380D01*
X98758626Y-59931378D01*
X98738646Y-59918027D01*
X98738643Y-59918025D01*
X98729703Y-59912051D01*
X98699184Y-59891660D01*
X98675601Y-59875902D01*
X98667498Y-59870487D01*
X98667499Y-59870487D01*
X98627316Y-59862494D01*
X98587135Y-59854502D01*
X98587134Y-59854502D01*
X98587132Y-59854501D01*
X98560003Y-59849105D01*
X98560002Y-59849105D01*
X98540019Y-59853080D01*
X98525582Y-59854502D01*
X98364248Y-59854502D01*
X98316682Y-59837189D01*
X98291372Y-59793352D01*
X98299453Y-59747520D01*
X98298560Y-59747074D01*
X98298561Y-59747072D01*
X98299775Y-59745695D01*
X98300162Y-59743502D01*
X98323143Y-59718968D01*
X98323380Y-59718809D01*
X98338624Y-59708624D01*
X98349944Y-59691681D01*
X98359141Y-59680474D01*
X98882816Y-59156798D01*
X98928691Y-59135407D01*
X98937746Y-59135659D01*
X98937746Y-59135500D01*
X99086963Y-59135500D01*
X99086964Y-59135499D01*
X99225053Y-59094953D01*
X99346128Y-59017143D01*
X99440377Y-58908373D01*
X99500165Y-58777457D01*
X99520647Y-58635000D01*
X99500165Y-58492543D01*
X99440377Y-58361627D01*
X99346128Y-58252857D01*
X99289182Y-58216260D01*
X99225054Y-58175047D01*
X99225050Y-58175046D01*
X99086964Y-58134500D01*
X99086961Y-58134500D01*
X98943039Y-58134500D01*
X98943036Y-58134500D01*
X98804949Y-58175046D01*
X98804945Y-58175047D01*
X98683875Y-58252855D01*
X98683868Y-58252860D01*
X98589622Y-58361627D01*
X98582312Y-58377635D01*
X98546804Y-58413710D01*
X98496414Y-58418521D01*
X98454721Y-58389816D01*
X98447688Y-58377635D01*
X98440377Y-58361627D01*
X98346131Y-58252860D01*
X98346129Y-58252859D01*
X98346128Y-58252857D01*
X98289182Y-58216260D01*
X98225054Y-58175047D01*
X98225050Y-58175046D01*
X98086964Y-58134500D01*
X98086961Y-58134500D01*
X97943039Y-58134500D01*
X97937747Y-58134500D01*
X97937747Y-58132466D01*
X97896114Y-58123746D01*
X97882816Y-58113200D01*
X97859145Y-58089529D01*
X97849942Y-58078314D01*
X97838626Y-58061378D01*
X97838624Y-58061376D01*
X97835222Y-58059103D01*
X97818644Y-58048026D01*
X97818639Y-58048021D01*
X97789465Y-58028528D01*
X97747495Y-58000485D01*
X97747495Y-58000484D01*
X97667133Y-57984500D01*
X97667132Y-57984500D01*
X97667130Y-57984499D01*
X97640001Y-57979103D01*
X97640000Y-57979103D01*
X97620017Y-57983078D01*
X97605580Y-57984500D01*
X85614404Y-57984500D01*
X85599968Y-57983078D01*
X85579984Y-57979103D01*
X85579983Y-57979103D01*
X85552852Y-57984500D01*
X85552851Y-57984500D01*
X85536867Y-57987679D01*
X85472490Y-58000484D01*
X85472488Y-58000485D01*
X85430517Y-58028528D01*
X85404362Y-58046005D01*
X85381359Y-58061376D01*
X85381358Y-58061377D01*
X85370037Y-58078319D01*
X85360837Y-58089529D01*
X84959166Y-58491200D01*
X84913290Y-58512592D01*
X84904237Y-58512341D01*
X84904237Y-58512500D01*
X84749731Y-58512500D01*
X84749731Y-58510466D01*
X84708098Y-58501746D01*
X84694800Y-58491200D01*
X84373129Y-58169529D01*
X84363926Y-58158314D01*
X84352610Y-58141378D01*
X84352608Y-58141376D01*
X84339273Y-58132466D01*
X84332628Y-58128026D01*
X84332623Y-58128021D01*
X84303449Y-58108528D01*
X84261479Y-58080485D01*
X84250590Y-58078319D01*
X84181117Y-58064500D01*
X84181116Y-58064500D01*
X84181114Y-58064499D01*
X84153985Y-58059103D01*
X84153984Y-58059103D01*
X84134001Y-58063078D01*
X84119564Y-58064500D01*
X75604416Y-58064500D01*
X75589980Y-58063078D01*
X75570001Y-58059104D01*
X75569997Y-58059104D01*
X75545306Y-58064015D01*
X75545300Y-58064016D01*
X75462504Y-58080485D01*
X75396305Y-58124718D01*
X75371376Y-58141375D01*
X75371374Y-58141377D01*
X75360053Y-58158319D01*
X75350853Y-58169529D01*
X74971656Y-58548726D01*
X74925780Y-58570118D01*
X74919332Y-58570400D01*
X74880830Y-58570400D01*
X74866095Y-58573330D01*
X74849392Y-58584491D01*
X74838229Y-58601196D01*
X74835300Y-58615927D01*
X74835300Y-58855410D01*
X74817987Y-58902976D01*
X74782429Y-58924895D01*
X74782761Y-58925784D01*
X74643712Y-58977645D01*
X74643711Y-58977646D01*
X74528611Y-59063811D01*
X74442446Y-59178911D01*
X74442445Y-59178912D01*
X74392203Y-59313619D01*
X74392202Y-59313624D01*
X74385800Y-59373171D01*
X74385800Y-59425000D01*
X54826445Y-59425000D01*
X54856705Y-59394740D01*
X54745019Y-59325589D01*
X54745009Y-59325584D01*
X54540408Y-59246321D01*
X54324717Y-59206000D01*
X54105282Y-59206000D01*
X53889591Y-59246321D01*
X53684990Y-59325584D01*
X53684974Y-59325591D01*
X53573293Y-59394740D01*
X54057753Y-59879200D01*
X54079145Y-59925076D01*
X54066044Y-59973971D01*
X54037535Y-59998198D01*
X53970035Y-60030704D01*
X53875014Y-60118871D01*
X53819026Y-60215844D01*
X53780250Y-60248381D01*
X53729631Y-60248380D01*
X53702615Y-60231169D01*
X53217561Y-59746115D01*
X53204031Y-59764033D01*
X53204030Y-59764035D01*
X53106223Y-59960458D01*
X53106221Y-59960463D01*
X53046174Y-60171507D01*
X53046172Y-60171520D01*
X53025928Y-60389996D01*
X53025928Y-60390003D01*
X47840000Y-60390003D01*
X47840000Y-57734500D01*
X47857313Y-57686934D01*
X47901150Y-57661624D01*
X47914000Y-57660500D01*
X105606000Y-57660500D01*
X105653566Y-57677813D01*
G37*
%TD.AperFunction*%
%TD*%
%TA.AperFunction,Conductor*%
%TO.N,GND*%
G36*
X105653566Y-42777813D02*
G01*
X105678876Y-42821650D01*
X105680000Y-42834500D01*
X105680000Y-47081000D01*
X105662687Y-47128566D01*
X105618850Y-47153876D01*
X105606000Y-47155000D01*
X47914000Y-47155000D01*
X47866434Y-47137687D01*
X47841124Y-47093850D01*
X47840000Y-47081000D01*
X47840000Y-45490003D01*
X53025928Y-45490003D01*
X53046172Y-45708479D01*
X53046174Y-45708492D01*
X53106221Y-45919536D01*
X53106223Y-45919541D01*
X53204031Y-46115967D01*
X53204033Y-46115970D01*
X53217561Y-46133883D01*
X53703696Y-45647749D01*
X53749572Y-45626357D01*
X53798467Y-45639458D01*
X53824906Y-45673039D01*
X53838403Y-45707428D01*
X53881228Y-45761129D01*
X53919222Y-45808773D01*
X54026323Y-45881793D01*
X54031317Y-45884198D01*
X54030452Y-45885994D01*
X54064281Y-45911606D01*
X54075557Y-45960954D01*
X54054455Y-46004096D01*
X53573293Y-46485258D01*
X53684980Y-46554410D01*
X53684990Y-46554415D01*
X53889591Y-46633678D01*
X54105282Y-46673999D01*
X54105286Y-46674000D01*
X54324714Y-46674000D01*
X54324717Y-46673999D01*
X54540408Y-46633678D01*
X54745009Y-46554415D01*
X54745019Y-46554410D01*
X54856704Y-46485257D01*
X54372246Y-46000799D01*
X54350854Y-45954923D01*
X54363955Y-45906028D01*
X54392465Y-45881801D01*
X54459964Y-45849296D01*
X54554985Y-45761129D01*
X54610973Y-45664154D01*
X54649747Y-45631619D01*
X54700366Y-45631619D01*
X54727383Y-45648830D01*
X55212437Y-46133883D01*
X55225970Y-46115963D01*
X55323776Y-45919541D01*
X55335324Y-45878954D01*
X55364992Y-45837940D01*
X55414082Y-45825592D01*
X55459624Y-45847688D01*
X55480309Y-45893888D01*
X55480500Y-45899203D01*
X55480500Y-46178970D01*
X55483430Y-46193703D01*
X55483430Y-46193704D01*
X55494592Y-46210408D01*
X55511296Y-46221570D01*
X55511295Y-46221570D01*
X55513739Y-46222055D01*
X55526027Y-46224500D01*
X56903972Y-46224499D01*
X56918704Y-46221570D01*
X56935408Y-46210408D01*
X56946570Y-46193704D01*
X56949500Y-46178973D01*
X56949499Y-45025000D01*
X74385800Y-45025000D01*
X74385800Y-45076828D01*
X74392202Y-45136375D01*
X74392203Y-45136380D01*
X74442445Y-45271087D01*
X74442446Y-45271088D01*
X74528611Y-45386188D01*
X74643711Y-45472353D01*
X74643712Y-45472354D01*
X74782761Y-45524216D01*
X74782378Y-45525242D01*
X74820623Y-45550354D01*
X74835300Y-45594589D01*
X74835300Y-45834070D01*
X74838230Y-45848804D01*
X74846798Y-45861627D01*
X74849392Y-45865508D01*
X74866096Y-45876670D01*
X74866095Y-45876670D01*
X74868539Y-45877155D01*
X74880827Y-45879600D01*
X75398772Y-45879599D01*
X75413504Y-45876670D01*
X75430208Y-45865508D01*
X75441370Y-45848804D01*
X75444300Y-45834073D01*
X75444299Y-45594587D01*
X75461612Y-45547023D01*
X75497171Y-45525109D01*
X75496838Y-45524216D01*
X75535539Y-45509781D01*
X75586157Y-45509379D01*
X75625190Y-45541607D01*
X75635400Y-45579115D01*
X75635400Y-45834070D01*
X75638330Y-45848804D01*
X75646898Y-45861627D01*
X75649492Y-45865508D01*
X75666196Y-45876670D01*
X75666195Y-45876670D01*
X75668639Y-45877155D01*
X75680927Y-45879600D01*
X76198872Y-45879599D01*
X76213604Y-45876670D01*
X76230308Y-45865508D01*
X76241470Y-45848804D01*
X76244400Y-45834073D01*
X76244399Y-45316128D01*
X76241470Y-45301396D01*
X76230308Y-45284692D01*
X76213604Y-45273530D01*
X76213603Y-45273529D01*
X76198873Y-45270600D01*
X75943915Y-45270600D01*
X75896349Y-45253287D01*
X75871039Y-45209450D01*
X75874581Y-45170739D01*
X75887397Y-45136377D01*
X75887397Y-45136375D01*
X75893800Y-45076828D01*
X75893800Y-45025000D01*
X74385800Y-45025000D01*
X56949499Y-45025000D01*
X56949499Y-44801028D01*
X56946570Y-44786296D01*
X56935408Y-44769592D01*
X56918704Y-44758430D01*
X56918701Y-44758429D01*
X56918704Y-44758429D01*
X56906416Y-44755985D01*
X56903973Y-44755500D01*
X56903972Y-44755500D01*
X55526029Y-44755500D01*
X55511295Y-44758430D01*
X55494592Y-44769591D01*
X55483429Y-44786296D01*
X55480499Y-44801027D01*
X55480500Y-45080794D01*
X55463187Y-45128360D01*
X55419350Y-45153670D01*
X55369500Y-45144880D01*
X55336963Y-45106103D01*
X55335325Y-45101045D01*
X55323778Y-45060462D01*
X55323776Y-45060458D01*
X55225968Y-44864032D01*
X55225966Y-44864030D01*
X55212437Y-44846114D01*
X54726303Y-45332248D01*
X54680426Y-45353640D01*
X54631532Y-45340539D01*
X54605092Y-45306957D01*
X54591597Y-45272572D01*
X54510778Y-45171227D01*
X54510066Y-45170741D01*
X54403676Y-45098206D01*
X54398683Y-45095802D01*
X54399545Y-45094011D01*
X54365699Y-45068365D01*
X54354445Y-45019013D01*
X54375543Y-44975902D01*
X54826445Y-44525000D01*
X74385800Y-44525000D01*
X75689900Y-44525000D01*
X75689900Y-44224900D01*
X76189900Y-44224900D01*
X76189900Y-44728900D01*
X76241729Y-44728900D01*
X76301275Y-44722497D01*
X76314086Y-44717719D01*
X76364703Y-44717315D01*
X76365814Y-44717719D01*
X76378624Y-44722497D01*
X76438171Y-44728900D01*
X76490000Y-44728900D01*
X76490000Y-44224900D01*
X76990000Y-44224900D01*
X76990000Y-44728900D01*
X77041829Y-44728900D01*
X77101375Y-44722497D01*
X77114186Y-44717719D01*
X77164803Y-44717315D01*
X77165914Y-44717719D01*
X77178724Y-44722497D01*
X77238271Y-44728900D01*
X77290100Y-44728900D01*
X77290100Y-44224900D01*
X76990000Y-44224900D01*
X76490000Y-44224900D01*
X76189900Y-44224900D01*
X75689900Y-44224900D01*
X75689900Y-43798900D01*
X75707213Y-43751334D01*
X75751050Y-43726024D01*
X75763900Y-43724900D01*
X77716100Y-43724900D01*
X77763666Y-43742213D01*
X77788976Y-43786050D01*
X77790100Y-43798900D01*
X77790099Y-44524999D01*
X77790100Y-44525000D01*
X78963005Y-44525000D01*
X78984511Y-44529678D01*
X78984869Y-44528462D01*
X79128035Y-44570499D01*
X79128037Y-44570500D01*
X79128039Y-44570500D01*
X79271963Y-44570500D01*
X79271964Y-44570499D01*
X79410053Y-44529953D01*
X79531128Y-44452143D01*
X79625377Y-44343373D01*
X79685165Y-44212457D01*
X79705647Y-44070000D01*
X79685165Y-43927543D01*
X79636160Y-43820240D01*
X79632150Y-43769781D01*
X79661511Y-43728548D01*
X79703474Y-43715500D01*
X84009216Y-43715500D01*
X84056782Y-43732813D01*
X84061542Y-43737174D01*
X84309729Y-43985361D01*
X84331121Y-44031237D01*
X84330650Y-44048217D01*
X84321337Y-44112999D01*
X84341818Y-44255454D01*
X84341818Y-44255455D01*
X84341819Y-44255457D01*
X84370297Y-44317815D01*
X84401607Y-44386373D01*
X84495852Y-44495139D01*
X84495853Y-44495140D01*
X84495856Y-44495143D01*
X84616931Y-44572953D01*
X84723387Y-44604211D01*
X84755019Y-44613499D01*
X84755021Y-44613500D01*
X84755023Y-44613500D01*
X84898947Y-44613500D01*
X84898948Y-44613499D01*
X85037037Y-44572953D01*
X85158112Y-44495143D01*
X85187431Y-44461306D01*
X85231663Y-44436696D01*
X85281367Y-44446275D01*
X85310668Y-44479025D01*
X85344621Y-44553371D01*
X85438868Y-44662139D01*
X85438869Y-44662140D01*
X85438872Y-44662143D01*
X85559947Y-44739953D01*
X85622875Y-44758430D01*
X85698035Y-44780499D01*
X85698037Y-44780500D01*
X85698039Y-44780500D01*
X85841963Y-44780500D01*
X85841964Y-44780499D01*
X85980053Y-44739953D01*
X86101128Y-44662143D01*
X86195377Y-44553373D01*
X86255165Y-44422457D01*
X86263573Y-44363971D01*
X86287480Y-44319353D01*
X86334473Y-44300539D01*
X86336821Y-44300502D01*
X87757657Y-44300502D01*
X87805223Y-44317815D01*
X87813579Y-44326039D01*
X87818870Y-44332145D01*
X87939945Y-44409955D01*
X88031018Y-44436696D01*
X88078033Y-44450501D01*
X88078035Y-44450502D01*
X88078037Y-44450502D01*
X88221961Y-44450502D01*
X88221962Y-44450501D01*
X88360051Y-44409955D01*
X88481126Y-44332145D01*
X88575375Y-44223375D01*
X88635163Y-44092459D01*
X88655645Y-43950002D01*
X88636988Y-43820241D01*
X88635163Y-43807544D01*
X88604426Y-43740241D01*
X88600413Y-43689782D01*
X88629775Y-43648548D01*
X88671738Y-43635500D01*
X97438258Y-43635500D01*
X97485824Y-43652813D01*
X97511134Y-43696650D01*
X97511505Y-43720030D01*
X97509667Y-43732813D01*
X97509353Y-43735000D01*
X97514354Y-43769781D01*
X97529834Y-43877454D01*
X97529834Y-43877455D01*
X97529835Y-43877457D01*
X97579114Y-43985361D01*
X97589623Y-44008373D01*
X97683868Y-44117139D01*
X97683869Y-44117140D01*
X97683872Y-44117143D01*
X97804947Y-44194953D01*
X97809399Y-44197814D01*
X97807997Y-44199994D01*
X97837158Y-44228699D01*
X97841967Y-44279089D01*
X97813261Y-44320781D01*
X97770340Y-44334500D01*
X90047329Y-44334500D01*
X89999763Y-44317187D01*
X89991407Y-44308964D01*
X89921128Y-44227857D01*
X89864182Y-44191260D01*
X89800054Y-44150047D01*
X89800050Y-44150046D01*
X89661964Y-44109500D01*
X89661961Y-44109500D01*
X89518039Y-44109500D01*
X89518036Y-44109500D01*
X89379949Y-44150046D01*
X89379945Y-44150047D01*
X89258875Y-44227855D01*
X89258868Y-44227860D01*
X89164623Y-44336626D01*
X89104834Y-44467545D01*
X89084353Y-44610000D01*
X89093666Y-44674781D01*
X89083298Y-44724327D01*
X89072745Y-44737637D01*
X88672035Y-45138347D01*
X88626159Y-45159739D01*
X88577264Y-45146638D01*
X88548230Y-45105174D01*
X88546462Y-45096551D01*
X88545167Y-45087547D01*
X88545167Y-45087545D01*
X88485379Y-44956629D01*
X88430550Y-44893352D01*
X88391133Y-44847862D01*
X88391131Y-44847861D01*
X88391130Y-44847859D01*
X88318261Y-44801029D01*
X88270056Y-44770049D01*
X88270052Y-44770048D01*
X88131966Y-44729502D01*
X88131963Y-44729502D01*
X87988041Y-44729502D01*
X87988038Y-44729502D01*
X87849951Y-44770048D01*
X87849947Y-44770049D01*
X87728877Y-44847857D01*
X87728870Y-44847862D01*
X87634625Y-44956628D01*
X87574836Y-45087547D01*
X87554355Y-45230002D01*
X87563668Y-45294783D01*
X87553300Y-45344329D01*
X87542747Y-45357639D01*
X87093588Y-45806800D01*
X87047712Y-45828192D01*
X87041262Y-45828474D01*
X79706226Y-45828474D01*
X79658660Y-45811161D01*
X79633350Y-45767324D01*
X79638913Y-45723733D01*
X79685165Y-45622457D01*
X79705647Y-45480000D01*
X79685165Y-45337543D01*
X79625377Y-45206627D01*
X79601814Y-45179434D01*
X79531131Y-45097860D01*
X79531129Y-45097859D01*
X79531128Y-45097857D01*
X79427688Y-45031380D01*
X79410054Y-45020047D01*
X79410050Y-45020046D01*
X79271964Y-44979500D01*
X79271961Y-44979500D01*
X79128039Y-44979500D01*
X79128036Y-44979500D01*
X78984869Y-45021538D01*
X78984511Y-45020321D01*
X78963005Y-45025000D01*
X77586200Y-45025000D01*
X77586200Y-45076828D01*
X77592602Y-45136375D01*
X77592602Y-45136376D01*
X77605419Y-45170741D01*
X77605819Y-45221358D01*
X77573590Y-45260391D01*
X77536084Y-45270600D01*
X77281129Y-45270600D01*
X77266395Y-45273530D01*
X77249692Y-45284691D01*
X77238529Y-45301396D01*
X77235600Y-45316127D01*
X77235600Y-45607332D01*
X77218287Y-45654898D01*
X77174450Y-45680208D01*
X77124600Y-45671418D01*
X77109274Y-45659658D01*
X77066173Y-45616557D01*
X77044781Y-45570681D01*
X77044499Y-45564231D01*
X77044499Y-45316129D01*
X77044499Y-45316127D01*
X77041570Y-45301396D01*
X77030408Y-45284692D01*
X77013704Y-45273530D01*
X77013701Y-45273529D01*
X77013704Y-45273529D01*
X77001416Y-45271085D01*
X76998973Y-45270600D01*
X76998972Y-45270600D01*
X76481029Y-45270600D01*
X76466295Y-45273530D01*
X76449592Y-45284691D01*
X76438429Y-45301396D01*
X76435500Y-45316127D01*
X76435500Y-45834070D01*
X76438430Y-45848804D01*
X76446998Y-45861627D01*
X76449592Y-45865508D01*
X76466296Y-45876670D01*
X76466295Y-45876670D01*
X76469225Y-45877252D01*
X76481027Y-45879600D01*
X76519330Y-45879599D01*
X76566896Y-45896911D01*
X76571657Y-45901273D01*
X77294838Y-46624454D01*
X77304040Y-46635667D01*
X77315359Y-46652607D01*
X77315360Y-46652608D01*
X77335339Y-46665958D01*
X77335340Y-46665958D01*
X77338360Y-46667976D01*
X77338362Y-46667978D01*
X77364518Y-46685455D01*
X77406489Y-46713499D01*
X77486851Y-46729484D01*
X77486852Y-46729484D01*
X77513983Y-46734881D01*
X77513984Y-46734881D01*
X77533968Y-46730905D01*
X77548404Y-46729484D01*
X87711596Y-46729484D01*
X87726032Y-46730905D01*
X87746016Y-46734881D01*
X87746017Y-46734881D01*
X87750638Y-46733961D01*
X87773148Y-46729484D01*
X87773149Y-46729484D01*
X87853511Y-46713499D01*
X87895481Y-46685455D01*
X87921638Y-46667978D01*
X87921638Y-46667977D01*
X87929652Y-46662623D01*
X87929655Y-46662620D01*
X87944640Y-46652608D01*
X87955964Y-46635658D01*
X87965157Y-46624457D01*
X89457816Y-45131798D01*
X89503691Y-45110407D01*
X89512746Y-45110659D01*
X89512746Y-45110500D01*
X89596134Y-45110500D01*
X89643700Y-45127813D01*
X89669010Y-45171650D01*
X89669381Y-45195031D01*
X89664353Y-45230002D01*
X89684834Y-45372456D01*
X89744623Y-45503375D01*
X89838868Y-45612141D01*
X89838869Y-45612142D01*
X89838872Y-45612145D01*
X89959947Y-45689955D01*
X90066403Y-45721213D01*
X90098035Y-45730501D01*
X90098037Y-45730502D01*
X90098039Y-45730502D01*
X90241963Y-45730502D01*
X90241964Y-45730501D01*
X90380053Y-45689955D01*
X90501128Y-45612145D01*
X90571404Y-45531041D01*
X90615637Y-45506432D01*
X90627329Y-45505502D01*
X90951958Y-45505502D01*
X90999524Y-45522815D01*
X91024834Y-45566652D01*
X91019271Y-45610243D01*
X90974834Y-45707545D01*
X90954353Y-45850000D01*
X90974834Y-45992454D01*
X90974834Y-45992455D01*
X90974835Y-45992457D01*
X90997709Y-46042543D01*
X91034623Y-46123373D01*
X91128868Y-46232139D01*
X91128869Y-46232140D01*
X91128872Y-46232143D01*
X91249947Y-46309953D01*
X91356403Y-46341211D01*
X91388035Y-46350499D01*
X91388037Y-46350500D01*
X91388039Y-46350500D01*
X91531963Y-46350500D01*
X91531964Y-46350499D01*
X91670053Y-46309953D01*
X91791128Y-46232143D01*
X91861404Y-46151039D01*
X91905637Y-46126430D01*
X91917329Y-46125500D01*
X96943866Y-46125500D01*
X96991432Y-46142813D01*
X97016742Y-46186650D01*
X97017107Y-46188937D01*
X97020195Y-46210407D01*
X97029834Y-46277454D01*
X97029834Y-46277455D01*
X97029835Y-46277457D01*
X97063193Y-46350499D01*
X97089623Y-46408373D01*
X97183868Y-46517139D01*
X97183869Y-46517140D01*
X97183872Y-46517143D01*
X97304947Y-46594953D01*
X97405413Y-46624452D01*
X97443035Y-46635499D01*
X97443037Y-46635500D01*
X97443039Y-46635500D01*
X97586963Y-46635500D01*
X97586964Y-46635499D01*
X97593166Y-46633678D01*
X97725053Y-46594953D01*
X97846128Y-46517143D01*
X97940377Y-46408373D01*
X98000165Y-46277457D01*
X98020647Y-46135000D01*
X98000165Y-45992543D01*
X97940377Y-45861627D01*
X97874919Y-45786084D01*
X97846131Y-45752860D01*
X97846129Y-45752859D01*
X97846128Y-45752857D01*
X97777095Y-45708492D01*
X97725054Y-45675047D01*
X97725050Y-45675046D01*
X97641468Y-45650504D01*
X97600706Y-45620492D01*
X97588772Y-45571300D01*
X97611250Y-45525946D01*
X97657623Y-45505651D01*
X97662316Y-45505502D01*
X98415234Y-45505502D01*
X98462800Y-45522815D01*
X98467560Y-45527176D01*
X98997745Y-46057361D01*
X99019137Y-46103237D01*
X99018666Y-46120217D01*
X99009353Y-46184999D01*
X99009353Y-46185000D01*
X99013006Y-46210407D01*
X99029834Y-46327454D01*
X99089623Y-46458373D01*
X99183868Y-46567139D01*
X99183869Y-46567140D01*
X99183872Y-46567143D01*
X99273047Y-46624452D01*
X99290497Y-46635667D01*
X99304947Y-46644953D01*
X99383364Y-46667978D01*
X99443035Y-46685499D01*
X99443037Y-46685500D01*
X99443039Y-46685500D01*
X99586963Y-46685500D01*
X99586964Y-46685499D01*
X99587114Y-46685455D01*
X99725053Y-46644953D01*
X99846128Y-46567143D01*
X99940377Y-46458373D01*
X100000165Y-46327457D01*
X100020647Y-46185000D01*
X100000165Y-46042543D01*
X99940377Y-45911627D01*
X99884974Y-45847688D01*
X99846131Y-45802860D01*
X99846129Y-45802859D01*
X99846128Y-45802857D01*
X99781198Y-45761129D01*
X99725054Y-45725047D01*
X99725050Y-45725046D01*
X99586964Y-45684500D01*
X99586961Y-45684500D01*
X99443039Y-45684500D01*
X99437747Y-45684500D01*
X99437747Y-45682466D01*
X99396114Y-45673746D01*
X99382816Y-45663200D01*
X98779147Y-45059531D01*
X98769944Y-45048316D01*
X98758628Y-45031380D01*
X98758626Y-45031378D01*
X98738646Y-45018027D01*
X98738643Y-45018025D01*
X98729703Y-45012051D01*
X98699184Y-44991660D01*
X98675601Y-44975902D01*
X98667498Y-44970487D01*
X98667499Y-44970487D01*
X98627316Y-44962494D01*
X98587135Y-44954502D01*
X98587134Y-44954502D01*
X98587132Y-44954501D01*
X98560003Y-44949105D01*
X98560002Y-44949105D01*
X98540019Y-44953080D01*
X98525582Y-44954502D01*
X98364248Y-44954502D01*
X98316682Y-44937189D01*
X98291372Y-44893352D01*
X98299453Y-44847520D01*
X98298560Y-44847074D01*
X98298561Y-44847072D01*
X98299775Y-44845695D01*
X98300162Y-44843502D01*
X98323143Y-44818968D01*
X98323380Y-44818809D01*
X98338624Y-44808624D01*
X98349944Y-44791681D01*
X98359141Y-44780474D01*
X98882816Y-44256798D01*
X98928691Y-44235407D01*
X98937746Y-44235659D01*
X98937746Y-44235500D01*
X99086963Y-44235500D01*
X99086964Y-44235499D01*
X99225053Y-44194953D01*
X99346128Y-44117143D01*
X99440377Y-44008373D01*
X99500165Y-43877457D01*
X99520647Y-43735000D01*
X99500165Y-43592543D01*
X99440377Y-43461627D01*
X99346128Y-43352857D01*
X99289182Y-43316260D01*
X99225054Y-43275047D01*
X99225050Y-43275046D01*
X99086964Y-43234500D01*
X99086961Y-43234500D01*
X98943039Y-43234500D01*
X98943036Y-43234500D01*
X98804949Y-43275046D01*
X98804945Y-43275047D01*
X98683875Y-43352855D01*
X98683868Y-43352860D01*
X98589622Y-43461627D01*
X98582312Y-43477635D01*
X98546804Y-43513710D01*
X98496414Y-43518521D01*
X98454721Y-43489816D01*
X98447688Y-43477635D01*
X98440377Y-43461627D01*
X98346131Y-43352860D01*
X98346129Y-43352859D01*
X98346128Y-43352857D01*
X98289182Y-43316260D01*
X98225054Y-43275047D01*
X98225050Y-43275046D01*
X98086964Y-43234500D01*
X98086961Y-43234500D01*
X97943039Y-43234500D01*
X97937747Y-43234500D01*
X97937747Y-43232466D01*
X97896114Y-43223746D01*
X97882816Y-43213200D01*
X97859145Y-43189529D01*
X97849942Y-43178314D01*
X97838626Y-43161378D01*
X97838624Y-43161376D01*
X97835222Y-43159103D01*
X97818644Y-43148026D01*
X97818639Y-43148021D01*
X97789465Y-43128528D01*
X97747495Y-43100485D01*
X97747495Y-43100484D01*
X97667133Y-43084500D01*
X97667132Y-43084500D01*
X97667130Y-43084499D01*
X97640001Y-43079103D01*
X97640000Y-43079103D01*
X97620017Y-43083078D01*
X97605580Y-43084500D01*
X85614404Y-43084500D01*
X85599968Y-43083078D01*
X85579984Y-43079103D01*
X85579983Y-43079103D01*
X85552852Y-43084500D01*
X85552851Y-43084500D01*
X85536867Y-43087679D01*
X85472490Y-43100484D01*
X85472488Y-43100485D01*
X85430517Y-43128528D01*
X85404362Y-43146005D01*
X85381359Y-43161376D01*
X85381358Y-43161377D01*
X85370037Y-43178319D01*
X85360837Y-43189529D01*
X84959166Y-43591200D01*
X84913290Y-43612592D01*
X84904237Y-43612341D01*
X84904237Y-43612500D01*
X84749731Y-43612500D01*
X84749731Y-43610466D01*
X84708098Y-43601746D01*
X84694800Y-43591200D01*
X84373129Y-43269529D01*
X84363926Y-43258314D01*
X84352610Y-43241378D01*
X84352608Y-43241376D01*
X84339273Y-43232466D01*
X84332628Y-43228026D01*
X84332623Y-43228021D01*
X84303449Y-43208528D01*
X84261479Y-43180485D01*
X84250590Y-43178319D01*
X84181117Y-43164500D01*
X84181116Y-43164500D01*
X84181114Y-43164499D01*
X84153985Y-43159103D01*
X84153984Y-43159103D01*
X84134001Y-43163078D01*
X84119564Y-43164500D01*
X75604416Y-43164500D01*
X75589980Y-43163078D01*
X75570001Y-43159104D01*
X75569997Y-43159104D01*
X75545306Y-43164015D01*
X75545300Y-43164016D01*
X75462504Y-43180485D01*
X75396305Y-43224718D01*
X75371376Y-43241375D01*
X75371374Y-43241377D01*
X75360053Y-43258319D01*
X75350853Y-43269529D01*
X74971656Y-43648726D01*
X74925780Y-43670118D01*
X74919332Y-43670400D01*
X74880830Y-43670400D01*
X74866095Y-43673330D01*
X74849392Y-43684491D01*
X74838229Y-43701196D01*
X74835300Y-43715927D01*
X74835300Y-43955410D01*
X74817987Y-44002976D01*
X74782429Y-44024895D01*
X74782761Y-44025784D01*
X74643712Y-44077645D01*
X74643711Y-44077646D01*
X74528611Y-44163811D01*
X74442446Y-44278911D01*
X74442445Y-44278912D01*
X74392203Y-44413619D01*
X74392202Y-44413624D01*
X74385800Y-44473171D01*
X74385800Y-44525000D01*
X54826445Y-44525000D01*
X54856705Y-44494740D01*
X54745019Y-44425589D01*
X54745009Y-44425584D01*
X54540408Y-44346321D01*
X54324717Y-44306000D01*
X54105282Y-44306000D01*
X53889591Y-44346321D01*
X53684990Y-44425584D01*
X53684974Y-44425591D01*
X53573293Y-44494740D01*
X54057753Y-44979200D01*
X54079145Y-45025076D01*
X54066044Y-45073971D01*
X54037535Y-45098198D01*
X53970035Y-45130704D01*
X53875014Y-45218871D01*
X53819026Y-45315844D01*
X53780250Y-45348381D01*
X53729631Y-45348380D01*
X53702615Y-45331169D01*
X53217561Y-44846115D01*
X53204031Y-44864033D01*
X53204030Y-44864035D01*
X53106223Y-45060458D01*
X53106221Y-45060463D01*
X53046174Y-45271507D01*
X53046172Y-45271520D01*
X53025928Y-45489996D01*
X53025928Y-45490003D01*
X47840000Y-45490003D01*
X47840000Y-42834500D01*
X47857313Y-42786934D01*
X47901150Y-42761624D01*
X47914000Y-42760500D01*
X105606000Y-42760500D01*
X105653566Y-42777813D01*
G37*
%TD.AperFunction*%
%TD*%
M02*
