%TF.GenerationSoftware,KiCad,Pcbnew,7.0.7-7.0.7~ubuntu22.04.1*%
%TF.CreationDate,2023-09-16T17:49:40-05:00*%
%TF.ProjectId,TOF_PANELIZED,544f465f-5041-44e4-954c-495a45442e6b,000*%
%TF.SameCoordinates,Original*%
%TF.FileFunction,Legend,Top*%
%TF.FilePolarity,Positive*%
%FSLAX46Y46*%
G04 Gerber Fmt 4.6, Leading zero omitted, Abs format (unit mm)*
G04 Created by KiCad (PCBNEW 7.0.7-7.0.7~ubuntu22.04.1) date 2023-09-16 17:49:40*
%MOMM*%
%LPD*%
G01*
G04 APERTURE LIST*
%ADD10C,0.150000*%
%ADD11C,0.127000*%
%ADD12C,0.120000*%
%ADD13C,0.200000*%
G04 APERTURE END LIST*
D10*
X62674761Y-65712295D02*
X63131904Y-65712295D01*
X62903332Y-66512295D02*
X62903332Y-65712295D01*
X63512856Y-66512295D02*
X63436666Y-66474200D01*
X63436666Y-66474200D02*
X63398571Y-66436104D01*
X63398571Y-66436104D02*
X63360475Y-66359914D01*
X63360475Y-66359914D02*
X63360475Y-66131342D01*
X63360475Y-66131342D02*
X63398571Y-66055152D01*
X63398571Y-66055152D02*
X63436666Y-66017057D01*
X63436666Y-66017057D02*
X63512856Y-65978961D01*
X63512856Y-65978961D02*
X63627142Y-65978961D01*
X63627142Y-65978961D02*
X63703333Y-66017057D01*
X63703333Y-66017057D02*
X63741428Y-66055152D01*
X63741428Y-66055152D02*
X63779523Y-66131342D01*
X63779523Y-66131342D02*
X63779523Y-66359914D01*
X63779523Y-66359914D02*
X63741428Y-66436104D01*
X63741428Y-66436104D02*
X63703333Y-66474200D01*
X63703333Y-66474200D02*
X63627142Y-66512295D01*
X63627142Y-66512295D02*
X63512856Y-66512295D01*
X64389047Y-66093247D02*
X64122381Y-66093247D01*
X64122381Y-66512295D02*
X64122381Y-65712295D01*
X64122381Y-65712295D02*
X64503333Y-65712295D01*
X64617619Y-66588485D02*
X65227142Y-66588485D01*
X65341428Y-65978961D02*
X65531904Y-66512295D01*
X65531904Y-66512295D02*
X65722381Y-65978961D01*
X65989047Y-65788485D02*
X66027143Y-65750390D01*
X66027143Y-65750390D02*
X66103333Y-65712295D01*
X66103333Y-65712295D02*
X66293809Y-65712295D01*
X66293809Y-65712295D02*
X66370000Y-65750390D01*
X66370000Y-65750390D02*
X66408095Y-65788485D01*
X66408095Y-65788485D02*
X66446190Y-65864676D01*
X66446190Y-65864676D02*
X66446190Y-65940866D01*
X66446190Y-65940866D02*
X66408095Y-66055152D01*
X66408095Y-66055152D02*
X65950952Y-66512295D01*
X65950952Y-66512295D02*
X66446190Y-66512295D01*
X66789048Y-66436104D02*
X66827143Y-66474200D01*
X66827143Y-66474200D02*
X66789048Y-66512295D01*
X66789048Y-66512295D02*
X66750952Y-66474200D01*
X66750952Y-66474200D02*
X66789048Y-66436104D01*
X66789048Y-66436104D02*
X66789048Y-66512295D01*
X67322381Y-65712295D02*
X67398571Y-65712295D01*
X67398571Y-65712295D02*
X67474762Y-65750390D01*
X67474762Y-65750390D02*
X67512857Y-65788485D01*
X67512857Y-65788485D02*
X67550952Y-65864676D01*
X67550952Y-65864676D02*
X67589047Y-66017057D01*
X67589047Y-66017057D02*
X67589047Y-66207533D01*
X67589047Y-66207533D02*
X67550952Y-66359914D01*
X67550952Y-66359914D02*
X67512857Y-66436104D01*
X67512857Y-66436104D02*
X67474762Y-66474200D01*
X67474762Y-66474200D02*
X67398571Y-66512295D01*
X67398571Y-66512295D02*
X67322381Y-66512295D01*
X67322381Y-66512295D02*
X67246190Y-66474200D01*
X67246190Y-66474200D02*
X67208095Y-66436104D01*
X67208095Y-66436104D02*
X67170000Y-66359914D01*
X67170000Y-66359914D02*
X67131904Y-66207533D01*
X67131904Y-66207533D02*
X67131904Y-66017057D01*
X67131904Y-66017057D02*
X67170000Y-65864676D01*
X67170000Y-65864676D02*
X67208095Y-65788485D01*
X67208095Y-65788485D02*
X67246190Y-65750390D01*
X67246190Y-65750390D02*
X67322381Y-65712295D01*
X50829048Y-45808866D02*
X51590953Y-45808866D01*
X62674761Y-43362295D02*
X63131904Y-43362295D01*
X62903332Y-44162295D02*
X62903332Y-43362295D01*
X63512856Y-44162295D02*
X63436666Y-44124200D01*
X63436666Y-44124200D02*
X63398571Y-44086104D01*
X63398571Y-44086104D02*
X63360475Y-44009914D01*
X63360475Y-44009914D02*
X63360475Y-43781342D01*
X63360475Y-43781342D02*
X63398571Y-43705152D01*
X63398571Y-43705152D02*
X63436666Y-43667057D01*
X63436666Y-43667057D02*
X63512856Y-43628961D01*
X63512856Y-43628961D02*
X63627142Y-43628961D01*
X63627142Y-43628961D02*
X63703333Y-43667057D01*
X63703333Y-43667057D02*
X63741428Y-43705152D01*
X63741428Y-43705152D02*
X63779523Y-43781342D01*
X63779523Y-43781342D02*
X63779523Y-44009914D01*
X63779523Y-44009914D02*
X63741428Y-44086104D01*
X63741428Y-44086104D02*
X63703333Y-44124200D01*
X63703333Y-44124200D02*
X63627142Y-44162295D01*
X63627142Y-44162295D02*
X63512856Y-44162295D01*
X64389047Y-43743247D02*
X64122381Y-43743247D01*
X64122381Y-44162295D02*
X64122381Y-43362295D01*
X64122381Y-43362295D02*
X64503333Y-43362295D01*
X64617619Y-44238485D02*
X65227142Y-44238485D01*
X65341428Y-43628961D02*
X65531904Y-44162295D01*
X65531904Y-44162295D02*
X65722381Y-43628961D01*
X65989047Y-43438485D02*
X66027143Y-43400390D01*
X66027143Y-43400390D02*
X66103333Y-43362295D01*
X66103333Y-43362295D02*
X66293809Y-43362295D01*
X66293809Y-43362295D02*
X66370000Y-43400390D01*
X66370000Y-43400390D02*
X66408095Y-43438485D01*
X66408095Y-43438485D02*
X66446190Y-43514676D01*
X66446190Y-43514676D02*
X66446190Y-43590866D01*
X66446190Y-43590866D02*
X66408095Y-43705152D01*
X66408095Y-43705152D02*
X65950952Y-44162295D01*
X65950952Y-44162295D02*
X66446190Y-44162295D01*
X66789048Y-44086104D02*
X66827143Y-44124200D01*
X66827143Y-44124200D02*
X66789048Y-44162295D01*
X66789048Y-44162295D02*
X66750952Y-44124200D01*
X66750952Y-44124200D02*
X66789048Y-44086104D01*
X66789048Y-44086104D02*
X66789048Y-44162295D01*
X67322381Y-43362295D02*
X67398571Y-43362295D01*
X67398571Y-43362295D02*
X67474762Y-43400390D01*
X67474762Y-43400390D02*
X67512857Y-43438485D01*
X67512857Y-43438485D02*
X67550952Y-43514676D01*
X67550952Y-43514676D02*
X67589047Y-43667057D01*
X67589047Y-43667057D02*
X67589047Y-43857533D01*
X67589047Y-43857533D02*
X67550952Y-44009914D01*
X67550952Y-44009914D02*
X67512857Y-44086104D01*
X67512857Y-44086104D02*
X67474762Y-44124200D01*
X67474762Y-44124200D02*
X67398571Y-44162295D01*
X67398571Y-44162295D02*
X67322381Y-44162295D01*
X67322381Y-44162295D02*
X67246190Y-44124200D01*
X67246190Y-44124200D02*
X67208095Y-44086104D01*
X67208095Y-44086104D02*
X67170000Y-44009914D01*
X67170000Y-44009914D02*
X67131904Y-43857533D01*
X67131904Y-43857533D02*
X67131904Y-43667057D01*
X67131904Y-43667057D02*
X67170000Y-43514676D01*
X67170000Y-43514676D02*
X67208095Y-43438485D01*
X67208095Y-43438485D02*
X67246190Y-43400390D01*
X67246190Y-43400390D02*
X67322381Y-43362295D01*
X62674761Y-28462295D02*
X63131904Y-28462295D01*
X62903332Y-29262295D02*
X62903332Y-28462295D01*
X63512856Y-29262295D02*
X63436666Y-29224200D01*
X63436666Y-29224200D02*
X63398571Y-29186104D01*
X63398571Y-29186104D02*
X63360475Y-29109914D01*
X63360475Y-29109914D02*
X63360475Y-28881342D01*
X63360475Y-28881342D02*
X63398571Y-28805152D01*
X63398571Y-28805152D02*
X63436666Y-28767057D01*
X63436666Y-28767057D02*
X63512856Y-28728961D01*
X63512856Y-28728961D02*
X63627142Y-28728961D01*
X63627142Y-28728961D02*
X63703333Y-28767057D01*
X63703333Y-28767057D02*
X63741428Y-28805152D01*
X63741428Y-28805152D02*
X63779523Y-28881342D01*
X63779523Y-28881342D02*
X63779523Y-29109914D01*
X63779523Y-29109914D02*
X63741428Y-29186104D01*
X63741428Y-29186104D02*
X63703333Y-29224200D01*
X63703333Y-29224200D02*
X63627142Y-29262295D01*
X63627142Y-29262295D02*
X63512856Y-29262295D01*
X64389047Y-28843247D02*
X64122381Y-28843247D01*
X64122381Y-29262295D02*
X64122381Y-28462295D01*
X64122381Y-28462295D02*
X64503333Y-28462295D01*
X64617619Y-29338485D02*
X65227142Y-29338485D01*
X65341428Y-28728961D02*
X65531904Y-29262295D01*
X65531904Y-29262295D02*
X65722381Y-28728961D01*
X65989047Y-28538485D02*
X66027143Y-28500390D01*
X66027143Y-28500390D02*
X66103333Y-28462295D01*
X66103333Y-28462295D02*
X66293809Y-28462295D01*
X66293809Y-28462295D02*
X66370000Y-28500390D01*
X66370000Y-28500390D02*
X66408095Y-28538485D01*
X66408095Y-28538485D02*
X66446190Y-28614676D01*
X66446190Y-28614676D02*
X66446190Y-28690866D01*
X66446190Y-28690866D02*
X66408095Y-28805152D01*
X66408095Y-28805152D02*
X65950952Y-29262295D01*
X65950952Y-29262295D02*
X66446190Y-29262295D01*
X66789048Y-29186104D02*
X66827143Y-29224200D01*
X66827143Y-29224200D02*
X66789048Y-29262295D01*
X66789048Y-29262295D02*
X66750952Y-29224200D01*
X66750952Y-29224200D02*
X66789048Y-29186104D01*
X66789048Y-29186104D02*
X66789048Y-29262295D01*
X67322381Y-28462295D02*
X67398571Y-28462295D01*
X67398571Y-28462295D02*
X67474762Y-28500390D01*
X67474762Y-28500390D02*
X67512857Y-28538485D01*
X67512857Y-28538485D02*
X67550952Y-28614676D01*
X67550952Y-28614676D02*
X67589047Y-28767057D01*
X67589047Y-28767057D02*
X67589047Y-28957533D01*
X67589047Y-28957533D02*
X67550952Y-29109914D01*
X67550952Y-29109914D02*
X67512857Y-29186104D01*
X67512857Y-29186104D02*
X67474762Y-29224200D01*
X67474762Y-29224200D02*
X67398571Y-29262295D01*
X67398571Y-29262295D02*
X67322381Y-29262295D01*
X67322381Y-29262295D02*
X67246190Y-29224200D01*
X67246190Y-29224200D02*
X67208095Y-29186104D01*
X67208095Y-29186104D02*
X67170000Y-29109914D01*
X67170000Y-29109914D02*
X67131904Y-28957533D01*
X67131904Y-28957533D02*
X67131904Y-28767057D01*
X67131904Y-28767057D02*
X67170000Y-28614676D01*
X67170000Y-28614676D02*
X67208095Y-28538485D01*
X67208095Y-28538485D02*
X67246190Y-28500390D01*
X67246190Y-28500390D02*
X67322381Y-28462295D01*
X62674761Y-35912295D02*
X63131904Y-35912295D01*
X62903332Y-36712295D02*
X62903332Y-35912295D01*
X63512856Y-36712295D02*
X63436666Y-36674200D01*
X63436666Y-36674200D02*
X63398571Y-36636104D01*
X63398571Y-36636104D02*
X63360475Y-36559914D01*
X63360475Y-36559914D02*
X63360475Y-36331342D01*
X63360475Y-36331342D02*
X63398571Y-36255152D01*
X63398571Y-36255152D02*
X63436666Y-36217057D01*
X63436666Y-36217057D02*
X63512856Y-36178961D01*
X63512856Y-36178961D02*
X63627142Y-36178961D01*
X63627142Y-36178961D02*
X63703333Y-36217057D01*
X63703333Y-36217057D02*
X63741428Y-36255152D01*
X63741428Y-36255152D02*
X63779523Y-36331342D01*
X63779523Y-36331342D02*
X63779523Y-36559914D01*
X63779523Y-36559914D02*
X63741428Y-36636104D01*
X63741428Y-36636104D02*
X63703333Y-36674200D01*
X63703333Y-36674200D02*
X63627142Y-36712295D01*
X63627142Y-36712295D02*
X63512856Y-36712295D01*
X64389047Y-36293247D02*
X64122381Y-36293247D01*
X64122381Y-36712295D02*
X64122381Y-35912295D01*
X64122381Y-35912295D02*
X64503333Y-35912295D01*
X64617619Y-36788485D02*
X65227142Y-36788485D01*
X65341428Y-36178961D02*
X65531904Y-36712295D01*
X65531904Y-36712295D02*
X65722381Y-36178961D01*
X65989047Y-35988485D02*
X66027143Y-35950390D01*
X66027143Y-35950390D02*
X66103333Y-35912295D01*
X66103333Y-35912295D02*
X66293809Y-35912295D01*
X66293809Y-35912295D02*
X66370000Y-35950390D01*
X66370000Y-35950390D02*
X66408095Y-35988485D01*
X66408095Y-35988485D02*
X66446190Y-36064676D01*
X66446190Y-36064676D02*
X66446190Y-36140866D01*
X66446190Y-36140866D02*
X66408095Y-36255152D01*
X66408095Y-36255152D02*
X65950952Y-36712295D01*
X65950952Y-36712295D02*
X66446190Y-36712295D01*
X66789048Y-36636104D02*
X66827143Y-36674200D01*
X66827143Y-36674200D02*
X66789048Y-36712295D01*
X66789048Y-36712295D02*
X66750952Y-36674200D01*
X66750952Y-36674200D02*
X66789048Y-36636104D01*
X66789048Y-36636104D02*
X66789048Y-36712295D01*
X67322381Y-35912295D02*
X67398571Y-35912295D01*
X67398571Y-35912295D02*
X67474762Y-35950390D01*
X67474762Y-35950390D02*
X67512857Y-35988485D01*
X67512857Y-35988485D02*
X67550952Y-36064676D01*
X67550952Y-36064676D02*
X67589047Y-36217057D01*
X67589047Y-36217057D02*
X67589047Y-36407533D01*
X67589047Y-36407533D02*
X67550952Y-36559914D01*
X67550952Y-36559914D02*
X67512857Y-36636104D01*
X67512857Y-36636104D02*
X67474762Y-36674200D01*
X67474762Y-36674200D02*
X67398571Y-36712295D01*
X67398571Y-36712295D02*
X67322381Y-36712295D01*
X67322381Y-36712295D02*
X67246190Y-36674200D01*
X67246190Y-36674200D02*
X67208095Y-36636104D01*
X67208095Y-36636104D02*
X67170000Y-36559914D01*
X67170000Y-36559914D02*
X67131904Y-36407533D01*
X67131904Y-36407533D02*
X67131904Y-36217057D01*
X67131904Y-36217057D02*
X67170000Y-36064676D01*
X67170000Y-36064676D02*
X67208095Y-35988485D01*
X67208095Y-35988485D02*
X67246190Y-35950390D01*
X67246190Y-35950390D02*
X67322381Y-35912295D01*
X58889048Y-53258866D02*
X59650953Y-53258866D01*
X59270000Y-53639819D02*
X59270000Y-52877914D01*
X58889048Y-30908866D02*
X59650953Y-30908866D01*
X59270000Y-31289819D02*
X59270000Y-30527914D01*
X50829048Y-68158866D02*
X51590953Y-68158866D01*
X50829048Y-38358866D02*
X51590953Y-38358866D01*
X62674761Y-58262295D02*
X63131904Y-58262295D01*
X62903332Y-59062295D02*
X62903332Y-58262295D01*
X63512856Y-59062295D02*
X63436666Y-59024200D01*
X63436666Y-59024200D02*
X63398571Y-58986104D01*
X63398571Y-58986104D02*
X63360475Y-58909914D01*
X63360475Y-58909914D02*
X63360475Y-58681342D01*
X63360475Y-58681342D02*
X63398571Y-58605152D01*
X63398571Y-58605152D02*
X63436666Y-58567057D01*
X63436666Y-58567057D02*
X63512856Y-58528961D01*
X63512856Y-58528961D02*
X63627142Y-58528961D01*
X63627142Y-58528961D02*
X63703333Y-58567057D01*
X63703333Y-58567057D02*
X63741428Y-58605152D01*
X63741428Y-58605152D02*
X63779523Y-58681342D01*
X63779523Y-58681342D02*
X63779523Y-58909914D01*
X63779523Y-58909914D02*
X63741428Y-58986104D01*
X63741428Y-58986104D02*
X63703333Y-59024200D01*
X63703333Y-59024200D02*
X63627142Y-59062295D01*
X63627142Y-59062295D02*
X63512856Y-59062295D01*
X64389047Y-58643247D02*
X64122381Y-58643247D01*
X64122381Y-59062295D02*
X64122381Y-58262295D01*
X64122381Y-58262295D02*
X64503333Y-58262295D01*
X64617619Y-59138485D02*
X65227142Y-59138485D01*
X65341428Y-58528961D02*
X65531904Y-59062295D01*
X65531904Y-59062295D02*
X65722381Y-58528961D01*
X65989047Y-58338485D02*
X66027143Y-58300390D01*
X66027143Y-58300390D02*
X66103333Y-58262295D01*
X66103333Y-58262295D02*
X66293809Y-58262295D01*
X66293809Y-58262295D02*
X66370000Y-58300390D01*
X66370000Y-58300390D02*
X66408095Y-58338485D01*
X66408095Y-58338485D02*
X66446190Y-58414676D01*
X66446190Y-58414676D02*
X66446190Y-58490866D01*
X66446190Y-58490866D02*
X66408095Y-58605152D01*
X66408095Y-58605152D02*
X65950952Y-59062295D01*
X65950952Y-59062295D02*
X66446190Y-59062295D01*
X66789048Y-58986104D02*
X66827143Y-59024200D01*
X66827143Y-59024200D02*
X66789048Y-59062295D01*
X66789048Y-59062295D02*
X66750952Y-59024200D01*
X66750952Y-59024200D02*
X66789048Y-58986104D01*
X66789048Y-58986104D02*
X66789048Y-59062295D01*
X67322381Y-58262295D02*
X67398571Y-58262295D01*
X67398571Y-58262295D02*
X67474762Y-58300390D01*
X67474762Y-58300390D02*
X67512857Y-58338485D01*
X67512857Y-58338485D02*
X67550952Y-58414676D01*
X67550952Y-58414676D02*
X67589047Y-58567057D01*
X67589047Y-58567057D02*
X67589047Y-58757533D01*
X67589047Y-58757533D02*
X67550952Y-58909914D01*
X67550952Y-58909914D02*
X67512857Y-58986104D01*
X67512857Y-58986104D02*
X67474762Y-59024200D01*
X67474762Y-59024200D02*
X67398571Y-59062295D01*
X67398571Y-59062295D02*
X67322381Y-59062295D01*
X67322381Y-59062295D02*
X67246190Y-59024200D01*
X67246190Y-59024200D02*
X67208095Y-58986104D01*
X67208095Y-58986104D02*
X67170000Y-58909914D01*
X67170000Y-58909914D02*
X67131904Y-58757533D01*
X67131904Y-58757533D02*
X67131904Y-58567057D01*
X67131904Y-58567057D02*
X67170000Y-58414676D01*
X67170000Y-58414676D02*
X67208095Y-58338485D01*
X67208095Y-58338485D02*
X67246190Y-58300390D01*
X67246190Y-58300390D02*
X67322381Y-58262295D01*
X58889048Y-38358866D02*
X59650953Y-38358866D01*
X59270000Y-38739819D02*
X59270000Y-37977914D01*
X58889048Y-45808866D02*
X59650953Y-45808866D01*
X59270000Y-46189819D02*
X59270000Y-45427914D01*
X50829048Y-53258866D02*
X51590953Y-53258866D01*
X50829048Y-30908866D02*
X51590953Y-30908866D01*
X50829048Y-60708866D02*
X51590953Y-60708866D01*
X62674761Y-50812295D02*
X63131904Y-50812295D01*
X62903332Y-51612295D02*
X62903332Y-50812295D01*
X63512856Y-51612295D02*
X63436666Y-51574200D01*
X63436666Y-51574200D02*
X63398571Y-51536104D01*
X63398571Y-51536104D02*
X63360475Y-51459914D01*
X63360475Y-51459914D02*
X63360475Y-51231342D01*
X63360475Y-51231342D02*
X63398571Y-51155152D01*
X63398571Y-51155152D02*
X63436666Y-51117057D01*
X63436666Y-51117057D02*
X63512856Y-51078961D01*
X63512856Y-51078961D02*
X63627142Y-51078961D01*
X63627142Y-51078961D02*
X63703333Y-51117057D01*
X63703333Y-51117057D02*
X63741428Y-51155152D01*
X63741428Y-51155152D02*
X63779523Y-51231342D01*
X63779523Y-51231342D02*
X63779523Y-51459914D01*
X63779523Y-51459914D02*
X63741428Y-51536104D01*
X63741428Y-51536104D02*
X63703333Y-51574200D01*
X63703333Y-51574200D02*
X63627142Y-51612295D01*
X63627142Y-51612295D02*
X63512856Y-51612295D01*
X64389047Y-51193247D02*
X64122381Y-51193247D01*
X64122381Y-51612295D02*
X64122381Y-50812295D01*
X64122381Y-50812295D02*
X64503333Y-50812295D01*
X64617619Y-51688485D02*
X65227142Y-51688485D01*
X65341428Y-51078961D02*
X65531904Y-51612295D01*
X65531904Y-51612295D02*
X65722381Y-51078961D01*
X65989047Y-50888485D02*
X66027143Y-50850390D01*
X66027143Y-50850390D02*
X66103333Y-50812295D01*
X66103333Y-50812295D02*
X66293809Y-50812295D01*
X66293809Y-50812295D02*
X66370000Y-50850390D01*
X66370000Y-50850390D02*
X66408095Y-50888485D01*
X66408095Y-50888485D02*
X66446190Y-50964676D01*
X66446190Y-50964676D02*
X66446190Y-51040866D01*
X66446190Y-51040866D02*
X66408095Y-51155152D01*
X66408095Y-51155152D02*
X65950952Y-51612295D01*
X65950952Y-51612295D02*
X66446190Y-51612295D01*
X66789048Y-51536104D02*
X66827143Y-51574200D01*
X66827143Y-51574200D02*
X66789048Y-51612295D01*
X66789048Y-51612295D02*
X66750952Y-51574200D01*
X66750952Y-51574200D02*
X66789048Y-51536104D01*
X66789048Y-51536104D02*
X66789048Y-51612295D01*
X67322381Y-50812295D02*
X67398571Y-50812295D01*
X67398571Y-50812295D02*
X67474762Y-50850390D01*
X67474762Y-50850390D02*
X67512857Y-50888485D01*
X67512857Y-50888485D02*
X67550952Y-50964676D01*
X67550952Y-50964676D02*
X67589047Y-51117057D01*
X67589047Y-51117057D02*
X67589047Y-51307533D01*
X67589047Y-51307533D02*
X67550952Y-51459914D01*
X67550952Y-51459914D02*
X67512857Y-51536104D01*
X67512857Y-51536104D02*
X67474762Y-51574200D01*
X67474762Y-51574200D02*
X67398571Y-51612295D01*
X67398571Y-51612295D02*
X67322381Y-51612295D01*
X67322381Y-51612295D02*
X67246190Y-51574200D01*
X67246190Y-51574200D02*
X67208095Y-51536104D01*
X67208095Y-51536104D02*
X67170000Y-51459914D01*
X67170000Y-51459914D02*
X67131904Y-51307533D01*
X67131904Y-51307533D02*
X67131904Y-51117057D01*
X67131904Y-51117057D02*
X67170000Y-50964676D01*
X67170000Y-50964676D02*
X67208095Y-50888485D01*
X67208095Y-50888485D02*
X67246190Y-50850390D01*
X67246190Y-50850390D02*
X67322381Y-50812295D01*
X58889048Y-60708866D02*
X59650953Y-60708866D01*
X59270000Y-61089819D02*
X59270000Y-60327914D01*
X58889048Y-68158866D02*
X59650953Y-68158866D01*
X59270000Y-68539819D02*
X59270000Y-67777914D01*
X50822931Y-65712352D02*
X50822931Y-66284641D01*
X50822931Y-66284641D02*
X50784779Y-66399099D01*
X50784779Y-66399099D02*
X50708473Y-66475405D01*
X50708473Y-66475405D02*
X50594016Y-66513557D01*
X50594016Y-66513557D02*
X50517710Y-66513557D01*
X51166305Y-65788657D02*
X51204458Y-65750505D01*
X51204458Y-65750505D02*
X51280763Y-65712352D01*
X51280763Y-65712352D02*
X51471526Y-65712352D01*
X51471526Y-65712352D02*
X51547831Y-65750505D01*
X51547831Y-65750505D02*
X51585984Y-65788657D01*
X51585984Y-65788657D02*
X51624136Y-65864963D01*
X51624136Y-65864963D02*
X51624136Y-65941268D01*
X51624136Y-65941268D02*
X51585984Y-66055726D01*
X51585984Y-66055726D02*
X51128152Y-66513557D01*
X51128152Y-66513557D02*
X51624136Y-66513557D01*
X83586667Y-61672295D02*
X83320000Y-61291342D01*
X83129524Y-61672295D02*
X83129524Y-60872295D01*
X83129524Y-60872295D02*
X83434286Y-60872295D01*
X83434286Y-60872295D02*
X83510476Y-60910390D01*
X83510476Y-60910390D02*
X83548571Y-60948485D01*
X83548571Y-60948485D02*
X83586667Y-61024676D01*
X83586667Y-61024676D02*
X83586667Y-61138961D01*
X83586667Y-61138961D02*
X83548571Y-61215152D01*
X83548571Y-61215152D02*
X83510476Y-61253247D01*
X83510476Y-61253247D02*
X83434286Y-61291342D01*
X83434286Y-61291342D02*
X83129524Y-61291342D01*
X84348571Y-61672295D02*
X83891428Y-61672295D01*
X84120000Y-61672295D02*
X84120000Y-60872295D01*
X84120000Y-60872295D02*
X84043809Y-60986580D01*
X84043809Y-60986580D02*
X83967619Y-61062771D01*
X83967619Y-61062771D02*
X83891428Y-61100866D01*
X72130476Y-66737295D02*
X72130476Y-67384914D01*
X72130476Y-67384914D02*
X72168571Y-67461104D01*
X72168571Y-67461104D02*
X72206666Y-67499200D01*
X72206666Y-67499200D02*
X72282857Y-67537295D01*
X72282857Y-67537295D02*
X72435238Y-67537295D01*
X72435238Y-67537295D02*
X72511428Y-67499200D01*
X72511428Y-67499200D02*
X72549523Y-67461104D01*
X72549523Y-67461104D02*
X72587619Y-67384914D01*
X72587619Y-67384914D02*
X72587619Y-66737295D01*
X73387618Y-67537295D02*
X72930475Y-67537295D01*
X73159047Y-67537295D02*
X73159047Y-66737295D01*
X73159047Y-66737295D02*
X73082856Y-66851580D01*
X73082856Y-66851580D02*
X73006666Y-66927771D01*
X73006666Y-66927771D02*
X72930475Y-66965866D01*
X92063333Y-28652295D02*
X92063333Y-29223723D01*
X92063333Y-29223723D02*
X92025238Y-29338009D01*
X92025238Y-29338009D02*
X91949047Y-29414200D01*
X91949047Y-29414200D02*
X91834762Y-29452295D01*
X91834762Y-29452295D02*
X91758571Y-29452295D01*
X92863333Y-29452295D02*
X92406190Y-29452295D01*
X92634762Y-29452295D02*
X92634762Y-28652295D01*
X92634762Y-28652295D02*
X92558571Y-28766580D01*
X92558571Y-28766580D02*
X92482381Y-28842771D01*
X92482381Y-28842771D02*
X92406190Y-28880866D01*
X85326667Y-46772295D02*
X85060000Y-46391342D01*
X84869524Y-46772295D02*
X84869524Y-45972295D01*
X84869524Y-45972295D02*
X85174286Y-45972295D01*
X85174286Y-45972295D02*
X85250476Y-46010390D01*
X85250476Y-46010390D02*
X85288571Y-46048485D01*
X85288571Y-46048485D02*
X85326667Y-46124676D01*
X85326667Y-46124676D02*
X85326667Y-46238961D01*
X85326667Y-46238961D02*
X85288571Y-46315152D01*
X85288571Y-46315152D02*
X85250476Y-46353247D01*
X85250476Y-46353247D02*
X85174286Y-46391342D01*
X85174286Y-46391342D02*
X84869524Y-46391342D01*
X85631428Y-46048485D02*
X85669524Y-46010390D01*
X85669524Y-46010390D02*
X85745714Y-45972295D01*
X85745714Y-45972295D02*
X85936190Y-45972295D01*
X85936190Y-45972295D02*
X86012381Y-46010390D01*
X86012381Y-46010390D02*
X86050476Y-46048485D01*
X86050476Y-46048485D02*
X86088571Y-46124676D01*
X86088571Y-46124676D02*
X86088571Y-46200866D01*
X86088571Y-46200866D02*
X86050476Y-46315152D01*
X86050476Y-46315152D02*
X85593333Y-46772295D01*
X85593333Y-46772295D02*
X86088571Y-46772295D01*
X85326667Y-31872295D02*
X85060000Y-31491342D01*
X84869524Y-31872295D02*
X84869524Y-31072295D01*
X84869524Y-31072295D02*
X85174286Y-31072295D01*
X85174286Y-31072295D02*
X85250476Y-31110390D01*
X85250476Y-31110390D02*
X85288571Y-31148485D01*
X85288571Y-31148485D02*
X85326667Y-31224676D01*
X85326667Y-31224676D02*
X85326667Y-31338961D01*
X85326667Y-31338961D02*
X85288571Y-31415152D01*
X85288571Y-31415152D02*
X85250476Y-31453247D01*
X85250476Y-31453247D02*
X85174286Y-31491342D01*
X85174286Y-31491342D02*
X84869524Y-31491342D01*
X85631428Y-31148485D02*
X85669524Y-31110390D01*
X85669524Y-31110390D02*
X85745714Y-31072295D01*
X85745714Y-31072295D02*
X85936190Y-31072295D01*
X85936190Y-31072295D02*
X86012381Y-31110390D01*
X86012381Y-31110390D02*
X86050476Y-31148485D01*
X86050476Y-31148485D02*
X86088571Y-31224676D01*
X86088571Y-31224676D02*
X86088571Y-31300866D01*
X86088571Y-31300866D02*
X86050476Y-31415152D01*
X86050476Y-31415152D02*
X85593333Y-31872295D01*
X85593333Y-31872295D02*
X86088571Y-31872295D01*
X85326667Y-54222295D02*
X85060000Y-53841342D01*
X84869524Y-54222295D02*
X84869524Y-53422295D01*
X84869524Y-53422295D02*
X85174286Y-53422295D01*
X85174286Y-53422295D02*
X85250476Y-53460390D01*
X85250476Y-53460390D02*
X85288571Y-53498485D01*
X85288571Y-53498485D02*
X85326667Y-53574676D01*
X85326667Y-53574676D02*
X85326667Y-53688961D01*
X85326667Y-53688961D02*
X85288571Y-53765152D01*
X85288571Y-53765152D02*
X85250476Y-53803247D01*
X85250476Y-53803247D02*
X85174286Y-53841342D01*
X85174286Y-53841342D02*
X84869524Y-53841342D01*
X85631428Y-53498485D02*
X85669524Y-53460390D01*
X85669524Y-53460390D02*
X85745714Y-53422295D01*
X85745714Y-53422295D02*
X85936190Y-53422295D01*
X85936190Y-53422295D02*
X86012381Y-53460390D01*
X86012381Y-53460390D02*
X86050476Y-53498485D01*
X86050476Y-53498485D02*
X86088571Y-53574676D01*
X86088571Y-53574676D02*
X86088571Y-53650866D01*
X86088571Y-53650866D02*
X86050476Y-53765152D01*
X86050476Y-53765152D02*
X85593333Y-54222295D01*
X85593333Y-54222295D02*
X86088571Y-54222295D01*
X83586667Y-54222295D02*
X83320000Y-53841342D01*
X83129524Y-54222295D02*
X83129524Y-53422295D01*
X83129524Y-53422295D02*
X83434286Y-53422295D01*
X83434286Y-53422295D02*
X83510476Y-53460390D01*
X83510476Y-53460390D02*
X83548571Y-53498485D01*
X83548571Y-53498485D02*
X83586667Y-53574676D01*
X83586667Y-53574676D02*
X83586667Y-53688961D01*
X83586667Y-53688961D02*
X83548571Y-53765152D01*
X83548571Y-53765152D02*
X83510476Y-53803247D01*
X83510476Y-53803247D02*
X83434286Y-53841342D01*
X83434286Y-53841342D02*
X83129524Y-53841342D01*
X84348571Y-54222295D02*
X83891428Y-54222295D01*
X84120000Y-54222295D02*
X84120000Y-53422295D01*
X84120000Y-53422295D02*
X84043809Y-53536580D01*
X84043809Y-53536580D02*
X83967619Y-53612771D01*
X83967619Y-53612771D02*
X83891428Y-53650866D01*
X50822931Y-58262352D02*
X50822931Y-58834641D01*
X50822931Y-58834641D02*
X50784779Y-58949099D01*
X50784779Y-58949099D02*
X50708473Y-59025405D01*
X50708473Y-59025405D02*
X50594016Y-59063557D01*
X50594016Y-59063557D02*
X50517710Y-59063557D01*
X51166305Y-58338657D02*
X51204458Y-58300505D01*
X51204458Y-58300505D02*
X51280763Y-58262352D01*
X51280763Y-58262352D02*
X51471526Y-58262352D01*
X51471526Y-58262352D02*
X51547831Y-58300505D01*
X51547831Y-58300505D02*
X51585984Y-58338657D01*
X51585984Y-58338657D02*
X51624136Y-58414963D01*
X51624136Y-58414963D02*
X51624136Y-58491268D01*
X51624136Y-58491268D02*
X51585984Y-58605726D01*
X51585984Y-58605726D02*
X51128152Y-59063557D01*
X51128152Y-59063557D02*
X51624136Y-59063557D01*
X81846667Y-39246104D02*
X81808571Y-39284200D01*
X81808571Y-39284200D02*
X81694286Y-39322295D01*
X81694286Y-39322295D02*
X81618095Y-39322295D01*
X81618095Y-39322295D02*
X81503809Y-39284200D01*
X81503809Y-39284200D02*
X81427619Y-39208009D01*
X81427619Y-39208009D02*
X81389524Y-39131819D01*
X81389524Y-39131819D02*
X81351428Y-38979438D01*
X81351428Y-38979438D02*
X81351428Y-38865152D01*
X81351428Y-38865152D02*
X81389524Y-38712771D01*
X81389524Y-38712771D02*
X81427619Y-38636580D01*
X81427619Y-38636580D02*
X81503809Y-38560390D01*
X81503809Y-38560390D02*
X81618095Y-38522295D01*
X81618095Y-38522295D02*
X81694286Y-38522295D01*
X81694286Y-38522295D02*
X81808571Y-38560390D01*
X81808571Y-38560390D02*
X81846667Y-38598485D01*
X82151428Y-38598485D02*
X82189524Y-38560390D01*
X82189524Y-38560390D02*
X82265714Y-38522295D01*
X82265714Y-38522295D02*
X82456190Y-38522295D01*
X82456190Y-38522295D02*
X82532381Y-38560390D01*
X82532381Y-38560390D02*
X82570476Y-38598485D01*
X82570476Y-38598485D02*
X82608571Y-38674676D01*
X82608571Y-38674676D02*
X82608571Y-38750866D01*
X82608571Y-38750866D02*
X82570476Y-38865152D01*
X82570476Y-38865152D02*
X82113333Y-39322295D01*
X82113333Y-39322295D02*
X82608571Y-39322295D01*
X81846667Y-69046104D02*
X81808571Y-69084200D01*
X81808571Y-69084200D02*
X81694286Y-69122295D01*
X81694286Y-69122295D02*
X81618095Y-69122295D01*
X81618095Y-69122295D02*
X81503809Y-69084200D01*
X81503809Y-69084200D02*
X81427619Y-69008009D01*
X81427619Y-69008009D02*
X81389524Y-68931819D01*
X81389524Y-68931819D02*
X81351428Y-68779438D01*
X81351428Y-68779438D02*
X81351428Y-68665152D01*
X81351428Y-68665152D02*
X81389524Y-68512771D01*
X81389524Y-68512771D02*
X81427619Y-68436580D01*
X81427619Y-68436580D02*
X81503809Y-68360390D01*
X81503809Y-68360390D02*
X81618095Y-68322295D01*
X81618095Y-68322295D02*
X81694286Y-68322295D01*
X81694286Y-68322295D02*
X81808571Y-68360390D01*
X81808571Y-68360390D02*
X81846667Y-68398485D01*
X82151428Y-68398485D02*
X82189524Y-68360390D01*
X82189524Y-68360390D02*
X82265714Y-68322295D01*
X82265714Y-68322295D02*
X82456190Y-68322295D01*
X82456190Y-68322295D02*
X82532381Y-68360390D01*
X82532381Y-68360390D02*
X82570476Y-68398485D01*
X82570476Y-68398485D02*
X82608571Y-68474676D01*
X82608571Y-68474676D02*
X82608571Y-68550866D01*
X82608571Y-68550866D02*
X82570476Y-68665152D01*
X82570476Y-68665152D02*
X82113333Y-69122295D01*
X82113333Y-69122295D02*
X82608571Y-69122295D01*
X81846667Y-61596104D02*
X81808571Y-61634200D01*
X81808571Y-61634200D02*
X81694286Y-61672295D01*
X81694286Y-61672295D02*
X81618095Y-61672295D01*
X81618095Y-61672295D02*
X81503809Y-61634200D01*
X81503809Y-61634200D02*
X81427619Y-61558009D01*
X81427619Y-61558009D02*
X81389524Y-61481819D01*
X81389524Y-61481819D02*
X81351428Y-61329438D01*
X81351428Y-61329438D02*
X81351428Y-61215152D01*
X81351428Y-61215152D02*
X81389524Y-61062771D01*
X81389524Y-61062771D02*
X81427619Y-60986580D01*
X81427619Y-60986580D02*
X81503809Y-60910390D01*
X81503809Y-60910390D02*
X81618095Y-60872295D01*
X81618095Y-60872295D02*
X81694286Y-60872295D01*
X81694286Y-60872295D02*
X81808571Y-60910390D01*
X81808571Y-60910390D02*
X81846667Y-60948485D01*
X82151428Y-60948485D02*
X82189524Y-60910390D01*
X82189524Y-60910390D02*
X82265714Y-60872295D01*
X82265714Y-60872295D02*
X82456190Y-60872295D01*
X82456190Y-60872295D02*
X82532381Y-60910390D01*
X82532381Y-60910390D02*
X82570476Y-60948485D01*
X82570476Y-60948485D02*
X82608571Y-61024676D01*
X82608571Y-61024676D02*
X82608571Y-61100866D01*
X82608571Y-61100866D02*
X82570476Y-61215152D01*
X82570476Y-61215152D02*
X82113333Y-61672295D01*
X82113333Y-61672295D02*
X82608571Y-61672295D01*
X80106667Y-54146104D02*
X80068571Y-54184200D01*
X80068571Y-54184200D02*
X79954286Y-54222295D01*
X79954286Y-54222295D02*
X79878095Y-54222295D01*
X79878095Y-54222295D02*
X79763809Y-54184200D01*
X79763809Y-54184200D02*
X79687619Y-54108009D01*
X79687619Y-54108009D02*
X79649524Y-54031819D01*
X79649524Y-54031819D02*
X79611428Y-53879438D01*
X79611428Y-53879438D02*
X79611428Y-53765152D01*
X79611428Y-53765152D02*
X79649524Y-53612771D01*
X79649524Y-53612771D02*
X79687619Y-53536580D01*
X79687619Y-53536580D02*
X79763809Y-53460390D01*
X79763809Y-53460390D02*
X79878095Y-53422295D01*
X79878095Y-53422295D02*
X79954286Y-53422295D01*
X79954286Y-53422295D02*
X80068571Y-53460390D01*
X80068571Y-53460390D02*
X80106667Y-53498485D01*
X80868571Y-54222295D02*
X80411428Y-54222295D01*
X80640000Y-54222295D02*
X80640000Y-53422295D01*
X80640000Y-53422295D02*
X80563809Y-53536580D01*
X80563809Y-53536580D02*
X80487619Y-53612771D01*
X80487619Y-53612771D02*
X80411428Y-53650866D01*
X50822931Y-35912352D02*
X50822931Y-36484641D01*
X50822931Y-36484641D02*
X50784779Y-36599099D01*
X50784779Y-36599099D02*
X50708473Y-36675405D01*
X50708473Y-36675405D02*
X50594016Y-36713557D01*
X50594016Y-36713557D02*
X50517710Y-36713557D01*
X51166305Y-35988657D02*
X51204458Y-35950505D01*
X51204458Y-35950505D02*
X51280763Y-35912352D01*
X51280763Y-35912352D02*
X51471526Y-35912352D01*
X51471526Y-35912352D02*
X51547831Y-35950505D01*
X51547831Y-35950505D02*
X51585984Y-35988657D01*
X51585984Y-35988657D02*
X51624136Y-36064963D01*
X51624136Y-36064963D02*
X51624136Y-36141268D01*
X51624136Y-36141268D02*
X51585984Y-36255726D01*
X51585984Y-36255726D02*
X51128152Y-36713557D01*
X51128152Y-36713557D02*
X51624136Y-36713557D01*
X85326667Y-61672295D02*
X85060000Y-61291342D01*
X84869524Y-61672295D02*
X84869524Y-60872295D01*
X84869524Y-60872295D02*
X85174286Y-60872295D01*
X85174286Y-60872295D02*
X85250476Y-60910390D01*
X85250476Y-60910390D02*
X85288571Y-60948485D01*
X85288571Y-60948485D02*
X85326667Y-61024676D01*
X85326667Y-61024676D02*
X85326667Y-61138961D01*
X85326667Y-61138961D02*
X85288571Y-61215152D01*
X85288571Y-61215152D02*
X85250476Y-61253247D01*
X85250476Y-61253247D02*
X85174286Y-61291342D01*
X85174286Y-61291342D02*
X84869524Y-61291342D01*
X85631428Y-60948485D02*
X85669524Y-60910390D01*
X85669524Y-60910390D02*
X85745714Y-60872295D01*
X85745714Y-60872295D02*
X85936190Y-60872295D01*
X85936190Y-60872295D02*
X86012381Y-60910390D01*
X86012381Y-60910390D02*
X86050476Y-60948485D01*
X86050476Y-60948485D02*
X86088571Y-61024676D01*
X86088571Y-61024676D02*
X86088571Y-61100866D01*
X86088571Y-61100866D02*
X86050476Y-61215152D01*
X86050476Y-61215152D02*
X85593333Y-61672295D01*
X85593333Y-61672295D02*
X86088571Y-61672295D01*
X72130476Y-44387295D02*
X72130476Y-45034914D01*
X72130476Y-45034914D02*
X72168571Y-45111104D01*
X72168571Y-45111104D02*
X72206666Y-45149200D01*
X72206666Y-45149200D02*
X72282857Y-45187295D01*
X72282857Y-45187295D02*
X72435238Y-45187295D01*
X72435238Y-45187295D02*
X72511428Y-45149200D01*
X72511428Y-45149200D02*
X72549523Y-45111104D01*
X72549523Y-45111104D02*
X72587619Y-45034914D01*
X72587619Y-45034914D02*
X72587619Y-44387295D01*
X73387618Y-45187295D02*
X72930475Y-45187295D01*
X73159047Y-45187295D02*
X73159047Y-44387295D01*
X73159047Y-44387295D02*
X73082856Y-44501580D01*
X73082856Y-44501580D02*
X73006666Y-44577771D01*
X73006666Y-44577771D02*
X72930475Y-44615866D01*
X83586667Y-46772295D02*
X83320000Y-46391342D01*
X83129524Y-46772295D02*
X83129524Y-45972295D01*
X83129524Y-45972295D02*
X83434286Y-45972295D01*
X83434286Y-45972295D02*
X83510476Y-46010390D01*
X83510476Y-46010390D02*
X83548571Y-46048485D01*
X83548571Y-46048485D02*
X83586667Y-46124676D01*
X83586667Y-46124676D02*
X83586667Y-46238961D01*
X83586667Y-46238961D02*
X83548571Y-46315152D01*
X83548571Y-46315152D02*
X83510476Y-46353247D01*
X83510476Y-46353247D02*
X83434286Y-46391342D01*
X83434286Y-46391342D02*
X83129524Y-46391342D01*
X84348571Y-46772295D02*
X83891428Y-46772295D01*
X84120000Y-46772295D02*
X84120000Y-45972295D01*
X84120000Y-45972295D02*
X84043809Y-46086580D01*
X84043809Y-46086580D02*
X83967619Y-46162771D01*
X83967619Y-46162771D02*
X83891428Y-46200866D01*
X81846667Y-46696104D02*
X81808571Y-46734200D01*
X81808571Y-46734200D02*
X81694286Y-46772295D01*
X81694286Y-46772295D02*
X81618095Y-46772295D01*
X81618095Y-46772295D02*
X81503809Y-46734200D01*
X81503809Y-46734200D02*
X81427619Y-46658009D01*
X81427619Y-46658009D02*
X81389524Y-46581819D01*
X81389524Y-46581819D02*
X81351428Y-46429438D01*
X81351428Y-46429438D02*
X81351428Y-46315152D01*
X81351428Y-46315152D02*
X81389524Y-46162771D01*
X81389524Y-46162771D02*
X81427619Y-46086580D01*
X81427619Y-46086580D02*
X81503809Y-46010390D01*
X81503809Y-46010390D02*
X81618095Y-45972295D01*
X81618095Y-45972295D02*
X81694286Y-45972295D01*
X81694286Y-45972295D02*
X81808571Y-46010390D01*
X81808571Y-46010390D02*
X81846667Y-46048485D01*
X82151428Y-46048485D02*
X82189524Y-46010390D01*
X82189524Y-46010390D02*
X82265714Y-45972295D01*
X82265714Y-45972295D02*
X82456190Y-45972295D01*
X82456190Y-45972295D02*
X82532381Y-46010390D01*
X82532381Y-46010390D02*
X82570476Y-46048485D01*
X82570476Y-46048485D02*
X82608571Y-46124676D01*
X82608571Y-46124676D02*
X82608571Y-46200866D01*
X82608571Y-46200866D02*
X82570476Y-46315152D01*
X82570476Y-46315152D02*
X82113333Y-46772295D01*
X82113333Y-46772295D02*
X82608571Y-46772295D01*
X92063333Y-51002295D02*
X92063333Y-51573723D01*
X92063333Y-51573723D02*
X92025238Y-51688009D01*
X92025238Y-51688009D02*
X91949047Y-51764200D01*
X91949047Y-51764200D02*
X91834762Y-51802295D01*
X91834762Y-51802295D02*
X91758571Y-51802295D01*
X92863333Y-51802295D02*
X92406190Y-51802295D01*
X92634762Y-51802295D02*
X92634762Y-51002295D01*
X92634762Y-51002295D02*
X92558571Y-51116580D01*
X92558571Y-51116580D02*
X92482381Y-51192771D01*
X92482381Y-51192771D02*
X92406190Y-51230866D01*
X50822931Y-28462352D02*
X50822931Y-29034641D01*
X50822931Y-29034641D02*
X50784779Y-29149099D01*
X50784779Y-29149099D02*
X50708473Y-29225405D01*
X50708473Y-29225405D02*
X50594016Y-29263557D01*
X50594016Y-29263557D02*
X50517710Y-29263557D01*
X51166305Y-28538657D02*
X51204458Y-28500505D01*
X51204458Y-28500505D02*
X51280763Y-28462352D01*
X51280763Y-28462352D02*
X51471526Y-28462352D01*
X51471526Y-28462352D02*
X51547831Y-28500505D01*
X51547831Y-28500505D02*
X51585984Y-28538657D01*
X51585984Y-28538657D02*
X51624136Y-28614963D01*
X51624136Y-28614963D02*
X51624136Y-28691268D01*
X51624136Y-28691268D02*
X51585984Y-28805726D01*
X51585984Y-28805726D02*
X51128152Y-29263557D01*
X51128152Y-29263557D02*
X51624136Y-29263557D01*
X72130476Y-29487295D02*
X72130476Y-30134914D01*
X72130476Y-30134914D02*
X72168571Y-30211104D01*
X72168571Y-30211104D02*
X72206666Y-30249200D01*
X72206666Y-30249200D02*
X72282857Y-30287295D01*
X72282857Y-30287295D02*
X72435238Y-30287295D01*
X72435238Y-30287295D02*
X72511428Y-30249200D01*
X72511428Y-30249200D02*
X72549523Y-30211104D01*
X72549523Y-30211104D02*
X72587619Y-30134914D01*
X72587619Y-30134914D02*
X72587619Y-29487295D01*
X73387618Y-30287295D02*
X72930475Y-30287295D01*
X73159047Y-30287295D02*
X73159047Y-29487295D01*
X73159047Y-29487295D02*
X73082856Y-29601580D01*
X73082856Y-29601580D02*
X73006666Y-29677771D01*
X73006666Y-29677771D02*
X72930475Y-29715866D01*
X92063333Y-65902295D02*
X92063333Y-66473723D01*
X92063333Y-66473723D02*
X92025238Y-66588009D01*
X92025238Y-66588009D02*
X91949047Y-66664200D01*
X91949047Y-66664200D02*
X91834762Y-66702295D01*
X91834762Y-66702295D02*
X91758571Y-66702295D01*
X92863333Y-66702295D02*
X92406190Y-66702295D01*
X92634762Y-66702295D02*
X92634762Y-65902295D01*
X92634762Y-65902295D02*
X92558571Y-66016580D01*
X92558571Y-66016580D02*
X92482381Y-66092771D01*
X92482381Y-66092771D02*
X92406190Y-66130866D01*
X92063333Y-58452295D02*
X92063333Y-59023723D01*
X92063333Y-59023723D02*
X92025238Y-59138009D01*
X92025238Y-59138009D02*
X91949047Y-59214200D01*
X91949047Y-59214200D02*
X91834762Y-59252295D01*
X91834762Y-59252295D02*
X91758571Y-59252295D01*
X92863333Y-59252295D02*
X92406190Y-59252295D01*
X92634762Y-59252295D02*
X92634762Y-58452295D01*
X92634762Y-58452295D02*
X92558571Y-58566580D01*
X92558571Y-58566580D02*
X92482381Y-58642771D01*
X92482381Y-58642771D02*
X92406190Y-58680866D01*
X80106667Y-61596104D02*
X80068571Y-61634200D01*
X80068571Y-61634200D02*
X79954286Y-61672295D01*
X79954286Y-61672295D02*
X79878095Y-61672295D01*
X79878095Y-61672295D02*
X79763809Y-61634200D01*
X79763809Y-61634200D02*
X79687619Y-61558009D01*
X79687619Y-61558009D02*
X79649524Y-61481819D01*
X79649524Y-61481819D02*
X79611428Y-61329438D01*
X79611428Y-61329438D02*
X79611428Y-61215152D01*
X79611428Y-61215152D02*
X79649524Y-61062771D01*
X79649524Y-61062771D02*
X79687619Y-60986580D01*
X79687619Y-60986580D02*
X79763809Y-60910390D01*
X79763809Y-60910390D02*
X79878095Y-60872295D01*
X79878095Y-60872295D02*
X79954286Y-60872295D01*
X79954286Y-60872295D02*
X80068571Y-60910390D01*
X80068571Y-60910390D02*
X80106667Y-60948485D01*
X80868571Y-61672295D02*
X80411428Y-61672295D01*
X80640000Y-61672295D02*
X80640000Y-60872295D01*
X80640000Y-60872295D02*
X80563809Y-60986580D01*
X80563809Y-60986580D02*
X80487619Y-61062771D01*
X80487619Y-61062771D02*
X80411428Y-61100866D01*
X83586667Y-69122295D02*
X83320000Y-68741342D01*
X83129524Y-69122295D02*
X83129524Y-68322295D01*
X83129524Y-68322295D02*
X83434286Y-68322295D01*
X83434286Y-68322295D02*
X83510476Y-68360390D01*
X83510476Y-68360390D02*
X83548571Y-68398485D01*
X83548571Y-68398485D02*
X83586667Y-68474676D01*
X83586667Y-68474676D02*
X83586667Y-68588961D01*
X83586667Y-68588961D02*
X83548571Y-68665152D01*
X83548571Y-68665152D02*
X83510476Y-68703247D01*
X83510476Y-68703247D02*
X83434286Y-68741342D01*
X83434286Y-68741342D02*
X83129524Y-68741342D01*
X84348571Y-69122295D02*
X83891428Y-69122295D01*
X84120000Y-69122295D02*
X84120000Y-68322295D01*
X84120000Y-68322295D02*
X84043809Y-68436580D01*
X84043809Y-68436580D02*
X83967619Y-68512771D01*
X83967619Y-68512771D02*
X83891428Y-68550866D01*
X81846667Y-31796104D02*
X81808571Y-31834200D01*
X81808571Y-31834200D02*
X81694286Y-31872295D01*
X81694286Y-31872295D02*
X81618095Y-31872295D01*
X81618095Y-31872295D02*
X81503809Y-31834200D01*
X81503809Y-31834200D02*
X81427619Y-31758009D01*
X81427619Y-31758009D02*
X81389524Y-31681819D01*
X81389524Y-31681819D02*
X81351428Y-31529438D01*
X81351428Y-31529438D02*
X81351428Y-31415152D01*
X81351428Y-31415152D02*
X81389524Y-31262771D01*
X81389524Y-31262771D02*
X81427619Y-31186580D01*
X81427619Y-31186580D02*
X81503809Y-31110390D01*
X81503809Y-31110390D02*
X81618095Y-31072295D01*
X81618095Y-31072295D02*
X81694286Y-31072295D01*
X81694286Y-31072295D02*
X81808571Y-31110390D01*
X81808571Y-31110390D02*
X81846667Y-31148485D01*
X82151428Y-31148485D02*
X82189524Y-31110390D01*
X82189524Y-31110390D02*
X82265714Y-31072295D01*
X82265714Y-31072295D02*
X82456190Y-31072295D01*
X82456190Y-31072295D02*
X82532381Y-31110390D01*
X82532381Y-31110390D02*
X82570476Y-31148485D01*
X82570476Y-31148485D02*
X82608571Y-31224676D01*
X82608571Y-31224676D02*
X82608571Y-31300866D01*
X82608571Y-31300866D02*
X82570476Y-31415152D01*
X82570476Y-31415152D02*
X82113333Y-31872295D01*
X82113333Y-31872295D02*
X82608571Y-31872295D01*
X72130476Y-36937295D02*
X72130476Y-37584914D01*
X72130476Y-37584914D02*
X72168571Y-37661104D01*
X72168571Y-37661104D02*
X72206666Y-37699200D01*
X72206666Y-37699200D02*
X72282857Y-37737295D01*
X72282857Y-37737295D02*
X72435238Y-37737295D01*
X72435238Y-37737295D02*
X72511428Y-37699200D01*
X72511428Y-37699200D02*
X72549523Y-37661104D01*
X72549523Y-37661104D02*
X72587619Y-37584914D01*
X72587619Y-37584914D02*
X72587619Y-36937295D01*
X73387618Y-37737295D02*
X72930475Y-37737295D01*
X73159047Y-37737295D02*
X73159047Y-36937295D01*
X73159047Y-36937295D02*
X73082856Y-37051580D01*
X73082856Y-37051580D02*
X73006666Y-37127771D01*
X73006666Y-37127771D02*
X72930475Y-37165866D01*
X92063333Y-36102295D02*
X92063333Y-36673723D01*
X92063333Y-36673723D02*
X92025238Y-36788009D01*
X92025238Y-36788009D02*
X91949047Y-36864200D01*
X91949047Y-36864200D02*
X91834762Y-36902295D01*
X91834762Y-36902295D02*
X91758571Y-36902295D01*
X92863333Y-36902295D02*
X92406190Y-36902295D01*
X92634762Y-36902295D02*
X92634762Y-36102295D01*
X92634762Y-36102295D02*
X92558571Y-36216580D01*
X92558571Y-36216580D02*
X92482381Y-36292771D01*
X92482381Y-36292771D02*
X92406190Y-36330866D01*
X85326667Y-69122295D02*
X85060000Y-68741342D01*
X84869524Y-69122295D02*
X84869524Y-68322295D01*
X84869524Y-68322295D02*
X85174286Y-68322295D01*
X85174286Y-68322295D02*
X85250476Y-68360390D01*
X85250476Y-68360390D02*
X85288571Y-68398485D01*
X85288571Y-68398485D02*
X85326667Y-68474676D01*
X85326667Y-68474676D02*
X85326667Y-68588961D01*
X85326667Y-68588961D02*
X85288571Y-68665152D01*
X85288571Y-68665152D02*
X85250476Y-68703247D01*
X85250476Y-68703247D02*
X85174286Y-68741342D01*
X85174286Y-68741342D02*
X84869524Y-68741342D01*
X85631428Y-68398485D02*
X85669524Y-68360390D01*
X85669524Y-68360390D02*
X85745714Y-68322295D01*
X85745714Y-68322295D02*
X85936190Y-68322295D01*
X85936190Y-68322295D02*
X86012381Y-68360390D01*
X86012381Y-68360390D02*
X86050476Y-68398485D01*
X86050476Y-68398485D02*
X86088571Y-68474676D01*
X86088571Y-68474676D02*
X86088571Y-68550866D01*
X86088571Y-68550866D02*
X86050476Y-68665152D01*
X86050476Y-68665152D02*
X85593333Y-69122295D01*
X85593333Y-69122295D02*
X86088571Y-69122295D01*
X80106667Y-46696104D02*
X80068571Y-46734200D01*
X80068571Y-46734200D02*
X79954286Y-46772295D01*
X79954286Y-46772295D02*
X79878095Y-46772295D01*
X79878095Y-46772295D02*
X79763809Y-46734200D01*
X79763809Y-46734200D02*
X79687619Y-46658009D01*
X79687619Y-46658009D02*
X79649524Y-46581819D01*
X79649524Y-46581819D02*
X79611428Y-46429438D01*
X79611428Y-46429438D02*
X79611428Y-46315152D01*
X79611428Y-46315152D02*
X79649524Y-46162771D01*
X79649524Y-46162771D02*
X79687619Y-46086580D01*
X79687619Y-46086580D02*
X79763809Y-46010390D01*
X79763809Y-46010390D02*
X79878095Y-45972295D01*
X79878095Y-45972295D02*
X79954286Y-45972295D01*
X79954286Y-45972295D02*
X80068571Y-46010390D01*
X80068571Y-46010390D02*
X80106667Y-46048485D01*
X80868571Y-46772295D02*
X80411428Y-46772295D01*
X80640000Y-46772295D02*
X80640000Y-45972295D01*
X80640000Y-45972295D02*
X80563809Y-46086580D01*
X80563809Y-46086580D02*
X80487619Y-46162771D01*
X80487619Y-46162771D02*
X80411428Y-46200866D01*
X92063333Y-43552295D02*
X92063333Y-44123723D01*
X92063333Y-44123723D02*
X92025238Y-44238009D01*
X92025238Y-44238009D02*
X91949047Y-44314200D01*
X91949047Y-44314200D02*
X91834762Y-44352295D01*
X91834762Y-44352295D02*
X91758571Y-44352295D01*
X92863333Y-44352295D02*
X92406190Y-44352295D01*
X92634762Y-44352295D02*
X92634762Y-43552295D01*
X92634762Y-43552295D02*
X92558571Y-43666580D01*
X92558571Y-43666580D02*
X92482381Y-43742771D01*
X92482381Y-43742771D02*
X92406190Y-43780866D01*
X85326667Y-39322295D02*
X85060000Y-38941342D01*
X84869524Y-39322295D02*
X84869524Y-38522295D01*
X84869524Y-38522295D02*
X85174286Y-38522295D01*
X85174286Y-38522295D02*
X85250476Y-38560390D01*
X85250476Y-38560390D02*
X85288571Y-38598485D01*
X85288571Y-38598485D02*
X85326667Y-38674676D01*
X85326667Y-38674676D02*
X85326667Y-38788961D01*
X85326667Y-38788961D02*
X85288571Y-38865152D01*
X85288571Y-38865152D02*
X85250476Y-38903247D01*
X85250476Y-38903247D02*
X85174286Y-38941342D01*
X85174286Y-38941342D02*
X84869524Y-38941342D01*
X85631428Y-38598485D02*
X85669524Y-38560390D01*
X85669524Y-38560390D02*
X85745714Y-38522295D01*
X85745714Y-38522295D02*
X85936190Y-38522295D01*
X85936190Y-38522295D02*
X86012381Y-38560390D01*
X86012381Y-38560390D02*
X86050476Y-38598485D01*
X86050476Y-38598485D02*
X86088571Y-38674676D01*
X86088571Y-38674676D02*
X86088571Y-38750866D01*
X86088571Y-38750866D02*
X86050476Y-38865152D01*
X86050476Y-38865152D02*
X85593333Y-39322295D01*
X85593333Y-39322295D02*
X86088571Y-39322295D01*
X83586667Y-31872295D02*
X83320000Y-31491342D01*
X83129524Y-31872295D02*
X83129524Y-31072295D01*
X83129524Y-31072295D02*
X83434286Y-31072295D01*
X83434286Y-31072295D02*
X83510476Y-31110390D01*
X83510476Y-31110390D02*
X83548571Y-31148485D01*
X83548571Y-31148485D02*
X83586667Y-31224676D01*
X83586667Y-31224676D02*
X83586667Y-31338961D01*
X83586667Y-31338961D02*
X83548571Y-31415152D01*
X83548571Y-31415152D02*
X83510476Y-31453247D01*
X83510476Y-31453247D02*
X83434286Y-31491342D01*
X83434286Y-31491342D02*
X83129524Y-31491342D01*
X84348571Y-31872295D02*
X83891428Y-31872295D01*
X84120000Y-31872295D02*
X84120000Y-31072295D01*
X84120000Y-31072295D02*
X84043809Y-31186580D01*
X84043809Y-31186580D02*
X83967619Y-31262771D01*
X83967619Y-31262771D02*
X83891428Y-31300866D01*
X72130476Y-51837295D02*
X72130476Y-52484914D01*
X72130476Y-52484914D02*
X72168571Y-52561104D01*
X72168571Y-52561104D02*
X72206666Y-52599200D01*
X72206666Y-52599200D02*
X72282857Y-52637295D01*
X72282857Y-52637295D02*
X72435238Y-52637295D01*
X72435238Y-52637295D02*
X72511428Y-52599200D01*
X72511428Y-52599200D02*
X72549523Y-52561104D01*
X72549523Y-52561104D02*
X72587619Y-52484914D01*
X72587619Y-52484914D02*
X72587619Y-51837295D01*
X73387618Y-52637295D02*
X72930475Y-52637295D01*
X73159047Y-52637295D02*
X73159047Y-51837295D01*
X73159047Y-51837295D02*
X73082856Y-51951580D01*
X73082856Y-51951580D02*
X73006666Y-52027771D01*
X73006666Y-52027771D02*
X72930475Y-52065866D01*
X80106667Y-39246104D02*
X80068571Y-39284200D01*
X80068571Y-39284200D02*
X79954286Y-39322295D01*
X79954286Y-39322295D02*
X79878095Y-39322295D01*
X79878095Y-39322295D02*
X79763809Y-39284200D01*
X79763809Y-39284200D02*
X79687619Y-39208009D01*
X79687619Y-39208009D02*
X79649524Y-39131819D01*
X79649524Y-39131819D02*
X79611428Y-38979438D01*
X79611428Y-38979438D02*
X79611428Y-38865152D01*
X79611428Y-38865152D02*
X79649524Y-38712771D01*
X79649524Y-38712771D02*
X79687619Y-38636580D01*
X79687619Y-38636580D02*
X79763809Y-38560390D01*
X79763809Y-38560390D02*
X79878095Y-38522295D01*
X79878095Y-38522295D02*
X79954286Y-38522295D01*
X79954286Y-38522295D02*
X80068571Y-38560390D01*
X80068571Y-38560390D02*
X80106667Y-38598485D01*
X80868571Y-39322295D02*
X80411428Y-39322295D01*
X80640000Y-39322295D02*
X80640000Y-38522295D01*
X80640000Y-38522295D02*
X80563809Y-38636580D01*
X80563809Y-38636580D02*
X80487619Y-38712771D01*
X80487619Y-38712771D02*
X80411428Y-38750866D01*
X83586667Y-39322295D02*
X83320000Y-38941342D01*
X83129524Y-39322295D02*
X83129524Y-38522295D01*
X83129524Y-38522295D02*
X83434286Y-38522295D01*
X83434286Y-38522295D02*
X83510476Y-38560390D01*
X83510476Y-38560390D02*
X83548571Y-38598485D01*
X83548571Y-38598485D02*
X83586667Y-38674676D01*
X83586667Y-38674676D02*
X83586667Y-38788961D01*
X83586667Y-38788961D02*
X83548571Y-38865152D01*
X83548571Y-38865152D02*
X83510476Y-38903247D01*
X83510476Y-38903247D02*
X83434286Y-38941342D01*
X83434286Y-38941342D02*
X83129524Y-38941342D01*
X84348571Y-39322295D02*
X83891428Y-39322295D01*
X84120000Y-39322295D02*
X84120000Y-38522295D01*
X84120000Y-38522295D02*
X84043809Y-38636580D01*
X84043809Y-38636580D02*
X83967619Y-38712771D01*
X83967619Y-38712771D02*
X83891428Y-38750866D01*
X80106667Y-31796104D02*
X80068571Y-31834200D01*
X80068571Y-31834200D02*
X79954286Y-31872295D01*
X79954286Y-31872295D02*
X79878095Y-31872295D01*
X79878095Y-31872295D02*
X79763809Y-31834200D01*
X79763809Y-31834200D02*
X79687619Y-31758009D01*
X79687619Y-31758009D02*
X79649524Y-31681819D01*
X79649524Y-31681819D02*
X79611428Y-31529438D01*
X79611428Y-31529438D02*
X79611428Y-31415152D01*
X79611428Y-31415152D02*
X79649524Y-31262771D01*
X79649524Y-31262771D02*
X79687619Y-31186580D01*
X79687619Y-31186580D02*
X79763809Y-31110390D01*
X79763809Y-31110390D02*
X79878095Y-31072295D01*
X79878095Y-31072295D02*
X79954286Y-31072295D01*
X79954286Y-31072295D02*
X80068571Y-31110390D01*
X80068571Y-31110390D02*
X80106667Y-31148485D01*
X80868571Y-31872295D02*
X80411428Y-31872295D01*
X80640000Y-31872295D02*
X80640000Y-31072295D01*
X80640000Y-31072295D02*
X80563809Y-31186580D01*
X80563809Y-31186580D02*
X80487619Y-31262771D01*
X80487619Y-31262771D02*
X80411428Y-31300866D01*
X50822931Y-50812352D02*
X50822931Y-51384641D01*
X50822931Y-51384641D02*
X50784779Y-51499099D01*
X50784779Y-51499099D02*
X50708473Y-51575405D01*
X50708473Y-51575405D02*
X50594016Y-51613557D01*
X50594016Y-51613557D02*
X50517710Y-51613557D01*
X51166305Y-50888657D02*
X51204458Y-50850505D01*
X51204458Y-50850505D02*
X51280763Y-50812352D01*
X51280763Y-50812352D02*
X51471526Y-50812352D01*
X51471526Y-50812352D02*
X51547831Y-50850505D01*
X51547831Y-50850505D02*
X51585984Y-50888657D01*
X51585984Y-50888657D02*
X51624136Y-50964963D01*
X51624136Y-50964963D02*
X51624136Y-51041268D01*
X51624136Y-51041268D02*
X51585984Y-51155726D01*
X51585984Y-51155726D02*
X51128152Y-51613557D01*
X51128152Y-51613557D02*
X51624136Y-51613557D01*
X50822931Y-43362352D02*
X50822931Y-43934641D01*
X50822931Y-43934641D02*
X50784779Y-44049099D01*
X50784779Y-44049099D02*
X50708473Y-44125405D01*
X50708473Y-44125405D02*
X50594016Y-44163557D01*
X50594016Y-44163557D02*
X50517710Y-44163557D01*
X51166305Y-43438657D02*
X51204458Y-43400505D01*
X51204458Y-43400505D02*
X51280763Y-43362352D01*
X51280763Y-43362352D02*
X51471526Y-43362352D01*
X51471526Y-43362352D02*
X51547831Y-43400505D01*
X51547831Y-43400505D02*
X51585984Y-43438657D01*
X51585984Y-43438657D02*
X51624136Y-43514963D01*
X51624136Y-43514963D02*
X51624136Y-43591268D01*
X51624136Y-43591268D02*
X51585984Y-43705726D01*
X51585984Y-43705726D02*
X51128152Y-44163557D01*
X51128152Y-44163557D02*
X51624136Y-44163557D01*
X81846667Y-54146104D02*
X81808571Y-54184200D01*
X81808571Y-54184200D02*
X81694286Y-54222295D01*
X81694286Y-54222295D02*
X81618095Y-54222295D01*
X81618095Y-54222295D02*
X81503809Y-54184200D01*
X81503809Y-54184200D02*
X81427619Y-54108009D01*
X81427619Y-54108009D02*
X81389524Y-54031819D01*
X81389524Y-54031819D02*
X81351428Y-53879438D01*
X81351428Y-53879438D02*
X81351428Y-53765152D01*
X81351428Y-53765152D02*
X81389524Y-53612771D01*
X81389524Y-53612771D02*
X81427619Y-53536580D01*
X81427619Y-53536580D02*
X81503809Y-53460390D01*
X81503809Y-53460390D02*
X81618095Y-53422295D01*
X81618095Y-53422295D02*
X81694286Y-53422295D01*
X81694286Y-53422295D02*
X81808571Y-53460390D01*
X81808571Y-53460390D02*
X81846667Y-53498485D01*
X82151428Y-53498485D02*
X82189524Y-53460390D01*
X82189524Y-53460390D02*
X82265714Y-53422295D01*
X82265714Y-53422295D02*
X82456190Y-53422295D01*
X82456190Y-53422295D02*
X82532381Y-53460390D01*
X82532381Y-53460390D02*
X82570476Y-53498485D01*
X82570476Y-53498485D02*
X82608571Y-53574676D01*
X82608571Y-53574676D02*
X82608571Y-53650866D01*
X82608571Y-53650866D02*
X82570476Y-53765152D01*
X82570476Y-53765152D02*
X82113333Y-54222295D01*
X82113333Y-54222295D02*
X82608571Y-54222295D01*
X80106667Y-69046104D02*
X80068571Y-69084200D01*
X80068571Y-69084200D02*
X79954286Y-69122295D01*
X79954286Y-69122295D02*
X79878095Y-69122295D01*
X79878095Y-69122295D02*
X79763809Y-69084200D01*
X79763809Y-69084200D02*
X79687619Y-69008009D01*
X79687619Y-69008009D02*
X79649524Y-68931819D01*
X79649524Y-68931819D02*
X79611428Y-68779438D01*
X79611428Y-68779438D02*
X79611428Y-68665152D01*
X79611428Y-68665152D02*
X79649524Y-68512771D01*
X79649524Y-68512771D02*
X79687619Y-68436580D01*
X79687619Y-68436580D02*
X79763809Y-68360390D01*
X79763809Y-68360390D02*
X79878095Y-68322295D01*
X79878095Y-68322295D02*
X79954286Y-68322295D01*
X79954286Y-68322295D02*
X80068571Y-68360390D01*
X80068571Y-68360390D02*
X80106667Y-68398485D01*
X80868571Y-69122295D02*
X80411428Y-69122295D01*
X80640000Y-69122295D02*
X80640000Y-68322295D01*
X80640000Y-68322295D02*
X80563809Y-68436580D01*
X80563809Y-68436580D02*
X80487619Y-68512771D01*
X80487619Y-68512771D02*
X80411428Y-68550866D01*
X72130476Y-59287295D02*
X72130476Y-59934914D01*
X72130476Y-59934914D02*
X72168571Y-60011104D01*
X72168571Y-60011104D02*
X72206666Y-60049200D01*
X72206666Y-60049200D02*
X72282857Y-60087295D01*
X72282857Y-60087295D02*
X72435238Y-60087295D01*
X72435238Y-60087295D02*
X72511428Y-60049200D01*
X72511428Y-60049200D02*
X72549523Y-60011104D01*
X72549523Y-60011104D02*
X72587619Y-59934914D01*
X72587619Y-59934914D02*
X72587619Y-59287295D01*
X73387618Y-60087295D02*
X72930475Y-60087295D01*
X73159047Y-60087295D02*
X73159047Y-59287295D01*
X73159047Y-59287295D02*
X73082856Y-59401580D01*
X73082856Y-59401580D02*
X73006666Y-59477771D01*
X73006666Y-59477771D02*
X72930475Y-59515866D01*
D11*
%TO.C,J2*%
X52265000Y-65040000D02*
X58165000Y-65040000D01*
X52265000Y-69540000D02*
X52265000Y-65040000D01*
X58165000Y-65040000D02*
X58165000Y-69540000D01*
X58165000Y-69540000D02*
X52265000Y-69540000D01*
D12*
%TO.C,U1*%
X79089500Y-65778800D02*
X78753553Y-65778800D01*
X74726447Y-65778800D02*
X74390500Y-65778800D01*
X74390500Y-65778800D02*
X74390500Y-68471200D01*
X79089500Y-68471200D02*
X79089500Y-65778800D01*
X78753553Y-68471200D02*
X79089500Y-68471200D01*
X74390500Y-68471200D02*
X74726447Y-68471200D01*
X78384721Y-68575000D02*
G75*
G03*
X78384721Y-68575000I-44721J0D01*
G01*
X78410711Y-68575000D02*
G75*
G03*
X78410711Y-68575000I-70711J0D01*
G01*
D11*
%TO.C,J1*%
X93415000Y-28285000D02*
X93415000Y-31585000D01*
X93415000Y-31585000D02*
X93765000Y-31585000D01*
X93765000Y-28285000D02*
X93415000Y-28285000D01*
X102765000Y-28285000D02*
X103115000Y-28285000D01*
X103115000Y-28285000D02*
X103115000Y-31585000D01*
X103115000Y-31585000D02*
X102765000Y-31585000D01*
D13*
X95715000Y-31885000D02*
G75*
G03*
X95715000Y-31885000I-100000J0D01*
G01*
D11*
%TO.C,J2*%
X52265000Y-57590000D02*
X58165000Y-57590000D01*
X52265000Y-62090000D02*
X52265000Y-57590000D01*
X58165000Y-57590000D02*
X58165000Y-62090000D01*
X58165000Y-62090000D02*
X52265000Y-62090000D01*
X52265000Y-35240000D02*
X58165000Y-35240000D01*
X52265000Y-39740000D02*
X52265000Y-35240000D01*
X58165000Y-35240000D02*
X58165000Y-39740000D01*
X58165000Y-39740000D02*
X52265000Y-39740000D01*
D12*
%TO.C,U1*%
X79089500Y-43428800D02*
X78753553Y-43428800D01*
X74726447Y-43428800D02*
X74390500Y-43428800D01*
X74390500Y-43428800D02*
X74390500Y-46121200D01*
X79089500Y-46121200D02*
X79089500Y-43428800D01*
X78753553Y-46121200D02*
X79089500Y-46121200D01*
X74390500Y-46121200D02*
X74726447Y-46121200D01*
X78384721Y-46225000D02*
G75*
G03*
X78384721Y-46225000I-44721J0D01*
G01*
X78410711Y-46225000D02*
G75*
G03*
X78410711Y-46225000I-70711J0D01*
G01*
D11*
%TO.C,J1*%
X93415000Y-50635000D02*
X93415000Y-53935000D01*
X93415000Y-53935000D02*
X93765000Y-53935000D01*
X93765000Y-50635000D02*
X93415000Y-50635000D01*
X102765000Y-50635000D02*
X103115000Y-50635000D01*
X103115000Y-50635000D02*
X103115000Y-53935000D01*
X103115000Y-53935000D02*
X102765000Y-53935000D01*
D13*
X95715000Y-54235000D02*
G75*
G03*
X95715000Y-54235000I-100000J0D01*
G01*
D11*
%TO.C,J2*%
X52265000Y-27790000D02*
X58165000Y-27790000D01*
X52265000Y-32290000D02*
X52265000Y-27790000D01*
X58165000Y-27790000D02*
X58165000Y-32290000D01*
X58165000Y-32290000D02*
X52265000Y-32290000D01*
D12*
%TO.C,U1*%
X79089500Y-28528800D02*
X78753553Y-28528800D01*
X74726447Y-28528800D02*
X74390500Y-28528800D01*
X74390500Y-28528800D02*
X74390500Y-31221200D01*
X79089500Y-31221200D02*
X79089500Y-28528800D01*
X78753553Y-31221200D02*
X79089500Y-31221200D01*
X74390500Y-31221200D02*
X74726447Y-31221200D01*
X78384721Y-31325000D02*
G75*
G03*
X78384721Y-31325000I-44721J0D01*
G01*
X78410711Y-31325000D02*
G75*
G03*
X78410711Y-31325000I-70711J0D01*
G01*
D11*
%TO.C,J1*%
X93415000Y-65535000D02*
X93415000Y-68835000D01*
X93415000Y-68835000D02*
X93765000Y-68835000D01*
X93765000Y-65535000D02*
X93415000Y-65535000D01*
X102765000Y-65535000D02*
X103115000Y-65535000D01*
X103115000Y-65535000D02*
X103115000Y-68835000D01*
X103115000Y-68835000D02*
X102765000Y-68835000D01*
D13*
X95715000Y-69135000D02*
G75*
G03*
X95715000Y-69135000I-100000J0D01*
G01*
D11*
X93415000Y-58085000D02*
X93415000Y-61385000D01*
X93415000Y-61385000D02*
X93765000Y-61385000D01*
X93765000Y-58085000D02*
X93415000Y-58085000D01*
X102765000Y-58085000D02*
X103115000Y-58085000D01*
X103115000Y-58085000D02*
X103115000Y-61385000D01*
X103115000Y-61385000D02*
X102765000Y-61385000D01*
D13*
X95715000Y-61685000D02*
G75*
G03*
X95715000Y-61685000I-100000J0D01*
G01*
D12*
%TO.C,U1*%
X79089500Y-35978800D02*
X78753553Y-35978800D01*
X74726447Y-35978800D02*
X74390500Y-35978800D01*
X74390500Y-35978800D02*
X74390500Y-38671200D01*
X79089500Y-38671200D02*
X79089500Y-35978800D01*
X78753553Y-38671200D02*
X79089500Y-38671200D01*
X74390500Y-38671200D02*
X74726447Y-38671200D01*
X78384721Y-38775000D02*
G75*
G03*
X78384721Y-38775000I-44721J0D01*
G01*
X78410711Y-38775000D02*
G75*
G03*
X78410711Y-38775000I-70711J0D01*
G01*
D11*
%TO.C,J1*%
X93415000Y-35735000D02*
X93415000Y-39035000D01*
X93415000Y-39035000D02*
X93765000Y-39035000D01*
X93765000Y-35735000D02*
X93415000Y-35735000D01*
X102765000Y-35735000D02*
X103115000Y-35735000D01*
X103115000Y-35735000D02*
X103115000Y-39035000D01*
X103115000Y-39035000D02*
X102765000Y-39035000D01*
D13*
X95715000Y-39335000D02*
G75*
G03*
X95715000Y-39335000I-100000J0D01*
G01*
D11*
X93415000Y-43185000D02*
X93415000Y-46485000D01*
X93415000Y-46485000D02*
X93765000Y-46485000D01*
X93765000Y-43185000D02*
X93415000Y-43185000D01*
X102765000Y-43185000D02*
X103115000Y-43185000D01*
X103115000Y-43185000D02*
X103115000Y-46485000D01*
X103115000Y-46485000D02*
X102765000Y-46485000D01*
D13*
X95715000Y-46785000D02*
G75*
G03*
X95715000Y-46785000I-100000J0D01*
G01*
D12*
%TO.C,U1*%
X79089500Y-50878800D02*
X78753553Y-50878800D01*
X74726447Y-50878800D02*
X74390500Y-50878800D01*
X74390500Y-50878800D02*
X74390500Y-53571200D01*
X79089500Y-53571200D02*
X79089500Y-50878800D01*
X78753553Y-53571200D02*
X79089500Y-53571200D01*
X74390500Y-53571200D02*
X74726447Y-53571200D01*
X78384721Y-53675000D02*
G75*
G03*
X78384721Y-53675000I-44721J0D01*
G01*
X78410711Y-53675000D02*
G75*
G03*
X78410711Y-53675000I-70711J0D01*
G01*
D11*
%TO.C,J2*%
X52265000Y-50140000D02*
X58165000Y-50140000D01*
X52265000Y-54640000D02*
X52265000Y-50140000D01*
X58165000Y-50140000D02*
X58165000Y-54640000D01*
X58165000Y-54640000D02*
X52265000Y-54640000D01*
X52265000Y-42690000D02*
X58165000Y-42690000D01*
X52265000Y-47190000D02*
X52265000Y-42690000D01*
X58165000Y-42690000D02*
X58165000Y-47190000D01*
X58165000Y-47190000D02*
X52265000Y-47190000D01*
D12*
%TO.C,U1*%
X79089500Y-58328800D02*
X78753553Y-58328800D01*
X74726447Y-58328800D02*
X74390500Y-58328800D01*
X74390500Y-58328800D02*
X74390500Y-61021200D01*
X79089500Y-61021200D02*
X79089500Y-58328800D01*
X78753553Y-61021200D02*
X79089500Y-61021200D01*
X74390500Y-61021200D02*
X74726447Y-61021200D01*
X78384721Y-61125000D02*
G75*
G03*
X78384721Y-61125000I-44721J0D01*
G01*
X78410711Y-61125000D02*
G75*
G03*
X78410711Y-61125000I-70711J0D01*
G01*
%TD*%
M02*
