%TF.GenerationSoftware,KiCad,Pcbnew,7.0.7-7.0.7~ubuntu22.04.1*%
%TF.CreationDate,2023-09-16T17:49:40-05:00*%
%TF.ProjectId,TOF_PANELIZED,544f465f-5041-44e4-954c-495a45442e6b,000*%
%TF.SameCoordinates,Original*%
%TF.FileFunction,Other,Comment*%
%FSLAX46Y46*%
G04 Gerber Fmt 4.6, Leading zero omitted, Abs format (unit mm)*
G04 Created by KiCad (PCBNEW 7.0.7-7.0.7~ubuntu22.04.1) date 2023-09-16 17:49:40*
%MOMM*%
%LPD*%
G01*
G04 APERTURE LIST*
%ADD10C,0.150000*%
G04 APERTURE END LIST*
D10*
X73915237Y-26814580D02*
X73867618Y-26862200D01*
X73867618Y-26862200D02*
X73724761Y-26909819D01*
X73724761Y-26909819D02*
X73629523Y-26909819D01*
X73629523Y-26909819D02*
X73486666Y-26862200D01*
X73486666Y-26862200D02*
X73391428Y-26766961D01*
X73391428Y-26766961D02*
X73343809Y-26671723D01*
X73343809Y-26671723D02*
X73296190Y-26481247D01*
X73296190Y-26481247D02*
X73296190Y-26338390D01*
X73296190Y-26338390D02*
X73343809Y-26147914D01*
X73343809Y-26147914D02*
X73391428Y-26052676D01*
X73391428Y-26052676D02*
X73486666Y-25957438D01*
X73486666Y-25957438D02*
X73629523Y-25909819D01*
X73629523Y-25909819D02*
X73724761Y-25909819D01*
X73724761Y-25909819D02*
X73867618Y-25957438D01*
X73867618Y-25957438D02*
X73915237Y-26005057D01*
X74343809Y-25909819D02*
X74343809Y-26719342D01*
X74343809Y-26719342D02*
X74391428Y-26814580D01*
X74391428Y-26814580D02*
X74439047Y-26862200D01*
X74439047Y-26862200D02*
X74534285Y-26909819D01*
X74534285Y-26909819D02*
X74724761Y-26909819D01*
X74724761Y-26909819D02*
X74819999Y-26862200D01*
X74819999Y-26862200D02*
X74867618Y-26814580D01*
X74867618Y-26814580D02*
X74915237Y-26719342D01*
X74915237Y-26719342D02*
X74915237Y-25909819D01*
X75248571Y-25909819D02*
X75819999Y-25909819D01*
X75534285Y-26909819D02*
X75534285Y-25909819D01*
X77105714Y-25909819D02*
X77296190Y-25909819D01*
X77296190Y-25909819D02*
X77391428Y-25957438D01*
X77391428Y-25957438D02*
X77486666Y-26052676D01*
X77486666Y-26052676D02*
X77534285Y-26243152D01*
X77534285Y-26243152D02*
X77534285Y-26576485D01*
X77534285Y-26576485D02*
X77486666Y-26766961D01*
X77486666Y-26766961D02*
X77391428Y-26862200D01*
X77391428Y-26862200D02*
X77296190Y-26909819D01*
X77296190Y-26909819D02*
X77105714Y-26909819D01*
X77105714Y-26909819D02*
X77010476Y-26862200D01*
X77010476Y-26862200D02*
X76915238Y-26766961D01*
X76915238Y-26766961D02*
X76867619Y-26576485D01*
X76867619Y-26576485D02*
X76867619Y-26243152D01*
X76867619Y-26243152D02*
X76915238Y-26052676D01*
X76915238Y-26052676D02*
X77010476Y-25957438D01*
X77010476Y-25957438D02*
X77105714Y-25909819D01*
X77962857Y-25909819D02*
X77962857Y-26719342D01*
X77962857Y-26719342D02*
X78010476Y-26814580D01*
X78010476Y-26814580D02*
X78058095Y-26862200D01*
X78058095Y-26862200D02*
X78153333Y-26909819D01*
X78153333Y-26909819D02*
X78343809Y-26909819D01*
X78343809Y-26909819D02*
X78439047Y-26862200D01*
X78439047Y-26862200D02*
X78486666Y-26814580D01*
X78486666Y-26814580D02*
X78534285Y-26719342D01*
X78534285Y-26719342D02*
X78534285Y-25909819D01*
X78867619Y-25909819D02*
X79439047Y-25909819D01*
X79153333Y-26909819D02*
X79153333Y-25909819D01*
X73915237Y-34294580D02*
X73867618Y-34342200D01*
X73867618Y-34342200D02*
X73724761Y-34389819D01*
X73724761Y-34389819D02*
X73629523Y-34389819D01*
X73629523Y-34389819D02*
X73486666Y-34342200D01*
X73486666Y-34342200D02*
X73391428Y-34246961D01*
X73391428Y-34246961D02*
X73343809Y-34151723D01*
X73343809Y-34151723D02*
X73296190Y-33961247D01*
X73296190Y-33961247D02*
X73296190Y-33818390D01*
X73296190Y-33818390D02*
X73343809Y-33627914D01*
X73343809Y-33627914D02*
X73391428Y-33532676D01*
X73391428Y-33532676D02*
X73486666Y-33437438D01*
X73486666Y-33437438D02*
X73629523Y-33389819D01*
X73629523Y-33389819D02*
X73724761Y-33389819D01*
X73724761Y-33389819D02*
X73867618Y-33437438D01*
X73867618Y-33437438D02*
X73915237Y-33485057D01*
X74343809Y-33389819D02*
X74343809Y-34199342D01*
X74343809Y-34199342D02*
X74391428Y-34294580D01*
X74391428Y-34294580D02*
X74439047Y-34342200D01*
X74439047Y-34342200D02*
X74534285Y-34389819D01*
X74534285Y-34389819D02*
X74724761Y-34389819D01*
X74724761Y-34389819D02*
X74819999Y-34342200D01*
X74819999Y-34342200D02*
X74867618Y-34294580D01*
X74867618Y-34294580D02*
X74915237Y-34199342D01*
X74915237Y-34199342D02*
X74915237Y-33389819D01*
X75248571Y-33389819D02*
X75819999Y-33389819D01*
X75534285Y-34389819D02*
X75534285Y-33389819D01*
X77105714Y-33389819D02*
X77296190Y-33389819D01*
X77296190Y-33389819D02*
X77391428Y-33437438D01*
X77391428Y-33437438D02*
X77486666Y-33532676D01*
X77486666Y-33532676D02*
X77534285Y-33723152D01*
X77534285Y-33723152D02*
X77534285Y-34056485D01*
X77534285Y-34056485D02*
X77486666Y-34246961D01*
X77486666Y-34246961D02*
X77391428Y-34342200D01*
X77391428Y-34342200D02*
X77296190Y-34389819D01*
X77296190Y-34389819D02*
X77105714Y-34389819D01*
X77105714Y-34389819D02*
X77010476Y-34342200D01*
X77010476Y-34342200D02*
X76915238Y-34246961D01*
X76915238Y-34246961D02*
X76867619Y-34056485D01*
X76867619Y-34056485D02*
X76867619Y-33723152D01*
X76867619Y-33723152D02*
X76915238Y-33532676D01*
X76915238Y-33532676D02*
X77010476Y-33437438D01*
X77010476Y-33437438D02*
X77105714Y-33389819D01*
X77962857Y-33389819D02*
X77962857Y-34199342D01*
X77962857Y-34199342D02*
X78010476Y-34294580D01*
X78010476Y-34294580D02*
X78058095Y-34342200D01*
X78058095Y-34342200D02*
X78153333Y-34389819D01*
X78153333Y-34389819D02*
X78343809Y-34389819D01*
X78343809Y-34389819D02*
X78439047Y-34342200D01*
X78439047Y-34342200D02*
X78486666Y-34294580D01*
X78486666Y-34294580D02*
X78534285Y-34199342D01*
X78534285Y-34199342D02*
X78534285Y-33389819D01*
X78867619Y-33389819D02*
X79439047Y-33389819D01*
X79153333Y-34389819D02*
X79153333Y-33389819D01*
X73915237Y-41744580D02*
X73867618Y-41792200D01*
X73867618Y-41792200D02*
X73724761Y-41839819D01*
X73724761Y-41839819D02*
X73629523Y-41839819D01*
X73629523Y-41839819D02*
X73486666Y-41792200D01*
X73486666Y-41792200D02*
X73391428Y-41696961D01*
X73391428Y-41696961D02*
X73343809Y-41601723D01*
X73343809Y-41601723D02*
X73296190Y-41411247D01*
X73296190Y-41411247D02*
X73296190Y-41268390D01*
X73296190Y-41268390D02*
X73343809Y-41077914D01*
X73343809Y-41077914D02*
X73391428Y-40982676D01*
X73391428Y-40982676D02*
X73486666Y-40887438D01*
X73486666Y-40887438D02*
X73629523Y-40839819D01*
X73629523Y-40839819D02*
X73724761Y-40839819D01*
X73724761Y-40839819D02*
X73867618Y-40887438D01*
X73867618Y-40887438D02*
X73915237Y-40935057D01*
X74343809Y-40839819D02*
X74343809Y-41649342D01*
X74343809Y-41649342D02*
X74391428Y-41744580D01*
X74391428Y-41744580D02*
X74439047Y-41792200D01*
X74439047Y-41792200D02*
X74534285Y-41839819D01*
X74534285Y-41839819D02*
X74724761Y-41839819D01*
X74724761Y-41839819D02*
X74819999Y-41792200D01*
X74819999Y-41792200D02*
X74867618Y-41744580D01*
X74867618Y-41744580D02*
X74915237Y-41649342D01*
X74915237Y-41649342D02*
X74915237Y-40839819D01*
X75248571Y-40839819D02*
X75819999Y-40839819D01*
X75534285Y-41839819D02*
X75534285Y-40839819D01*
X77105714Y-40839819D02*
X77296190Y-40839819D01*
X77296190Y-40839819D02*
X77391428Y-40887438D01*
X77391428Y-40887438D02*
X77486666Y-40982676D01*
X77486666Y-40982676D02*
X77534285Y-41173152D01*
X77534285Y-41173152D02*
X77534285Y-41506485D01*
X77534285Y-41506485D02*
X77486666Y-41696961D01*
X77486666Y-41696961D02*
X77391428Y-41792200D01*
X77391428Y-41792200D02*
X77296190Y-41839819D01*
X77296190Y-41839819D02*
X77105714Y-41839819D01*
X77105714Y-41839819D02*
X77010476Y-41792200D01*
X77010476Y-41792200D02*
X76915238Y-41696961D01*
X76915238Y-41696961D02*
X76867619Y-41506485D01*
X76867619Y-41506485D02*
X76867619Y-41173152D01*
X76867619Y-41173152D02*
X76915238Y-40982676D01*
X76915238Y-40982676D02*
X77010476Y-40887438D01*
X77010476Y-40887438D02*
X77105714Y-40839819D01*
X77962857Y-40839819D02*
X77962857Y-41649342D01*
X77962857Y-41649342D02*
X78010476Y-41744580D01*
X78010476Y-41744580D02*
X78058095Y-41792200D01*
X78058095Y-41792200D02*
X78153333Y-41839819D01*
X78153333Y-41839819D02*
X78343809Y-41839819D01*
X78343809Y-41839819D02*
X78439047Y-41792200D01*
X78439047Y-41792200D02*
X78486666Y-41744580D01*
X78486666Y-41744580D02*
X78534285Y-41649342D01*
X78534285Y-41649342D02*
X78534285Y-40839819D01*
X78867619Y-40839819D02*
X79439047Y-40839819D01*
X79153333Y-41839819D02*
X79153333Y-40839819D01*
X73915237Y-49194580D02*
X73867618Y-49242200D01*
X73867618Y-49242200D02*
X73724761Y-49289819D01*
X73724761Y-49289819D02*
X73629523Y-49289819D01*
X73629523Y-49289819D02*
X73486666Y-49242200D01*
X73486666Y-49242200D02*
X73391428Y-49146961D01*
X73391428Y-49146961D02*
X73343809Y-49051723D01*
X73343809Y-49051723D02*
X73296190Y-48861247D01*
X73296190Y-48861247D02*
X73296190Y-48718390D01*
X73296190Y-48718390D02*
X73343809Y-48527914D01*
X73343809Y-48527914D02*
X73391428Y-48432676D01*
X73391428Y-48432676D02*
X73486666Y-48337438D01*
X73486666Y-48337438D02*
X73629523Y-48289819D01*
X73629523Y-48289819D02*
X73724761Y-48289819D01*
X73724761Y-48289819D02*
X73867618Y-48337438D01*
X73867618Y-48337438D02*
X73915237Y-48385057D01*
X74343809Y-48289819D02*
X74343809Y-49099342D01*
X74343809Y-49099342D02*
X74391428Y-49194580D01*
X74391428Y-49194580D02*
X74439047Y-49242200D01*
X74439047Y-49242200D02*
X74534285Y-49289819D01*
X74534285Y-49289819D02*
X74724761Y-49289819D01*
X74724761Y-49289819D02*
X74819999Y-49242200D01*
X74819999Y-49242200D02*
X74867618Y-49194580D01*
X74867618Y-49194580D02*
X74915237Y-49099342D01*
X74915237Y-49099342D02*
X74915237Y-48289819D01*
X75248571Y-48289819D02*
X75819999Y-48289819D01*
X75534285Y-49289819D02*
X75534285Y-48289819D01*
X77105714Y-48289819D02*
X77296190Y-48289819D01*
X77296190Y-48289819D02*
X77391428Y-48337438D01*
X77391428Y-48337438D02*
X77486666Y-48432676D01*
X77486666Y-48432676D02*
X77534285Y-48623152D01*
X77534285Y-48623152D02*
X77534285Y-48956485D01*
X77534285Y-48956485D02*
X77486666Y-49146961D01*
X77486666Y-49146961D02*
X77391428Y-49242200D01*
X77391428Y-49242200D02*
X77296190Y-49289819D01*
X77296190Y-49289819D02*
X77105714Y-49289819D01*
X77105714Y-49289819D02*
X77010476Y-49242200D01*
X77010476Y-49242200D02*
X76915238Y-49146961D01*
X76915238Y-49146961D02*
X76867619Y-48956485D01*
X76867619Y-48956485D02*
X76867619Y-48623152D01*
X76867619Y-48623152D02*
X76915238Y-48432676D01*
X76915238Y-48432676D02*
X77010476Y-48337438D01*
X77010476Y-48337438D02*
X77105714Y-48289819D01*
X77962857Y-48289819D02*
X77962857Y-49099342D01*
X77962857Y-49099342D02*
X78010476Y-49194580D01*
X78010476Y-49194580D02*
X78058095Y-49242200D01*
X78058095Y-49242200D02*
X78153333Y-49289819D01*
X78153333Y-49289819D02*
X78343809Y-49289819D01*
X78343809Y-49289819D02*
X78439047Y-49242200D01*
X78439047Y-49242200D02*
X78486666Y-49194580D01*
X78486666Y-49194580D02*
X78534285Y-49099342D01*
X78534285Y-49099342D02*
X78534285Y-48289819D01*
X78867619Y-48289819D02*
X79439047Y-48289819D01*
X79153333Y-49289819D02*
X79153333Y-48289819D01*
X73915237Y-56644580D02*
X73867618Y-56692200D01*
X73867618Y-56692200D02*
X73724761Y-56739819D01*
X73724761Y-56739819D02*
X73629523Y-56739819D01*
X73629523Y-56739819D02*
X73486666Y-56692200D01*
X73486666Y-56692200D02*
X73391428Y-56596961D01*
X73391428Y-56596961D02*
X73343809Y-56501723D01*
X73343809Y-56501723D02*
X73296190Y-56311247D01*
X73296190Y-56311247D02*
X73296190Y-56168390D01*
X73296190Y-56168390D02*
X73343809Y-55977914D01*
X73343809Y-55977914D02*
X73391428Y-55882676D01*
X73391428Y-55882676D02*
X73486666Y-55787438D01*
X73486666Y-55787438D02*
X73629523Y-55739819D01*
X73629523Y-55739819D02*
X73724761Y-55739819D01*
X73724761Y-55739819D02*
X73867618Y-55787438D01*
X73867618Y-55787438D02*
X73915237Y-55835057D01*
X74343809Y-55739819D02*
X74343809Y-56549342D01*
X74343809Y-56549342D02*
X74391428Y-56644580D01*
X74391428Y-56644580D02*
X74439047Y-56692200D01*
X74439047Y-56692200D02*
X74534285Y-56739819D01*
X74534285Y-56739819D02*
X74724761Y-56739819D01*
X74724761Y-56739819D02*
X74819999Y-56692200D01*
X74819999Y-56692200D02*
X74867618Y-56644580D01*
X74867618Y-56644580D02*
X74915237Y-56549342D01*
X74915237Y-56549342D02*
X74915237Y-55739819D01*
X75248571Y-55739819D02*
X75819999Y-55739819D01*
X75534285Y-56739819D02*
X75534285Y-55739819D01*
X77105714Y-55739819D02*
X77296190Y-55739819D01*
X77296190Y-55739819D02*
X77391428Y-55787438D01*
X77391428Y-55787438D02*
X77486666Y-55882676D01*
X77486666Y-55882676D02*
X77534285Y-56073152D01*
X77534285Y-56073152D02*
X77534285Y-56406485D01*
X77534285Y-56406485D02*
X77486666Y-56596961D01*
X77486666Y-56596961D02*
X77391428Y-56692200D01*
X77391428Y-56692200D02*
X77296190Y-56739819D01*
X77296190Y-56739819D02*
X77105714Y-56739819D01*
X77105714Y-56739819D02*
X77010476Y-56692200D01*
X77010476Y-56692200D02*
X76915238Y-56596961D01*
X76915238Y-56596961D02*
X76867619Y-56406485D01*
X76867619Y-56406485D02*
X76867619Y-56073152D01*
X76867619Y-56073152D02*
X76915238Y-55882676D01*
X76915238Y-55882676D02*
X77010476Y-55787438D01*
X77010476Y-55787438D02*
X77105714Y-55739819D01*
X77962857Y-55739819D02*
X77962857Y-56549342D01*
X77962857Y-56549342D02*
X78010476Y-56644580D01*
X78010476Y-56644580D02*
X78058095Y-56692200D01*
X78058095Y-56692200D02*
X78153333Y-56739819D01*
X78153333Y-56739819D02*
X78343809Y-56739819D01*
X78343809Y-56739819D02*
X78439047Y-56692200D01*
X78439047Y-56692200D02*
X78486666Y-56644580D01*
X78486666Y-56644580D02*
X78534285Y-56549342D01*
X78534285Y-56549342D02*
X78534285Y-55739819D01*
X78867619Y-55739819D02*
X79439047Y-55739819D01*
X79153333Y-56739819D02*
X79153333Y-55739819D01*
X73915237Y-64094580D02*
X73867618Y-64142200D01*
X73867618Y-64142200D02*
X73724761Y-64189819D01*
X73724761Y-64189819D02*
X73629523Y-64189819D01*
X73629523Y-64189819D02*
X73486666Y-64142200D01*
X73486666Y-64142200D02*
X73391428Y-64046961D01*
X73391428Y-64046961D02*
X73343809Y-63951723D01*
X73343809Y-63951723D02*
X73296190Y-63761247D01*
X73296190Y-63761247D02*
X73296190Y-63618390D01*
X73296190Y-63618390D02*
X73343809Y-63427914D01*
X73343809Y-63427914D02*
X73391428Y-63332676D01*
X73391428Y-63332676D02*
X73486666Y-63237438D01*
X73486666Y-63237438D02*
X73629523Y-63189819D01*
X73629523Y-63189819D02*
X73724761Y-63189819D01*
X73724761Y-63189819D02*
X73867618Y-63237438D01*
X73867618Y-63237438D02*
X73915237Y-63285057D01*
X74343809Y-63189819D02*
X74343809Y-63999342D01*
X74343809Y-63999342D02*
X74391428Y-64094580D01*
X74391428Y-64094580D02*
X74439047Y-64142200D01*
X74439047Y-64142200D02*
X74534285Y-64189819D01*
X74534285Y-64189819D02*
X74724761Y-64189819D01*
X74724761Y-64189819D02*
X74819999Y-64142200D01*
X74819999Y-64142200D02*
X74867618Y-64094580D01*
X74867618Y-64094580D02*
X74915237Y-63999342D01*
X74915237Y-63999342D02*
X74915237Y-63189819D01*
X75248571Y-63189819D02*
X75819999Y-63189819D01*
X75534285Y-64189819D02*
X75534285Y-63189819D01*
X77105714Y-63189819D02*
X77296190Y-63189819D01*
X77296190Y-63189819D02*
X77391428Y-63237438D01*
X77391428Y-63237438D02*
X77486666Y-63332676D01*
X77486666Y-63332676D02*
X77534285Y-63523152D01*
X77534285Y-63523152D02*
X77534285Y-63856485D01*
X77534285Y-63856485D02*
X77486666Y-64046961D01*
X77486666Y-64046961D02*
X77391428Y-64142200D01*
X77391428Y-64142200D02*
X77296190Y-64189819D01*
X77296190Y-64189819D02*
X77105714Y-64189819D01*
X77105714Y-64189819D02*
X77010476Y-64142200D01*
X77010476Y-64142200D02*
X76915238Y-64046961D01*
X76915238Y-64046961D02*
X76867619Y-63856485D01*
X76867619Y-63856485D02*
X76867619Y-63523152D01*
X76867619Y-63523152D02*
X76915238Y-63332676D01*
X76915238Y-63332676D02*
X77010476Y-63237438D01*
X77010476Y-63237438D02*
X77105714Y-63189819D01*
X77962857Y-63189819D02*
X77962857Y-63999342D01*
X77962857Y-63999342D02*
X78010476Y-64094580D01*
X78010476Y-64094580D02*
X78058095Y-64142200D01*
X78058095Y-64142200D02*
X78153333Y-64189819D01*
X78153333Y-64189819D02*
X78343809Y-64189819D01*
X78343809Y-64189819D02*
X78439047Y-64142200D01*
X78439047Y-64142200D02*
X78486666Y-64094580D01*
X78486666Y-64094580D02*
X78534285Y-63999342D01*
X78534285Y-63999342D02*
X78534285Y-63189819D01*
X78867619Y-63189819D02*
X79439047Y-63189819D01*
X79153333Y-64189819D02*
X79153333Y-63189819D01*
X73915237Y-71544580D02*
X73867618Y-71592200D01*
X73867618Y-71592200D02*
X73724761Y-71639819D01*
X73724761Y-71639819D02*
X73629523Y-71639819D01*
X73629523Y-71639819D02*
X73486666Y-71592200D01*
X73486666Y-71592200D02*
X73391428Y-71496961D01*
X73391428Y-71496961D02*
X73343809Y-71401723D01*
X73343809Y-71401723D02*
X73296190Y-71211247D01*
X73296190Y-71211247D02*
X73296190Y-71068390D01*
X73296190Y-71068390D02*
X73343809Y-70877914D01*
X73343809Y-70877914D02*
X73391428Y-70782676D01*
X73391428Y-70782676D02*
X73486666Y-70687438D01*
X73486666Y-70687438D02*
X73629523Y-70639819D01*
X73629523Y-70639819D02*
X73724761Y-70639819D01*
X73724761Y-70639819D02*
X73867618Y-70687438D01*
X73867618Y-70687438D02*
X73915237Y-70735057D01*
X74343809Y-70639819D02*
X74343809Y-71449342D01*
X74343809Y-71449342D02*
X74391428Y-71544580D01*
X74391428Y-71544580D02*
X74439047Y-71592200D01*
X74439047Y-71592200D02*
X74534285Y-71639819D01*
X74534285Y-71639819D02*
X74724761Y-71639819D01*
X74724761Y-71639819D02*
X74819999Y-71592200D01*
X74819999Y-71592200D02*
X74867618Y-71544580D01*
X74867618Y-71544580D02*
X74915237Y-71449342D01*
X74915237Y-71449342D02*
X74915237Y-70639819D01*
X75248571Y-70639819D02*
X75819999Y-70639819D01*
X75534285Y-71639819D02*
X75534285Y-70639819D01*
X77105714Y-70639819D02*
X77296190Y-70639819D01*
X77296190Y-70639819D02*
X77391428Y-70687438D01*
X77391428Y-70687438D02*
X77486666Y-70782676D01*
X77486666Y-70782676D02*
X77534285Y-70973152D01*
X77534285Y-70973152D02*
X77534285Y-71306485D01*
X77534285Y-71306485D02*
X77486666Y-71496961D01*
X77486666Y-71496961D02*
X77391428Y-71592200D01*
X77391428Y-71592200D02*
X77296190Y-71639819D01*
X77296190Y-71639819D02*
X77105714Y-71639819D01*
X77105714Y-71639819D02*
X77010476Y-71592200D01*
X77010476Y-71592200D02*
X76915238Y-71496961D01*
X76915238Y-71496961D02*
X76867619Y-71306485D01*
X76867619Y-71306485D02*
X76867619Y-70973152D01*
X76867619Y-70973152D02*
X76915238Y-70782676D01*
X76915238Y-70782676D02*
X77010476Y-70687438D01*
X77010476Y-70687438D02*
X77105714Y-70639819D01*
X77962857Y-70639819D02*
X77962857Y-71449342D01*
X77962857Y-71449342D02*
X78010476Y-71544580D01*
X78010476Y-71544580D02*
X78058095Y-71592200D01*
X78058095Y-71592200D02*
X78153333Y-71639819D01*
X78153333Y-71639819D02*
X78343809Y-71639819D01*
X78343809Y-71639819D02*
X78439047Y-71592200D01*
X78439047Y-71592200D02*
X78486666Y-71544580D01*
X78486666Y-71544580D02*
X78534285Y-71449342D01*
X78534285Y-71449342D02*
X78534285Y-70639819D01*
X78867619Y-70639819D02*
X79439047Y-70639819D01*
X79153333Y-71639819D02*
X79153333Y-70639819D01*
X73915237Y-34264580D02*
X73867618Y-34312200D01*
X73867618Y-34312200D02*
X73724761Y-34359819D01*
X73724761Y-34359819D02*
X73629523Y-34359819D01*
X73629523Y-34359819D02*
X73486666Y-34312200D01*
X73486666Y-34312200D02*
X73391428Y-34216961D01*
X73391428Y-34216961D02*
X73343809Y-34121723D01*
X73343809Y-34121723D02*
X73296190Y-33931247D01*
X73296190Y-33931247D02*
X73296190Y-33788390D01*
X73296190Y-33788390D02*
X73343809Y-33597914D01*
X73343809Y-33597914D02*
X73391428Y-33502676D01*
X73391428Y-33502676D02*
X73486666Y-33407438D01*
X73486666Y-33407438D02*
X73629523Y-33359819D01*
X73629523Y-33359819D02*
X73724761Y-33359819D01*
X73724761Y-33359819D02*
X73867618Y-33407438D01*
X73867618Y-33407438D02*
X73915237Y-33455057D01*
X74343809Y-33359819D02*
X74343809Y-34169342D01*
X74343809Y-34169342D02*
X74391428Y-34264580D01*
X74391428Y-34264580D02*
X74439047Y-34312200D01*
X74439047Y-34312200D02*
X74534285Y-34359819D01*
X74534285Y-34359819D02*
X74724761Y-34359819D01*
X74724761Y-34359819D02*
X74819999Y-34312200D01*
X74819999Y-34312200D02*
X74867618Y-34264580D01*
X74867618Y-34264580D02*
X74915237Y-34169342D01*
X74915237Y-34169342D02*
X74915237Y-33359819D01*
X75248571Y-33359819D02*
X75819999Y-33359819D01*
X75534285Y-34359819D02*
X75534285Y-33359819D01*
X77105714Y-33359819D02*
X77296190Y-33359819D01*
X77296190Y-33359819D02*
X77391428Y-33407438D01*
X77391428Y-33407438D02*
X77486666Y-33502676D01*
X77486666Y-33502676D02*
X77534285Y-33693152D01*
X77534285Y-33693152D02*
X77534285Y-34026485D01*
X77534285Y-34026485D02*
X77486666Y-34216961D01*
X77486666Y-34216961D02*
X77391428Y-34312200D01*
X77391428Y-34312200D02*
X77296190Y-34359819D01*
X77296190Y-34359819D02*
X77105714Y-34359819D01*
X77105714Y-34359819D02*
X77010476Y-34312200D01*
X77010476Y-34312200D02*
X76915238Y-34216961D01*
X76915238Y-34216961D02*
X76867619Y-34026485D01*
X76867619Y-34026485D02*
X76867619Y-33693152D01*
X76867619Y-33693152D02*
X76915238Y-33502676D01*
X76915238Y-33502676D02*
X77010476Y-33407438D01*
X77010476Y-33407438D02*
X77105714Y-33359819D01*
X77962857Y-33359819D02*
X77962857Y-34169342D01*
X77962857Y-34169342D02*
X78010476Y-34264580D01*
X78010476Y-34264580D02*
X78058095Y-34312200D01*
X78058095Y-34312200D02*
X78153333Y-34359819D01*
X78153333Y-34359819D02*
X78343809Y-34359819D01*
X78343809Y-34359819D02*
X78439047Y-34312200D01*
X78439047Y-34312200D02*
X78486666Y-34264580D01*
X78486666Y-34264580D02*
X78534285Y-34169342D01*
X78534285Y-34169342D02*
X78534285Y-33359819D01*
X78867619Y-33359819D02*
X79439047Y-33359819D01*
X79153333Y-34359819D02*
X79153333Y-33359819D01*
X73915237Y-41714580D02*
X73867618Y-41762200D01*
X73867618Y-41762200D02*
X73724761Y-41809819D01*
X73724761Y-41809819D02*
X73629523Y-41809819D01*
X73629523Y-41809819D02*
X73486666Y-41762200D01*
X73486666Y-41762200D02*
X73391428Y-41666961D01*
X73391428Y-41666961D02*
X73343809Y-41571723D01*
X73343809Y-41571723D02*
X73296190Y-41381247D01*
X73296190Y-41381247D02*
X73296190Y-41238390D01*
X73296190Y-41238390D02*
X73343809Y-41047914D01*
X73343809Y-41047914D02*
X73391428Y-40952676D01*
X73391428Y-40952676D02*
X73486666Y-40857438D01*
X73486666Y-40857438D02*
X73629523Y-40809819D01*
X73629523Y-40809819D02*
X73724761Y-40809819D01*
X73724761Y-40809819D02*
X73867618Y-40857438D01*
X73867618Y-40857438D02*
X73915237Y-40905057D01*
X74343809Y-40809819D02*
X74343809Y-41619342D01*
X74343809Y-41619342D02*
X74391428Y-41714580D01*
X74391428Y-41714580D02*
X74439047Y-41762200D01*
X74439047Y-41762200D02*
X74534285Y-41809819D01*
X74534285Y-41809819D02*
X74724761Y-41809819D01*
X74724761Y-41809819D02*
X74819999Y-41762200D01*
X74819999Y-41762200D02*
X74867618Y-41714580D01*
X74867618Y-41714580D02*
X74915237Y-41619342D01*
X74915237Y-41619342D02*
X74915237Y-40809819D01*
X75248571Y-40809819D02*
X75819999Y-40809819D01*
X75534285Y-41809819D02*
X75534285Y-40809819D01*
X77105714Y-40809819D02*
X77296190Y-40809819D01*
X77296190Y-40809819D02*
X77391428Y-40857438D01*
X77391428Y-40857438D02*
X77486666Y-40952676D01*
X77486666Y-40952676D02*
X77534285Y-41143152D01*
X77534285Y-41143152D02*
X77534285Y-41476485D01*
X77534285Y-41476485D02*
X77486666Y-41666961D01*
X77486666Y-41666961D02*
X77391428Y-41762200D01*
X77391428Y-41762200D02*
X77296190Y-41809819D01*
X77296190Y-41809819D02*
X77105714Y-41809819D01*
X77105714Y-41809819D02*
X77010476Y-41762200D01*
X77010476Y-41762200D02*
X76915238Y-41666961D01*
X76915238Y-41666961D02*
X76867619Y-41476485D01*
X76867619Y-41476485D02*
X76867619Y-41143152D01*
X76867619Y-41143152D02*
X76915238Y-40952676D01*
X76915238Y-40952676D02*
X77010476Y-40857438D01*
X77010476Y-40857438D02*
X77105714Y-40809819D01*
X77962857Y-40809819D02*
X77962857Y-41619342D01*
X77962857Y-41619342D02*
X78010476Y-41714580D01*
X78010476Y-41714580D02*
X78058095Y-41762200D01*
X78058095Y-41762200D02*
X78153333Y-41809819D01*
X78153333Y-41809819D02*
X78343809Y-41809819D01*
X78343809Y-41809819D02*
X78439047Y-41762200D01*
X78439047Y-41762200D02*
X78486666Y-41714580D01*
X78486666Y-41714580D02*
X78534285Y-41619342D01*
X78534285Y-41619342D02*
X78534285Y-40809819D01*
X78867619Y-40809819D02*
X79439047Y-40809819D01*
X79153333Y-41809819D02*
X79153333Y-40809819D01*
X73915237Y-49164580D02*
X73867618Y-49212200D01*
X73867618Y-49212200D02*
X73724761Y-49259819D01*
X73724761Y-49259819D02*
X73629523Y-49259819D01*
X73629523Y-49259819D02*
X73486666Y-49212200D01*
X73486666Y-49212200D02*
X73391428Y-49116961D01*
X73391428Y-49116961D02*
X73343809Y-49021723D01*
X73343809Y-49021723D02*
X73296190Y-48831247D01*
X73296190Y-48831247D02*
X73296190Y-48688390D01*
X73296190Y-48688390D02*
X73343809Y-48497914D01*
X73343809Y-48497914D02*
X73391428Y-48402676D01*
X73391428Y-48402676D02*
X73486666Y-48307438D01*
X73486666Y-48307438D02*
X73629523Y-48259819D01*
X73629523Y-48259819D02*
X73724761Y-48259819D01*
X73724761Y-48259819D02*
X73867618Y-48307438D01*
X73867618Y-48307438D02*
X73915237Y-48355057D01*
X74343809Y-48259819D02*
X74343809Y-49069342D01*
X74343809Y-49069342D02*
X74391428Y-49164580D01*
X74391428Y-49164580D02*
X74439047Y-49212200D01*
X74439047Y-49212200D02*
X74534285Y-49259819D01*
X74534285Y-49259819D02*
X74724761Y-49259819D01*
X74724761Y-49259819D02*
X74819999Y-49212200D01*
X74819999Y-49212200D02*
X74867618Y-49164580D01*
X74867618Y-49164580D02*
X74915237Y-49069342D01*
X74915237Y-49069342D02*
X74915237Y-48259819D01*
X75248571Y-48259819D02*
X75819999Y-48259819D01*
X75534285Y-49259819D02*
X75534285Y-48259819D01*
X77105714Y-48259819D02*
X77296190Y-48259819D01*
X77296190Y-48259819D02*
X77391428Y-48307438D01*
X77391428Y-48307438D02*
X77486666Y-48402676D01*
X77486666Y-48402676D02*
X77534285Y-48593152D01*
X77534285Y-48593152D02*
X77534285Y-48926485D01*
X77534285Y-48926485D02*
X77486666Y-49116961D01*
X77486666Y-49116961D02*
X77391428Y-49212200D01*
X77391428Y-49212200D02*
X77296190Y-49259819D01*
X77296190Y-49259819D02*
X77105714Y-49259819D01*
X77105714Y-49259819D02*
X77010476Y-49212200D01*
X77010476Y-49212200D02*
X76915238Y-49116961D01*
X76915238Y-49116961D02*
X76867619Y-48926485D01*
X76867619Y-48926485D02*
X76867619Y-48593152D01*
X76867619Y-48593152D02*
X76915238Y-48402676D01*
X76915238Y-48402676D02*
X77010476Y-48307438D01*
X77010476Y-48307438D02*
X77105714Y-48259819D01*
X77962857Y-48259819D02*
X77962857Y-49069342D01*
X77962857Y-49069342D02*
X78010476Y-49164580D01*
X78010476Y-49164580D02*
X78058095Y-49212200D01*
X78058095Y-49212200D02*
X78153333Y-49259819D01*
X78153333Y-49259819D02*
X78343809Y-49259819D01*
X78343809Y-49259819D02*
X78439047Y-49212200D01*
X78439047Y-49212200D02*
X78486666Y-49164580D01*
X78486666Y-49164580D02*
X78534285Y-49069342D01*
X78534285Y-49069342D02*
X78534285Y-48259819D01*
X78867619Y-48259819D02*
X79439047Y-48259819D01*
X79153333Y-49259819D02*
X79153333Y-48259819D01*
X73915237Y-56614580D02*
X73867618Y-56662200D01*
X73867618Y-56662200D02*
X73724761Y-56709819D01*
X73724761Y-56709819D02*
X73629523Y-56709819D01*
X73629523Y-56709819D02*
X73486666Y-56662200D01*
X73486666Y-56662200D02*
X73391428Y-56566961D01*
X73391428Y-56566961D02*
X73343809Y-56471723D01*
X73343809Y-56471723D02*
X73296190Y-56281247D01*
X73296190Y-56281247D02*
X73296190Y-56138390D01*
X73296190Y-56138390D02*
X73343809Y-55947914D01*
X73343809Y-55947914D02*
X73391428Y-55852676D01*
X73391428Y-55852676D02*
X73486666Y-55757438D01*
X73486666Y-55757438D02*
X73629523Y-55709819D01*
X73629523Y-55709819D02*
X73724761Y-55709819D01*
X73724761Y-55709819D02*
X73867618Y-55757438D01*
X73867618Y-55757438D02*
X73915237Y-55805057D01*
X74343809Y-55709819D02*
X74343809Y-56519342D01*
X74343809Y-56519342D02*
X74391428Y-56614580D01*
X74391428Y-56614580D02*
X74439047Y-56662200D01*
X74439047Y-56662200D02*
X74534285Y-56709819D01*
X74534285Y-56709819D02*
X74724761Y-56709819D01*
X74724761Y-56709819D02*
X74819999Y-56662200D01*
X74819999Y-56662200D02*
X74867618Y-56614580D01*
X74867618Y-56614580D02*
X74915237Y-56519342D01*
X74915237Y-56519342D02*
X74915237Y-55709819D01*
X75248571Y-55709819D02*
X75819999Y-55709819D01*
X75534285Y-56709819D02*
X75534285Y-55709819D01*
X77105714Y-55709819D02*
X77296190Y-55709819D01*
X77296190Y-55709819D02*
X77391428Y-55757438D01*
X77391428Y-55757438D02*
X77486666Y-55852676D01*
X77486666Y-55852676D02*
X77534285Y-56043152D01*
X77534285Y-56043152D02*
X77534285Y-56376485D01*
X77534285Y-56376485D02*
X77486666Y-56566961D01*
X77486666Y-56566961D02*
X77391428Y-56662200D01*
X77391428Y-56662200D02*
X77296190Y-56709819D01*
X77296190Y-56709819D02*
X77105714Y-56709819D01*
X77105714Y-56709819D02*
X77010476Y-56662200D01*
X77010476Y-56662200D02*
X76915238Y-56566961D01*
X76915238Y-56566961D02*
X76867619Y-56376485D01*
X76867619Y-56376485D02*
X76867619Y-56043152D01*
X76867619Y-56043152D02*
X76915238Y-55852676D01*
X76915238Y-55852676D02*
X77010476Y-55757438D01*
X77010476Y-55757438D02*
X77105714Y-55709819D01*
X77962857Y-55709819D02*
X77962857Y-56519342D01*
X77962857Y-56519342D02*
X78010476Y-56614580D01*
X78010476Y-56614580D02*
X78058095Y-56662200D01*
X78058095Y-56662200D02*
X78153333Y-56709819D01*
X78153333Y-56709819D02*
X78343809Y-56709819D01*
X78343809Y-56709819D02*
X78439047Y-56662200D01*
X78439047Y-56662200D02*
X78486666Y-56614580D01*
X78486666Y-56614580D02*
X78534285Y-56519342D01*
X78534285Y-56519342D02*
X78534285Y-55709819D01*
X78867619Y-55709819D02*
X79439047Y-55709819D01*
X79153333Y-56709819D02*
X79153333Y-55709819D01*
X73915237Y-64064580D02*
X73867618Y-64112200D01*
X73867618Y-64112200D02*
X73724761Y-64159819D01*
X73724761Y-64159819D02*
X73629523Y-64159819D01*
X73629523Y-64159819D02*
X73486666Y-64112200D01*
X73486666Y-64112200D02*
X73391428Y-64016961D01*
X73391428Y-64016961D02*
X73343809Y-63921723D01*
X73343809Y-63921723D02*
X73296190Y-63731247D01*
X73296190Y-63731247D02*
X73296190Y-63588390D01*
X73296190Y-63588390D02*
X73343809Y-63397914D01*
X73343809Y-63397914D02*
X73391428Y-63302676D01*
X73391428Y-63302676D02*
X73486666Y-63207438D01*
X73486666Y-63207438D02*
X73629523Y-63159819D01*
X73629523Y-63159819D02*
X73724761Y-63159819D01*
X73724761Y-63159819D02*
X73867618Y-63207438D01*
X73867618Y-63207438D02*
X73915237Y-63255057D01*
X74343809Y-63159819D02*
X74343809Y-63969342D01*
X74343809Y-63969342D02*
X74391428Y-64064580D01*
X74391428Y-64064580D02*
X74439047Y-64112200D01*
X74439047Y-64112200D02*
X74534285Y-64159819D01*
X74534285Y-64159819D02*
X74724761Y-64159819D01*
X74724761Y-64159819D02*
X74819999Y-64112200D01*
X74819999Y-64112200D02*
X74867618Y-64064580D01*
X74867618Y-64064580D02*
X74915237Y-63969342D01*
X74915237Y-63969342D02*
X74915237Y-63159819D01*
X75248571Y-63159819D02*
X75819999Y-63159819D01*
X75534285Y-64159819D02*
X75534285Y-63159819D01*
X77105714Y-63159819D02*
X77296190Y-63159819D01*
X77296190Y-63159819D02*
X77391428Y-63207438D01*
X77391428Y-63207438D02*
X77486666Y-63302676D01*
X77486666Y-63302676D02*
X77534285Y-63493152D01*
X77534285Y-63493152D02*
X77534285Y-63826485D01*
X77534285Y-63826485D02*
X77486666Y-64016961D01*
X77486666Y-64016961D02*
X77391428Y-64112200D01*
X77391428Y-64112200D02*
X77296190Y-64159819D01*
X77296190Y-64159819D02*
X77105714Y-64159819D01*
X77105714Y-64159819D02*
X77010476Y-64112200D01*
X77010476Y-64112200D02*
X76915238Y-64016961D01*
X76915238Y-64016961D02*
X76867619Y-63826485D01*
X76867619Y-63826485D02*
X76867619Y-63493152D01*
X76867619Y-63493152D02*
X76915238Y-63302676D01*
X76915238Y-63302676D02*
X77010476Y-63207438D01*
X77010476Y-63207438D02*
X77105714Y-63159819D01*
X77962857Y-63159819D02*
X77962857Y-63969342D01*
X77962857Y-63969342D02*
X78010476Y-64064580D01*
X78010476Y-64064580D02*
X78058095Y-64112200D01*
X78058095Y-64112200D02*
X78153333Y-64159819D01*
X78153333Y-64159819D02*
X78343809Y-64159819D01*
X78343809Y-64159819D02*
X78439047Y-64112200D01*
X78439047Y-64112200D02*
X78486666Y-64064580D01*
X78486666Y-64064580D02*
X78534285Y-63969342D01*
X78534285Y-63969342D02*
X78534285Y-63159819D01*
X78867619Y-63159819D02*
X79439047Y-63159819D01*
X79153333Y-64159819D02*
X79153333Y-63159819D01*
M02*
