%TF.GenerationSoftware,KiCad,Pcbnew,7.0.7-7.0.7~ubuntu22.04.1*%
%TF.CreationDate,2023-09-16T17:49:39-05:00*%
%TF.ProjectId,TOF_PANELIZED,544f465f-5041-44e4-954c-495a45442e6b,000*%
%TF.SameCoordinates,Original*%
%TF.FileFunction,Copper,L1,Top*%
%TF.FilePolarity,Positive*%
%FSLAX46Y46*%
G04 Gerber Fmt 4.6, Leading zero omitted, Abs format (unit mm)*
G04 Created by KiCad (PCBNEW 7.0.7-7.0.7~ubuntu22.04.1) date 2023-09-16 17:49:39*
%MOMM*%
%LPD*%
G01*
G04 APERTURE LIST*
%TA.AperFunction,ComponentPad*%
%ADD10R,1.368000X1.368000*%
%TD*%
%TA.AperFunction,ComponentPad*%
%ADD11C,1.368000*%
%TD*%
%TA.AperFunction,SMDPad,CuDef*%
%ADD12R,0.600000X0.490000*%
%TD*%
%TA.AperFunction,SMDPad,CuDef*%
%ADD13R,0.508000X0.508000*%
%TD*%
%TA.AperFunction,SMDPad,CuDef*%
%ADD14R,0.400000X1.600000*%
%TD*%
%TA.AperFunction,SMDPad,CuDef*%
%ADD15R,1.400000X2.900000*%
%TD*%
%TA.AperFunction,SMDPad,CuDef*%
%ADD16R,0.550000X0.500000*%
%TD*%
%TA.AperFunction,ViaPad*%
%ADD17C,0.600000*%
%TD*%
%TA.AperFunction,Conductor*%
%ADD18C,0.300000*%
%TD*%
%TA.AperFunction,Conductor*%
%ADD19C,0.150000*%
%TD*%
G04 APERTURE END LIST*
D10*
%TO.P,J2,1,1*%
%TO.N,VBATT*%
X56215000Y-67840000D03*
D11*
%TO.P,J2,2,2*%
%TO.N,GND*%
X54215000Y-67840000D03*
%TD*%
D12*
%TO.P,R1,1*%
%TO.N,XSHUT1*%
X82770000Y-59937000D03*
%TO.P,R1,2*%
%TO.N,V2.8*%
X82770000Y-59023000D03*
%TD*%
D13*
%TO.P,U1,1,AVDDVCSEL*%
%TO.N,V2.8*%
X78340200Y-67925100D03*
%TO.P,U1,2,AVSSVCSEL*%
%TO.N,GND*%
X77540100Y-67925100D03*
%TO.P,U1,3,GND*%
X76740000Y-67925100D03*
%TO.P,U1,4,GN2*%
X75939900Y-67925100D03*
%TO.P,U1,5,XSHUT*%
%TO.N,XSHUT1*%
X75139800Y-67925100D03*
%TO.P,U1,6,GND3*%
%TO.N,GND*%
X75139800Y-67125000D03*
%TO.P,U1,7,GPIO1*%
%TO.N,unconnected-(U1-GPIO1-Pad7)*%
X75139800Y-66324900D03*
%TO.P,U1,8,DNC*%
%TO.N,unconnected-(U1-DNC-Pad8)*%
X75939900Y-66324900D03*
%TO.P,U1,9,SDA*%
%TO.N,SDA*%
X76740000Y-66324900D03*
%TO.P,U1,10,SCL*%
%TO.N,SCL*%
X77540100Y-66324900D03*
%TO.P,U1,11,AVDD*%
%TO.N,V2.8*%
X78340200Y-66324900D03*
%TO.P,U1,12,GND4*%
%TO.N,GND*%
X78340200Y-67125000D03*
%TD*%
D14*
%TO.P,J1,1,1*%
%TO.N,VBATT*%
X96515000Y-31235000D03*
%TO.P,J1,2,2*%
%TO.N,V2.8*%
X97015000Y-28835000D03*
%TO.P,J1,3,3*%
%TO.N,XSHUT1*%
X97515000Y-31235000D03*
%TO.P,J1,4,4*%
%TO.N,XSHUT2*%
X98015000Y-28835000D03*
%TO.P,J1,5,5*%
%TO.N,GND*%
X98515000Y-31235000D03*
%TO.P,J1,6,6*%
%TO.N,SDA*%
X99015000Y-28835000D03*
%TO.P,J1,7,7*%
%TO.N,SCL*%
X99515000Y-31235000D03*
%TO.P,J1,8,8*%
%TO.N,GND*%
X100015000Y-28835000D03*
D15*
%TO.P,J1,S1,SHIELD*%
%TO.N,unconnected-(J1-SHIELD-PadS1)*%
X94815000Y-30035000D03*
%TO.P,J1,S2,SHIELD*%
%TO.N,unconnected-(J1-SHIELD-PadS2)*%
X101715000Y-30035000D03*
%TD*%
D12*
%TO.P,R2,1*%
%TO.N,XSHUT2*%
X83980000Y-44113000D03*
%TO.P,R2,2*%
%TO.N,V2.8*%
X83980000Y-45027000D03*
%TD*%
%TO.P,R2,1*%
%TO.N,XSHUT2*%
X83980000Y-29213000D03*
%TO.P,R2,2*%
%TO.N,V2.8*%
X83980000Y-30127000D03*
%TD*%
%TO.P,R2,1*%
%TO.N,XSHUT2*%
X83980000Y-51563000D03*
%TO.P,R2,2*%
%TO.N,V2.8*%
X83980000Y-52477000D03*
%TD*%
%TO.P,R1,1*%
%TO.N,XSHUT1*%
X82770000Y-52487000D03*
%TO.P,R1,2*%
%TO.N,V2.8*%
X82770000Y-51573000D03*
%TD*%
D10*
%TO.P,J2,1,1*%
%TO.N,VBATT*%
X56215000Y-60390000D03*
D11*
%TO.P,J2,2,2*%
%TO.N,GND*%
X54215000Y-60390000D03*
%TD*%
D16*
%TO.P,C2,1*%
%TO.N,V2.8*%
X81560000Y-36685000D03*
%TO.P,C2,2*%
%TO.N,GND*%
X81560000Y-37665000D03*
%TD*%
%TO.P,C2,1*%
%TO.N,V2.8*%
X81560000Y-66485000D03*
%TO.P,C2,2*%
%TO.N,GND*%
X81560000Y-67465000D03*
%TD*%
%TO.P,C2,1*%
%TO.N,V2.8*%
X81560000Y-59035000D03*
%TO.P,C2,2*%
%TO.N,GND*%
X81560000Y-60015000D03*
%TD*%
%TO.P,C1,1*%
%TO.N,V2.8*%
X80070000Y-51585000D03*
%TO.P,C1,2*%
%TO.N,GND*%
X80070000Y-52565000D03*
%TD*%
D10*
%TO.P,J2,1,1*%
%TO.N,VBATT*%
X56215000Y-38040000D03*
D11*
%TO.P,J2,2,2*%
%TO.N,GND*%
X54215000Y-38040000D03*
%TD*%
D12*
%TO.P,R2,1*%
%TO.N,XSHUT2*%
X83980000Y-59013000D03*
%TO.P,R2,2*%
%TO.N,V2.8*%
X83980000Y-59927000D03*
%TD*%
D13*
%TO.P,U1,1,AVDDVCSEL*%
%TO.N,V2.8*%
X78340200Y-45575100D03*
%TO.P,U1,2,AVSSVCSEL*%
%TO.N,GND*%
X77540100Y-45575100D03*
%TO.P,U1,3,GND*%
X76740000Y-45575100D03*
%TO.P,U1,4,GN2*%
X75939900Y-45575100D03*
%TO.P,U1,5,XSHUT*%
%TO.N,XSHUT1*%
X75139800Y-45575100D03*
%TO.P,U1,6,GND3*%
%TO.N,GND*%
X75139800Y-44775000D03*
%TO.P,U1,7,GPIO1*%
%TO.N,unconnected-(U1-GPIO1-Pad7)*%
X75139800Y-43974900D03*
%TO.P,U1,8,DNC*%
%TO.N,unconnected-(U1-DNC-Pad8)*%
X75939900Y-43974900D03*
%TO.P,U1,9,SDA*%
%TO.N,SDA*%
X76740000Y-43974900D03*
%TO.P,U1,10,SCL*%
%TO.N,SCL*%
X77540100Y-43974900D03*
%TO.P,U1,11,AVDD*%
%TO.N,V2.8*%
X78340200Y-43974900D03*
%TO.P,U1,12,GND4*%
%TO.N,GND*%
X78340200Y-44775000D03*
%TD*%
D12*
%TO.P,R1,1*%
%TO.N,XSHUT1*%
X82770000Y-45037000D03*
%TO.P,R1,2*%
%TO.N,V2.8*%
X82770000Y-44123000D03*
%TD*%
D16*
%TO.P,C2,1*%
%TO.N,V2.8*%
X81560000Y-44135000D03*
%TO.P,C2,2*%
%TO.N,GND*%
X81560000Y-45115000D03*
%TD*%
D14*
%TO.P,J1,1,1*%
%TO.N,VBATT*%
X96515000Y-53585000D03*
%TO.P,J1,2,2*%
%TO.N,V2.8*%
X97015000Y-51185000D03*
%TO.P,J1,3,3*%
%TO.N,XSHUT1*%
X97515000Y-53585000D03*
%TO.P,J1,4,4*%
%TO.N,XSHUT2*%
X98015000Y-51185000D03*
%TO.P,J1,5,5*%
%TO.N,GND*%
X98515000Y-53585000D03*
%TO.P,J1,6,6*%
%TO.N,SDA*%
X99015000Y-51185000D03*
%TO.P,J1,7,7*%
%TO.N,SCL*%
X99515000Y-53585000D03*
%TO.P,J1,8,8*%
%TO.N,GND*%
X100015000Y-51185000D03*
D15*
%TO.P,J1,S1,SHIELD*%
%TO.N,unconnected-(J1-SHIELD-PadS1)*%
X94815000Y-52385000D03*
%TO.P,J1,S2,SHIELD*%
%TO.N,unconnected-(J1-SHIELD-PadS2)*%
X101715000Y-52385000D03*
%TD*%
D10*
%TO.P,J2,1,1*%
%TO.N,VBATT*%
X56215000Y-30590000D03*
D11*
%TO.P,J2,2,2*%
%TO.N,GND*%
X54215000Y-30590000D03*
%TD*%
D13*
%TO.P,U1,1,AVDDVCSEL*%
%TO.N,V2.8*%
X78340200Y-30675100D03*
%TO.P,U1,2,AVSSVCSEL*%
%TO.N,GND*%
X77540100Y-30675100D03*
%TO.P,U1,3,GND*%
X76740000Y-30675100D03*
%TO.P,U1,4,GN2*%
X75939900Y-30675100D03*
%TO.P,U1,5,XSHUT*%
%TO.N,XSHUT1*%
X75139800Y-30675100D03*
%TO.P,U1,6,GND3*%
%TO.N,GND*%
X75139800Y-29875000D03*
%TO.P,U1,7,GPIO1*%
%TO.N,unconnected-(U1-GPIO1-Pad7)*%
X75139800Y-29074900D03*
%TO.P,U1,8,DNC*%
%TO.N,unconnected-(U1-DNC-Pad8)*%
X75939900Y-29074900D03*
%TO.P,U1,9,SDA*%
%TO.N,SDA*%
X76740000Y-29074900D03*
%TO.P,U1,10,SCL*%
%TO.N,SCL*%
X77540100Y-29074900D03*
%TO.P,U1,11,AVDD*%
%TO.N,V2.8*%
X78340200Y-29074900D03*
%TO.P,U1,12,GND4*%
%TO.N,GND*%
X78340200Y-29875000D03*
%TD*%
D14*
%TO.P,J1,1,1*%
%TO.N,VBATT*%
X96515000Y-68485000D03*
%TO.P,J1,2,2*%
%TO.N,V2.8*%
X97015000Y-66085000D03*
%TO.P,J1,3,3*%
%TO.N,XSHUT1*%
X97515000Y-68485000D03*
%TO.P,J1,4,4*%
%TO.N,XSHUT2*%
X98015000Y-66085000D03*
%TO.P,J1,5,5*%
%TO.N,GND*%
X98515000Y-68485000D03*
%TO.P,J1,6,6*%
%TO.N,SDA*%
X99015000Y-66085000D03*
%TO.P,J1,7,7*%
%TO.N,SCL*%
X99515000Y-68485000D03*
%TO.P,J1,8,8*%
%TO.N,GND*%
X100015000Y-66085000D03*
D15*
%TO.P,J1,S1,SHIELD*%
%TO.N,unconnected-(J1-SHIELD-PadS1)*%
X94815000Y-67285000D03*
%TO.P,J1,S2,SHIELD*%
%TO.N,unconnected-(J1-SHIELD-PadS2)*%
X101715000Y-67285000D03*
%TD*%
D14*
%TO.P,J1,1,1*%
%TO.N,VBATT*%
X96515000Y-61035000D03*
%TO.P,J1,2,2*%
%TO.N,V2.8*%
X97015000Y-58635000D03*
%TO.P,J1,3,3*%
%TO.N,XSHUT1*%
X97515000Y-61035000D03*
%TO.P,J1,4,4*%
%TO.N,XSHUT2*%
X98015000Y-58635000D03*
%TO.P,J1,5,5*%
%TO.N,GND*%
X98515000Y-61035000D03*
%TO.P,J1,6,6*%
%TO.N,SDA*%
X99015000Y-58635000D03*
%TO.P,J1,7,7*%
%TO.N,SCL*%
X99515000Y-61035000D03*
%TO.P,J1,8,8*%
%TO.N,GND*%
X100015000Y-58635000D03*
D15*
%TO.P,J1,S1,SHIELD*%
%TO.N,unconnected-(J1-SHIELD-PadS1)*%
X94815000Y-59835000D03*
%TO.P,J1,S2,SHIELD*%
%TO.N,unconnected-(J1-SHIELD-PadS2)*%
X101715000Y-59835000D03*
%TD*%
D16*
%TO.P,C1,1*%
%TO.N,V2.8*%
X80070000Y-59035000D03*
%TO.P,C1,2*%
%TO.N,GND*%
X80070000Y-60015000D03*
%TD*%
D12*
%TO.P,R1,1*%
%TO.N,XSHUT1*%
X82770000Y-67387000D03*
%TO.P,R1,2*%
%TO.N,V2.8*%
X82770000Y-66473000D03*
%TD*%
D16*
%TO.P,C2,1*%
%TO.N,V2.8*%
X81560000Y-29235000D03*
%TO.P,C2,2*%
%TO.N,GND*%
X81560000Y-30215000D03*
%TD*%
D13*
%TO.P,U1,1,AVDDVCSEL*%
%TO.N,V2.8*%
X78340200Y-38125100D03*
%TO.P,U1,2,AVSSVCSEL*%
%TO.N,GND*%
X77540100Y-38125100D03*
%TO.P,U1,3,GND*%
X76740000Y-38125100D03*
%TO.P,U1,4,GN2*%
X75939900Y-38125100D03*
%TO.P,U1,5,XSHUT*%
%TO.N,XSHUT1*%
X75139800Y-38125100D03*
%TO.P,U1,6,GND3*%
%TO.N,GND*%
X75139800Y-37325000D03*
%TO.P,U1,7,GPIO1*%
%TO.N,unconnected-(U1-GPIO1-Pad7)*%
X75139800Y-36524900D03*
%TO.P,U1,8,DNC*%
%TO.N,unconnected-(U1-DNC-Pad8)*%
X75939900Y-36524900D03*
%TO.P,U1,9,SDA*%
%TO.N,SDA*%
X76740000Y-36524900D03*
%TO.P,U1,10,SCL*%
%TO.N,SCL*%
X77540100Y-36524900D03*
%TO.P,U1,11,AVDD*%
%TO.N,V2.8*%
X78340200Y-36524900D03*
%TO.P,U1,12,GND4*%
%TO.N,GND*%
X78340200Y-37325000D03*
%TD*%
D14*
%TO.P,J1,1,1*%
%TO.N,VBATT*%
X96515000Y-38685000D03*
%TO.P,J1,2,2*%
%TO.N,V2.8*%
X97015000Y-36285000D03*
%TO.P,J1,3,3*%
%TO.N,XSHUT1*%
X97515000Y-38685000D03*
%TO.P,J1,4,4*%
%TO.N,XSHUT2*%
X98015000Y-36285000D03*
%TO.P,J1,5,5*%
%TO.N,GND*%
X98515000Y-38685000D03*
%TO.P,J1,6,6*%
%TO.N,SDA*%
X99015000Y-36285000D03*
%TO.P,J1,7,7*%
%TO.N,SCL*%
X99515000Y-38685000D03*
%TO.P,J1,8,8*%
%TO.N,GND*%
X100015000Y-36285000D03*
D15*
%TO.P,J1,S1,SHIELD*%
%TO.N,unconnected-(J1-SHIELD-PadS1)*%
X94815000Y-37485000D03*
%TO.P,J1,S2,SHIELD*%
%TO.N,unconnected-(J1-SHIELD-PadS2)*%
X101715000Y-37485000D03*
%TD*%
D12*
%TO.P,R2,1*%
%TO.N,XSHUT2*%
X83980000Y-66463000D03*
%TO.P,R2,2*%
%TO.N,V2.8*%
X83980000Y-67377000D03*
%TD*%
D16*
%TO.P,C1,1*%
%TO.N,V2.8*%
X80070000Y-44135000D03*
%TO.P,C1,2*%
%TO.N,GND*%
X80070000Y-45115000D03*
%TD*%
D14*
%TO.P,J1,1,1*%
%TO.N,VBATT*%
X96515000Y-46135000D03*
%TO.P,J1,2,2*%
%TO.N,V2.8*%
X97015000Y-43735000D03*
%TO.P,J1,3,3*%
%TO.N,XSHUT1*%
X97515000Y-46135000D03*
%TO.P,J1,4,4*%
%TO.N,XSHUT2*%
X98015000Y-43735000D03*
%TO.P,J1,5,5*%
%TO.N,GND*%
X98515000Y-46135000D03*
%TO.P,J1,6,6*%
%TO.N,SDA*%
X99015000Y-43735000D03*
%TO.P,J1,7,7*%
%TO.N,SCL*%
X99515000Y-46135000D03*
%TO.P,J1,8,8*%
%TO.N,GND*%
X100015000Y-43735000D03*
D15*
%TO.P,J1,S1,SHIELD*%
%TO.N,unconnected-(J1-SHIELD-PadS1)*%
X94815000Y-44935000D03*
%TO.P,J1,S2,SHIELD*%
%TO.N,unconnected-(J1-SHIELD-PadS2)*%
X101715000Y-44935000D03*
%TD*%
D12*
%TO.P,R2,1*%
%TO.N,XSHUT2*%
X83980000Y-36663000D03*
%TO.P,R2,2*%
%TO.N,V2.8*%
X83980000Y-37577000D03*
%TD*%
%TO.P,R1,1*%
%TO.N,XSHUT1*%
X82770000Y-30137000D03*
%TO.P,R1,2*%
%TO.N,V2.8*%
X82770000Y-29223000D03*
%TD*%
D13*
%TO.P,U1,1,AVDDVCSEL*%
%TO.N,V2.8*%
X78340200Y-53025100D03*
%TO.P,U1,2,AVSSVCSEL*%
%TO.N,GND*%
X77540100Y-53025100D03*
%TO.P,U1,3,GND*%
X76740000Y-53025100D03*
%TO.P,U1,4,GN2*%
X75939900Y-53025100D03*
%TO.P,U1,5,XSHUT*%
%TO.N,XSHUT1*%
X75139800Y-53025100D03*
%TO.P,U1,6,GND3*%
%TO.N,GND*%
X75139800Y-52225000D03*
%TO.P,U1,7,GPIO1*%
%TO.N,unconnected-(U1-GPIO1-Pad7)*%
X75139800Y-51424900D03*
%TO.P,U1,8,DNC*%
%TO.N,unconnected-(U1-DNC-Pad8)*%
X75939900Y-51424900D03*
%TO.P,U1,9,SDA*%
%TO.N,SDA*%
X76740000Y-51424900D03*
%TO.P,U1,10,SCL*%
%TO.N,SCL*%
X77540100Y-51424900D03*
%TO.P,U1,11,AVDD*%
%TO.N,V2.8*%
X78340200Y-51424900D03*
%TO.P,U1,12,GND4*%
%TO.N,GND*%
X78340200Y-52225000D03*
%TD*%
D16*
%TO.P,C1,1*%
%TO.N,V2.8*%
X80070000Y-36685000D03*
%TO.P,C1,2*%
%TO.N,GND*%
X80070000Y-37665000D03*
%TD*%
D12*
%TO.P,R1,1*%
%TO.N,XSHUT1*%
X82770000Y-37587000D03*
%TO.P,R1,2*%
%TO.N,V2.8*%
X82770000Y-36673000D03*
%TD*%
D16*
%TO.P,C1,1*%
%TO.N,V2.8*%
X80070000Y-29235000D03*
%TO.P,C1,2*%
%TO.N,GND*%
X80070000Y-30215000D03*
%TD*%
D10*
%TO.P,J2,1,1*%
%TO.N,VBATT*%
X56215000Y-52940000D03*
D11*
%TO.P,J2,2,2*%
%TO.N,GND*%
X54215000Y-52940000D03*
%TD*%
D10*
%TO.P,J2,1,1*%
%TO.N,VBATT*%
X56215000Y-45490000D03*
D11*
%TO.P,J2,2,2*%
%TO.N,GND*%
X54215000Y-45490000D03*
%TD*%
D16*
%TO.P,C2,1*%
%TO.N,V2.8*%
X81560000Y-51585000D03*
%TO.P,C2,2*%
%TO.N,GND*%
X81560000Y-52565000D03*
%TD*%
%TO.P,C1,1*%
%TO.N,V2.8*%
X80070000Y-66485000D03*
%TO.P,C1,2*%
%TO.N,GND*%
X80070000Y-67465000D03*
%TD*%
D13*
%TO.P,U1,1,AVDDVCSEL*%
%TO.N,V2.8*%
X78340200Y-60475100D03*
%TO.P,U1,2,AVSSVCSEL*%
%TO.N,GND*%
X77540100Y-60475100D03*
%TO.P,U1,3,GND*%
X76740000Y-60475100D03*
%TO.P,U1,4,GN2*%
X75939900Y-60475100D03*
%TO.P,U1,5,XSHUT*%
%TO.N,XSHUT1*%
X75139800Y-60475100D03*
%TO.P,U1,6,GND3*%
%TO.N,GND*%
X75139800Y-59675000D03*
%TO.P,U1,7,GPIO1*%
%TO.N,unconnected-(U1-GPIO1-Pad7)*%
X75139800Y-58874900D03*
%TO.P,U1,8,DNC*%
%TO.N,unconnected-(U1-DNC-Pad8)*%
X75939900Y-58874900D03*
%TO.P,U1,9,SDA*%
%TO.N,SDA*%
X76740000Y-58874900D03*
%TO.P,U1,10,SCL*%
%TO.N,SCL*%
X77540100Y-58874900D03*
%TO.P,U1,11,AVDD*%
%TO.N,V2.8*%
X78340200Y-58874900D03*
%TO.P,U1,12,GND4*%
%TO.N,GND*%
X78340200Y-59675000D03*
%TD*%
D17*
%TO.N,GND*%
X48882533Y-53675000D03*
X71450000Y-59805000D03*
X73150000Y-28675000D03*
X104830000Y-58475000D03*
X58910000Y-37465000D03*
X48882533Y-58475000D03*
X48882533Y-61125000D03*
X48882533Y-31325000D03*
X104830000Y-31325000D03*
X71450000Y-67255000D03*
X58910000Y-30015000D03*
X104830000Y-68575000D03*
X48882533Y-65925000D03*
X98515000Y-38735000D03*
X104830000Y-43575000D03*
X73150000Y-58475000D03*
X73150000Y-53395000D03*
X96180000Y-36510000D03*
X96180000Y-51410000D03*
X73150000Y-43575000D03*
X48882533Y-51025000D03*
X80804992Y-60015008D03*
X100015000Y-36285000D03*
X71450000Y-52355000D03*
X58910000Y-44915000D03*
X71450000Y-30005000D03*
X58910000Y-59815000D03*
X96180000Y-29060000D03*
X104830000Y-38775000D03*
X100015000Y-58635000D03*
X73150000Y-65925000D03*
X48882533Y-38775000D03*
X73150000Y-45945000D03*
X100015000Y-43735000D03*
X104830000Y-61125000D03*
X104830000Y-53675000D03*
X98515000Y-53635000D03*
X73150000Y-38495000D03*
X98515000Y-68535000D03*
X73150000Y-68295000D03*
X73150000Y-60845000D03*
X65180000Y-67255000D03*
X98515000Y-46185000D03*
X48882533Y-36125000D03*
X65180000Y-52355000D03*
X65180000Y-37455000D03*
X73150000Y-51025000D03*
X58910000Y-67265000D03*
X58910000Y-52365000D03*
X104830000Y-36125000D03*
X80804992Y-67465008D03*
X104830000Y-65925000D03*
X80804992Y-37665008D03*
X48882533Y-28675000D03*
X48882533Y-43575000D03*
X100015000Y-66085000D03*
X98515000Y-31285000D03*
X96180000Y-43960000D03*
X104830000Y-28675000D03*
X80804992Y-30215008D03*
X80804992Y-52565008D03*
X48882533Y-68575000D03*
X65180000Y-59805000D03*
X48882533Y-46225000D03*
X100015000Y-51185000D03*
X104830000Y-46225000D03*
X98515000Y-61085000D03*
X65180000Y-30005000D03*
X65180000Y-44905000D03*
X104830000Y-51025000D03*
X71450000Y-44905000D03*
X96180000Y-66310000D03*
X100015000Y-28835000D03*
X96180000Y-58860000D03*
X73150000Y-31045000D03*
X71450000Y-37455000D03*
X80804992Y-45115008D03*
X73150000Y-36125000D03*
%TO.N,V2.8*%
X79200000Y-60380000D03*
X88149998Y-51400002D03*
X88149998Y-43950002D03*
X79200000Y-66420000D03*
X88149998Y-66300002D03*
X79200000Y-36620000D03*
X88149998Y-29050002D03*
X85770000Y-51730000D03*
X88149998Y-36500002D03*
X79200000Y-52930000D03*
X79200000Y-51520000D03*
X79200000Y-44070000D03*
X85770000Y-36830000D03*
X79200000Y-38030000D03*
X79200000Y-29170000D03*
X79200000Y-67830000D03*
X85770000Y-44280000D03*
X85770000Y-29380000D03*
X79200000Y-30580000D03*
X88149998Y-58850002D03*
X85770000Y-59180000D03*
X79200000Y-45480000D03*
X79200000Y-58970000D03*
X85770000Y-66630000D03*
%TO.N,XSHUT2*%
X84826984Y-59013000D03*
X98015000Y-43735000D03*
X98015000Y-51185000D03*
X98015000Y-66085000D03*
X98015000Y-28835000D03*
X98015000Y-36285000D03*
X84826984Y-51563000D03*
X84826984Y-29213000D03*
X84826984Y-36663000D03*
X98015000Y-58635000D03*
X84826984Y-44113000D03*
X84826984Y-66463000D03*
%TO.N,XSHUT1*%
X97515000Y-38685000D03*
X91460000Y-30950000D03*
X91460000Y-60750000D03*
X97515000Y-31235000D03*
X91460000Y-38400000D03*
X97515000Y-53585000D03*
X97515000Y-68485000D03*
X97515000Y-61035000D03*
X91460000Y-68200000D03*
X91460000Y-45850000D03*
X91460000Y-53300000D03*
X97515000Y-46135000D03*
%TO.N,SDA*%
X99015000Y-51185000D03*
X99015000Y-66085000D03*
X89590000Y-44610000D03*
X89590000Y-29710000D03*
X99015000Y-28835000D03*
X89590000Y-37160000D03*
X89590000Y-52060000D03*
X89590000Y-59510000D03*
X89590000Y-66960000D03*
X99015000Y-36285000D03*
X99015000Y-43735000D03*
X99015000Y-58635000D03*
%TO.N,SCL*%
X90170000Y-60130002D03*
X88060002Y-30330002D03*
X88060002Y-52680002D03*
X88060002Y-60130002D03*
X88060002Y-67580002D03*
X90170000Y-30330002D03*
X99515000Y-31285000D03*
X99515000Y-38735000D03*
X99515000Y-61085000D03*
X90170000Y-52680002D03*
X90170000Y-45230002D03*
X88060002Y-37780002D03*
X99515000Y-68535000D03*
X88060002Y-45230002D03*
X90170000Y-37780002D03*
X99515000Y-46185000D03*
X90170000Y-67580002D03*
X99515000Y-53635000D03*
%TD*%
D18*
%TO.N,GND*%
X98515000Y-68485000D02*
X98515000Y-67295000D01*
X98515000Y-53585000D02*
X98515000Y-52395000D01*
X75139800Y-52225000D02*
X78340200Y-52225000D01*
X100015000Y-66775000D02*
X100015000Y-66085000D01*
X75939900Y-53025100D02*
X75939900Y-52225000D01*
X99500000Y-67290000D02*
X100015000Y-66775000D01*
X75939900Y-38125100D02*
X75939900Y-37325000D01*
X96180000Y-44530002D02*
X96589998Y-44940000D01*
X100015000Y-59325000D02*
X100015000Y-58635000D01*
X96589998Y-59840000D02*
X99500000Y-59840000D01*
X100015000Y-29525000D02*
X100015000Y-28835000D01*
X77540100Y-38125100D02*
X77540100Y-37325000D01*
X100015000Y-51875000D02*
X100015000Y-51185000D01*
X98515000Y-46135000D02*
X98515000Y-44945000D01*
X80804984Y-67465000D02*
X80804992Y-67465008D01*
X80805000Y-45115000D02*
X80804992Y-45115008D01*
X96180000Y-43960000D02*
X96180000Y-44530002D01*
X75139800Y-44775000D02*
X78340200Y-44775000D01*
X96180000Y-66880002D02*
X96589998Y-67290000D01*
X81560000Y-45115000D02*
X80805000Y-45115000D01*
X96180000Y-29060000D02*
X96180000Y-29630002D01*
X99500000Y-52390000D02*
X100015000Y-51875000D01*
X96589998Y-30040000D02*
X99500000Y-30040000D01*
X76740000Y-67925100D02*
X76740000Y-67125000D01*
X99500000Y-37490000D02*
X100015000Y-36975000D01*
X96180000Y-37080002D02*
X96589998Y-37490000D01*
X80805000Y-52565000D02*
X80804992Y-52565008D01*
X81560000Y-60015000D02*
X80805000Y-60015000D01*
X96589998Y-52390000D02*
X99500000Y-52390000D01*
X75939900Y-67925100D02*
X75939900Y-67125000D01*
X75939900Y-60475100D02*
X75939900Y-59675000D01*
X80804984Y-45115000D02*
X80804992Y-45115008D01*
X80804984Y-30215000D02*
X80804992Y-30215008D01*
X77540100Y-30675100D02*
X77540100Y-29875000D01*
X100015000Y-36975000D02*
X100015000Y-36285000D01*
X81560000Y-30215000D02*
X80805000Y-30215000D01*
X76740000Y-60475100D02*
X76740000Y-59675000D01*
X80804984Y-37665000D02*
X80804992Y-37665008D01*
X98515000Y-38685000D02*
X98515000Y-37495000D01*
X96589998Y-67290000D02*
X99500000Y-67290000D01*
X99500000Y-44940000D02*
X100015000Y-44425000D01*
X96180000Y-59430002D02*
X96589998Y-59840000D01*
X76740000Y-30675100D02*
X76740000Y-29875000D01*
X96180000Y-51410000D02*
X96180000Y-51980002D01*
X96180000Y-66310000D02*
X96180000Y-66880002D01*
X75939900Y-45575100D02*
X75939900Y-44775000D01*
X76740000Y-53025100D02*
X76740000Y-52225000D01*
X77540100Y-53025100D02*
X77540100Y-52225000D01*
X96180000Y-36510000D02*
X96180000Y-37080002D01*
X80805000Y-37665000D02*
X80804992Y-37665008D01*
X80070000Y-30215000D02*
X80804984Y-30215000D01*
X75139800Y-37325000D02*
X78340200Y-37325000D01*
X80070000Y-52565000D02*
X80804984Y-52565000D01*
X96180000Y-58860000D02*
X96180000Y-59430002D01*
X80070000Y-67465000D02*
X80804984Y-67465000D01*
X75139800Y-67125000D02*
X78340200Y-67125000D01*
X80804984Y-60015000D02*
X80804992Y-60015008D01*
X99500000Y-30040000D02*
X100015000Y-29525000D01*
X76740000Y-45575100D02*
X76740000Y-44775000D01*
X77540100Y-45575100D02*
X77540100Y-44775000D01*
X96180000Y-51980002D02*
X96589998Y-52390000D01*
X100015000Y-44425000D02*
X100015000Y-43735000D01*
X81560000Y-37665000D02*
X80805000Y-37665000D01*
X80804984Y-52565000D02*
X80804992Y-52565008D01*
X80805000Y-30215000D02*
X80804992Y-30215008D01*
X96589998Y-37490000D02*
X99500000Y-37490000D01*
X81560000Y-67465000D02*
X80805000Y-67465000D01*
X80070000Y-60015000D02*
X80804984Y-60015000D01*
X76740000Y-38125100D02*
X76740000Y-37325000D01*
X98515000Y-31235000D02*
X98515000Y-30045000D01*
X80070000Y-45115000D02*
X80804984Y-45115000D01*
X75139800Y-29875000D02*
X78340200Y-29875000D01*
X80070000Y-37665000D02*
X80804984Y-37665000D01*
X80805000Y-60015000D02*
X80804992Y-60015008D01*
X75939900Y-30675100D02*
X75939900Y-29875000D01*
X96180000Y-29630002D02*
X96589998Y-30040000D01*
X99500000Y-59840000D02*
X100015000Y-59325000D01*
X77540100Y-67925100D02*
X77540100Y-67125000D01*
X80805000Y-67465000D02*
X80804992Y-67465008D01*
X81560000Y-52565000D02*
X80805000Y-52565000D01*
X98515000Y-61035000D02*
X98515000Y-59845000D01*
X75139800Y-59675000D02*
X78340200Y-59675000D01*
X96589998Y-44940000D02*
X99500000Y-44940000D01*
X77540100Y-60475100D02*
X77540100Y-59675000D01*
%TO.N,V2.8*%
X79200000Y-44070000D02*
X82770000Y-44070000D01*
X79200000Y-67810000D02*
X79200000Y-66410000D01*
X82903000Y-59023000D02*
X83822000Y-59942000D01*
X79200000Y-60380000D02*
X78340200Y-60380000D01*
X83822000Y-52492000D02*
X84580000Y-52492000D01*
X88965001Y-43134999D02*
X88149998Y-43950002D01*
X88965001Y-65484999D02*
X88149998Y-66300002D01*
X84460000Y-52492000D02*
X85008000Y-52492000D01*
X85008000Y-67392000D02*
X85770000Y-66630000D01*
X96744999Y-58034999D02*
X88965001Y-58034999D01*
X79200000Y-29170000D02*
X78340200Y-29170000D01*
X88965001Y-58034999D02*
X88149998Y-58850002D01*
X85008000Y-59942000D02*
X85770000Y-59180000D01*
X88965001Y-35684999D02*
X88149998Y-36500002D01*
X82903000Y-66473000D02*
X83822000Y-67392000D01*
X83822000Y-67392000D02*
X84580000Y-67392000D01*
X79200000Y-52910000D02*
X79200000Y-51510000D01*
X79200000Y-51520000D02*
X82770000Y-51520000D01*
X79200000Y-66420000D02*
X82770000Y-66420000D01*
X97015000Y-43405000D02*
X96744999Y-43134999D01*
X97015000Y-65755000D02*
X96744999Y-65484999D01*
X79200000Y-38010000D02*
X79200000Y-36610000D01*
X85008000Y-45042000D02*
X85770000Y-44280000D01*
X97015000Y-36285000D02*
X97015000Y-35955000D01*
X79200000Y-44070000D02*
X78340200Y-44070000D01*
X97015000Y-28505000D02*
X96744999Y-28234999D01*
X97015000Y-28835000D02*
X97015000Y-28505000D01*
X97015000Y-35955000D02*
X96744999Y-35684999D01*
X97015000Y-58635000D02*
X97015000Y-58305000D01*
X96840000Y-35635000D02*
X96800000Y-35635000D01*
X97015000Y-51185000D02*
X97015000Y-50855000D01*
X79200000Y-60360000D02*
X79200000Y-58960000D01*
X97015000Y-58305000D02*
X96744999Y-58034999D01*
X97015000Y-43735000D02*
X97015000Y-43405000D01*
X79200000Y-30560000D02*
X79200000Y-29160000D01*
X96744999Y-65484999D02*
X88965001Y-65484999D01*
X84460000Y-45042000D02*
X85008000Y-45042000D01*
X96744999Y-43134999D02*
X88965001Y-43134999D01*
X79200000Y-30580000D02*
X78340200Y-30580000D01*
X84460000Y-37592000D02*
X85008000Y-37592000D01*
X82903000Y-51573000D02*
X83822000Y-52492000D01*
X96840000Y-50535000D02*
X96800000Y-50535000D01*
X84460000Y-67392000D02*
X85008000Y-67392000D01*
X85008000Y-37592000D02*
X85770000Y-36830000D01*
X83822000Y-37592000D02*
X84580000Y-37592000D01*
X79200000Y-36620000D02*
X78340200Y-36620000D01*
X79200000Y-58970000D02*
X82770000Y-58970000D01*
X82903000Y-36673000D02*
X83822000Y-37592000D01*
X88965001Y-28234999D02*
X88149998Y-29050002D01*
X79200000Y-52930000D02*
X78340200Y-52930000D01*
X96744999Y-28234999D02*
X88965001Y-28234999D01*
X79200000Y-67830000D02*
X78340200Y-67830000D01*
X97015000Y-50855000D02*
X96744999Y-50584999D01*
X96744999Y-50584999D02*
X88965001Y-50584999D01*
X85008000Y-30142000D02*
X85770000Y-29380000D01*
X96840000Y-65435000D02*
X96800000Y-65435000D01*
X79200000Y-58970000D02*
X78340200Y-58970000D01*
X84460000Y-59942000D02*
X85008000Y-59942000D01*
X79200000Y-38030000D02*
X78340200Y-38030000D01*
X83822000Y-45042000D02*
X84580000Y-45042000D01*
X79200000Y-45480000D02*
X78340200Y-45480000D01*
X82903000Y-44123000D02*
X83822000Y-45042000D01*
X88965001Y-50584999D02*
X88149998Y-51400002D01*
X84460000Y-30142000D02*
X85008000Y-30142000D01*
X97015000Y-66085000D02*
X97015000Y-65755000D01*
X85008000Y-52492000D02*
X85770000Y-51730000D01*
X96840000Y-43085000D02*
X96800000Y-43085000D01*
X79200000Y-29170000D02*
X82770000Y-29170000D01*
X83822000Y-59942000D02*
X84580000Y-59942000D01*
X96840000Y-28185000D02*
X96800000Y-28185000D01*
X96744999Y-35684999D02*
X88965001Y-35684999D01*
X82903000Y-29223000D02*
X83822000Y-30142000D01*
X79200000Y-36620000D02*
X82770000Y-36620000D01*
X79200000Y-66420000D02*
X78340200Y-66420000D01*
X79200000Y-51520000D02*
X78340200Y-51520000D01*
X79200000Y-45460000D02*
X79200000Y-44060000D01*
X96840000Y-57985000D02*
X96800000Y-57985000D01*
X83822000Y-30142000D02*
X84580000Y-30142000D01*
%TO.N,VBATT*%
X57460001Y-39285001D02*
X96314999Y-39285001D01*
X56215000Y-38040000D02*
X57460001Y-39285001D01*
X96314999Y-54185001D02*
X96515000Y-53985000D01*
X56215000Y-67840000D02*
X57460001Y-69085001D01*
X96314999Y-46735001D02*
X96515000Y-46535000D01*
X96314999Y-39285001D02*
X96515000Y-39085000D01*
X56215000Y-52940000D02*
X57460001Y-54185001D01*
X96314999Y-61635001D02*
X96515000Y-61435000D01*
X57460001Y-61635001D02*
X96314999Y-61635001D01*
X56215000Y-45490000D02*
X57460001Y-46735001D01*
X56215000Y-30590000D02*
X57460001Y-31835001D01*
X96515000Y-39085000D02*
X96515000Y-38685000D01*
X96320000Y-54234999D02*
X96360000Y-54234999D01*
X56215000Y-60390000D02*
X57460001Y-61635001D01*
X96320000Y-61684999D02*
X96360000Y-61684999D01*
X96515000Y-31635000D02*
X96515000Y-31235000D01*
X57460001Y-54185001D02*
X96314999Y-54185001D01*
X96515000Y-46535000D02*
X96515000Y-46135000D01*
X57460001Y-31835001D02*
X96314999Y-31835001D01*
X96320000Y-39334999D02*
X96360000Y-39334999D01*
X57460001Y-69085001D02*
X96314999Y-69085001D01*
X96515000Y-53985000D02*
X96515000Y-53585000D01*
X96515000Y-61435000D02*
X96515000Y-61035000D01*
X96320000Y-46784999D02*
X96360000Y-46784999D01*
X96314999Y-69085001D02*
X96515000Y-68885000D01*
X96515000Y-68885000D02*
X96515000Y-68485000D01*
X57460001Y-46735001D02*
X96314999Y-46735001D01*
X96314999Y-31835001D02*
X96515000Y-31635000D01*
X96320000Y-69134999D02*
X96360000Y-69134999D01*
X96320000Y-31884999D02*
X96360000Y-31884999D01*
%TO.N,XSHUT2*%
X83980000Y-66463000D02*
X84826984Y-66463000D01*
X83980000Y-59013000D02*
X84826984Y-59013000D01*
X83980000Y-51563000D02*
X84826984Y-51563000D01*
X83980000Y-36663000D02*
X84826984Y-36663000D01*
X83980000Y-29213000D02*
X84826984Y-29213000D01*
X83980000Y-44113000D02*
X84826984Y-44113000D01*
D19*
%TO.N,XSHUT1*%
X82713000Y-59937000D02*
X82030000Y-60620000D01*
X82807000Y-30137000D02*
X83620000Y-30950000D01*
X82713000Y-37587000D02*
X82030000Y-38270000D01*
X75609999Y-31249999D02*
X75139800Y-30779800D01*
X83880000Y-60750000D02*
X91460000Y-60750000D01*
X82807000Y-52487000D02*
X83620000Y-53300000D01*
X82713000Y-45037000D02*
X82030000Y-45720000D01*
X83620000Y-45850000D02*
X83880000Y-45850000D01*
X83620000Y-38400000D02*
X83880000Y-38400000D01*
X79639999Y-68499999D02*
X75609999Y-68499999D01*
X83620000Y-60750000D02*
X83880000Y-60750000D01*
X79639999Y-31249999D02*
X75609999Y-31249999D01*
X75609999Y-68499999D02*
X75139800Y-68029800D01*
X75609999Y-46149999D02*
X75139800Y-45679800D01*
X75139800Y-38229800D02*
X75139800Y-38125100D01*
X82030000Y-60620000D02*
X80069998Y-60620000D01*
X79639999Y-53599999D02*
X75609999Y-53599999D01*
X75139800Y-60579800D02*
X75139800Y-60475100D01*
X82807000Y-37587000D02*
X83620000Y-38400000D01*
X82030000Y-45720000D02*
X80069998Y-45720000D01*
X75139800Y-30779800D02*
X75139800Y-30675100D01*
X80069998Y-68070000D02*
X79639999Y-68499999D01*
X75139800Y-53129800D02*
X75139800Y-53025100D01*
X80069998Y-60620000D02*
X79639999Y-61049999D01*
X83880000Y-45850000D02*
X91460000Y-45850000D01*
X82030000Y-53170000D02*
X80069998Y-53170000D01*
X75609999Y-53599999D02*
X75139800Y-53129800D01*
X82713000Y-52487000D02*
X82030000Y-53170000D01*
X80069998Y-53170000D02*
X79639999Y-53599999D01*
X82713000Y-67387000D02*
X82030000Y-68070000D01*
X83620000Y-53300000D02*
X83880000Y-53300000D01*
X83880000Y-68200000D02*
X91460000Y-68200000D01*
X83620000Y-68200000D02*
X83880000Y-68200000D01*
X80069998Y-38270000D02*
X79639999Y-38699999D01*
X83880000Y-30950000D02*
X91460000Y-30950000D01*
X75609999Y-61049999D02*
X75139800Y-60579800D01*
X79639999Y-46149999D02*
X75609999Y-46149999D01*
X82030000Y-38270000D02*
X80069998Y-38270000D01*
X82030000Y-30820000D02*
X80069998Y-30820000D01*
X79639999Y-61049999D02*
X75609999Y-61049999D01*
X75139800Y-45679800D02*
X75139800Y-45575100D01*
X82713000Y-30137000D02*
X82030000Y-30820000D01*
X83880000Y-53300000D02*
X91460000Y-53300000D01*
X83620000Y-30950000D02*
X83880000Y-30950000D01*
X82030000Y-68070000D02*
X80069998Y-68070000D01*
X83880000Y-38400000D02*
X91460000Y-38400000D01*
X82807000Y-45037000D02*
X83620000Y-45850000D01*
X80069998Y-45720000D02*
X79639999Y-46149999D01*
X80069998Y-30820000D02*
X79639999Y-31249999D01*
X82807000Y-67387000D02*
X83620000Y-68200000D01*
X82807000Y-59937000D02*
X83620000Y-60750000D01*
X79639999Y-38699999D02*
X75609999Y-38699999D01*
X75139800Y-68029800D02*
X75139800Y-67925100D01*
X75609999Y-38699999D02*
X75139800Y-38229800D01*
%TO.N,SDA*%
X76740000Y-28970000D02*
X77530000Y-28180000D01*
X76740000Y-51320000D02*
X77530000Y-50530000D01*
X76740000Y-58770000D02*
X77530000Y-57980000D01*
X76740000Y-36420000D02*
X77530000Y-35630000D01*
X76740000Y-51424900D02*
X76740000Y-51320000D01*
X87958992Y-29710000D02*
X89590000Y-29710000D01*
X77530000Y-28180000D02*
X86428992Y-28180000D01*
X86428992Y-65430000D02*
X87958992Y-66960000D01*
X76740000Y-58874900D02*
X76740000Y-58770000D01*
X87958992Y-66960000D02*
X89590000Y-66960000D01*
X77530000Y-57980000D02*
X86428992Y-57980000D01*
X76740000Y-29074900D02*
X76740000Y-28970000D01*
X87958992Y-37160000D02*
X89590000Y-37160000D01*
X86428992Y-57980000D02*
X87958992Y-59510000D01*
X76740000Y-43974900D02*
X76740000Y-43870000D01*
X86428992Y-43080000D02*
X87958992Y-44610000D01*
X77530000Y-65430000D02*
X86428992Y-65430000D01*
X76740000Y-43870000D02*
X77530000Y-43080000D01*
X86428992Y-50530000D02*
X87958992Y-52060000D01*
X86428992Y-28180000D02*
X87958992Y-29710000D01*
X86428992Y-35630000D02*
X87958992Y-37160000D01*
X77530000Y-43080000D02*
X86428992Y-43080000D01*
X87958992Y-59510000D02*
X89590000Y-59510000D01*
X87958992Y-44610000D02*
X89590000Y-44610000D01*
X77530000Y-50530000D02*
X86428992Y-50530000D01*
X77530000Y-35630000D02*
X86428992Y-35630000D01*
X87958992Y-52060000D02*
X89590000Y-52060000D01*
X76740000Y-66324900D02*
X76740000Y-66220000D01*
X76740000Y-36524900D02*
X76740000Y-36420000D01*
X76740000Y-66220000D02*
X77530000Y-65430000D01*
%TO.N,SCL*%
X86260000Y-35980000D02*
X88060002Y-37780002D01*
X86260000Y-58330000D02*
X88060002Y-60130002D01*
X78085000Y-58330000D02*
X86260000Y-58330000D01*
X86260000Y-28530000D02*
X88060002Y-30330002D01*
X77540100Y-36524900D02*
X78085000Y-35980000D01*
X90170000Y-45230002D02*
X88060002Y-45230002D01*
X77540100Y-29074900D02*
X78085000Y-28530000D01*
X77540100Y-51424900D02*
X78085000Y-50880000D01*
X90170000Y-30330002D02*
X88060002Y-30330002D01*
X90170000Y-67580002D02*
X88060002Y-67580002D01*
X86260000Y-65780000D02*
X88060002Y-67580002D01*
X77540100Y-58874900D02*
X78085000Y-58330000D01*
X86260000Y-43430000D02*
X88060002Y-45230002D01*
X78085000Y-35980000D02*
X86260000Y-35980000D01*
X90170000Y-60130002D02*
X88060002Y-60130002D01*
X78085000Y-65780000D02*
X86260000Y-65780000D01*
X77540100Y-66324900D02*
X78085000Y-65780000D01*
X90170000Y-37780002D02*
X88060002Y-37780002D01*
X78085000Y-50880000D02*
X86260000Y-50880000D01*
X77540100Y-43974900D02*
X78085000Y-43430000D01*
X78085000Y-43430000D02*
X86260000Y-43430000D01*
X90170000Y-52680002D02*
X88060002Y-52680002D01*
X78085000Y-28530000D02*
X86260000Y-28530000D01*
X86260000Y-50880000D02*
X88060002Y-52680002D01*
%TD*%
%TA.AperFunction,Conductor*%
%TO.N,GND*%
G36*
X77321265Y-65127813D02*
G01*
X77346575Y-65171650D01*
X77337785Y-65221500D01*
X77335225Y-65225617D01*
X77320053Y-65248320D01*
X77310853Y-65259529D01*
X76571656Y-65998726D01*
X76525780Y-66020118D01*
X76519332Y-66020400D01*
X76481030Y-66020400D01*
X76466295Y-66023330D01*
X76449592Y-66034491D01*
X76438429Y-66051196D01*
X76435500Y-66065927D01*
X76435500Y-66583870D01*
X76438318Y-66598042D01*
X76438430Y-66598604D01*
X76449592Y-66615308D01*
X76466296Y-66626470D01*
X76466295Y-66626470D01*
X76468739Y-66626955D01*
X76481027Y-66629400D01*
X76998972Y-66629399D01*
X77013704Y-66626470D01*
X77030408Y-66615308D01*
X77041570Y-66598604D01*
X77044500Y-66583873D01*
X77044499Y-66335766D01*
X77061812Y-66288201D01*
X77066162Y-66283452D01*
X77109275Y-66240339D01*
X77155150Y-66218948D01*
X77204045Y-66232049D01*
X77233079Y-66273513D01*
X77235600Y-66292666D01*
X77235600Y-66583870D01*
X77238418Y-66598042D01*
X77238530Y-66598604D01*
X77249692Y-66615308D01*
X77266396Y-66626470D01*
X77266395Y-66626470D01*
X77268839Y-66626955D01*
X77281127Y-66629400D01*
X77536085Y-66629399D01*
X77583650Y-66646712D01*
X77608960Y-66690549D01*
X77605419Y-66729258D01*
X77592602Y-66763622D01*
X77592602Y-66763624D01*
X77586200Y-66823171D01*
X77586200Y-66875000D01*
X78516200Y-66875000D01*
X78563766Y-66892313D01*
X78589076Y-66936150D01*
X78590200Y-66949000D01*
X78590200Y-67301000D01*
X78572887Y-67348566D01*
X78529050Y-67373876D01*
X78516200Y-67375000D01*
X77790100Y-67375000D01*
X77790100Y-68101100D01*
X77772787Y-68148666D01*
X77728950Y-68173976D01*
X77716100Y-68175100D01*
X75763900Y-68175100D01*
X75716334Y-68157787D01*
X75691024Y-68113950D01*
X75689900Y-68101100D01*
X75689900Y-67375000D01*
X74385800Y-67375000D01*
X74385800Y-67426828D01*
X74392202Y-67486375D01*
X74392203Y-67486380D01*
X74442445Y-67621087D01*
X74442446Y-67621088D01*
X74528611Y-67736188D01*
X74643711Y-67822353D01*
X74643712Y-67822354D01*
X74782761Y-67874216D01*
X74782378Y-67875242D01*
X74820623Y-67900354D01*
X74835300Y-67944589D01*
X74835300Y-68184070D01*
X74835301Y-68184073D01*
X74838230Y-68198804D01*
X74849392Y-68215508D01*
X74866096Y-68226670D01*
X74866095Y-68226670D01*
X74869025Y-68227252D01*
X74880827Y-68229600D01*
X74919330Y-68229599D01*
X74966896Y-68246911D01*
X74971657Y-68251273D01*
X75328559Y-68608175D01*
X75349951Y-68654051D01*
X75336850Y-68702946D01*
X75295386Y-68731980D01*
X75276233Y-68734501D01*
X57635835Y-68734501D01*
X57588269Y-68717188D01*
X57583509Y-68712827D01*
X56971173Y-68100491D01*
X56949781Y-68054615D01*
X56949499Y-68048165D01*
X56949499Y-67171100D01*
X76189900Y-67171100D01*
X76189900Y-67675100D01*
X76490000Y-67675100D01*
X76490000Y-67171100D01*
X76990000Y-67171100D01*
X76990000Y-67675100D01*
X77290100Y-67675100D01*
X77290100Y-67171100D01*
X77238271Y-67171100D01*
X77178723Y-67177502D01*
X77165906Y-67182282D01*
X77115288Y-67182680D01*
X77114194Y-67182282D01*
X77101376Y-67177502D01*
X77041829Y-67171100D01*
X76990000Y-67171100D01*
X76490000Y-67171100D01*
X76438171Y-67171100D01*
X76378623Y-67177502D01*
X76365806Y-67182282D01*
X76315188Y-67182680D01*
X76314094Y-67182282D01*
X76301276Y-67177502D01*
X76241729Y-67171100D01*
X76189900Y-67171100D01*
X56949499Y-67171100D01*
X56949499Y-67151029D01*
X56946715Y-67137027D01*
X56946570Y-67136296D01*
X56935408Y-67119592D01*
X56918704Y-67108430D01*
X56918701Y-67108429D01*
X56918704Y-67108429D01*
X56906416Y-67105985D01*
X56903973Y-67105500D01*
X56903972Y-67105500D01*
X55526029Y-67105500D01*
X55511295Y-67108430D01*
X55494592Y-67119591D01*
X55483429Y-67136296D01*
X55480499Y-67151027D01*
X55480500Y-67430794D01*
X55463187Y-67478360D01*
X55419350Y-67503670D01*
X55369500Y-67494880D01*
X55336963Y-67456103D01*
X55335325Y-67451045D01*
X55323778Y-67410462D01*
X55323776Y-67410458D01*
X55225968Y-67214032D01*
X55225966Y-67214030D01*
X55212437Y-67196114D01*
X54726303Y-67682248D01*
X54680426Y-67703640D01*
X54631532Y-67690539D01*
X54605092Y-67656957D01*
X54603873Y-67653850D01*
X54591597Y-67622572D01*
X54510778Y-67521227D01*
X54470709Y-67493908D01*
X54403676Y-67448206D01*
X54398683Y-67445802D01*
X54399545Y-67444011D01*
X54365699Y-67418365D01*
X54354445Y-67369013D01*
X54375543Y-67325902D01*
X54826445Y-66875000D01*
X74385800Y-66875000D01*
X75893800Y-66875000D01*
X75893800Y-66823171D01*
X75887397Y-66763624D01*
X75887396Y-66763619D01*
X75874581Y-66729259D01*
X75874179Y-66678642D01*
X75906408Y-66639609D01*
X75943913Y-66629399D01*
X76198872Y-66629399D01*
X76213604Y-66626470D01*
X76230308Y-66615308D01*
X76241470Y-66598604D01*
X76244400Y-66583873D01*
X76244399Y-66065928D01*
X76241470Y-66051196D01*
X76230308Y-66034492D01*
X76213604Y-66023330D01*
X76213601Y-66023329D01*
X76213604Y-66023329D01*
X76201316Y-66020885D01*
X76198873Y-66020400D01*
X76198872Y-66020400D01*
X75680929Y-66020400D01*
X75666195Y-66023330D01*
X75649492Y-66034491D01*
X75638329Y-66051196D01*
X75635400Y-66065927D01*
X75635400Y-66320884D01*
X75618087Y-66368450D01*
X75574250Y-66393760D01*
X75535541Y-66390219D01*
X75496840Y-66375785D01*
X75497221Y-66374762D01*
X75458969Y-66349636D01*
X75444299Y-66305410D01*
X75444299Y-66065929D01*
X75443861Y-66063726D01*
X75441370Y-66051196D01*
X75430208Y-66034492D01*
X75413504Y-66023330D01*
X75413501Y-66023329D01*
X75413504Y-66023329D01*
X75401216Y-66020885D01*
X75398773Y-66020400D01*
X75398772Y-66020400D01*
X74880829Y-66020400D01*
X74866095Y-66023330D01*
X74849392Y-66034491D01*
X74838229Y-66051196D01*
X74835300Y-66065927D01*
X74835300Y-66305410D01*
X74817987Y-66352976D01*
X74782429Y-66374895D01*
X74782761Y-66375784D01*
X74643712Y-66427645D01*
X74643711Y-66427646D01*
X74528611Y-66513811D01*
X74442446Y-66628911D01*
X74442445Y-66628912D01*
X74392203Y-66763619D01*
X74392202Y-66763624D01*
X74385800Y-66823171D01*
X74385800Y-66875000D01*
X54826445Y-66875000D01*
X54856705Y-66844740D01*
X54745019Y-66775589D01*
X54745009Y-66775584D01*
X54540408Y-66696321D01*
X54324717Y-66656000D01*
X54105282Y-66656000D01*
X53889591Y-66696321D01*
X53684990Y-66775584D01*
X53684974Y-66775591D01*
X53573293Y-66844740D01*
X54057753Y-67329200D01*
X54079145Y-67375076D01*
X54066044Y-67423971D01*
X54037535Y-67448198D01*
X53970035Y-67480704D01*
X53875014Y-67568871D01*
X53819026Y-67665844D01*
X53780250Y-67698381D01*
X53729631Y-67698380D01*
X53702615Y-67681169D01*
X53217561Y-67196115D01*
X53204031Y-67214033D01*
X53204030Y-67214035D01*
X53106223Y-67410458D01*
X53106221Y-67410463D01*
X53046174Y-67621507D01*
X53046172Y-67621520D01*
X53025928Y-67839996D01*
X53025928Y-67840003D01*
X53046172Y-68058479D01*
X53046174Y-68058492D01*
X53106221Y-68269536D01*
X53106223Y-68269541D01*
X53204031Y-68465967D01*
X53204033Y-68465970D01*
X53217561Y-68483883D01*
X53703696Y-67997749D01*
X53749572Y-67976357D01*
X53798467Y-67989458D01*
X53824907Y-68023040D01*
X53834767Y-68048165D01*
X53838403Y-68057428D01*
X53911162Y-68148666D01*
X53919222Y-68158773D01*
X54026323Y-68231793D01*
X54031317Y-68234198D01*
X54030452Y-68235994D01*
X54064281Y-68261606D01*
X54075557Y-68310954D01*
X54054455Y-68354096D01*
X53573293Y-68835258D01*
X53684980Y-68904410D01*
X53684990Y-68904415D01*
X53889591Y-68983678D01*
X54105282Y-69023999D01*
X54105286Y-69024000D01*
X54324714Y-69024000D01*
X54324717Y-69023999D01*
X54540408Y-68983678D01*
X54745009Y-68904415D01*
X54745019Y-68904410D01*
X54856704Y-68835257D01*
X54372246Y-68350799D01*
X54350854Y-68304923D01*
X54363955Y-68256028D01*
X54392465Y-68231801D01*
X54459964Y-68199296D01*
X54554985Y-68111129D01*
X54610973Y-68014154D01*
X54649747Y-67981619D01*
X54700366Y-67981619D01*
X54727383Y-67998830D01*
X55212437Y-68483883D01*
X55225970Y-68465963D01*
X55323776Y-68269541D01*
X55335324Y-68228954D01*
X55364992Y-68187940D01*
X55414082Y-68175592D01*
X55459624Y-68197688D01*
X55480309Y-68243888D01*
X55480500Y-68249203D01*
X55480500Y-68528970D01*
X55483430Y-68543704D01*
X55494592Y-68560408D01*
X55511296Y-68571570D01*
X55511295Y-68571570D01*
X55513739Y-68572055D01*
X55526027Y-68574500D01*
X56423165Y-68574499D01*
X56470731Y-68591812D01*
X56475491Y-68596173D01*
X57181031Y-69301713D01*
X57190653Y-69313562D01*
X57198564Y-69325670D01*
X57225732Y-69346815D01*
X57229167Y-69349849D01*
X57232694Y-69353376D01*
X57250436Y-69366043D01*
X57258864Y-69372603D01*
X57285767Y-69415481D01*
X57278815Y-69465620D01*
X57241261Y-69499560D01*
X57213413Y-69505000D01*
X47914000Y-69505000D01*
X47866434Y-69487687D01*
X47841124Y-69443850D01*
X47840000Y-69431000D01*
X47840000Y-65184500D01*
X47857313Y-65136934D01*
X47901150Y-65111624D01*
X47914000Y-65110500D01*
X77273699Y-65110500D01*
X77321265Y-65127813D01*
G37*
%TD.AperFunction*%
%TA.AperFunction,Conductor*%
G36*
X105653566Y-65127813D02*
G01*
X105678876Y-65171650D01*
X105680000Y-65184500D01*
X105680000Y-69431000D01*
X105662687Y-69478566D01*
X105618850Y-69503876D01*
X105606000Y-69505000D01*
X102424000Y-69505000D01*
X102376434Y-69487687D01*
X102351124Y-69443850D01*
X102350000Y-69431000D01*
X102350000Y-68859460D01*
X102367313Y-68811894D01*
X102411150Y-68786584D01*
X102416752Y-68785816D01*
X102419967Y-68785499D01*
X102419972Y-68785499D01*
X102434704Y-68782570D01*
X102451408Y-68771408D01*
X102462570Y-68754704D01*
X102465500Y-68739973D01*
X102465499Y-65830028D01*
X102462570Y-65815296D01*
X102451408Y-65798592D01*
X102434704Y-65787430D01*
X102434703Y-65787429D01*
X102419973Y-65784500D01*
X102416737Y-65784181D01*
X102371100Y-65762283D01*
X102350215Y-65716173D01*
X102350000Y-65710538D01*
X102350000Y-65184500D01*
X102367313Y-65136934D01*
X102411150Y-65111624D01*
X102424000Y-65110500D01*
X105606000Y-65110500D01*
X105653566Y-65127813D01*
G37*
%TD.AperFunction*%
%TA.AperFunction,Conductor*%
G36*
X81783566Y-67232313D02*
G01*
X81808876Y-67276150D01*
X81810000Y-67289000D01*
X81810000Y-67641000D01*
X81792687Y-67688566D01*
X81748850Y-67713876D01*
X81736000Y-67715000D01*
X79894000Y-67715000D01*
X79846434Y-67697687D01*
X79821124Y-67653850D01*
X79820000Y-67641000D01*
X79820000Y-67289000D01*
X79837313Y-67241434D01*
X79881150Y-67216124D01*
X79894000Y-67215000D01*
X81736000Y-67215000D01*
X81783566Y-67232313D01*
G37*
%TD.AperFunction*%
%TD*%
%TA.AperFunction,Conductor*%
%TO.N,GND*%
G36*
X77321265Y-57677813D02*
G01*
X77346575Y-57721650D01*
X77337785Y-57771500D01*
X77335225Y-57775617D01*
X77320053Y-57798320D01*
X77310853Y-57809529D01*
X76571656Y-58548726D01*
X76525780Y-58570118D01*
X76519332Y-58570400D01*
X76481030Y-58570400D01*
X76466295Y-58573330D01*
X76449592Y-58584491D01*
X76438429Y-58601196D01*
X76435500Y-58615927D01*
X76435500Y-59133870D01*
X76438318Y-59148042D01*
X76438430Y-59148604D01*
X76449592Y-59165308D01*
X76466296Y-59176470D01*
X76466295Y-59176470D01*
X76468739Y-59176955D01*
X76481027Y-59179400D01*
X76998972Y-59179399D01*
X77013704Y-59176470D01*
X77030408Y-59165308D01*
X77041570Y-59148604D01*
X77044500Y-59133873D01*
X77044499Y-58885766D01*
X77061812Y-58838201D01*
X77066162Y-58833452D01*
X77109275Y-58790339D01*
X77155150Y-58768948D01*
X77204045Y-58782049D01*
X77233079Y-58823513D01*
X77235600Y-58842666D01*
X77235600Y-59133870D01*
X77238418Y-59148042D01*
X77238530Y-59148604D01*
X77249692Y-59165308D01*
X77266396Y-59176470D01*
X77266395Y-59176470D01*
X77268839Y-59176955D01*
X77281127Y-59179400D01*
X77536085Y-59179399D01*
X77583650Y-59196712D01*
X77608960Y-59240549D01*
X77605419Y-59279258D01*
X77592602Y-59313622D01*
X77592602Y-59313624D01*
X77586200Y-59373171D01*
X77586200Y-59425000D01*
X78516200Y-59425000D01*
X78563766Y-59442313D01*
X78589076Y-59486150D01*
X78590200Y-59499000D01*
X78590200Y-59851000D01*
X78572887Y-59898566D01*
X78529050Y-59923876D01*
X78516200Y-59925000D01*
X77790100Y-59925000D01*
X77790100Y-60651100D01*
X77772787Y-60698666D01*
X77728950Y-60723976D01*
X77716100Y-60725100D01*
X75763900Y-60725100D01*
X75716334Y-60707787D01*
X75691024Y-60663950D01*
X75689900Y-60651100D01*
X75689900Y-59925000D01*
X74385800Y-59925000D01*
X74385800Y-59976828D01*
X74392202Y-60036375D01*
X74392203Y-60036380D01*
X74442445Y-60171087D01*
X74442446Y-60171088D01*
X74528611Y-60286188D01*
X74643711Y-60372353D01*
X74643712Y-60372354D01*
X74782761Y-60424216D01*
X74782378Y-60425242D01*
X74820623Y-60450354D01*
X74835300Y-60494589D01*
X74835300Y-60734070D01*
X74835301Y-60734073D01*
X74838230Y-60748804D01*
X74849392Y-60765508D01*
X74866096Y-60776670D01*
X74866095Y-60776670D01*
X74869025Y-60777252D01*
X74880827Y-60779600D01*
X74919330Y-60779599D01*
X74966896Y-60796911D01*
X74971657Y-60801273D01*
X75328559Y-61158175D01*
X75349951Y-61204051D01*
X75336850Y-61252946D01*
X75295386Y-61281980D01*
X75276233Y-61284501D01*
X57635835Y-61284501D01*
X57588269Y-61267188D01*
X57583509Y-61262827D01*
X56971173Y-60650491D01*
X56949781Y-60604615D01*
X56949499Y-60598165D01*
X56949499Y-59721100D01*
X76189900Y-59721100D01*
X76189900Y-60225100D01*
X76490000Y-60225100D01*
X76490000Y-59721100D01*
X76990000Y-59721100D01*
X76990000Y-60225100D01*
X77290100Y-60225100D01*
X77290100Y-59721100D01*
X77238271Y-59721100D01*
X77178723Y-59727502D01*
X77165906Y-59732282D01*
X77115288Y-59732680D01*
X77114194Y-59732282D01*
X77101376Y-59727502D01*
X77041829Y-59721100D01*
X76990000Y-59721100D01*
X76490000Y-59721100D01*
X76438171Y-59721100D01*
X76378623Y-59727502D01*
X76365806Y-59732282D01*
X76315188Y-59732680D01*
X76314094Y-59732282D01*
X76301276Y-59727502D01*
X76241729Y-59721100D01*
X76189900Y-59721100D01*
X56949499Y-59721100D01*
X56949499Y-59701029D01*
X56946715Y-59687027D01*
X56946570Y-59686296D01*
X56935408Y-59669592D01*
X56918704Y-59658430D01*
X56918701Y-59658429D01*
X56918704Y-59658429D01*
X56906416Y-59655985D01*
X56903973Y-59655500D01*
X56903972Y-59655500D01*
X55526029Y-59655500D01*
X55511295Y-59658430D01*
X55494592Y-59669591D01*
X55483429Y-59686296D01*
X55480499Y-59701027D01*
X55480500Y-59980794D01*
X55463187Y-60028360D01*
X55419350Y-60053670D01*
X55369500Y-60044880D01*
X55336963Y-60006103D01*
X55335325Y-60001045D01*
X55323778Y-59960462D01*
X55323776Y-59960458D01*
X55225968Y-59764032D01*
X55225966Y-59764030D01*
X55212437Y-59746114D01*
X54726303Y-60232248D01*
X54680426Y-60253640D01*
X54631532Y-60240539D01*
X54605092Y-60206957D01*
X54603873Y-60203850D01*
X54591597Y-60172572D01*
X54510778Y-60071227D01*
X54470709Y-60043908D01*
X54403676Y-59998206D01*
X54398683Y-59995802D01*
X54399545Y-59994011D01*
X54365699Y-59968365D01*
X54354445Y-59919013D01*
X54375543Y-59875902D01*
X54826445Y-59425000D01*
X74385800Y-59425000D01*
X75893800Y-59425000D01*
X75893800Y-59373171D01*
X75887397Y-59313624D01*
X75887396Y-59313619D01*
X75874581Y-59279259D01*
X75874179Y-59228642D01*
X75906408Y-59189609D01*
X75943913Y-59179399D01*
X76198872Y-59179399D01*
X76213604Y-59176470D01*
X76230308Y-59165308D01*
X76241470Y-59148604D01*
X76244400Y-59133873D01*
X76244399Y-58615928D01*
X76241470Y-58601196D01*
X76230308Y-58584492D01*
X76213604Y-58573330D01*
X76213601Y-58573329D01*
X76213604Y-58573329D01*
X76201316Y-58570885D01*
X76198873Y-58570400D01*
X76198872Y-58570400D01*
X75680929Y-58570400D01*
X75666195Y-58573330D01*
X75649492Y-58584491D01*
X75638329Y-58601196D01*
X75635400Y-58615927D01*
X75635400Y-58870884D01*
X75618087Y-58918450D01*
X75574250Y-58943760D01*
X75535541Y-58940219D01*
X75496840Y-58925785D01*
X75497221Y-58924762D01*
X75458969Y-58899636D01*
X75444299Y-58855410D01*
X75444299Y-58615929D01*
X75443861Y-58613726D01*
X75441370Y-58601196D01*
X75430208Y-58584492D01*
X75413504Y-58573330D01*
X75413501Y-58573329D01*
X75413504Y-58573329D01*
X75401216Y-58570885D01*
X75398773Y-58570400D01*
X75398772Y-58570400D01*
X74880829Y-58570400D01*
X74866095Y-58573330D01*
X74849392Y-58584491D01*
X74838229Y-58601196D01*
X74835300Y-58615927D01*
X74835300Y-58855410D01*
X74817987Y-58902976D01*
X74782429Y-58924895D01*
X74782761Y-58925784D01*
X74643712Y-58977645D01*
X74643711Y-58977646D01*
X74528611Y-59063811D01*
X74442446Y-59178911D01*
X74442445Y-59178912D01*
X74392203Y-59313619D01*
X74392202Y-59313624D01*
X74385800Y-59373171D01*
X74385800Y-59425000D01*
X54826445Y-59425000D01*
X54856705Y-59394740D01*
X54745019Y-59325589D01*
X54745009Y-59325584D01*
X54540408Y-59246321D01*
X54324717Y-59206000D01*
X54105282Y-59206000D01*
X53889591Y-59246321D01*
X53684990Y-59325584D01*
X53684974Y-59325591D01*
X53573293Y-59394740D01*
X54057753Y-59879200D01*
X54079145Y-59925076D01*
X54066044Y-59973971D01*
X54037535Y-59998198D01*
X53970035Y-60030704D01*
X53875014Y-60118871D01*
X53819026Y-60215844D01*
X53780250Y-60248381D01*
X53729631Y-60248380D01*
X53702615Y-60231169D01*
X53217561Y-59746115D01*
X53204031Y-59764033D01*
X53204030Y-59764035D01*
X53106223Y-59960458D01*
X53106221Y-59960463D01*
X53046174Y-60171507D01*
X53046172Y-60171520D01*
X53025928Y-60389996D01*
X53025928Y-60390003D01*
X53046172Y-60608479D01*
X53046174Y-60608492D01*
X53106221Y-60819536D01*
X53106223Y-60819541D01*
X53204031Y-61015967D01*
X53204033Y-61015970D01*
X53217561Y-61033883D01*
X53703696Y-60547749D01*
X53749572Y-60526357D01*
X53798467Y-60539458D01*
X53824907Y-60573040D01*
X53834767Y-60598165D01*
X53838403Y-60607428D01*
X53911162Y-60698666D01*
X53919222Y-60708773D01*
X54026323Y-60781793D01*
X54031317Y-60784198D01*
X54030452Y-60785994D01*
X54064281Y-60811606D01*
X54075557Y-60860954D01*
X54054455Y-60904096D01*
X53573293Y-61385258D01*
X53684980Y-61454410D01*
X53684990Y-61454415D01*
X53889591Y-61533678D01*
X54105282Y-61573999D01*
X54105286Y-61574000D01*
X54324714Y-61574000D01*
X54324717Y-61573999D01*
X54540408Y-61533678D01*
X54745009Y-61454415D01*
X54745019Y-61454410D01*
X54856704Y-61385257D01*
X54372246Y-60900799D01*
X54350854Y-60854923D01*
X54363955Y-60806028D01*
X54392465Y-60781801D01*
X54459964Y-60749296D01*
X54554985Y-60661129D01*
X54610973Y-60564154D01*
X54649747Y-60531619D01*
X54700366Y-60531619D01*
X54727383Y-60548830D01*
X55212437Y-61033883D01*
X55225970Y-61015963D01*
X55323776Y-60819541D01*
X55335324Y-60778954D01*
X55364992Y-60737940D01*
X55414082Y-60725592D01*
X55459624Y-60747688D01*
X55480309Y-60793888D01*
X55480500Y-60799203D01*
X55480500Y-61078970D01*
X55483430Y-61093704D01*
X55494592Y-61110408D01*
X55511296Y-61121570D01*
X55511295Y-61121570D01*
X55513739Y-61122055D01*
X55526027Y-61124500D01*
X56423165Y-61124499D01*
X56470731Y-61141812D01*
X56475491Y-61146173D01*
X57181031Y-61851713D01*
X57190653Y-61863562D01*
X57198564Y-61875670D01*
X57225732Y-61896815D01*
X57229167Y-61899849D01*
X57232694Y-61903376D01*
X57250436Y-61916043D01*
X57258864Y-61922603D01*
X57285767Y-61965481D01*
X57278815Y-62015620D01*
X57241261Y-62049560D01*
X57213413Y-62055000D01*
X47914000Y-62055000D01*
X47866434Y-62037687D01*
X47841124Y-61993850D01*
X47840000Y-61981000D01*
X47840000Y-57734500D01*
X47857313Y-57686934D01*
X47901150Y-57661624D01*
X47914000Y-57660500D01*
X77273699Y-57660500D01*
X77321265Y-57677813D01*
G37*
%TD.AperFunction*%
%TA.AperFunction,Conductor*%
G36*
X105653566Y-57677813D02*
G01*
X105678876Y-57721650D01*
X105680000Y-57734500D01*
X105680000Y-61981000D01*
X105662687Y-62028566D01*
X105618850Y-62053876D01*
X105606000Y-62055000D01*
X102424000Y-62055000D01*
X102376434Y-62037687D01*
X102351124Y-61993850D01*
X102350000Y-61981000D01*
X102350000Y-61409460D01*
X102367313Y-61361894D01*
X102411150Y-61336584D01*
X102416752Y-61335816D01*
X102419967Y-61335499D01*
X102419972Y-61335499D01*
X102434704Y-61332570D01*
X102451408Y-61321408D01*
X102462570Y-61304704D01*
X102465500Y-61289973D01*
X102465499Y-58380028D01*
X102462570Y-58365296D01*
X102451408Y-58348592D01*
X102434704Y-58337430D01*
X102434703Y-58337429D01*
X102419973Y-58334500D01*
X102416737Y-58334181D01*
X102371100Y-58312283D01*
X102350215Y-58266173D01*
X102350000Y-58260538D01*
X102350000Y-57734500D01*
X102367313Y-57686934D01*
X102411150Y-57661624D01*
X102424000Y-57660500D01*
X105606000Y-57660500D01*
X105653566Y-57677813D01*
G37*
%TD.AperFunction*%
%TA.AperFunction,Conductor*%
G36*
X81783566Y-59782313D02*
G01*
X81808876Y-59826150D01*
X81810000Y-59839000D01*
X81810000Y-60191000D01*
X81792687Y-60238566D01*
X81748850Y-60263876D01*
X81736000Y-60265000D01*
X79894000Y-60265000D01*
X79846434Y-60247687D01*
X79821124Y-60203850D01*
X79820000Y-60191000D01*
X79820000Y-59839000D01*
X79837313Y-59791434D01*
X79881150Y-59766124D01*
X79894000Y-59765000D01*
X81736000Y-59765000D01*
X81783566Y-59782313D01*
G37*
%TD.AperFunction*%
%TD*%
%TA.AperFunction,Conductor*%
%TO.N,GND*%
G36*
X77321265Y-50227813D02*
G01*
X77346575Y-50271650D01*
X77337785Y-50321500D01*
X77335225Y-50325617D01*
X77320053Y-50348320D01*
X77310853Y-50359529D01*
X76571656Y-51098726D01*
X76525780Y-51120118D01*
X76519332Y-51120400D01*
X76481030Y-51120400D01*
X76466295Y-51123330D01*
X76449592Y-51134491D01*
X76438429Y-51151196D01*
X76435500Y-51165927D01*
X76435500Y-51683870D01*
X76438318Y-51698042D01*
X76438430Y-51698604D01*
X76449592Y-51715308D01*
X76466296Y-51726470D01*
X76466295Y-51726470D01*
X76468739Y-51726955D01*
X76481027Y-51729400D01*
X76998972Y-51729399D01*
X77013704Y-51726470D01*
X77030408Y-51715308D01*
X77041570Y-51698604D01*
X77044500Y-51683873D01*
X77044499Y-51435766D01*
X77061812Y-51388201D01*
X77066162Y-51383452D01*
X77109275Y-51340339D01*
X77155150Y-51318948D01*
X77204045Y-51332049D01*
X77233079Y-51373513D01*
X77235600Y-51392666D01*
X77235600Y-51683870D01*
X77238418Y-51698042D01*
X77238530Y-51698604D01*
X77249692Y-51715308D01*
X77266396Y-51726470D01*
X77266395Y-51726470D01*
X77268839Y-51726955D01*
X77281127Y-51729400D01*
X77536085Y-51729399D01*
X77583650Y-51746712D01*
X77608960Y-51790549D01*
X77605419Y-51829258D01*
X77592602Y-51863622D01*
X77592602Y-51863624D01*
X77586200Y-51923171D01*
X77586200Y-51975000D01*
X78516200Y-51975000D01*
X78563766Y-51992313D01*
X78589076Y-52036150D01*
X78590200Y-52049000D01*
X78590200Y-52401000D01*
X78572887Y-52448566D01*
X78529050Y-52473876D01*
X78516200Y-52475000D01*
X77790100Y-52475000D01*
X77790100Y-53201100D01*
X77772787Y-53248666D01*
X77728950Y-53273976D01*
X77716100Y-53275100D01*
X75763900Y-53275100D01*
X75716334Y-53257787D01*
X75691024Y-53213950D01*
X75689900Y-53201100D01*
X75689900Y-52475000D01*
X74385800Y-52475000D01*
X74385800Y-52526828D01*
X74392202Y-52586375D01*
X74392203Y-52586380D01*
X74442445Y-52721087D01*
X74442446Y-52721088D01*
X74528611Y-52836188D01*
X74643711Y-52922353D01*
X74643712Y-52922354D01*
X74782761Y-52974216D01*
X74782378Y-52975242D01*
X74820623Y-53000354D01*
X74835300Y-53044589D01*
X74835300Y-53284070D01*
X74835301Y-53284073D01*
X74838230Y-53298804D01*
X74849392Y-53315508D01*
X74866096Y-53326670D01*
X74866095Y-53326670D01*
X74869025Y-53327252D01*
X74880827Y-53329600D01*
X74919330Y-53329599D01*
X74966896Y-53346911D01*
X74971657Y-53351273D01*
X75328559Y-53708175D01*
X75349951Y-53754051D01*
X75336850Y-53802946D01*
X75295386Y-53831980D01*
X75276233Y-53834501D01*
X57635835Y-53834501D01*
X57588269Y-53817188D01*
X57583509Y-53812827D01*
X56971173Y-53200491D01*
X56949781Y-53154615D01*
X56949499Y-53148165D01*
X56949499Y-52271100D01*
X76189900Y-52271100D01*
X76189900Y-52775100D01*
X76490000Y-52775100D01*
X76490000Y-52271100D01*
X76990000Y-52271100D01*
X76990000Y-52775100D01*
X77290100Y-52775100D01*
X77290100Y-52271100D01*
X77238271Y-52271100D01*
X77178723Y-52277502D01*
X77165906Y-52282282D01*
X77115288Y-52282680D01*
X77114194Y-52282282D01*
X77101376Y-52277502D01*
X77041829Y-52271100D01*
X76990000Y-52271100D01*
X76490000Y-52271100D01*
X76438171Y-52271100D01*
X76378623Y-52277502D01*
X76365806Y-52282282D01*
X76315188Y-52282680D01*
X76314094Y-52282282D01*
X76301276Y-52277502D01*
X76241729Y-52271100D01*
X76189900Y-52271100D01*
X56949499Y-52271100D01*
X56949499Y-52251029D01*
X56946715Y-52237027D01*
X56946570Y-52236296D01*
X56935408Y-52219592D01*
X56918704Y-52208430D01*
X56918701Y-52208429D01*
X56918704Y-52208429D01*
X56906416Y-52205985D01*
X56903973Y-52205500D01*
X56903972Y-52205500D01*
X55526029Y-52205500D01*
X55511295Y-52208430D01*
X55494592Y-52219591D01*
X55483429Y-52236296D01*
X55480499Y-52251027D01*
X55480500Y-52530794D01*
X55463187Y-52578360D01*
X55419350Y-52603670D01*
X55369500Y-52594880D01*
X55336963Y-52556103D01*
X55335325Y-52551045D01*
X55323778Y-52510462D01*
X55323776Y-52510458D01*
X55225968Y-52314032D01*
X55225966Y-52314030D01*
X55212437Y-52296114D01*
X54726303Y-52782248D01*
X54680426Y-52803640D01*
X54631532Y-52790539D01*
X54605092Y-52756957D01*
X54603873Y-52753850D01*
X54591597Y-52722572D01*
X54510778Y-52621227D01*
X54470709Y-52593908D01*
X54403676Y-52548206D01*
X54398683Y-52545802D01*
X54399545Y-52544011D01*
X54365699Y-52518365D01*
X54354445Y-52469013D01*
X54375543Y-52425902D01*
X54826445Y-51975000D01*
X74385800Y-51975000D01*
X75893800Y-51975000D01*
X75893800Y-51923171D01*
X75887397Y-51863624D01*
X75887396Y-51863619D01*
X75874581Y-51829259D01*
X75874179Y-51778642D01*
X75906408Y-51739609D01*
X75943913Y-51729399D01*
X76198872Y-51729399D01*
X76213604Y-51726470D01*
X76230308Y-51715308D01*
X76241470Y-51698604D01*
X76244400Y-51683873D01*
X76244399Y-51165928D01*
X76241470Y-51151196D01*
X76230308Y-51134492D01*
X76213604Y-51123330D01*
X76213601Y-51123329D01*
X76213604Y-51123329D01*
X76201316Y-51120885D01*
X76198873Y-51120400D01*
X76198872Y-51120400D01*
X75680929Y-51120400D01*
X75666195Y-51123330D01*
X75649492Y-51134491D01*
X75638329Y-51151196D01*
X75635400Y-51165927D01*
X75635400Y-51420884D01*
X75618087Y-51468450D01*
X75574250Y-51493760D01*
X75535541Y-51490219D01*
X75496840Y-51475785D01*
X75497221Y-51474762D01*
X75458969Y-51449636D01*
X75444299Y-51405410D01*
X75444299Y-51165929D01*
X75443861Y-51163726D01*
X75441370Y-51151196D01*
X75430208Y-51134492D01*
X75413504Y-51123330D01*
X75413501Y-51123329D01*
X75413504Y-51123329D01*
X75401216Y-51120885D01*
X75398773Y-51120400D01*
X75398772Y-51120400D01*
X74880829Y-51120400D01*
X74866095Y-51123330D01*
X74849392Y-51134491D01*
X74838229Y-51151196D01*
X74835300Y-51165927D01*
X74835300Y-51405410D01*
X74817987Y-51452976D01*
X74782429Y-51474895D01*
X74782761Y-51475784D01*
X74643712Y-51527645D01*
X74643711Y-51527646D01*
X74528611Y-51613811D01*
X74442446Y-51728911D01*
X74442445Y-51728912D01*
X74392203Y-51863619D01*
X74392202Y-51863624D01*
X74385800Y-51923171D01*
X74385800Y-51975000D01*
X54826445Y-51975000D01*
X54856705Y-51944740D01*
X54745019Y-51875589D01*
X54745009Y-51875584D01*
X54540408Y-51796321D01*
X54324717Y-51756000D01*
X54105282Y-51756000D01*
X53889591Y-51796321D01*
X53684990Y-51875584D01*
X53684974Y-51875591D01*
X53573293Y-51944740D01*
X54057753Y-52429200D01*
X54079145Y-52475076D01*
X54066044Y-52523971D01*
X54037535Y-52548198D01*
X53970035Y-52580704D01*
X53875014Y-52668871D01*
X53819026Y-52765844D01*
X53780250Y-52798381D01*
X53729631Y-52798380D01*
X53702615Y-52781169D01*
X53217561Y-52296115D01*
X53204031Y-52314033D01*
X53204030Y-52314035D01*
X53106223Y-52510458D01*
X53106221Y-52510463D01*
X53046174Y-52721507D01*
X53046172Y-52721520D01*
X53025928Y-52939996D01*
X53025928Y-52940003D01*
X53046172Y-53158479D01*
X53046174Y-53158492D01*
X53106221Y-53369536D01*
X53106223Y-53369541D01*
X53204031Y-53565967D01*
X53204033Y-53565970D01*
X53217561Y-53583883D01*
X53703696Y-53097749D01*
X53749572Y-53076357D01*
X53798467Y-53089458D01*
X53824907Y-53123040D01*
X53834767Y-53148165D01*
X53838403Y-53157428D01*
X53911162Y-53248666D01*
X53919222Y-53258773D01*
X54026323Y-53331793D01*
X54031317Y-53334198D01*
X54030452Y-53335994D01*
X54064281Y-53361606D01*
X54075557Y-53410954D01*
X54054455Y-53454096D01*
X53573293Y-53935258D01*
X53684980Y-54004410D01*
X53684990Y-54004415D01*
X53889591Y-54083678D01*
X54105282Y-54123999D01*
X54105286Y-54124000D01*
X54324714Y-54124000D01*
X54324717Y-54123999D01*
X54540408Y-54083678D01*
X54745009Y-54004415D01*
X54745019Y-54004410D01*
X54856704Y-53935257D01*
X54372246Y-53450799D01*
X54350854Y-53404923D01*
X54363955Y-53356028D01*
X54392465Y-53331801D01*
X54459964Y-53299296D01*
X54554985Y-53211129D01*
X54610973Y-53114154D01*
X54649747Y-53081619D01*
X54700366Y-53081619D01*
X54727383Y-53098830D01*
X55212437Y-53583883D01*
X55225970Y-53565963D01*
X55323776Y-53369541D01*
X55335324Y-53328954D01*
X55364992Y-53287940D01*
X55414082Y-53275592D01*
X55459624Y-53297688D01*
X55480309Y-53343888D01*
X55480500Y-53349203D01*
X55480500Y-53628970D01*
X55483430Y-53643704D01*
X55494592Y-53660408D01*
X55511296Y-53671570D01*
X55511295Y-53671570D01*
X55513739Y-53672055D01*
X55526027Y-53674500D01*
X56423165Y-53674499D01*
X56470731Y-53691812D01*
X56475491Y-53696173D01*
X57181031Y-54401713D01*
X57190653Y-54413562D01*
X57198564Y-54425670D01*
X57225732Y-54446815D01*
X57229167Y-54449849D01*
X57232694Y-54453376D01*
X57250436Y-54466043D01*
X57258864Y-54472603D01*
X57285767Y-54515481D01*
X57278815Y-54565620D01*
X57241261Y-54599560D01*
X57213413Y-54605000D01*
X47914000Y-54605000D01*
X47866434Y-54587687D01*
X47841124Y-54543850D01*
X47840000Y-54531000D01*
X47840000Y-50284500D01*
X47857313Y-50236934D01*
X47901150Y-50211624D01*
X47914000Y-50210500D01*
X77273699Y-50210500D01*
X77321265Y-50227813D01*
G37*
%TD.AperFunction*%
%TA.AperFunction,Conductor*%
G36*
X105653566Y-50227813D02*
G01*
X105678876Y-50271650D01*
X105680000Y-50284500D01*
X105680000Y-54531000D01*
X105662687Y-54578566D01*
X105618850Y-54603876D01*
X105606000Y-54605000D01*
X102424000Y-54605000D01*
X102376434Y-54587687D01*
X102351124Y-54543850D01*
X102350000Y-54531000D01*
X102350000Y-53959460D01*
X102367313Y-53911894D01*
X102411150Y-53886584D01*
X102416752Y-53885816D01*
X102419967Y-53885499D01*
X102419972Y-53885499D01*
X102434704Y-53882570D01*
X102451408Y-53871408D01*
X102462570Y-53854704D01*
X102465500Y-53839973D01*
X102465499Y-50930028D01*
X102462570Y-50915296D01*
X102451408Y-50898592D01*
X102434704Y-50887430D01*
X102434703Y-50887429D01*
X102419973Y-50884500D01*
X102416737Y-50884181D01*
X102371100Y-50862283D01*
X102350215Y-50816173D01*
X102350000Y-50810538D01*
X102350000Y-50284500D01*
X102367313Y-50236934D01*
X102411150Y-50211624D01*
X102424000Y-50210500D01*
X105606000Y-50210500D01*
X105653566Y-50227813D01*
G37*
%TD.AperFunction*%
%TA.AperFunction,Conductor*%
G36*
X81783566Y-52332313D02*
G01*
X81808876Y-52376150D01*
X81810000Y-52389000D01*
X81810000Y-52741000D01*
X81792687Y-52788566D01*
X81748850Y-52813876D01*
X81736000Y-52815000D01*
X79894000Y-52815000D01*
X79846434Y-52797687D01*
X79821124Y-52753850D01*
X79820000Y-52741000D01*
X79820000Y-52389000D01*
X79837313Y-52341434D01*
X79881150Y-52316124D01*
X79894000Y-52315000D01*
X81736000Y-52315000D01*
X81783566Y-52332313D01*
G37*
%TD.AperFunction*%
%TD*%
%TA.AperFunction,Conductor*%
%TO.N,GND*%
G36*
X77321265Y-42777813D02*
G01*
X77346575Y-42821650D01*
X77337785Y-42871500D01*
X77335225Y-42875617D01*
X77320053Y-42898320D01*
X77310853Y-42909529D01*
X76571656Y-43648726D01*
X76525780Y-43670118D01*
X76519332Y-43670400D01*
X76481030Y-43670400D01*
X76466295Y-43673330D01*
X76449592Y-43684491D01*
X76438429Y-43701196D01*
X76435500Y-43715927D01*
X76435500Y-44233870D01*
X76438318Y-44248042D01*
X76438430Y-44248604D01*
X76449592Y-44265308D01*
X76466296Y-44276470D01*
X76466295Y-44276470D01*
X76468739Y-44276955D01*
X76481027Y-44279400D01*
X76998972Y-44279399D01*
X77013704Y-44276470D01*
X77030408Y-44265308D01*
X77041570Y-44248604D01*
X77044500Y-44233873D01*
X77044499Y-43985766D01*
X77061812Y-43938201D01*
X77066162Y-43933452D01*
X77109275Y-43890339D01*
X77155150Y-43868948D01*
X77204045Y-43882049D01*
X77233079Y-43923513D01*
X77235600Y-43942666D01*
X77235600Y-44233870D01*
X77238418Y-44248042D01*
X77238530Y-44248604D01*
X77249692Y-44265308D01*
X77266396Y-44276470D01*
X77266395Y-44276470D01*
X77268839Y-44276955D01*
X77281127Y-44279400D01*
X77536085Y-44279399D01*
X77583650Y-44296712D01*
X77608960Y-44340549D01*
X77605419Y-44379258D01*
X77592602Y-44413622D01*
X77592602Y-44413624D01*
X77586200Y-44473171D01*
X77586200Y-44525000D01*
X78516200Y-44525000D01*
X78563766Y-44542313D01*
X78589076Y-44586150D01*
X78590200Y-44599000D01*
X78590200Y-44951000D01*
X78572887Y-44998566D01*
X78529050Y-45023876D01*
X78516200Y-45025000D01*
X77790100Y-45025000D01*
X77790100Y-45751100D01*
X77772787Y-45798666D01*
X77728950Y-45823976D01*
X77716100Y-45825100D01*
X75763900Y-45825100D01*
X75716334Y-45807787D01*
X75691024Y-45763950D01*
X75689900Y-45751100D01*
X75689900Y-45025000D01*
X74385800Y-45025000D01*
X74385800Y-45076828D01*
X74392202Y-45136375D01*
X74392203Y-45136380D01*
X74442445Y-45271087D01*
X74442446Y-45271088D01*
X74528611Y-45386188D01*
X74643711Y-45472353D01*
X74643712Y-45472354D01*
X74782761Y-45524216D01*
X74782378Y-45525242D01*
X74820623Y-45550354D01*
X74835300Y-45594589D01*
X74835300Y-45834070D01*
X74835301Y-45834073D01*
X74838230Y-45848804D01*
X74849392Y-45865508D01*
X74866096Y-45876670D01*
X74866095Y-45876670D01*
X74869025Y-45877252D01*
X74880827Y-45879600D01*
X74919330Y-45879599D01*
X74966896Y-45896911D01*
X74971657Y-45901273D01*
X75328559Y-46258175D01*
X75349951Y-46304051D01*
X75336850Y-46352946D01*
X75295386Y-46381980D01*
X75276233Y-46384501D01*
X57635835Y-46384501D01*
X57588269Y-46367188D01*
X57583509Y-46362827D01*
X56971173Y-45750491D01*
X56949781Y-45704615D01*
X56949499Y-45698165D01*
X56949499Y-44821100D01*
X76189900Y-44821100D01*
X76189900Y-45325100D01*
X76490000Y-45325100D01*
X76490000Y-44821100D01*
X76990000Y-44821100D01*
X76990000Y-45325100D01*
X77290100Y-45325100D01*
X77290100Y-44821100D01*
X77238271Y-44821100D01*
X77178723Y-44827502D01*
X77165906Y-44832282D01*
X77115288Y-44832680D01*
X77114194Y-44832282D01*
X77101376Y-44827502D01*
X77041829Y-44821100D01*
X76990000Y-44821100D01*
X76490000Y-44821100D01*
X76438171Y-44821100D01*
X76378623Y-44827502D01*
X76365806Y-44832282D01*
X76315188Y-44832680D01*
X76314094Y-44832282D01*
X76301276Y-44827502D01*
X76241729Y-44821100D01*
X76189900Y-44821100D01*
X56949499Y-44821100D01*
X56949499Y-44801029D01*
X56946715Y-44787027D01*
X56946570Y-44786296D01*
X56935408Y-44769592D01*
X56918704Y-44758430D01*
X56918701Y-44758429D01*
X56918704Y-44758429D01*
X56906416Y-44755985D01*
X56903973Y-44755500D01*
X56903972Y-44755500D01*
X55526029Y-44755500D01*
X55511295Y-44758430D01*
X55494592Y-44769591D01*
X55483429Y-44786296D01*
X55480499Y-44801027D01*
X55480500Y-45080794D01*
X55463187Y-45128360D01*
X55419350Y-45153670D01*
X55369500Y-45144880D01*
X55336963Y-45106103D01*
X55335325Y-45101045D01*
X55323778Y-45060462D01*
X55323776Y-45060458D01*
X55225968Y-44864032D01*
X55225966Y-44864030D01*
X55212437Y-44846114D01*
X54726303Y-45332248D01*
X54680426Y-45353640D01*
X54631532Y-45340539D01*
X54605092Y-45306957D01*
X54603873Y-45303850D01*
X54591597Y-45272572D01*
X54510778Y-45171227D01*
X54470709Y-45143908D01*
X54403676Y-45098206D01*
X54398683Y-45095802D01*
X54399545Y-45094011D01*
X54365699Y-45068365D01*
X54354445Y-45019013D01*
X54375543Y-44975902D01*
X54826445Y-44525000D01*
X74385800Y-44525000D01*
X75893800Y-44525000D01*
X75893800Y-44473171D01*
X75887397Y-44413624D01*
X75887396Y-44413619D01*
X75874581Y-44379259D01*
X75874179Y-44328642D01*
X75906408Y-44289609D01*
X75943913Y-44279399D01*
X76198872Y-44279399D01*
X76213604Y-44276470D01*
X76230308Y-44265308D01*
X76241470Y-44248604D01*
X76244400Y-44233873D01*
X76244399Y-43715928D01*
X76241470Y-43701196D01*
X76230308Y-43684492D01*
X76213604Y-43673330D01*
X76213601Y-43673329D01*
X76213604Y-43673329D01*
X76201316Y-43670885D01*
X76198873Y-43670400D01*
X76198872Y-43670400D01*
X75680929Y-43670400D01*
X75666195Y-43673330D01*
X75649492Y-43684491D01*
X75638329Y-43701196D01*
X75635400Y-43715927D01*
X75635400Y-43970884D01*
X75618087Y-44018450D01*
X75574250Y-44043760D01*
X75535541Y-44040219D01*
X75496840Y-44025785D01*
X75497221Y-44024762D01*
X75458969Y-43999636D01*
X75444299Y-43955410D01*
X75444299Y-43715929D01*
X75443861Y-43713726D01*
X75441370Y-43701196D01*
X75430208Y-43684492D01*
X75413504Y-43673330D01*
X75413501Y-43673329D01*
X75413504Y-43673329D01*
X75401216Y-43670885D01*
X75398773Y-43670400D01*
X75398772Y-43670400D01*
X74880829Y-43670400D01*
X74866095Y-43673330D01*
X74849392Y-43684491D01*
X74838229Y-43701196D01*
X74835300Y-43715927D01*
X74835300Y-43955410D01*
X74817987Y-44002976D01*
X74782429Y-44024895D01*
X74782761Y-44025784D01*
X74643712Y-44077645D01*
X74643711Y-44077646D01*
X74528611Y-44163811D01*
X74442446Y-44278911D01*
X74442445Y-44278912D01*
X74392203Y-44413619D01*
X74392202Y-44413624D01*
X74385800Y-44473171D01*
X74385800Y-44525000D01*
X54826445Y-44525000D01*
X54856705Y-44494740D01*
X54745019Y-44425589D01*
X54745009Y-44425584D01*
X54540408Y-44346321D01*
X54324717Y-44306000D01*
X54105282Y-44306000D01*
X53889591Y-44346321D01*
X53684990Y-44425584D01*
X53684974Y-44425591D01*
X53573293Y-44494740D01*
X54057753Y-44979200D01*
X54079145Y-45025076D01*
X54066044Y-45073971D01*
X54037535Y-45098198D01*
X53970035Y-45130704D01*
X53875014Y-45218871D01*
X53819026Y-45315844D01*
X53780250Y-45348381D01*
X53729631Y-45348380D01*
X53702615Y-45331169D01*
X53217561Y-44846115D01*
X53204031Y-44864033D01*
X53204030Y-44864035D01*
X53106223Y-45060458D01*
X53106221Y-45060463D01*
X53046174Y-45271507D01*
X53046172Y-45271520D01*
X53025928Y-45489996D01*
X53025928Y-45490003D01*
X53046172Y-45708479D01*
X53046174Y-45708492D01*
X53106221Y-45919536D01*
X53106223Y-45919541D01*
X53204031Y-46115967D01*
X53204033Y-46115970D01*
X53217561Y-46133883D01*
X53703696Y-45647749D01*
X53749572Y-45626357D01*
X53798467Y-45639458D01*
X53824907Y-45673040D01*
X53834767Y-45698165D01*
X53838403Y-45707428D01*
X53911162Y-45798666D01*
X53919222Y-45808773D01*
X54026323Y-45881793D01*
X54031317Y-45884198D01*
X54030452Y-45885994D01*
X54064281Y-45911606D01*
X54075557Y-45960954D01*
X54054455Y-46004096D01*
X53573293Y-46485258D01*
X53684980Y-46554410D01*
X53684990Y-46554415D01*
X53889591Y-46633678D01*
X54105282Y-46673999D01*
X54105286Y-46674000D01*
X54324714Y-46674000D01*
X54324717Y-46673999D01*
X54540408Y-46633678D01*
X54745009Y-46554415D01*
X54745019Y-46554410D01*
X54856704Y-46485257D01*
X54372246Y-46000799D01*
X54350854Y-45954923D01*
X54363955Y-45906028D01*
X54392465Y-45881801D01*
X54459964Y-45849296D01*
X54554985Y-45761129D01*
X54610973Y-45664154D01*
X54649747Y-45631619D01*
X54700366Y-45631619D01*
X54727383Y-45648830D01*
X55212437Y-46133883D01*
X55225970Y-46115963D01*
X55323776Y-45919541D01*
X55335324Y-45878954D01*
X55364992Y-45837940D01*
X55414082Y-45825592D01*
X55459624Y-45847688D01*
X55480309Y-45893888D01*
X55480500Y-45899203D01*
X55480500Y-46178970D01*
X55483430Y-46193704D01*
X55494592Y-46210408D01*
X55511296Y-46221570D01*
X55511295Y-46221570D01*
X55513739Y-46222055D01*
X55526027Y-46224500D01*
X56423165Y-46224499D01*
X56470731Y-46241812D01*
X56475491Y-46246173D01*
X57181031Y-46951713D01*
X57190653Y-46963562D01*
X57198564Y-46975670D01*
X57225732Y-46996815D01*
X57229167Y-46999849D01*
X57232694Y-47003376D01*
X57250436Y-47016043D01*
X57258864Y-47022603D01*
X57285767Y-47065481D01*
X57278815Y-47115620D01*
X57241261Y-47149560D01*
X57213413Y-47155000D01*
X47914000Y-47155000D01*
X47866434Y-47137687D01*
X47841124Y-47093850D01*
X47840000Y-47081000D01*
X47840000Y-42834500D01*
X47857313Y-42786934D01*
X47901150Y-42761624D01*
X47914000Y-42760500D01*
X77273699Y-42760500D01*
X77321265Y-42777813D01*
G37*
%TD.AperFunction*%
%TA.AperFunction,Conductor*%
G36*
X105653566Y-42777813D02*
G01*
X105678876Y-42821650D01*
X105680000Y-42834500D01*
X105680000Y-47081000D01*
X105662687Y-47128566D01*
X105618850Y-47153876D01*
X105606000Y-47155000D01*
X102424000Y-47155000D01*
X102376434Y-47137687D01*
X102351124Y-47093850D01*
X102350000Y-47081000D01*
X102350000Y-46509460D01*
X102367313Y-46461894D01*
X102411150Y-46436584D01*
X102416752Y-46435816D01*
X102419967Y-46435499D01*
X102419972Y-46435499D01*
X102434704Y-46432570D01*
X102451408Y-46421408D01*
X102462570Y-46404704D01*
X102465500Y-46389973D01*
X102465499Y-43480028D01*
X102462570Y-43465296D01*
X102451408Y-43448592D01*
X102434704Y-43437430D01*
X102434703Y-43437429D01*
X102419973Y-43434500D01*
X102416737Y-43434181D01*
X102371100Y-43412283D01*
X102350215Y-43366173D01*
X102350000Y-43360538D01*
X102350000Y-42834500D01*
X102367313Y-42786934D01*
X102411150Y-42761624D01*
X102424000Y-42760500D01*
X105606000Y-42760500D01*
X105653566Y-42777813D01*
G37*
%TD.AperFunction*%
%TA.AperFunction,Conductor*%
G36*
X81783566Y-44882313D02*
G01*
X81808876Y-44926150D01*
X81810000Y-44939000D01*
X81810000Y-45291000D01*
X81792687Y-45338566D01*
X81748850Y-45363876D01*
X81736000Y-45365000D01*
X79894000Y-45365000D01*
X79846434Y-45347687D01*
X79821124Y-45303850D01*
X79820000Y-45291000D01*
X79820000Y-44939000D01*
X79837313Y-44891434D01*
X79881150Y-44866124D01*
X79894000Y-44865000D01*
X81736000Y-44865000D01*
X81783566Y-44882313D01*
G37*
%TD.AperFunction*%
%TD*%
%TA.AperFunction,Conductor*%
%TO.N,GND*%
G36*
X77321265Y-27877813D02*
G01*
X77346575Y-27921650D01*
X77337785Y-27971500D01*
X77335225Y-27975617D01*
X77320053Y-27998320D01*
X77310853Y-28009529D01*
X76571656Y-28748726D01*
X76525780Y-28770118D01*
X76519332Y-28770400D01*
X76481030Y-28770400D01*
X76466295Y-28773330D01*
X76449592Y-28784491D01*
X76438429Y-28801196D01*
X76435500Y-28815927D01*
X76435500Y-29333870D01*
X76438318Y-29348042D01*
X76438430Y-29348604D01*
X76449592Y-29365308D01*
X76466296Y-29376470D01*
X76466295Y-29376470D01*
X76468739Y-29376955D01*
X76481027Y-29379400D01*
X76998972Y-29379399D01*
X77013704Y-29376470D01*
X77030408Y-29365308D01*
X77041570Y-29348604D01*
X77044500Y-29333873D01*
X77044499Y-29085766D01*
X77061812Y-29038201D01*
X77066162Y-29033452D01*
X77109275Y-28990339D01*
X77155150Y-28968948D01*
X77204045Y-28982049D01*
X77233079Y-29023513D01*
X77235600Y-29042666D01*
X77235600Y-29333870D01*
X77238418Y-29348042D01*
X77238530Y-29348604D01*
X77249692Y-29365308D01*
X77266396Y-29376470D01*
X77266395Y-29376470D01*
X77268839Y-29376955D01*
X77281127Y-29379400D01*
X77536085Y-29379399D01*
X77583650Y-29396712D01*
X77608960Y-29440549D01*
X77605419Y-29479258D01*
X77592602Y-29513622D01*
X77592602Y-29513624D01*
X77586200Y-29573171D01*
X77586200Y-29625000D01*
X78516200Y-29625000D01*
X78563766Y-29642313D01*
X78589076Y-29686150D01*
X78590200Y-29699000D01*
X78590200Y-30051000D01*
X78572887Y-30098566D01*
X78529050Y-30123876D01*
X78516200Y-30125000D01*
X77790100Y-30125000D01*
X77790100Y-30851100D01*
X77772787Y-30898666D01*
X77728950Y-30923976D01*
X77716100Y-30925100D01*
X75763900Y-30925100D01*
X75716334Y-30907787D01*
X75691024Y-30863950D01*
X75689900Y-30851100D01*
X75689900Y-30125000D01*
X74385800Y-30125000D01*
X74385800Y-30176828D01*
X74392202Y-30236375D01*
X74392203Y-30236380D01*
X74442445Y-30371087D01*
X74442446Y-30371088D01*
X74528611Y-30486188D01*
X74643711Y-30572353D01*
X74643712Y-30572354D01*
X74782761Y-30624216D01*
X74782378Y-30625242D01*
X74820623Y-30650354D01*
X74835300Y-30694589D01*
X74835300Y-30934070D01*
X74835301Y-30934073D01*
X74838230Y-30948804D01*
X74849392Y-30965508D01*
X74866096Y-30976670D01*
X74866095Y-30976670D01*
X74869025Y-30977252D01*
X74880827Y-30979600D01*
X74919330Y-30979599D01*
X74966896Y-30996911D01*
X74971657Y-31001273D01*
X75328559Y-31358175D01*
X75349951Y-31404051D01*
X75336850Y-31452946D01*
X75295386Y-31481980D01*
X75276233Y-31484501D01*
X57635835Y-31484501D01*
X57588269Y-31467188D01*
X57583509Y-31462827D01*
X56971173Y-30850491D01*
X56949781Y-30804615D01*
X56949499Y-30798165D01*
X56949499Y-29921100D01*
X76189900Y-29921100D01*
X76189900Y-30425100D01*
X76490000Y-30425100D01*
X76490000Y-29921100D01*
X76990000Y-29921100D01*
X76990000Y-30425100D01*
X77290100Y-30425100D01*
X77290100Y-29921100D01*
X77238271Y-29921100D01*
X77178723Y-29927502D01*
X77165906Y-29932282D01*
X77115288Y-29932680D01*
X77114194Y-29932282D01*
X77101376Y-29927502D01*
X77041829Y-29921100D01*
X76990000Y-29921100D01*
X76490000Y-29921100D01*
X76438171Y-29921100D01*
X76378623Y-29927502D01*
X76365806Y-29932282D01*
X76315188Y-29932680D01*
X76314094Y-29932282D01*
X76301276Y-29927502D01*
X76241729Y-29921100D01*
X76189900Y-29921100D01*
X56949499Y-29921100D01*
X56949499Y-29901029D01*
X56946715Y-29887027D01*
X56946570Y-29886296D01*
X56935408Y-29869592D01*
X56918704Y-29858430D01*
X56918701Y-29858429D01*
X56918704Y-29858429D01*
X56906416Y-29855985D01*
X56903973Y-29855500D01*
X56903972Y-29855500D01*
X55526029Y-29855500D01*
X55511295Y-29858430D01*
X55494592Y-29869591D01*
X55483429Y-29886296D01*
X55480499Y-29901027D01*
X55480500Y-30180794D01*
X55463187Y-30228360D01*
X55419350Y-30253670D01*
X55369500Y-30244880D01*
X55336963Y-30206103D01*
X55335325Y-30201045D01*
X55323778Y-30160462D01*
X55323776Y-30160458D01*
X55225968Y-29964032D01*
X55225966Y-29964030D01*
X55212437Y-29946114D01*
X54726303Y-30432248D01*
X54680426Y-30453640D01*
X54631532Y-30440539D01*
X54605092Y-30406957D01*
X54603873Y-30403850D01*
X54591597Y-30372572D01*
X54510778Y-30271227D01*
X54470709Y-30243908D01*
X54403676Y-30198206D01*
X54398683Y-30195802D01*
X54399545Y-30194011D01*
X54365699Y-30168365D01*
X54354445Y-30119013D01*
X54375543Y-30075902D01*
X54826445Y-29625000D01*
X74385800Y-29625000D01*
X75893800Y-29625000D01*
X75893800Y-29573171D01*
X75887397Y-29513624D01*
X75887396Y-29513619D01*
X75874581Y-29479259D01*
X75874179Y-29428642D01*
X75906408Y-29389609D01*
X75943913Y-29379399D01*
X76198872Y-29379399D01*
X76213604Y-29376470D01*
X76230308Y-29365308D01*
X76241470Y-29348604D01*
X76244400Y-29333873D01*
X76244399Y-28815928D01*
X76241470Y-28801196D01*
X76230308Y-28784492D01*
X76213604Y-28773330D01*
X76213601Y-28773329D01*
X76213604Y-28773329D01*
X76201316Y-28770885D01*
X76198873Y-28770400D01*
X76198872Y-28770400D01*
X75680929Y-28770400D01*
X75666195Y-28773330D01*
X75649492Y-28784491D01*
X75638329Y-28801196D01*
X75635400Y-28815927D01*
X75635400Y-29070884D01*
X75618087Y-29118450D01*
X75574250Y-29143760D01*
X75535541Y-29140219D01*
X75496840Y-29125785D01*
X75497221Y-29124762D01*
X75458969Y-29099636D01*
X75444299Y-29055410D01*
X75444299Y-28815929D01*
X75443861Y-28813726D01*
X75441370Y-28801196D01*
X75430208Y-28784492D01*
X75413504Y-28773330D01*
X75413501Y-28773329D01*
X75413504Y-28773329D01*
X75401216Y-28770885D01*
X75398773Y-28770400D01*
X75398772Y-28770400D01*
X74880829Y-28770400D01*
X74866095Y-28773330D01*
X74849392Y-28784491D01*
X74838229Y-28801196D01*
X74835300Y-28815927D01*
X74835300Y-29055410D01*
X74817987Y-29102976D01*
X74782429Y-29124895D01*
X74782761Y-29125784D01*
X74643712Y-29177645D01*
X74643711Y-29177646D01*
X74528611Y-29263811D01*
X74442446Y-29378911D01*
X74442445Y-29378912D01*
X74392203Y-29513619D01*
X74392202Y-29513624D01*
X74385800Y-29573171D01*
X74385800Y-29625000D01*
X54826445Y-29625000D01*
X54856705Y-29594740D01*
X54745019Y-29525589D01*
X54745009Y-29525584D01*
X54540408Y-29446321D01*
X54324717Y-29406000D01*
X54105282Y-29406000D01*
X53889591Y-29446321D01*
X53684990Y-29525584D01*
X53684974Y-29525591D01*
X53573293Y-29594740D01*
X54057753Y-30079200D01*
X54079145Y-30125076D01*
X54066044Y-30173971D01*
X54037535Y-30198198D01*
X53970035Y-30230704D01*
X53875014Y-30318871D01*
X53819026Y-30415844D01*
X53780250Y-30448381D01*
X53729631Y-30448380D01*
X53702615Y-30431169D01*
X53217561Y-29946115D01*
X53204031Y-29964033D01*
X53204030Y-29964035D01*
X53106223Y-30160458D01*
X53106221Y-30160463D01*
X53046174Y-30371507D01*
X53046172Y-30371520D01*
X53025928Y-30589996D01*
X53025928Y-30590003D01*
X53046172Y-30808479D01*
X53046174Y-30808492D01*
X53106221Y-31019536D01*
X53106223Y-31019541D01*
X53204031Y-31215967D01*
X53204033Y-31215970D01*
X53217561Y-31233883D01*
X53703696Y-30747749D01*
X53749572Y-30726357D01*
X53798467Y-30739458D01*
X53824907Y-30773040D01*
X53834767Y-30798165D01*
X53838403Y-30807428D01*
X53911162Y-30898666D01*
X53919222Y-30908773D01*
X54026323Y-30981793D01*
X54031317Y-30984198D01*
X54030452Y-30985994D01*
X54064281Y-31011606D01*
X54075557Y-31060954D01*
X54054455Y-31104096D01*
X53573293Y-31585258D01*
X53684980Y-31654410D01*
X53684990Y-31654415D01*
X53889591Y-31733678D01*
X54105282Y-31773999D01*
X54105286Y-31774000D01*
X54324714Y-31774000D01*
X54324717Y-31773999D01*
X54540408Y-31733678D01*
X54745009Y-31654415D01*
X54745019Y-31654410D01*
X54856704Y-31585257D01*
X54372246Y-31100799D01*
X54350854Y-31054923D01*
X54363955Y-31006028D01*
X54392465Y-30981801D01*
X54459964Y-30949296D01*
X54554985Y-30861129D01*
X54610973Y-30764154D01*
X54649747Y-30731619D01*
X54700366Y-30731619D01*
X54727383Y-30748830D01*
X55212437Y-31233883D01*
X55225970Y-31215963D01*
X55323776Y-31019541D01*
X55335324Y-30978954D01*
X55364992Y-30937940D01*
X55414082Y-30925592D01*
X55459624Y-30947688D01*
X55480309Y-30993888D01*
X55480500Y-30999203D01*
X55480500Y-31278970D01*
X55483430Y-31293704D01*
X55494592Y-31310408D01*
X55511296Y-31321570D01*
X55511295Y-31321570D01*
X55513739Y-31322055D01*
X55526027Y-31324500D01*
X56423165Y-31324499D01*
X56470731Y-31341812D01*
X56475491Y-31346173D01*
X57181031Y-32051713D01*
X57190653Y-32063562D01*
X57198564Y-32075670D01*
X57225732Y-32096815D01*
X57229167Y-32099849D01*
X57232694Y-32103376D01*
X57250436Y-32116043D01*
X57258864Y-32122603D01*
X57285767Y-32165481D01*
X57278815Y-32215620D01*
X57241261Y-32249560D01*
X57213413Y-32255000D01*
X47914000Y-32255000D01*
X47866434Y-32237687D01*
X47841124Y-32193850D01*
X47840000Y-32181000D01*
X47840000Y-27934500D01*
X47857313Y-27886934D01*
X47901150Y-27861624D01*
X47914000Y-27860500D01*
X77273699Y-27860500D01*
X77321265Y-27877813D01*
G37*
%TD.AperFunction*%
%TA.AperFunction,Conductor*%
G36*
X105653566Y-27877813D02*
G01*
X105678876Y-27921650D01*
X105680000Y-27934500D01*
X105680000Y-32181000D01*
X105662687Y-32228566D01*
X105618850Y-32253876D01*
X105606000Y-32255000D01*
X102424000Y-32255000D01*
X102376434Y-32237687D01*
X102351124Y-32193850D01*
X102350000Y-32181000D01*
X102350000Y-31609460D01*
X102367313Y-31561894D01*
X102411150Y-31536584D01*
X102416752Y-31535816D01*
X102419967Y-31535499D01*
X102419972Y-31535499D01*
X102434704Y-31532570D01*
X102451408Y-31521408D01*
X102462570Y-31504704D01*
X102465500Y-31489973D01*
X102465499Y-28580028D01*
X102462570Y-28565296D01*
X102451408Y-28548592D01*
X102434704Y-28537430D01*
X102434703Y-28537429D01*
X102419973Y-28534500D01*
X102416737Y-28534181D01*
X102371100Y-28512283D01*
X102350215Y-28466173D01*
X102350000Y-28460538D01*
X102350000Y-27934500D01*
X102367313Y-27886934D01*
X102411150Y-27861624D01*
X102424000Y-27860500D01*
X105606000Y-27860500D01*
X105653566Y-27877813D01*
G37*
%TD.AperFunction*%
%TA.AperFunction,Conductor*%
G36*
X81783566Y-29982313D02*
G01*
X81808876Y-30026150D01*
X81810000Y-30039000D01*
X81810000Y-30391000D01*
X81792687Y-30438566D01*
X81748850Y-30463876D01*
X81736000Y-30465000D01*
X79894000Y-30465000D01*
X79846434Y-30447687D01*
X79821124Y-30403850D01*
X79820000Y-30391000D01*
X79820000Y-30039000D01*
X79837313Y-29991434D01*
X79881150Y-29966124D01*
X79894000Y-29965000D01*
X81736000Y-29965000D01*
X81783566Y-29982313D01*
G37*
%TD.AperFunction*%
%TD*%
%TA.AperFunction,Conductor*%
%TO.N,GND*%
G36*
X77321265Y-35327813D02*
G01*
X77346575Y-35371650D01*
X77337785Y-35421500D01*
X77335225Y-35425617D01*
X77320053Y-35448320D01*
X77310853Y-35459529D01*
X76571656Y-36198726D01*
X76525780Y-36220118D01*
X76519332Y-36220400D01*
X76481030Y-36220400D01*
X76466295Y-36223330D01*
X76449592Y-36234491D01*
X76438429Y-36251196D01*
X76435500Y-36265927D01*
X76435500Y-36783870D01*
X76438318Y-36798042D01*
X76438430Y-36798604D01*
X76449592Y-36815308D01*
X76466296Y-36826470D01*
X76466295Y-36826470D01*
X76468739Y-36826955D01*
X76481027Y-36829400D01*
X76998972Y-36829399D01*
X77013704Y-36826470D01*
X77030408Y-36815308D01*
X77041570Y-36798604D01*
X77044500Y-36783873D01*
X77044499Y-36535766D01*
X77061812Y-36488201D01*
X77066162Y-36483452D01*
X77109275Y-36440339D01*
X77155150Y-36418948D01*
X77204045Y-36432049D01*
X77233079Y-36473513D01*
X77235600Y-36492666D01*
X77235600Y-36783870D01*
X77238418Y-36798042D01*
X77238530Y-36798604D01*
X77249692Y-36815308D01*
X77266396Y-36826470D01*
X77266395Y-36826470D01*
X77268839Y-36826955D01*
X77281127Y-36829400D01*
X77536085Y-36829399D01*
X77583650Y-36846712D01*
X77608960Y-36890549D01*
X77605419Y-36929258D01*
X77592602Y-36963622D01*
X77592602Y-36963624D01*
X77586200Y-37023171D01*
X77586200Y-37075000D01*
X78516200Y-37075000D01*
X78563766Y-37092313D01*
X78589076Y-37136150D01*
X78590200Y-37149000D01*
X78590200Y-37501000D01*
X78572887Y-37548566D01*
X78529050Y-37573876D01*
X78516200Y-37575000D01*
X77790100Y-37575000D01*
X77790100Y-38301100D01*
X77772787Y-38348666D01*
X77728950Y-38373976D01*
X77716100Y-38375100D01*
X75763900Y-38375100D01*
X75716334Y-38357787D01*
X75691024Y-38313950D01*
X75689900Y-38301100D01*
X75689900Y-37575000D01*
X74385800Y-37575000D01*
X74385800Y-37626828D01*
X74392202Y-37686375D01*
X74392203Y-37686380D01*
X74442445Y-37821087D01*
X74442446Y-37821088D01*
X74528611Y-37936188D01*
X74643711Y-38022353D01*
X74643712Y-38022354D01*
X74782761Y-38074216D01*
X74782378Y-38075242D01*
X74820623Y-38100354D01*
X74835300Y-38144589D01*
X74835300Y-38384070D01*
X74835301Y-38384073D01*
X74838230Y-38398804D01*
X74849392Y-38415508D01*
X74866096Y-38426670D01*
X74866095Y-38426670D01*
X74869025Y-38427252D01*
X74880827Y-38429600D01*
X74919330Y-38429599D01*
X74966896Y-38446911D01*
X74971657Y-38451273D01*
X75328559Y-38808175D01*
X75349951Y-38854051D01*
X75336850Y-38902946D01*
X75295386Y-38931980D01*
X75276233Y-38934501D01*
X57635835Y-38934501D01*
X57588269Y-38917188D01*
X57583509Y-38912827D01*
X56971173Y-38300491D01*
X56949781Y-38254615D01*
X56949499Y-38248165D01*
X56949499Y-37371100D01*
X76189900Y-37371100D01*
X76189900Y-37875100D01*
X76490000Y-37875100D01*
X76490000Y-37371100D01*
X76990000Y-37371100D01*
X76990000Y-37875100D01*
X77290100Y-37875100D01*
X77290100Y-37371100D01*
X77238271Y-37371100D01*
X77178723Y-37377502D01*
X77165906Y-37382282D01*
X77115288Y-37382680D01*
X77114194Y-37382282D01*
X77101376Y-37377502D01*
X77041829Y-37371100D01*
X76990000Y-37371100D01*
X76490000Y-37371100D01*
X76438171Y-37371100D01*
X76378623Y-37377502D01*
X76365806Y-37382282D01*
X76315188Y-37382680D01*
X76314094Y-37382282D01*
X76301276Y-37377502D01*
X76241729Y-37371100D01*
X76189900Y-37371100D01*
X56949499Y-37371100D01*
X56949499Y-37351029D01*
X56946715Y-37337027D01*
X56946570Y-37336296D01*
X56935408Y-37319592D01*
X56918704Y-37308430D01*
X56918701Y-37308429D01*
X56918704Y-37308429D01*
X56906416Y-37305985D01*
X56903973Y-37305500D01*
X56903972Y-37305500D01*
X55526029Y-37305500D01*
X55511295Y-37308430D01*
X55494592Y-37319591D01*
X55483429Y-37336296D01*
X55480499Y-37351027D01*
X55480500Y-37630794D01*
X55463187Y-37678360D01*
X55419350Y-37703670D01*
X55369500Y-37694880D01*
X55336963Y-37656103D01*
X55335325Y-37651045D01*
X55323778Y-37610462D01*
X55323776Y-37610458D01*
X55225968Y-37414032D01*
X55225966Y-37414030D01*
X55212437Y-37396114D01*
X54726303Y-37882248D01*
X54680426Y-37903640D01*
X54631532Y-37890539D01*
X54605092Y-37856957D01*
X54603873Y-37853850D01*
X54591597Y-37822572D01*
X54510778Y-37721227D01*
X54470709Y-37693908D01*
X54403676Y-37648206D01*
X54398683Y-37645802D01*
X54399545Y-37644011D01*
X54365699Y-37618365D01*
X54354445Y-37569013D01*
X54375543Y-37525902D01*
X54826445Y-37075000D01*
X74385800Y-37075000D01*
X75893800Y-37075000D01*
X75893800Y-37023171D01*
X75887397Y-36963624D01*
X75887396Y-36963619D01*
X75874581Y-36929259D01*
X75874179Y-36878642D01*
X75906408Y-36839609D01*
X75943913Y-36829399D01*
X76198872Y-36829399D01*
X76213604Y-36826470D01*
X76230308Y-36815308D01*
X76241470Y-36798604D01*
X76244400Y-36783873D01*
X76244399Y-36265928D01*
X76241470Y-36251196D01*
X76230308Y-36234492D01*
X76213604Y-36223330D01*
X76213601Y-36223329D01*
X76213604Y-36223329D01*
X76201316Y-36220885D01*
X76198873Y-36220400D01*
X76198872Y-36220400D01*
X75680929Y-36220400D01*
X75666195Y-36223330D01*
X75649492Y-36234491D01*
X75638329Y-36251196D01*
X75635400Y-36265927D01*
X75635400Y-36520884D01*
X75618087Y-36568450D01*
X75574250Y-36593760D01*
X75535541Y-36590219D01*
X75496840Y-36575785D01*
X75497221Y-36574762D01*
X75458969Y-36549636D01*
X75444299Y-36505410D01*
X75444299Y-36265929D01*
X75443861Y-36263726D01*
X75441370Y-36251196D01*
X75430208Y-36234492D01*
X75413504Y-36223330D01*
X75413501Y-36223329D01*
X75413504Y-36223329D01*
X75401216Y-36220885D01*
X75398773Y-36220400D01*
X75398772Y-36220400D01*
X74880829Y-36220400D01*
X74866095Y-36223330D01*
X74849392Y-36234491D01*
X74838229Y-36251196D01*
X74835300Y-36265927D01*
X74835300Y-36505410D01*
X74817987Y-36552976D01*
X74782429Y-36574895D01*
X74782761Y-36575784D01*
X74643712Y-36627645D01*
X74643711Y-36627646D01*
X74528611Y-36713811D01*
X74442446Y-36828911D01*
X74442445Y-36828912D01*
X74392203Y-36963619D01*
X74392202Y-36963624D01*
X74385800Y-37023171D01*
X74385800Y-37075000D01*
X54826445Y-37075000D01*
X54856705Y-37044740D01*
X54745019Y-36975589D01*
X54745009Y-36975584D01*
X54540408Y-36896321D01*
X54324717Y-36856000D01*
X54105282Y-36856000D01*
X53889591Y-36896321D01*
X53684990Y-36975584D01*
X53684974Y-36975591D01*
X53573293Y-37044740D01*
X54057753Y-37529200D01*
X54079145Y-37575076D01*
X54066044Y-37623971D01*
X54037535Y-37648198D01*
X53970035Y-37680704D01*
X53875014Y-37768871D01*
X53819026Y-37865844D01*
X53780250Y-37898381D01*
X53729631Y-37898380D01*
X53702615Y-37881169D01*
X53217561Y-37396115D01*
X53204031Y-37414033D01*
X53204030Y-37414035D01*
X53106223Y-37610458D01*
X53106221Y-37610463D01*
X53046174Y-37821507D01*
X53046172Y-37821520D01*
X53025928Y-38039996D01*
X53025928Y-38040003D01*
X53046172Y-38258479D01*
X53046174Y-38258492D01*
X53106221Y-38469536D01*
X53106223Y-38469541D01*
X53204031Y-38665967D01*
X53204033Y-38665970D01*
X53217561Y-38683883D01*
X53703696Y-38197749D01*
X53749572Y-38176357D01*
X53798467Y-38189458D01*
X53824907Y-38223040D01*
X53834767Y-38248165D01*
X53838403Y-38257428D01*
X53911162Y-38348666D01*
X53919222Y-38358773D01*
X54026323Y-38431793D01*
X54031317Y-38434198D01*
X54030452Y-38435994D01*
X54064281Y-38461606D01*
X54075557Y-38510954D01*
X54054455Y-38554096D01*
X53573293Y-39035258D01*
X53684980Y-39104410D01*
X53684990Y-39104415D01*
X53889591Y-39183678D01*
X54105282Y-39223999D01*
X54105286Y-39224000D01*
X54324714Y-39224000D01*
X54324717Y-39223999D01*
X54540408Y-39183678D01*
X54745009Y-39104415D01*
X54745019Y-39104410D01*
X54856704Y-39035257D01*
X54372246Y-38550799D01*
X54350854Y-38504923D01*
X54363955Y-38456028D01*
X54392465Y-38431801D01*
X54459964Y-38399296D01*
X54554985Y-38311129D01*
X54610973Y-38214154D01*
X54649747Y-38181619D01*
X54700366Y-38181619D01*
X54727383Y-38198830D01*
X55212437Y-38683883D01*
X55225970Y-38665963D01*
X55323776Y-38469541D01*
X55335324Y-38428954D01*
X55364992Y-38387940D01*
X55414082Y-38375592D01*
X55459624Y-38397688D01*
X55480309Y-38443888D01*
X55480500Y-38449203D01*
X55480500Y-38728970D01*
X55483430Y-38743704D01*
X55494592Y-38760408D01*
X55511296Y-38771570D01*
X55511295Y-38771570D01*
X55513739Y-38772055D01*
X55526027Y-38774500D01*
X56423165Y-38774499D01*
X56470731Y-38791812D01*
X56475491Y-38796173D01*
X57181031Y-39501713D01*
X57190653Y-39513562D01*
X57198564Y-39525670D01*
X57225732Y-39546815D01*
X57229167Y-39549849D01*
X57232694Y-39553376D01*
X57250436Y-39566043D01*
X57258864Y-39572603D01*
X57285767Y-39615481D01*
X57278815Y-39665620D01*
X57241261Y-39699560D01*
X57213413Y-39705000D01*
X47914000Y-39705000D01*
X47866434Y-39687687D01*
X47841124Y-39643850D01*
X47840000Y-39631000D01*
X47840000Y-35384500D01*
X47857313Y-35336934D01*
X47901150Y-35311624D01*
X47914000Y-35310500D01*
X77273699Y-35310500D01*
X77321265Y-35327813D01*
G37*
%TD.AperFunction*%
%TA.AperFunction,Conductor*%
G36*
X105653566Y-35327813D02*
G01*
X105678876Y-35371650D01*
X105680000Y-35384500D01*
X105680000Y-39631000D01*
X105662687Y-39678566D01*
X105618850Y-39703876D01*
X105606000Y-39705000D01*
X102424000Y-39705000D01*
X102376434Y-39687687D01*
X102351124Y-39643850D01*
X102350000Y-39631000D01*
X102350000Y-39059460D01*
X102367313Y-39011894D01*
X102411150Y-38986584D01*
X102416752Y-38985816D01*
X102419967Y-38985499D01*
X102419972Y-38985499D01*
X102434704Y-38982570D01*
X102451408Y-38971408D01*
X102462570Y-38954704D01*
X102465500Y-38939973D01*
X102465499Y-36030028D01*
X102462570Y-36015296D01*
X102451408Y-35998592D01*
X102434704Y-35987430D01*
X102434703Y-35987429D01*
X102419973Y-35984500D01*
X102416737Y-35984181D01*
X102371100Y-35962283D01*
X102350215Y-35916173D01*
X102350000Y-35910538D01*
X102350000Y-35384500D01*
X102367313Y-35336934D01*
X102411150Y-35311624D01*
X102424000Y-35310500D01*
X105606000Y-35310500D01*
X105653566Y-35327813D01*
G37*
%TD.AperFunction*%
%TA.AperFunction,Conductor*%
G36*
X81783566Y-37432313D02*
G01*
X81808876Y-37476150D01*
X81810000Y-37489000D01*
X81810000Y-37841000D01*
X81792687Y-37888566D01*
X81748850Y-37913876D01*
X81736000Y-37915000D01*
X79894000Y-37915000D01*
X79846434Y-37897687D01*
X79821124Y-37853850D01*
X79820000Y-37841000D01*
X79820000Y-37489000D01*
X79837313Y-37441434D01*
X79881150Y-37416124D01*
X79894000Y-37415000D01*
X81736000Y-37415000D01*
X81783566Y-37432313D01*
G37*
%TD.AperFunction*%
%TD*%
M02*
